<?xml version="1.0" encoding="utf-8" standalone="no"?>
<!DOCTYPE svg PUBLIC "-//W3C//DTD SVG 1.1//EN"
  "http://www.w3.org/Graphics/SVG/1.1/DTD/svg11.dtd">
<!-- Created with matplotlib (http://matplotlib.org/) -->
<svg height="432pt" version="1.1" viewBox="0 0 720 432" width="720pt" xmlns="http://www.w3.org/2000/svg" xmlns:xlink="http://www.w3.org/1999/xlink">
 <defs>
  <style type="text/css">
*{stroke-linecap:butt;stroke-linejoin:round;stroke-miterlimit:100000;}
  </style>
 </defs>
 <g id="figure_1">
  <g id="patch_1">
   <path d="M 0 432 
L 720 432 
L 720 0 
L 0 0 
z
" style="fill:#ffffff;"/>
  </g>
  <g id="axes_1">
   <g id="patch_2">
    <path d="M 34.817466 193.999844 
L 347.671233 193.999844 
L 347.671233 37.093437 
L 34.817466 37.093437 
z
" style="fill:#ffffff;"/>
   </g>
   <g id="matplotlib.axis_1">
    <g id="xtick_1">
     <g id="line2d_1">
      <path clip-path="url(#pbe829001b6)" d="M 73.924187 193.999844 
L 73.924187 37.093437 
" style="fill:none;stroke:#cccccc;stroke-linecap:round;"/>
     </g>
     <g id="line2d_2">
      <defs>
       <path d="M 0 0 
L 0 0 
" id="m3de125207f" style="stroke:#262626;"/>
      </defs>
      <g>
       <use style="fill:#262626;stroke:#262626;" x="73.9241871643" xlink:href="#m3de125207f" y="193.99984375"/>
      </g>
     </g>
     <g id="line2d_3">
      <g>
       <use style="fill:#262626;stroke:#262626;" x="73.9241871643" xlink:href="#m3de125207f" y="37.0934375"/>
      </g>
     </g>
     <g id="text_1">
      <!-- 1 -->
      <defs>
       <path d="M 37.25 0 
L 28.46875 0 
L 28.46875 56 
Q 25.296875 52.984375 20.140625 49.953125 
Q 14.984375 46.921875 10.890625 45.40625 
L 10.890625 53.90625 
Q 18.265625 57.375 23.78125 62.296875 
Q 29.296875 67.234375 31.59375 71.875 
L 37.25 71.875 
z
" id="ArialMT-31"/>
      </defs>
      <g style="fill:#262626;" transform="translate(71.1437184143 208.15765625)scale(0.1 -0.1)">
       <use xlink:href="#ArialMT-31"/>
      </g>
     </g>
    </g>
    <g id="xtick_2">
     <g id="line2d_4">
      <path clip-path="url(#pbe829001b6)" d="M 152.137629 193.999844 
L 152.137629 37.093437 
" style="fill:none;stroke:#cccccc;stroke-linecap:round;"/>
     </g>
     <g id="line2d_5">
      <g>
       <use style="fill:#262626;stroke:#262626;" x="152.137628876" xlink:href="#m3de125207f" y="193.99984375"/>
      </g>
     </g>
     <g id="line2d_6">
      <g>
       <use style="fill:#262626;stroke:#262626;" x="152.137628876" xlink:href="#m3de125207f" y="37.0934375"/>
      </g>
     </g>
     <g id="text_2">
      <!-- 2 -->
      <defs>
       <path d="M 50.34375 8.453125 
L 50.34375 0 
L 3.03125 0 
Q 2.9375 3.171875 4.046875 6.109375 
Q 5.859375 10.9375 9.828125 15.625 
Q 13.8125 20.3125 21.34375 26.46875 
Q 33.015625 36.03125 37.109375 41.625 
Q 41.21875 47.21875 41.21875 52.203125 
Q 41.21875 57.421875 37.46875 61 
Q 33.734375 64.59375 27.734375 64.59375 
Q 21.390625 64.59375 17.578125 60.78125 
Q 13.765625 56.984375 13.71875 50.25 
L 4.6875 51.171875 
Q 5.609375 61.28125 11.65625 66.578125 
Q 17.71875 71.875 27.9375 71.875 
Q 38.234375 71.875 44.234375 66.15625 
Q 50.25 60.453125 50.25 52 
Q 50.25 47.703125 48.484375 43.546875 
Q 46.734375 39.40625 42.65625 34.8125 
Q 38.578125 30.21875 29.109375 22.21875 
Q 21.1875 15.578125 18.9375 13.203125 
Q 16.703125 10.84375 15.234375 8.453125 
z
" id="ArialMT-32"/>
      </defs>
      <g style="fill:#262626;" transform="translate(149.357160126 208.15765625)scale(0.1 -0.1)">
       <use xlink:href="#ArialMT-32"/>
      </g>
     </g>
    </g>
    <g id="xtick_3">
     <g id="line2d_7">
      <path clip-path="url(#pbe829001b6)" d="M 230.351071 193.999844 
L 230.351071 37.093437 
" style="fill:none;stroke:#cccccc;stroke-linecap:round;"/>
     </g>
     <g id="line2d_8">
      <g>
       <use style="fill:#262626;stroke:#262626;" x="230.351070587" xlink:href="#m3de125207f" y="193.99984375"/>
      </g>
     </g>
     <g id="line2d_9">
      <g>
       <use style="fill:#262626;stroke:#262626;" x="230.351070587" xlink:href="#m3de125207f" y="37.0934375"/>
      </g>
     </g>
     <g id="text_3">
      <!-- 3 -->
      <defs>
       <path d="M 4.203125 18.890625 
L 12.984375 20.0625 
Q 14.5 12.59375 18.140625 9.296875 
Q 21.78125 6 27 6 
Q 33.203125 6 37.46875 10.296875 
Q 41.75 14.59375 41.75 20.953125 
Q 41.75 27 37.796875 30.921875 
Q 33.84375 34.859375 27.734375 34.859375 
Q 25.25 34.859375 21.53125 33.890625 
L 22.515625 41.609375 
Q 23.390625 41.5 23.921875 41.5 
Q 29.546875 41.5 34.03125 44.421875 
Q 38.53125 47.359375 38.53125 53.46875 
Q 38.53125 58.296875 35.25 61.46875 
Q 31.984375 64.65625 26.8125 64.65625 
Q 21.6875 64.65625 18.265625 61.421875 
Q 14.84375 58.203125 13.875 51.765625 
L 5.078125 53.328125 
Q 6.6875 62.15625 12.390625 67.015625 
Q 18.109375 71.875 26.609375 71.875 
Q 32.46875 71.875 37.390625 69.359375 
Q 42.328125 66.84375 44.9375 62.5 
Q 47.5625 58.15625 47.5625 53.265625 
Q 47.5625 48.640625 45.0625 44.828125 
Q 42.578125 41.015625 37.703125 38.765625 
Q 44.046875 37.3125 47.5625 32.6875 
Q 51.078125 28.078125 51.078125 21.140625 
Q 51.078125 11.765625 44.234375 5.25 
Q 37.40625 -1.265625 26.953125 -1.265625 
Q 17.53125 -1.265625 11.296875 4.34375 
Q 5.078125 9.96875 4.203125 18.890625 
" id="ArialMT-33"/>
      </defs>
      <g style="fill:#262626;" transform="translate(227.570601837 208.15765625)scale(0.1 -0.1)">
       <use xlink:href="#ArialMT-33"/>
      </g>
     </g>
    </g>
    <g id="xtick_4">
     <g id="line2d_10">
      <path clip-path="url(#pbe829001b6)" d="M 308.564512 193.999844 
L 308.564512 37.093437 
" style="fill:none;stroke:#cccccc;stroke-linecap:round;"/>
     </g>
     <g id="line2d_11">
      <g>
       <use style="fill:#262626;stroke:#262626;" x="308.564512299" xlink:href="#m3de125207f" y="193.99984375"/>
      </g>
     </g>
     <g id="line2d_12">
      <g>
       <use style="fill:#262626;stroke:#262626;" x="308.564512299" xlink:href="#m3de125207f" y="37.0934375"/>
      </g>
     </g>
     <g id="text_4">
      <!-- 4 -->
      <defs>
       <path d="M 32.328125 0 
L 32.328125 17.140625 
L 1.265625 17.140625 
L 1.265625 25.203125 
L 33.9375 71.578125 
L 41.109375 71.578125 
L 41.109375 25.203125 
L 50.78125 25.203125 
L 50.78125 17.140625 
L 41.109375 17.140625 
L 41.109375 0 
z
M 32.328125 25.203125 
L 32.328125 57.46875 
L 9.90625 25.203125 
z
" id="ArialMT-34"/>
      </defs>
      <g style="fill:#262626;" transform="translate(305.784043549 208.15765625)scale(0.1 -0.1)">
       <use xlink:href="#ArialMT-34"/>
      </g>
     </g>
    </g>
   </g>
   <g id="matplotlib.axis_2">
    <g id="ytick_1">
     <g id="line2d_13">
      <path clip-path="url(#pbe829001b6)" d="M 34.817466 193.999844 
L 347.671233 193.999844 
" style="fill:none;stroke:#cccccc;stroke-linecap:round;"/>
     </g>
     <g id="line2d_14">
      <g>
       <use style="fill:#262626;stroke:#262626;" x="34.8174663086" xlink:href="#m3de125207f" y="193.99984375"/>
      </g>
     </g>
     <g id="line2d_15">
      <g>
       <use style="fill:#262626;stroke:#262626;" x="347.671233154" xlink:href="#m3de125207f" y="193.99984375"/>
      </g>
     </g>
     <g id="text_5">
      <!-- $\mathdefault{10^{1}}$ -->
      <defs>
       <path d="M 4.15625 35.296875 
Q 4.15625 48 6.765625 55.734375 
Q 9.375 63.484375 14.515625 67.671875 
Q 19.671875 71.875 27.484375 71.875 
Q 33.25 71.875 37.59375 69.546875 
Q 41.9375 67.234375 44.765625 62.859375 
Q 47.609375 58.5 49.21875 52.21875 
Q 50.828125 45.953125 50.828125 35.296875 
Q 50.828125 22.703125 48.234375 14.96875 
Q 45.65625 7.234375 40.5 3 
Q 35.359375 -1.21875 27.484375 -1.21875 
Q 17.140625 -1.21875 11.234375 6.203125 
Q 4.15625 15.140625 4.15625 35.296875 
M 13.1875 35.296875 
Q 13.1875 17.671875 17.3125 11.828125 
Q 21.4375 6 27.484375 6 
Q 33.546875 6 37.671875 11.859375 
Q 41.796875 17.71875 41.796875 35.296875 
Q 41.796875 52.984375 37.671875 58.78125 
Q 33.546875 64.59375 27.390625 64.59375 
Q 21.34375 64.59375 17.71875 59.46875 
Q 13.1875 52.9375 13.1875 35.296875 
" id="ArialMT-30"/>
      </defs>
      <g style="fill:#262626;" transform="translate(11.5174663086 196.91234375)scale(0.1 -0.1)">
       <use transform="translate(0.0 0.8843750000000057)" xlink:href="#ArialMT-31"/>
       <use transform="translate(55.615234375 0.8843750000000057)" xlink:href="#ArialMT-30"/>
       <use transform="translate(116.4575 45.68750000000001)scale(0.7)" xlink:href="#ArialMT-31"/>
      </g>
     </g>
    </g>
    <g id="ytick_2">
     <g id="line2d_16">
      <path clip-path="url(#pbe829001b6)" d="M 34.817466 115.546641 
L 347.671233 115.546641 
" style="fill:none;stroke:#cccccc;stroke-linecap:round;"/>
     </g>
     <g id="line2d_17">
      <g>
       <use style="fill:#262626;stroke:#262626;" x="34.8174663086" xlink:href="#m3de125207f" y="115.546640625"/>
      </g>
     </g>
     <g id="line2d_18">
      <g>
       <use style="fill:#262626;stroke:#262626;" x="347.671233154" xlink:href="#m3de125207f" y="115.546640625"/>
      </g>
     </g>
     <g id="text_6">
      <!-- $\mathdefault{10^{2}}$ -->
      <g style="fill:#262626;" transform="translate(11.5174663086 118.459140625)scale(0.1 -0.1)">
       <use transform="translate(0.0 0.8843750000000057)" xlink:href="#ArialMT-31"/>
       <use transform="translate(55.615234375 0.8843750000000057)" xlink:href="#ArialMT-30"/>
       <use transform="translate(116.4575 45.68750000000001)scale(0.7)" xlink:href="#ArialMT-32"/>
      </g>
     </g>
    </g>
    <g id="ytick_3">
     <g id="line2d_19">
      <path clip-path="url(#pbe829001b6)" d="M 34.817466 37.093437 
L 347.671233 37.093437 
" style="fill:none;stroke:#cccccc;stroke-linecap:round;"/>
     </g>
     <g id="line2d_20">
      <g>
       <use style="fill:#262626;stroke:#262626;" x="34.8174663086" xlink:href="#m3de125207f" y="37.0934375"/>
      </g>
     </g>
     <g id="line2d_21">
      <g>
       <use style="fill:#262626;stroke:#262626;" x="347.671233154" xlink:href="#m3de125207f" y="37.0934375"/>
      </g>
     </g>
     <g id="text_7">
      <!-- $\mathdefault{10^{3}}$ -->
      <g style="fill:#262626;" transform="translate(11.5174663086 40.0059375)scale(0.1 -0.1)">
       <use transform="translate(0.0 0.8843750000000057)" xlink:href="#ArialMT-31"/>
       <use transform="translate(55.615234375 0.8843750000000057)" xlink:href="#ArialMT-30"/>
       <use transform="translate(116.4575 45.68750000000001)scale(0.7)" xlink:href="#ArialMT-33"/>
      </g>
     </g>
    </g>
    <g id="ytick_4">
     <g id="line2d_22">
      <defs>
       <path d="M 0 0 
L 0 0 
" id="mbc6a79bdd4" style="stroke:#262626;stroke-width:0.5;"/>
      </defs>
      <g>
       <use style="fill:#262626;stroke:#262626;stroke-width:0.5;" x="34.8174663086" xlink:href="#mbc6a79bdd4" y="170.383076353"/>
      </g>
     </g>
     <g id="line2d_23">
      <g>
       <use style="fill:#262626;stroke:#262626;stroke-width:0.5;" x="347.671233154" xlink:href="#mbc6a79bdd4" y="170.383076353"/>
      </g>
     </g>
    </g>
    <g id="ytick_5">
     <g id="line2d_24">
      <g>
       <use style="fill:#262626;stroke:#262626;stroke-width:0.5;" x="34.8174663086" xlink:href="#mbc6a79bdd4" y="156.568153038"/>
      </g>
     </g>
     <g id="line2d_25">
      <g>
       <use style="fill:#262626;stroke:#262626;stroke-width:0.5;" x="347.671233154" xlink:href="#mbc6a79bdd4" y="156.568153038"/>
      </g>
     </g>
    </g>
    <g id="ytick_6">
     <g id="line2d_26">
      <g>
       <use style="fill:#262626;stroke:#262626;stroke-width:0.5;" x="34.8174663086" xlink:href="#mbc6a79bdd4" y="146.766308957"/>
      </g>
     </g>
     <g id="line2d_27">
      <g>
       <use style="fill:#262626;stroke:#262626;stroke-width:0.5;" x="347.671233154" xlink:href="#mbc6a79bdd4" y="146.766308957"/>
      </g>
     </g>
    </g>
    <g id="ytick_7">
     <g id="line2d_28">
      <g>
       <use style="fill:#262626;stroke:#262626;stroke-width:0.5;" x="34.8174663086" xlink:href="#mbc6a79bdd4" y="139.163408022"/>
      </g>
     </g>
     <g id="line2d_29">
      <g>
       <use style="fill:#262626;stroke:#262626;stroke-width:0.5;" x="347.671233154" xlink:href="#mbc6a79bdd4" y="139.163408022"/>
      </g>
     </g>
    </g>
    <g id="ytick_8">
     <g id="line2d_30">
      <g>
       <use style="fill:#262626;stroke:#262626;stroke-width:0.5;" x="34.8174663086" xlink:href="#mbc6a79bdd4" y="132.951385642"/>
      </g>
     </g>
     <g id="line2d_31">
      <g>
       <use style="fill:#262626;stroke:#262626;stroke-width:0.5;" x="347.671233154" xlink:href="#mbc6a79bdd4" y="132.951385642"/>
      </g>
     </g>
    </g>
    <g id="ytick_9">
     <g id="line2d_32">
      <g>
       <use style="fill:#262626;stroke:#262626;stroke-width:0.5;" x="34.8174663086" xlink:href="#mbc6a79bdd4" y="127.699195556"/>
      </g>
     </g>
     <g id="line2d_33">
      <g>
       <use style="fill:#262626;stroke:#262626;stroke-width:0.5;" x="347.671233154" xlink:href="#mbc6a79bdd4" y="127.699195556"/>
      </g>
     </g>
    </g>
    <g id="ytick_10">
     <g id="line2d_34">
      <g>
       <use style="fill:#262626;stroke:#262626;stroke-width:0.5;" x="34.8174663086" xlink:href="#mbc6a79bdd4" y="123.14954156"/>
      </g>
     </g>
     <g id="line2d_35">
      <g>
       <use style="fill:#262626;stroke:#262626;stroke-width:0.5;" x="347.671233154" xlink:href="#mbc6a79bdd4" y="123.14954156"/>
      </g>
     </g>
    </g>
    <g id="ytick_11">
     <g id="line2d_36">
      <g>
       <use style="fill:#262626;stroke:#262626;stroke-width:0.5;" x="34.8174663086" xlink:href="#mbc6a79bdd4" y="119.136462326"/>
      </g>
     </g>
     <g id="line2d_37">
      <g>
       <use style="fill:#262626;stroke:#262626;stroke-width:0.5;" x="347.671233154" xlink:href="#mbc6a79bdd4" y="119.136462326"/>
      </g>
     </g>
    </g>
    <g id="ytick_12">
     <g id="line2d_38">
      <g>
       <use style="fill:#262626;stroke:#262626;stroke-width:0.5;" x="34.8174663086" xlink:href="#mbc6a79bdd4" y="91.9298732285"/>
      </g>
     </g>
     <g id="line2d_39">
      <g>
       <use style="fill:#262626;stroke:#262626;stroke-width:0.5;" x="347.671233154" xlink:href="#mbc6a79bdd4" y="91.9298732285"/>
      </g>
     </g>
    </g>
    <g id="ytick_13">
     <g id="line2d_40">
      <g>
       <use style="fill:#262626;stroke:#262626;stroke-width:0.5;" x="34.8174663086" xlink:href="#mbc6a79bdd4" y="78.1149499132"/>
      </g>
     </g>
     <g id="line2d_41">
      <g>
       <use style="fill:#262626;stroke:#262626;stroke-width:0.5;" x="347.671233154" xlink:href="#mbc6a79bdd4" y="78.1149499132"/>
      </g>
     </g>
    </g>
    <g id="ytick_14">
     <g id="line2d_42">
      <g>
       <use style="fill:#262626;stroke:#262626;stroke-width:0.5;" x="34.8174663086" xlink:href="#mbc6a79bdd4" y="68.3131058319"/>
      </g>
     </g>
     <g id="line2d_43">
      <g>
       <use style="fill:#262626;stroke:#262626;stroke-width:0.5;" x="347.671233154" xlink:href="#mbc6a79bdd4" y="68.3131058319"/>
      </g>
     </g>
    </g>
    <g id="ytick_15">
     <g id="line2d_44">
      <g>
       <use style="fill:#262626;stroke:#262626;stroke-width:0.5;" x="34.8174663086" xlink:href="#mbc6a79bdd4" y="60.7102048965"/>
      </g>
     </g>
     <g id="line2d_45">
      <g>
       <use style="fill:#262626;stroke:#262626;stroke-width:0.5;" x="347.671233154" xlink:href="#mbc6a79bdd4" y="60.7102048965"/>
      </g>
     </g>
    </g>
    <g id="ytick_16">
     <g id="line2d_46">
      <g>
       <use style="fill:#262626;stroke:#262626;stroke-width:0.5;" x="34.8174663086" xlink:href="#mbc6a79bdd4" y="54.4981825167"/>
      </g>
     </g>
     <g id="line2d_47">
      <g>
       <use style="fill:#262626;stroke:#262626;stroke-width:0.5;" x="347.671233154" xlink:href="#mbc6a79bdd4" y="54.4981825167"/>
      </g>
     </g>
    </g>
    <g id="ytick_17">
     <g id="line2d_48">
      <g>
       <use style="fill:#262626;stroke:#262626;stroke-width:0.5;" x="34.8174663086" xlink:href="#mbc6a79bdd4" y="49.2459924312"/>
      </g>
     </g>
     <g id="line2d_49">
      <g>
       <use style="fill:#262626;stroke:#262626;stroke-width:0.5;" x="347.671233154" xlink:href="#mbc6a79bdd4" y="49.2459924312"/>
      </g>
     </g>
    </g>
    <g id="ytick_18">
     <g id="line2d_50">
      <g>
       <use style="fill:#262626;stroke:#262626;stroke-width:0.5;" x="34.8174663086" xlink:href="#mbc6a79bdd4" y="44.6963384354"/>
      </g>
     </g>
     <g id="line2d_51">
      <g>
       <use style="fill:#262626;stroke:#262626;stroke-width:0.5;" x="347.671233154" xlink:href="#mbc6a79bdd4" y="44.6963384354"/>
      </g>
     </g>
    </g>
    <g id="ytick_19">
     <g id="line2d_52">
      <g>
       <use style="fill:#262626;stroke:#262626;stroke-width:0.5;" x="34.8174663086" xlink:href="#mbc6a79bdd4" y="40.6832592014"/>
      </g>
     </g>
     <g id="line2d_53">
      <g>
       <use style="fill:#262626;stroke:#262626;stroke-width:0.5;" x="347.671233154" xlink:href="#mbc6a79bdd4" y="40.6832592014"/>
      </g>
     </g>
    </g>
   </g>
   <g id="patch_3">
    <path clip-path="url(#pbe829001b6)" d="M 191.24435 23886.867188 
L 253.815103 23886.867188 
L 253.815103 126.739363 
L 191.24435 126.739363 
z
" style="fill:#4c72b0;stroke:#000000;stroke-linejoin:miter;stroke-width:0.3;"/>
   </g>
   <g id="patch_4">
    <path clip-path="url(#pbe829001b6)" d="M 269.457791 23886.867188 
L 332.028545 23886.867188 
L 332.028545 126.2694 
L 269.457791 126.2694 
z
" style="fill:#4c72b0;stroke:#000000;stroke-linejoin:miter;stroke-width:0.3;"/>
   </g>
   <g id="patch_5">
    <path clip-path="url(#pbe829001b6)" d="M 113.030908 23886.867188 
L 175.601661 23886.867188 
L 175.601661 124.897196 
L 113.030908 124.897196 
z
" style="fill:#4c72b0;stroke:#000000;stroke-linejoin:miter;stroke-width:0.3;"/>
   </g>
   <g id="patch_6">
    <path clip-path="url(#pbe829001b6)" d="M 34.817466 23886.867188 
L 97.38822 23886.867188 
L 97.38822 45.602671 
L 34.817466 45.602671 
z
" style="fill:#4c72b0;stroke:#000000;stroke-linejoin:miter;stroke-width:0.3;"/>
   </g>
   <g id="patch_7">
    <path d="M 34.817466 193.999844 
L 34.817466 37.093437 
" style="fill:none;stroke:#cccccc;stroke-linecap:square;stroke-linejoin:miter;"/>
   </g>
   <g id="patch_8">
    <path d="M 34.817466 37.093437 
L 347.671233 37.093437 
" style="fill:none;stroke:#cccccc;stroke-linecap:square;stroke-linejoin:miter;"/>
   </g>
   <g id="patch_9">
    <path d="M 347.671233 193.999844 
L 347.671233 37.093437 
" style="fill:none;stroke:#cccccc;stroke-linecap:square;stroke-linejoin:miter;"/>
   </g>
   <g id="patch_10">
    <path d="M 34.817466 193.999844 
L 347.671233 193.999844 
" style="fill:none;stroke:#cccccc;stroke-linecap:square;stroke-linejoin:miter;"/>
   </g>
   <g id="text_8">
    <!-- number of orders per an address  -->
    <defs>
     <path d="M 40.234375 0 
L 40.234375 6.546875 
Q 35.296875 -1.171875 25.734375 -1.171875 
Q 19.53125 -1.171875 14.328125 2.25 
Q 9.125 5.671875 6.265625 11.796875 
Q 3.421875 17.921875 3.421875 25.875 
Q 3.421875 33.640625 6 39.96875 
Q 8.59375 46.296875 13.765625 49.65625 
Q 18.953125 53.03125 25.34375 53.03125 
Q 30.03125 53.03125 33.6875 51.046875 
Q 37.359375 49.078125 39.65625 45.90625 
L 39.65625 71.578125 
L 48.390625 71.578125 
L 48.390625 0 
z
M 12.453125 25.875 
Q 12.453125 15.921875 16.640625 10.984375 
Q 20.84375 6.0625 26.5625 6.0625 
Q 32.328125 6.0625 36.34375 10.765625 
Q 40.375 15.484375 40.375 25.140625 
Q 40.375 35.796875 36.265625 40.765625 
Q 32.171875 45.75 26.171875 45.75 
Q 20.3125 45.75 16.375 40.96875 
Q 12.453125 36.1875 12.453125 25.875 
" id="ArialMT-64"/>
     <path d="M 3.078125 15.484375 
L 11.765625 16.84375 
Q 12.5 11.625 15.84375 8.84375 
Q 19.1875 6.0625 25.203125 6.0625 
Q 31.25 6.0625 34.171875 8.515625 
Q 37.109375 10.984375 37.109375 14.3125 
Q 37.109375 17.28125 34.515625 19 
Q 32.71875 20.171875 25.53125 21.96875 
Q 15.875 24.421875 12.140625 26.203125 
Q 8.40625 27.984375 6.46875 31.125 
Q 4.546875 34.28125 4.546875 38.09375 
Q 4.546875 41.546875 6.125 44.5 
Q 7.71875 47.46875 10.453125 49.421875 
Q 12.5 50.921875 16.03125 51.96875 
Q 19.578125 53.03125 23.640625 53.03125 
Q 29.734375 53.03125 34.34375 51.265625 
Q 38.96875 49.515625 41.15625 46.5 
Q 43.359375 43.5 44.1875 38.484375 
L 35.59375 37.3125 
Q 35.015625 41.3125 32.203125 43.546875 
Q 29.390625 45.796875 24.265625 45.796875 
Q 18.21875 45.796875 15.625 43.796875 
Q 13.03125 41.796875 13.03125 39.109375 
Q 13.03125 37.40625 14.109375 36.03125 
Q 15.1875 34.625 17.484375 33.6875 
Q 18.796875 33.203125 25.25 31.453125 
Q 34.578125 28.953125 38.25 27.359375 
Q 41.9375 25.78125 44.03125 22.75 
Q 46.140625 19.734375 46.140625 15.234375 
Q 46.140625 10.84375 43.578125 6.953125 
Q 41.015625 3.078125 36.171875 0.953125 
Q 31.34375 -1.171875 25.25 -1.171875 
Q 15.140625 -1.171875 9.84375 3.03125 
Q 4.546875 7.234375 3.078125 15.484375 
" id="ArialMT-73"/>
     <path d="M 6.59375 0 
L 6.59375 51.859375 
L 14.5 51.859375 
L 14.5 44.484375 
Q 20.21875 53.03125 31 53.03125 
Q 35.6875 53.03125 39.625 51.34375 
Q 43.5625 49.65625 45.515625 46.921875 
Q 47.46875 44.1875 48.25 40.4375 
Q 48.734375 37.984375 48.734375 31.890625 
L 48.734375 0 
L 39.9375 0 
L 39.9375 31.546875 
Q 39.9375 36.921875 38.90625 39.578125 
Q 37.890625 42.234375 35.28125 43.8125 
Q 32.671875 45.40625 29.15625 45.40625 
Q 23.53125 45.40625 19.453125 41.84375 
Q 15.375 38.28125 15.375 28.328125 
L 15.375 0 
z
" id="ArialMT-6e"/>
     <path d="M 8.6875 0 
L 8.6875 45.015625 
L 0.921875 45.015625 
L 0.921875 51.859375 
L 8.6875 51.859375 
L 8.6875 57.375 
Q 8.6875 62.59375 9.625 65.140625 
Q 10.890625 68.5625 14.078125 70.671875 
Q 17.28125 72.796875 23.046875 72.796875 
Q 26.765625 72.796875 31.25 71.921875 
L 29.9375 64.265625 
Q 27.203125 64.75 24.75 64.75 
Q 20.75 64.75 19.09375 63.03125 
Q 17.4375 61.328125 17.4375 56.640625 
L 17.4375 51.859375 
L 27.546875 51.859375 
L 27.546875 45.015625 
L 17.4375 45.015625 
L 17.4375 0 
z
" id="ArialMT-66"/>
     <path d="M 6.59375 0 
L 6.59375 51.859375 
L 14.453125 51.859375 
L 14.453125 44.578125 
Q 16.890625 48.390625 20.9375 50.703125 
Q 25 53.03125 30.171875 53.03125 
Q 35.9375 53.03125 39.625 50.640625 
Q 43.3125 48.25 44.828125 43.953125 
Q 50.984375 53.03125 60.84375 53.03125 
Q 68.5625 53.03125 72.703125 48.75 
Q 76.859375 44.484375 76.859375 35.59375 
L 76.859375 0 
L 68.109375 0 
L 68.109375 32.671875 
Q 68.109375 37.9375 67.25 40.25 
Q 66.40625 42.578125 64.15625 43.984375 
Q 61.921875 45.40625 58.890625 45.40625 
Q 53.421875 45.40625 49.796875 41.765625 
Q 46.1875 38.140625 46.1875 30.125 
L 46.1875 0 
L 37.40625 0 
L 37.40625 33.6875 
Q 37.40625 39.546875 35.25 42.46875 
Q 33.109375 45.40625 28.21875 45.40625 
Q 24.515625 45.40625 21.359375 43.453125 
Q 18.21875 41.5 16.796875 37.734375 
Q 15.375 33.984375 15.375 26.90625 
L 15.375 0 
z
" id="ArialMT-6d"/>
     <path d="M 40.578125 0 
L 40.578125 7.625 
Q 34.515625 -1.171875 24.125 -1.171875 
Q 19.53125 -1.171875 15.546875 0.578125 
Q 11.578125 2.34375 9.640625 5 
Q 7.71875 7.671875 6.9375 11.53125 
Q 6.390625 14.109375 6.390625 19.734375 
L 6.390625 51.859375 
L 15.1875 51.859375 
L 15.1875 23.09375 
Q 15.1875 16.21875 15.71875 13.8125 
Q 16.546875 10.359375 19.234375 8.375 
Q 21.921875 6.390625 25.875 6.390625 
Q 29.828125 6.390625 33.296875 8.421875 
Q 36.765625 10.453125 38.203125 13.9375 
Q 39.65625 17.4375 39.65625 24.078125 
L 39.65625 51.859375 
L 48.4375 51.859375 
L 48.4375 0 
z
" id="ArialMT-75"/>
     <path d="M 3.328125 25.921875 
Q 3.328125 40.328125 11.328125 47.265625 
Q 18.015625 53.03125 27.640625 53.03125 
Q 38.328125 53.03125 45.109375 46.015625 
Q 51.90625 39.015625 51.90625 26.65625 
Q 51.90625 16.65625 48.90625 10.90625 
Q 45.90625 5.171875 40.15625 2 
Q 34.421875 -1.171875 27.640625 -1.171875 
Q 16.75 -1.171875 10.03125 5.8125 
Q 3.328125 12.796875 3.328125 25.921875 
M 12.359375 25.921875 
Q 12.359375 15.96875 16.703125 11.015625 
Q 21.046875 6.0625 27.640625 6.0625 
Q 34.1875 6.0625 38.53125 11.03125 
Q 42.875 16.015625 42.875 26.21875 
Q 42.875 35.84375 38.5 40.796875 
Q 34.125 45.75 27.640625 45.75 
Q 21.046875 45.75 16.703125 40.8125 
Q 12.359375 35.890625 12.359375 25.921875 
" id="ArialMT-6f"/>
     <path d="M 40.4375 6.390625 
Q 35.546875 2.25 31.03125 0.53125 
Q 26.515625 -1.171875 21.34375 -1.171875 
Q 12.796875 -1.171875 8.203125 3 
Q 3.609375 7.171875 3.609375 13.671875 
Q 3.609375 17.484375 5.34375 20.625 
Q 7.078125 23.78125 9.890625 25.6875 
Q 12.703125 27.59375 16.21875 28.5625 
Q 18.796875 29.25 24.03125 29.890625 
Q 34.671875 31.15625 39.703125 32.90625 
Q 39.75 34.71875 39.75 35.203125 
Q 39.75 40.578125 37.25 42.78125 
Q 33.890625 45.75 27.25 45.75 
Q 21.046875 45.75 18.09375 43.578125 
Q 15.140625 41.40625 13.71875 35.890625 
L 5.125 37.0625 
Q 6.296875 42.578125 8.984375 45.96875 
Q 11.671875 49.359375 16.75 51.1875 
Q 21.828125 53.03125 28.515625 53.03125 
Q 35.15625 53.03125 39.296875 51.46875 
Q 43.453125 49.90625 45.40625 47.53125 
Q 47.359375 45.171875 48.140625 41.546875 
Q 48.578125 39.3125 48.578125 33.453125 
L 48.578125 21.734375 
Q 48.578125 9.46875 49.140625 6.21875 
Q 49.703125 2.984375 51.375 0 
L 42.1875 0 
Q 40.828125 2.734375 40.4375 6.390625 
M 39.703125 26.03125 
Q 34.90625 24.078125 25.34375 22.703125 
Q 19.921875 21.921875 17.671875 20.9375 
Q 15.4375 19.96875 14.203125 18.09375 
Q 12.984375 16.21875 12.984375 13.921875 
Q 12.984375 10.40625 15.640625 8.0625 
Q 18.3125 5.71875 23.4375 5.71875 
Q 28.515625 5.71875 32.46875 7.9375 
Q 36.421875 10.15625 38.28125 14.015625 
Q 39.703125 17 39.703125 22.796875 
z
" id="ArialMT-61"/>
     <path d="M 6.5 0 
L 6.5 51.859375 
L 14.40625 51.859375 
L 14.40625 44 
Q 17.4375 49.515625 20 51.265625 
Q 22.5625 53.03125 25.640625 53.03125 
Q 30.078125 53.03125 34.671875 50.203125 
L 31.640625 42.046875 
Q 28.421875 43.953125 25.203125 43.953125 
Q 22.3125 43.953125 20.015625 42.21875 
Q 17.71875 40.484375 16.75 37.40625 
Q 15.28125 32.71875 15.28125 27.15625 
L 15.28125 0 
z
" id="ArialMT-72"/>
     <path d="M 42.09375 16.703125 
L 51.171875 15.578125 
Q 49.03125 7.625 43.21875 3.21875 
Q 37.40625 -1.171875 28.375 -1.171875 
Q 17 -1.171875 10.328125 5.828125 
Q 3.65625 12.84375 3.65625 25.484375 
Q 3.65625 38.578125 10.390625 45.796875 
Q 17.140625 53.03125 27.875 53.03125 
Q 38.28125 53.03125 44.875 45.953125 
Q 51.46875 38.875 51.46875 26.03125 
Q 51.46875 25.25 51.421875 23.6875 
L 12.75 23.6875 
Q 13.234375 15.140625 17.578125 10.59375 
Q 21.921875 6.0625 28.421875 6.0625 
Q 33.25 6.0625 36.671875 8.59375 
Q 40.09375 11.140625 42.09375 16.703125 
M 13.234375 30.90625 
L 42.1875 30.90625 
Q 41.609375 37.453125 38.875 40.71875 
Q 34.671875 45.796875 27.984375 45.796875 
Q 21.921875 45.796875 17.796875 41.75 
Q 13.671875 37.703125 13.234375 30.90625 
" id="ArialMT-65"/>
     <path d="M 6.59375 -19.875 
L 6.59375 51.859375 
L 14.59375 51.859375 
L 14.59375 45.125 
Q 17.4375 49.078125 21 51.046875 
Q 24.5625 53.03125 29.640625 53.03125 
Q 36.28125 53.03125 41.359375 49.609375 
Q 46.4375 46.1875 49.015625 39.953125 
Q 51.609375 33.734375 51.609375 26.3125 
Q 51.609375 18.359375 48.75 11.984375 
Q 45.90625 5.609375 40.453125 2.21875 
Q 35.015625 -1.171875 29 -1.171875 
Q 24.609375 -1.171875 21.109375 0.6875 
Q 17.625 2.546875 15.375 5.375 
L 15.375 -19.875 
z
M 14.546875 25.640625 
Q 14.546875 15.625 18.59375 10.84375 
Q 22.65625 6.0625 28.421875 6.0625 
Q 34.28125 6.0625 38.453125 11.015625 
Q 42.625 15.96875 42.625 26.375 
Q 42.625 36.28125 38.546875 41.203125 
Q 34.46875 46.140625 28.8125 46.140625 
Q 23.1875 46.140625 18.859375 40.890625 
Q 14.546875 35.640625 14.546875 25.640625 
" id="ArialMT-70"/>
     <path id="ArialMT-20"/>
     <path d="M 14.703125 0 
L 6.546875 0 
L 6.546875 71.578125 
L 15.328125 71.578125 
L 15.328125 46.046875 
Q 20.90625 53.03125 29.546875 53.03125 
Q 34.328125 53.03125 38.59375 51.09375 
Q 42.875 49.171875 45.625 45.671875 
Q 48.390625 42.1875 49.953125 37.25 
Q 51.515625 32.328125 51.515625 26.703125 
Q 51.515625 13.375 44.921875 6.09375 
Q 38.328125 -1.171875 29.109375 -1.171875 
Q 19.921875 -1.171875 14.703125 6.5 
z
M 14.59375 26.3125 
Q 14.59375 17 17.140625 12.84375 
Q 21.296875 6.0625 28.375 6.0625 
Q 34.125 6.0625 38.328125 11.0625 
Q 42.53125 16.0625 42.53125 25.984375 
Q 42.53125 36.140625 38.5 40.96875 
Q 34.46875 45.796875 28.765625 45.796875 
Q 23 45.796875 18.796875 40.796875 
Q 14.59375 35.796875 14.59375 26.3125 
" id="ArialMT-62"/>
    </defs>
    <g style="fill:#262626;" transform="translate(102.204349731 19.0850625)scale(0.12 -0.12)">
     <use xlink:href="#ArialMT-6e"/>
     <use x="55.615234375" xlink:href="#ArialMT-75"/>
     <use x="111.23046875" xlink:href="#ArialMT-6d"/>
     <use x="194.53125" xlink:href="#ArialMT-62"/>
     <use x="250.146484375" xlink:href="#ArialMT-65"/>
     <use x="305.76171875" xlink:href="#ArialMT-72"/>
     <use x="339.0625" xlink:href="#ArialMT-20"/>
     <use x="366.845703125" xlink:href="#ArialMT-6f"/>
     <use x="422.4609375" xlink:href="#ArialMT-66"/>
     <use x="450.244140625" xlink:href="#ArialMT-20"/>
     <use x="478.02734375" xlink:href="#ArialMT-6f"/>
     <use x="533.642578125" xlink:href="#ArialMT-72"/>
     <use x="566.943359375" xlink:href="#ArialMT-64"/>
     <use x="622.55859375" xlink:href="#ArialMT-65"/>
     <use x="678.173828125" xlink:href="#ArialMT-72"/>
     <use x="711.474609375" xlink:href="#ArialMT-73"/>
     <use x="761.474609375" xlink:href="#ArialMT-20"/>
     <use x="789.2578125" xlink:href="#ArialMT-70"/>
     <use x="844.873046875" xlink:href="#ArialMT-65"/>
     <use x="900.48828125" xlink:href="#ArialMT-72"/>
     <use x="933.7890625" xlink:href="#ArialMT-20"/>
     <use x="961.572265625" xlink:href="#ArialMT-61"/>
     <use x="1017.1875" xlink:href="#ArialMT-6e"/>
     <use x="1072.802734375" xlink:href="#ArialMT-20"/>
     <use x="1100.5859375" xlink:href="#ArialMT-61"/>
     <use x="1156.201171875" xlink:href="#ArialMT-64"/>
     <use x="1211.81640625" xlink:href="#ArialMT-64"/>
     <use x="1267.431640625" xlink:href="#ArialMT-72"/>
     <use x="1300.732421875" xlink:href="#ArialMT-65"/>
     <use x="1356.34765625" xlink:href="#ArialMT-73"/>
     <use x="1406.34765625" xlink:href="#ArialMT-73"/>
     <use x="1456.34765625" xlink:href="#ArialMT-20"/>
    </g>
    <!--  (log scaled count) -->
    <defs>
     <path d="M 6.390625 0 
L 6.390625 71.578125 
L 15.1875 71.578125 
L 15.1875 0 
z
" id="ArialMT-6c"/>
     <path d="M 40.4375 19 
L 49.078125 17.875 
Q 47.65625 8.9375 41.8125 3.875 
Q 35.984375 -1.171875 27.484375 -1.171875 
Q 16.84375 -1.171875 10.375 5.78125 
Q 3.90625 12.75 3.90625 25.734375 
Q 3.90625 34.125 6.6875 40.421875 
Q 9.46875 46.734375 15.15625 49.875 
Q 20.84375 53.03125 27.546875 53.03125 
Q 35.984375 53.03125 41.359375 48.75 
Q 46.734375 44.484375 48.25 36.625 
L 39.703125 35.296875 
Q 38.484375 40.53125 35.375 43.15625 
Q 32.28125 45.796875 27.875 45.796875 
Q 21.234375 45.796875 17.078125 41.03125 
Q 12.9375 36.28125 12.9375 25.984375 
Q 12.9375 15.53125 16.9375 10.796875 
Q 20.953125 6.0625 27.390625 6.0625 
Q 32.5625 6.0625 36.03125 9.234375 
Q 39.5 12.40625 40.4375 19 
" id="ArialMT-63"/>
     <path d="M 12.359375 -21.046875 
L 6.0625 -21.046875 
Q 20.65625 2.390625 20.65625 25.875 
Q 20.65625 35.0625 18.5625 44.09375 
Q 16.890625 51.421875 13.921875 58.15625 
Q 12.015625 62.546875 6.0625 72.796875 
L 12.359375 72.796875 
Q 21.53125 60.546875 25.921875 48.1875 
Q 29.6875 37.546875 29.6875 25.921875 
Q 29.6875 12.75 24.625 0.4375 
Q 19.578125 -11.859375 12.359375 -21.046875 
" id="ArialMT-29"/>
     <path d="M 23.390625 -21.046875 
Q 16.109375 -11.859375 11.078125 0.4375 
Q 6.0625 12.75 6.0625 25.921875 
Q 6.0625 37.546875 9.8125 48.1875 
Q 14.203125 60.546875 23.390625 72.796875 
L 29.6875 72.796875 
Q 23.78125 62.640625 21.875 58.296875 
Q 18.890625 51.5625 17.1875 44.234375 
Q 15.09375 35.109375 15.09375 25.875 
Q 15.09375 2.390625 29.6875 -21.046875 
z
" id="ArialMT-28"/>
     <path d="M 4.984375 -4.296875 
L 13.53125 -5.5625 
Q 14.0625 -9.515625 16.5 -11.328125 
Q 19.78125 -13.765625 25.4375 -13.765625 
Q 31.546875 -13.765625 34.859375 -11.328125 
Q 38.1875 -8.890625 39.359375 -4.5 
Q 40.046875 -1.8125 39.984375 6.78125 
Q 34.234375 0 25.640625 0 
Q 14.9375 0 9.078125 7.71875 
Q 3.21875 15.4375 3.21875 26.21875 
Q 3.21875 33.640625 5.90625 39.90625 
Q 8.59375 46.1875 13.6875 49.609375 
Q 18.796875 53.03125 25.6875 53.03125 
Q 34.859375 53.03125 40.828125 45.609375 
L 40.828125 51.859375 
L 48.921875 51.859375 
L 48.921875 7.03125 
Q 48.921875 -5.078125 46.453125 -10.125 
Q 44 -15.1875 38.640625 -18.109375 
Q 33.296875 -21.046875 25.484375 -21.046875 
Q 16.21875 -21.046875 10.5 -16.875 
Q 4.78125 -12.703125 4.984375 -4.296875 
M 12.25 26.859375 
Q 12.25 16.65625 16.296875 11.96875 
Q 20.359375 7.28125 26.46875 7.28125 
Q 32.515625 7.28125 36.609375 11.9375 
Q 40.71875 16.609375 40.71875 26.5625 
Q 40.71875 36.078125 36.5 40.90625 
Q 32.28125 45.75 26.3125 45.75 
Q 20.453125 45.75 16.34375 40.984375 
Q 12.25 36.234375 12.25 26.859375 
" id="ArialMT-67"/>
     <path d="M 25.78125 7.859375 
L 27.046875 0.09375 
Q 23.34375 -0.6875 20.40625 -0.6875 
Q 15.625 -0.6875 12.984375 0.828125 
Q 10.359375 2.34375 9.28125 4.8125 
Q 8.203125 7.28125 8.203125 15.1875 
L 8.203125 45.015625 
L 1.765625 45.015625 
L 1.765625 51.859375 
L 8.203125 51.859375 
L 8.203125 64.703125 
L 16.9375 69.96875 
L 16.9375 51.859375 
L 25.78125 51.859375 
L 25.78125 45.015625 
L 16.9375 45.015625 
L 16.9375 14.703125 
Q 16.9375 10.9375 17.40625 9.859375 
Q 17.875 8.796875 18.921875 8.15625 
Q 19.96875 7.515625 21.921875 7.515625 
Q 23.390625 7.515625 25.78125 7.859375 
" id="ArialMT-74"/>
    </defs>
    <g style="fill:#262626;" transform="translate(142.222474731 31.9528125)scale(0.12 -0.12)">
     <use xlink:href="#ArialMT-20"/>
     <use x="27.783203125" xlink:href="#ArialMT-28"/>
     <use x="61.083984375" xlink:href="#ArialMT-6c"/>
     <use x="83.30078125" xlink:href="#ArialMT-6f"/>
     <use x="138.916015625" xlink:href="#ArialMT-67"/>
     <use x="194.53125" xlink:href="#ArialMT-20"/>
     <use x="222.314453125" xlink:href="#ArialMT-73"/>
     <use x="272.314453125" xlink:href="#ArialMT-63"/>
     <use x="322.314453125" xlink:href="#ArialMT-61"/>
     <use x="377.9296875" xlink:href="#ArialMT-6c"/>
     <use x="400.146484375" xlink:href="#ArialMT-65"/>
     <use x="455.76171875" xlink:href="#ArialMT-64"/>
     <use x="511.376953125" xlink:href="#ArialMT-20"/>
     <use x="539.16015625" xlink:href="#ArialMT-63"/>
     <use x="589.16015625" xlink:href="#ArialMT-6f"/>
     <use x="644.775390625" xlink:href="#ArialMT-75"/>
     <use x="700.390625" xlink:href="#ArialMT-6e"/>
     <use x="756.005859375" xlink:href="#ArialMT-74"/>
     <use x="783.7890625" xlink:href="#ArialMT-29"/>
    </g>
   </g>
  </g>
  <g id="axes_2">
   <g id="patch_11">
    <path d="M 390.721233 193.999844 
L 703.575 193.999844 
L 703.575 37.093437 
L 390.721233 37.093437 
z
" style="fill:#ffffff;"/>
   </g>
   <g id="matplotlib.axis_3">
    <g id="xtick_5">
     <g id="line2d_54">
      <path clip-path="url(#p595cafef85)" d="M 429.141871 193.999844 
L 429.141871 37.093437 
" style="fill:none;stroke:#cccccc;stroke-linecap:round;"/>
     </g>
     <g id="line2d_55">
      <g>
       <use style="fill:#262626;stroke:#262626;" x="429.141871188" xlink:href="#m3de125207f" y="193.99984375"/>
      </g>
     </g>
     <g id="line2d_56">
      <g>
       <use style="fill:#262626;stroke:#262626;" x="429.141871188" xlink:href="#m3de125207f" y="37.0934375"/>
      </g>
     </g>
     <g id="text_9">
      <!-- 5 -->
      <defs>
       <path d="M 4.15625 18.75 
L 13.375 19.53125 
Q 14.40625 12.796875 18.140625 9.390625 
Q 21.875 6 27.15625 6 
Q 33.5 6 37.890625 10.78125 
Q 42.28125 15.578125 42.28125 23.484375 
Q 42.28125 31 38.0625 35.34375 
Q 33.84375 39.703125 27 39.703125 
Q 22.75 39.703125 19.328125 37.765625 
Q 15.921875 35.84375 13.96875 32.765625 
L 5.71875 33.84375 
L 12.640625 70.609375 
L 48.25 70.609375 
L 48.25 62.203125 
L 19.671875 62.203125 
L 15.828125 42.96875 
Q 22.265625 47.46875 29.34375 47.46875 
Q 38.71875 47.46875 45.15625 40.96875 
Q 51.609375 34.46875 51.609375 24.265625 
Q 51.609375 14.546875 45.953125 7.46875 
Q 39.0625 -1.21875 27.15625 -1.21875 
Q 17.390625 -1.21875 11.203125 4.25 
Q 5.03125 9.71875 4.15625 18.75 
" id="ArialMT-35"/>
      </defs>
      <g style="fill:#262626;" transform="translate(426.361402438 208.15765625)scale(0.1 -0.1)">
       <use xlink:href="#ArialMT-35"/>
      </g>
     </g>
    </g>
    <g id="xtick_6">
     <g id="line2d_57">
      <path clip-path="url(#p595cafef85)" d="M 484.028497 193.999844 
L 484.028497 37.093437 
" style="fill:none;stroke:#cccccc;stroke-linecap:round;"/>
     </g>
     <g id="line2d_58">
      <g>
       <use style="fill:#262626;stroke:#262626;" x="484.02849695" xlink:href="#m3de125207f" y="193.99984375"/>
      </g>
     </g>
     <g id="line2d_59">
      <g>
       <use style="fill:#262626;stroke:#262626;" x="484.02849695" xlink:href="#m3de125207f" y="37.0934375"/>
      </g>
     </g>
     <g id="text_10">
      <!-- 10 -->
      <g style="fill:#262626;" transform="translate(478.46755945 208.15765625)scale(0.1 -0.1)">
       <use xlink:href="#ArialMT-31"/>
       <use x="55.615234375" xlink:href="#ArialMT-30"/>
      </g>
     </g>
    </g>
    <g id="xtick_7">
     <g id="line2d_60">
      <path clip-path="url(#p595cafef85)" d="M 538.915123 193.999844 
L 538.915123 37.093437 
" style="fill:none;stroke:#cccccc;stroke-linecap:round;"/>
     </g>
     <g id="line2d_61">
      <g>
       <use style="fill:#262626;stroke:#262626;" x="538.915122713" xlink:href="#m3de125207f" y="193.99984375"/>
      </g>
     </g>
     <g id="line2d_62">
      <g>
       <use style="fill:#262626;stroke:#262626;" x="538.915122713" xlink:href="#m3de125207f" y="37.0934375"/>
      </g>
     </g>
     <g id="text_11">
      <!-- 15 -->
      <g style="fill:#262626;" transform="translate(533.354185213 208.15765625)scale(0.1 -0.1)">
       <use xlink:href="#ArialMT-31"/>
       <use x="55.615234375" xlink:href="#ArialMT-35"/>
      </g>
     </g>
    </g>
    <g id="xtick_8">
     <g id="line2d_63">
      <path clip-path="url(#p595cafef85)" d="M 593.801748 193.999844 
L 593.801748 37.093437 
" style="fill:none;stroke:#cccccc;stroke-linecap:round;"/>
     </g>
     <g id="line2d_64">
      <g>
       <use style="fill:#262626;stroke:#262626;" x="593.801748475" xlink:href="#m3de125207f" y="193.99984375"/>
      </g>
     </g>
     <g id="line2d_65">
      <g>
       <use style="fill:#262626;stroke:#262626;" x="593.801748475" xlink:href="#m3de125207f" y="37.0934375"/>
      </g>
     </g>
     <g id="text_12">
      <!-- 20 -->
      <g style="fill:#262626;" transform="translate(588.240810975 208.15765625)scale(0.1 -0.1)">
       <use xlink:href="#ArialMT-32"/>
       <use x="55.615234375" xlink:href="#ArialMT-30"/>
      </g>
     </g>
    </g>
    <g id="xtick_9">
     <g id="line2d_66">
      <path clip-path="url(#p595cafef85)" d="M 648.688374 193.999844 
L 648.688374 37.093437 
" style="fill:none;stroke:#cccccc;stroke-linecap:round;"/>
     </g>
     <g id="line2d_67">
      <g>
       <use style="fill:#262626;stroke:#262626;" x="648.688374238" xlink:href="#m3de125207f" y="193.99984375"/>
      </g>
     </g>
     <g id="line2d_68">
      <g>
       <use style="fill:#262626;stroke:#262626;" x="648.688374238" xlink:href="#m3de125207f" y="37.0934375"/>
      </g>
     </g>
     <g id="text_13">
      <!-- 25 -->
      <g style="fill:#262626;" transform="translate(643.127436738 208.15765625)scale(0.1 -0.1)">
       <use xlink:href="#ArialMT-32"/>
       <use x="55.615234375" xlink:href="#ArialMT-35"/>
      </g>
     </g>
    </g>
    <g id="xtick_10">
     <g id="line2d_69">
      <path clip-path="url(#p595cafef85)" d="M 703.575 193.999844 
L 703.575 37.093437 
" style="fill:none;stroke:#cccccc;stroke-linecap:round;"/>
     </g>
     <g id="line2d_70">
      <g>
       <use style="fill:#262626;stroke:#262626;" x="703.575" xlink:href="#m3de125207f" y="193.99984375"/>
      </g>
     </g>
     <g id="line2d_71">
      <g>
       <use style="fill:#262626;stroke:#262626;" x="703.575" xlink:href="#m3de125207f" y="37.0934375"/>
      </g>
     </g>
     <g id="text_14">
      <!-- 30 -->
      <g style="fill:#262626;" transform="translate(698.0140625 208.15765625)scale(0.1 -0.1)">
       <use xlink:href="#ArialMT-33"/>
       <use x="55.615234375" xlink:href="#ArialMT-30"/>
      </g>
     </g>
    </g>
    <g id="text_15">
     <!-- max interval days -->
     <defs>
      <path d="M 6.640625 61.46875 
L 6.640625 71.578125 
L 15.4375 71.578125 
L 15.4375 61.46875 
z
M 6.640625 0 
L 6.640625 51.859375 
L 15.4375 51.859375 
L 15.4375 0 
z
" id="ArialMT-69"/>
      <path d="M 21 0 
L 1.265625 51.859375 
L 10.546875 51.859375 
L 21.6875 20.796875 
Q 23.484375 15.765625 25 10.359375 
Q 26.171875 14.453125 28.265625 20.21875 
L 39.796875 51.859375 
L 48.828125 51.859375 
L 29.203125 0 
z
" id="ArialMT-76"/>
      <path d="M 6.203125 -19.96875 
L 5.21875 -11.71875 
Q 8.109375 -12.5 10.25 -12.5 
Q 13.1875 -12.5 14.9375 -11.515625 
Q 16.703125 -10.546875 17.828125 -8.796875 
Q 18.65625 -7.46875 20.515625 -2.25 
Q 20.75 -1.515625 21.296875 -0.09375 
L 1.609375 51.859375 
L 11.078125 51.859375 
L 21.875 21.828125 
Q 23.96875 16.109375 25.640625 9.8125 
Q 27.15625 15.875 29.25 21.625 
L 40.328125 51.859375 
L 49.125 51.859375 
L 29.390625 -0.875 
Q 26.21875 -9.421875 24.46875 -12.640625 
Q 22.125 -17 19.09375 -19.015625 
Q 16.0625 -21.046875 11.859375 -21.046875 
Q 9.328125 -21.046875 6.203125 -19.96875 
" id="ArialMT-79"/>
      <path d="M 0.734375 0 
L 19.671875 26.953125 
L 2.15625 51.859375 
L 13.140625 51.859375 
L 21.09375 39.703125 
Q 23.34375 36.234375 24.703125 33.890625 
Q 26.859375 37.109375 28.65625 39.59375 
L 37.40625 51.859375 
L 47.90625 51.859375 
L 29.984375 27.4375 
L 49.265625 0 
L 38.484375 0 
L 27.828125 16.109375 
L 25 20.453125 
L 11.375 0 
z
" id="ArialMT-78"/>
     </defs>
     <g style="fill:#262626;" transform="translate(504.356397827 223.01875)scale(0.11 -0.11)">
      <use xlink:href="#ArialMT-6d"/>
      <use x="83.30078125" xlink:href="#ArialMT-61"/>
      <use x="138.916015625" xlink:href="#ArialMT-78"/>
      <use x="188.916015625" xlink:href="#ArialMT-20"/>
      <use x="216.69921875" xlink:href="#ArialMT-69"/>
      <use x="238.916015625" xlink:href="#ArialMT-6e"/>
      <use x="294.53125" xlink:href="#ArialMT-74"/>
      <use x="322.314453125" xlink:href="#ArialMT-65"/>
      <use x="377.9296875" xlink:href="#ArialMT-72"/>
      <use x="411.23046875" xlink:href="#ArialMT-76"/>
      <use x="461.23046875" xlink:href="#ArialMT-61"/>
      <use x="516.845703125" xlink:href="#ArialMT-6c"/>
      <use x="539.0625" xlink:href="#ArialMT-20"/>
      <use x="566.845703125" xlink:href="#ArialMT-64"/>
      <use x="622.4609375" xlink:href="#ArialMT-61"/>
      <use x="678.076171875" xlink:href="#ArialMT-79"/>
      <use x="728.076171875" xlink:href="#ArialMT-73"/>
     </g>
    </g>
   </g>
   <g id="matplotlib.axis_4">
    <g id="ytick_20">
     <g id="line2d_72">
      <path clip-path="url(#p595cafef85)" d="M 390.721233 193.999844 
L 703.575 193.999844 
" style="fill:none;stroke:#cccccc;stroke-linecap:round;"/>
     </g>
     <g id="line2d_73">
      <g>
       <use style="fill:#262626;stroke:#262626;" x="390.721233154" xlink:href="#m3de125207f" y="193.99984375"/>
      </g>
     </g>
     <g id="line2d_74">
      <g>
       <use style="fill:#262626;stroke:#262626;" x="703.575" xlink:href="#m3de125207f" y="193.99984375"/>
      </g>
     </g>
     <g id="text_16">
      <!-- 0 -->
      <g style="fill:#262626;" transform="translate(378.160295654 196.585)scale(0.1 -0.1)">
       <use xlink:href="#ArialMT-30"/>
      </g>
     </g>
    </g>
    <g id="ytick_21">
     <g id="line2d_75">
      <path clip-path="url(#p595cafef85)" d="M 390.721233 154.773242 
L 703.575 154.773242 
" style="fill:none;stroke:#cccccc;stroke-linecap:round;"/>
     </g>
     <g id="line2d_76">
      <g>
       <use style="fill:#262626;stroke:#262626;" x="390.721233154" xlink:href="#m3de125207f" y="154.773242188"/>
      </g>
     </g>
     <g id="line2d_77">
      <g>
       <use style="fill:#262626;stroke:#262626;" x="703.575" xlink:href="#m3de125207f" y="154.773242188"/>
      </g>
     </g>
     <g id="text_17">
      <!-- 5 -->
      <g style="fill:#262626;" transform="translate(378.160295654 157.358398438)scale(0.1 -0.1)">
       <use xlink:href="#ArialMT-35"/>
      </g>
     </g>
    </g>
    <g id="ytick_22">
     <g id="line2d_78">
      <path clip-path="url(#p595cafef85)" d="M 390.721233 115.546641 
L 703.575 115.546641 
" style="fill:none;stroke:#cccccc;stroke-linecap:round;"/>
     </g>
     <g id="line2d_79">
      <g>
       <use style="fill:#262626;stroke:#262626;" x="390.721233154" xlink:href="#m3de125207f" y="115.546640625"/>
      </g>
     </g>
     <g id="line2d_80">
      <g>
       <use style="fill:#262626;stroke:#262626;" x="703.575" xlink:href="#m3de125207f" y="115.546640625"/>
      </g>
     </g>
     <g id="text_18">
      <!-- 10 -->
      <g style="fill:#262626;" transform="translate(372.599358154 118.131796875)scale(0.1 -0.1)">
       <use xlink:href="#ArialMT-31"/>
       <use x="55.615234375" xlink:href="#ArialMT-30"/>
      </g>
     </g>
    </g>
    <g id="ytick_23">
     <g id="line2d_81">
      <path clip-path="url(#p595cafef85)" d="M 390.721233 76.320039 
L 703.575 76.320039 
" style="fill:none;stroke:#cccccc;stroke-linecap:round;"/>
     </g>
     <g id="line2d_82">
      <g>
       <use style="fill:#262626;stroke:#262626;" x="390.721233154" xlink:href="#m3de125207f" y="76.3200390625"/>
      </g>
     </g>
     <g id="line2d_83">
      <g>
       <use style="fill:#262626;stroke:#262626;" x="703.575" xlink:href="#m3de125207f" y="76.3200390625"/>
      </g>
     </g>
     <g id="text_19">
      <!-- 15 -->
      <g style="fill:#262626;" transform="translate(372.599358154 78.9051953125)scale(0.1 -0.1)">
       <use xlink:href="#ArialMT-31"/>
       <use x="55.615234375" xlink:href="#ArialMT-35"/>
      </g>
     </g>
    </g>
    <g id="ytick_24">
     <g id="line2d_84">
      <path clip-path="url(#p595cafef85)" d="M 390.721233 37.093437 
L 703.575 37.093437 
" style="fill:none;stroke:#cccccc;stroke-linecap:round;"/>
     </g>
     <g id="line2d_85">
      <g>
       <use style="fill:#262626;stroke:#262626;" x="390.721233154" xlink:href="#m3de125207f" y="37.0934375"/>
      </g>
     </g>
     <g id="line2d_86">
      <g>
       <use style="fill:#262626;stroke:#262626;" x="703.575" xlink:href="#m3de125207f" y="37.0934375"/>
      </g>
     </g>
     <g id="text_20">
      <!-- 20 -->
      <g style="fill:#262626;" transform="translate(372.599358154 39.67859375)scale(0.1 -0.1)">
       <use xlink:href="#ArialMT-32"/>
       <use x="55.615234375" xlink:href="#ArialMT-30"/>
      </g>
     </g>
    </g>
    <g id="text_21">
     <!-- count -->
     <g style="fill:#262626;" transform="translate(365.413108154 129.00015625)rotate(-90.0)scale(0.11 -0.11)">
      <use xlink:href="#ArialMT-63"/>
      <use x="50.0" xlink:href="#ArialMT-6f"/>
      <use x="105.615234375" xlink:href="#ArialMT-75"/>
      <use x="161.23046875" xlink:href="#ArialMT-6e"/>
      <use x="216.845703125" xlink:href="#ArialMT-74"/>
     </g>
    </g>
   </g>
   <g id="patch_12">
    <path clip-path="url(#p595cafef85)" d="M 714.552325 193.999844 
L 723.334185 193.999844 
L 723.334185 186.154523 
L 714.552325 186.154523 
z
" style="fill:#4c72b0;stroke:#000000;stroke-linejoin:miter;stroke-width:0.3;"/>
   </g>
   <g id="patch_13">
    <path clip-path="url(#p595cafef85)" d="M 703.575 193.999844 
L 712.35686 193.999844 
L 712.35686 170.463883 
L 703.575 170.463883 
z
" style="fill:#4c72b0;stroke:#000000;stroke-linejoin:miter;stroke-width:0.3;"/>
   </g>
   <g id="patch_14">
    <path clip-path="url(#p595cafef85)" d="M 692.597675 193.999844 
L 701.379535 193.999844 
L 701.379535 154.773242 
L 692.597675 154.773242 
z
" style="fill:#4c72b0;stroke:#000000;stroke-linejoin:miter;stroke-width:0.3;"/>
   </g>
   <g id="patch_15">
    <path clip-path="url(#p595cafef85)" d="M 681.62035 193.999844 
L 690.40221 193.999844 
L 690.40221 193.999844 
L 681.62035 193.999844 
z
" style="fill:#4c72b0;stroke:#000000;stroke-linejoin:miter;stroke-width:0.3;"/>
   </g>
   <g id="patch_16">
    <path clip-path="url(#p595cafef85)" d="M 670.643025 193.999844 
L 679.424885 193.999844 
L 679.424885 146.927922 
L 670.643025 146.927922 
z
" style="fill:#4c72b0;stroke:#000000;stroke-linejoin:miter;stroke-width:0.3;"/>
   </g>
   <g id="patch_17">
    <path clip-path="url(#p595cafef85)" d="M 659.665699 193.999844 
L 668.44756 193.999844 
L 668.44756 146.927922 
L 659.665699 146.927922 
z
" style="fill:#4c72b0;stroke:#000000;stroke-linejoin:miter;stroke-width:0.3;"/>
   </g>
   <g id="patch_18">
    <path clip-path="url(#p595cafef85)" d="M 648.688374 193.999844 
L 657.470234 193.999844 
L 657.470234 44.938758 
L 648.688374 44.938758 
z
" style="fill:#4c72b0;stroke:#000000;stroke-linejoin:miter;stroke-width:0.3;"/>
   </g>
   <g id="patch_19">
    <path clip-path="url(#p595cafef85)" d="M 637.711049 193.999844 
L 646.492909 193.999844 
L 646.492909 170.463883 
L 637.711049 170.463883 
z
" style="fill:#4c72b0;stroke:#000000;stroke-linejoin:miter;stroke-width:0.3;"/>
   </g>
   <g id="patch_20">
    <path clip-path="url(#p595cafef85)" d="M 626.733724 193.999844 
L 635.515584 193.999844 
L 635.515584 139.082602 
L 626.733724 139.082602 
z
" style="fill:#4c72b0;stroke:#000000;stroke-linejoin:miter;stroke-width:0.3;"/>
   </g>
   <g id="patch_21">
    <path clip-path="url(#p595cafef85)" d="M 615.756399 193.999844 
L 624.538259 193.999844 
L 624.538259 131.237281 
L 615.756399 131.237281 
z
" style="fill:#4c72b0;stroke:#000000;stroke-linejoin:miter;stroke-width:0.3;"/>
   </g>
   <g id="patch_22">
    <path clip-path="url(#p595cafef85)" d="M 604.779074 193.999844 
L 613.560934 193.999844 
L 613.560934 123.391961 
L 604.779074 123.391961 
z
" style="fill:#4c72b0;stroke:#000000;stroke-linejoin:miter;stroke-width:0.3;"/>
   </g>
   <g id="patch_23">
    <path clip-path="url(#p595cafef85)" d="M 593.801748 193.999844 
L 602.583609 193.999844 
L 602.583609 162.618563 
L 593.801748 162.618563 
z
" style="fill:#4c72b0;stroke:#000000;stroke-linejoin:miter;stroke-width:0.3;"/>
   </g>
   <g id="patch_24">
    <path clip-path="url(#p595cafef85)" d="M 582.824423 193.999844 
L 591.606283 193.999844 
L 591.606283 146.927922 
L 582.824423 146.927922 
z
" style="fill:#4c72b0;stroke:#000000;stroke-linejoin:miter;stroke-width:0.3;"/>
   </g>
   <g id="patch_25">
    <path clip-path="url(#p595cafef85)" d="M 571.847098 193.999844 
L 580.628958 193.999844 
L 580.628958 123.391961 
L 571.847098 123.391961 
z
" style="fill:#4c72b0;stroke:#000000;stroke-linejoin:miter;stroke-width:0.3;"/>
   </g>
   <g id="patch_26">
    <path clip-path="url(#p595cafef85)" d="M 560.869773 193.999844 
L 569.651633 193.999844 
L 569.651633 107.70132 
L 560.869773 107.70132 
z
" style="fill:#4c72b0;stroke:#000000;stroke-linejoin:miter;stroke-width:0.3;"/>
   </g>
   <g id="patch_27">
    <path clip-path="url(#p595cafef85)" d="M 549.892448 193.999844 
L 558.674308 193.999844 
L 558.674308 115.546641 
L 549.892448 115.546641 
z
" style="fill:#4c72b0;stroke:#000000;stroke-linejoin:miter;stroke-width:0.3;"/>
   </g>
   <g id="patch_28">
    <path clip-path="url(#p595cafef85)" d="M 538.915123 193.999844 
L 547.696983 193.999844 
L 547.696983 131.237281 
L 538.915123 131.237281 
z
" style="fill:#4c72b0;stroke:#000000;stroke-linejoin:miter;stroke-width:0.3;"/>
   </g>
   <g id="patch_29">
    <path clip-path="url(#p595cafef85)" d="M 527.937798 193.999844 
L 536.719658 193.999844 
L 536.719658 99.856 
L 527.937798 99.856 
z
" style="fill:#4c72b0;stroke:#000000;stroke-linejoin:miter;stroke-width:0.3;"/>
   </g>
   <g id="patch_30">
    <path clip-path="url(#p595cafef85)" d="M 516.960472 193.999844 
L 525.742333 193.999844 
L 525.742333 99.856 
L 516.960472 99.856 
z
" style="fill:#4c72b0;stroke:#000000;stroke-linejoin:miter;stroke-width:0.3;"/>
   </g>
   <g id="patch_31">
    <path clip-path="url(#p595cafef85)" d="M 505.983147 193.999844 
L 514.765007 193.999844 
L 514.765007 115.546641 
L 505.983147 115.546641 
z
" style="fill:#4c72b0;stroke:#000000;stroke-linejoin:miter;stroke-width:0.3;"/>
   </g>
   <g id="patch_32">
    <path clip-path="url(#p595cafef85)" d="M 495.005822 193.999844 
L 503.787682 193.999844 
L 503.787682 139.082602 
L 495.005822 139.082602 
z
" style="fill:#4c72b0;stroke:#000000;stroke-linejoin:miter;stroke-width:0.3;"/>
   </g>
   <g id="patch_33">
    <path clip-path="url(#p595cafef85)" d="M 484.028497 193.999844 
L 492.810357 193.999844 
L 492.810357 131.237281 
L 484.028497 131.237281 
z
" style="fill:#4c72b0;stroke:#000000;stroke-linejoin:miter;stroke-width:0.3;"/>
   </g>
   <g id="patch_34">
    <path clip-path="url(#p595cafef85)" d="M 473.051172 193.999844 
L 481.833032 193.999844 
L 481.833032 154.773242 
L 473.051172 154.773242 
z
" style="fill:#4c72b0;stroke:#000000;stroke-linejoin:miter;stroke-width:0.3;"/>
   </g>
   <g id="patch_35">
    <path clip-path="url(#p595cafef85)" d="M 462.073847 193.999844 
L 470.855707 193.999844 
L 470.855707 162.618563 
L 462.073847 162.618563 
z
" style="fill:#4c72b0;stroke:#000000;stroke-linejoin:miter;stroke-width:0.3;"/>
   </g>
   <g id="patch_36">
    <path clip-path="url(#p595cafef85)" d="M 451.096521 193.999844 
L 459.878382 193.999844 
L 459.878382 123.391961 
L 451.096521 123.391961 
z
" style="fill:#4c72b0;stroke:#000000;stroke-linejoin:miter;stroke-width:0.3;"/>
   </g>
   <g id="patch_37">
    <path clip-path="url(#p595cafef85)" d="M 440.119196 193.999844 
L 448.901056 193.999844 
L 448.901056 154.773242 
L 440.119196 154.773242 
z
" style="fill:#4c72b0;stroke:#000000;stroke-linejoin:miter;stroke-width:0.3;"/>
   </g>
   <g id="patch_38">
    <path clip-path="url(#p595cafef85)" d="M 429.141871 193.999844 
L 437.923731 193.999844 
L 437.923731 131.237281 
L 429.141871 131.237281 
z
" style="fill:#4c72b0;stroke:#000000;stroke-linejoin:miter;stroke-width:0.3;"/>
   </g>
   <g id="patch_39">
    <path clip-path="url(#p595cafef85)" d="M 418.164546 193.999844 
L 426.946406 193.999844 
L 426.946406 162.618563 
L 418.164546 162.618563 
z
" style="fill:#4c72b0;stroke:#000000;stroke-linejoin:miter;stroke-width:0.3;"/>
   </g>
   <g id="patch_40">
    <path clip-path="url(#p595cafef85)" d="M 407.187221 193.999844 
L 415.969081 193.999844 
L 415.969081 131.237281 
L 407.187221 131.237281 
z
" style="fill:#4c72b0;stroke:#000000;stroke-linejoin:miter;stroke-width:0.3;"/>
   </g>
   <g id="patch_41">
    <path clip-path="url(#p595cafef85)" d="M 396.209896 193.999844 
L 404.991756 193.999844 
L 404.991756 139.082602 
L 396.209896 139.082602 
z
" style="fill:#4c72b0;stroke:#000000;stroke-linejoin:miter;stroke-width:0.3;"/>
   </g>
   <g id="patch_42">
    <path d="M 390.721233 193.999844 
L 390.721233 37.093437 
" style="fill:none;stroke:#cccccc;stroke-linecap:square;stroke-linejoin:miter;"/>
   </g>
   <g id="patch_43">
    <path d="M 390.721233 37.093437 
L 703.575 37.093437 
" style="fill:none;stroke:#cccccc;stroke-linecap:square;stroke-linejoin:miter;"/>
   </g>
   <g id="patch_44">
    <path d="M 703.575 193.999844 
L 703.575 37.093437 
" style="fill:none;stroke:#cccccc;stroke-linecap:square;stroke-linejoin:miter;"/>
   </g>
   <g id="patch_45">
    <path d="M 390.721233 193.999844 
L 703.575 193.999844 
" style="fill:none;stroke:#cccccc;stroke-linecap:square;stroke-linejoin:miter;"/>
   </g>
   <g id="text_22">
    <!-- order goes to same address  -->
    <g style="fill:#262626;" transform="translate(470.780304077 19.2605625)scale(0.12 -0.12)">
     <use xlink:href="#ArialMT-6f"/>
     <use x="55.615234375" xlink:href="#ArialMT-72"/>
     <use x="88.916015625" xlink:href="#ArialMT-64"/>
     <use x="144.53125" xlink:href="#ArialMT-65"/>
     <use x="200.146484375" xlink:href="#ArialMT-72"/>
     <use x="233.447265625" xlink:href="#ArialMT-20"/>
     <use x="261.23046875" xlink:href="#ArialMT-67"/>
     <use x="316.845703125" xlink:href="#ArialMT-6f"/>
     <use x="372.4609375" xlink:href="#ArialMT-65"/>
     <use x="428.076171875" xlink:href="#ArialMT-73"/>
     <use x="478.076171875" xlink:href="#ArialMT-20"/>
     <use x="505.859375" xlink:href="#ArialMT-74"/>
     <use x="533.642578125" xlink:href="#ArialMT-6f"/>
     <use x="589.2578125" xlink:href="#ArialMT-20"/>
     <use x="617.041015625" xlink:href="#ArialMT-73"/>
     <use x="667.041015625" xlink:href="#ArialMT-61"/>
     <use x="722.65625" xlink:href="#ArialMT-6d"/>
     <use x="805.95703125" xlink:href="#ArialMT-65"/>
     <use x="861.572265625" xlink:href="#ArialMT-20"/>
     <use x="889.35546875" xlink:href="#ArialMT-61"/>
     <use x="944.970703125" xlink:href="#ArialMT-64"/>
     <use x="1000.5859375" xlink:href="#ArialMT-64"/>
     <use x="1056.201171875" xlink:href="#ArialMT-72"/>
     <use x="1089.501953125" xlink:href="#ArialMT-65"/>
     <use x="1145.1171875" xlink:href="#ArialMT-73"/>
     <use x="1195.1171875" xlink:href="#ArialMT-73"/>
     <use x="1245.1171875" xlink:href="#ArialMT-20"/>
    </g>
    <!--  by max interval days between orders -->
    <defs>
     <path d="M 16.15625 0 
L 0.296875 51.859375 
L 9.375 51.859375 
L 17.625 21.921875 
L 20.703125 10.796875 
Q 20.90625 11.625 23.390625 21.484375 
L 31.640625 51.859375 
L 40.671875 51.859375 
L 48.4375 21.78125 
L 51.03125 11.859375 
L 54 21.875 
L 62.890625 51.859375 
L 71.4375 51.859375 
L 55.21875 0 
L 46.09375 0 
L 37.84375 31.0625 
L 35.84375 39.890625 
L 25.34375 0 
z
" id="ArialMT-77"/>
    </defs>
    <g style="fill:#262626;" transform="translate(447.774054077 32.0934375)scale(0.12 -0.12)">
     <use xlink:href="#ArialMT-20"/>
     <use x="27.783203125" xlink:href="#ArialMT-62"/>
     <use x="83.3984375" xlink:href="#ArialMT-79"/>
     <use x="133.3984375" xlink:href="#ArialMT-20"/>
     <use x="161.181640625" xlink:href="#ArialMT-6d"/>
     <use x="244.482421875" xlink:href="#ArialMT-61"/>
     <use x="300.09765625" xlink:href="#ArialMT-78"/>
     <use x="350.09765625" xlink:href="#ArialMT-20"/>
     <use x="377.880859375" xlink:href="#ArialMT-69"/>
     <use x="400.09765625" xlink:href="#ArialMT-6e"/>
     <use x="455.712890625" xlink:href="#ArialMT-74"/>
     <use x="483.49609375" xlink:href="#ArialMT-65"/>
     <use x="539.111328125" xlink:href="#ArialMT-72"/>
     <use x="572.412109375" xlink:href="#ArialMT-76"/>
     <use x="622.412109375" xlink:href="#ArialMT-61"/>
     <use x="678.02734375" xlink:href="#ArialMT-6c"/>
     <use x="700.244140625" xlink:href="#ArialMT-20"/>
     <use x="728.02734375" xlink:href="#ArialMT-64"/>
     <use x="783.642578125" xlink:href="#ArialMT-61"/>
     <use x="839.2578125" xlink:href="#ArialMT-79"/>
     <use x="889.2578125" xlink:href="#ArialMT-73"/>
     <use x="939.2578125" xlink:href="#ArialMT-20"/>
     <use x="967.041015625" xlink:href="#ArialMT-62"/>
     <use x="1022.65625" xlink:href="#ArialMT-65"/>
     <use x="1078.271484375" xlink:href="#ArialMT-74"/>
     <use x="1106.0546875" xlink:href="#ArialMT-77"/>
     <use x="1178.271484375" xlink:href="#ArialMT-65"/>
     <use x="1233.88671875" xlink:href="#ArialMT-65"/>
     <use x="1289.501953125" xlink:href="#ArialMT-6e"/>
     <use x="1345.1171875" xlink:href="#ArialMT-20"/>
     <use x="1372.900390625" xlink:href="#ArialMT-6f"/>
     <use x="1428.515625" xlink:href="#ArialMT-72"/>
     <use x="1461.81640625" xlink:href="#ArialMT-64"/>
     <use x="1517.431640625" xlink:href="#ArialMT-65"/>
     <use x="1573.046875" xlink:href="#ArialMT-72"/>
     <use x="1606.34765625" xlink:href="#ArialMT-73"/>
    </g>
   </g>
  </g>
  <g id="axes_3">
   <g id="patch_46">
    <path d="M 34.817466 405.2 
L 703.575 405.2 
L 703.575 248.293594 
L 34.817466 248.293594 
z
" style="fill:#ffffff;"/>
   </g>
   <g id="matplotlib.axis_5">
    <g id="xtick_11">
     <g id="line2d_87">
      <path clip-path="url(#p7ea1918cd3)" d="M 34.817466 405.2 
L 34.817466 248.293594 
" style="fill:none;stroke:#cccccc;stroke-linecap:round;"/>
     </g>
     <g id="line2d_88">
      <g>
       <use style="fill:#262626;stroke:#262626;" x="34.8174663086" xlink:href="#m3de125207f" y="405.2"/>
      </g>
     </g>
     <g id="line2d_89">
      <g>
       <use style="fill:#262626;stroke:#262626;" x="34.8174663086" xlink:href="#m3de125207f" y="248.29359375"/>
      </g>
     </g>
     <g id="text_23">
      <!-- 2 -->
      <g style="fill:#262626;" transform="translate(32.0369975586 419.3578125)scale(0.1 -0.1)">
       <use xlink:href="#ArialMT-32"/>
      </g>
     </g>
    </g>
    <g id="xtick_12">
     <g id="line2d_90">
      <path clip-path="url(#p7ea1918cd3)" d="M 168.568973 405.2 
L 168.568973 248.293594 
" style="fill:none;stroke:#cccccc;stroke-linecap:round;"/>
     </g>
     <g id="line2d_91">
      <g>
       <use style="fill:#262626;stroke:#262626;" x="168.568973047" xlink:href="#m3de125207f" y="405.2"/>
      </g>
     </g>
     <g id="line2d_92">
      <g>
       <use style="fill:#262626;stroke:#262626;" x="168.568973047" xlink:href="#m3de125207f" y="248.29359375"/>
      </g>
     </g>
     <g id="text_24">
      <!-- 7 -->
      <defs>
       <path d="M 4.734375 62.203125 
L 4.734375 70.65625 
L 51.078125 70.65625 
L 51.078125 63.8125 
Q 44.234375 56.546875 37.515625 44.484375 
Q 30.8125 32.421875 27.15625 19.671875 
Q 24.515625 10.6875 23.78125 0 
L 14.75 0 
Q 14.890625 8.453125 18.0625 20.40625 
Q 21.234375 32.375 27.171875 43.484375 
Q 33.109375 54.59375 39.796875 62.203125 
z
" id="ArialMT-37"/>
      </defs>
      <g style="fill:#262626;" transform="translate(165.788504297 419.3578125)scale(0.1 -0.1)">
       <use xlink:href="#ArialMT-37"/>
      </g>
     </g>
    </g>
    <g id="xtick_13">
     <g id="line2d_93">
      <path clip-path="url(#p7ea1918cd3)" d="M 302.32048 405.2 
L 302.32048 248.293594 
" style="fill:none;stroke:#cccccc;stroke-linecap:round;"/>
     </g>
     <g id="line2d_94">
      <g>
       <use style="fill:#262626;stroke:#262626;" x="302.320479785" xlink:href="#m3de125207f" y="405.2"/>
      </g>
     </g>
     <g id="line2d_95">
      <g>
       <use style="fill:#262626;stroke:#262626;" x="302.320479785" xlink:href="#m3de125207f" y="248.29359375"/>
      </g>
     </g>
     <g id="text_25">
      <!-- 12 -->
      <g style="fill:#262626;" transform="translate(296.759542285 419.3578125)scale(0.1 -0.1)">
       <use xlink:href="#ArialMT-31"/>
       <use x="55.615234375" xlink:href="#ArialMT-32"/>
      </g>
     </g>
    </g>
    <g id="xtick_14">
     <g id="line2d_96">
      <path clip-path="url(#p7ea1918cd3)" d="M 436.071987 405.2 
L 436.071987 248.293594 
" style="fill:none;stroke:#cccccc;stroke-linecap:round;"/>
     </g>
     <g id="line2d_97">
      <g>
       <use style="fill:#262626;stroke:#262626;" x="436.071986523" xlink:href="#m3de125207f" y="405.2"/>
      </g>
     </g>
     <g id="line2d_98">
      <g>
       <use style="fill:#262626;stroke:#262626;" x="436.071986523" xlink:href="#m3de125207f" y="248.29359375"/>
      </g>
     </g>
     <g id="text_26">
      <!-- 17 -->
      <g style="fill:#262626;" transform="translate(430.511049023 419.3578125)scale(0.1 -0.1)">
       <use xlink:href="#ArialMT-31"/>
       <use x="55.615234375" xlink:href="#ArialMT-37"/>
      </g>
     </g>
    </g>
    <g id="xtick_15">
     <g id="line2d_99">
      <path clip-path="url(#p7ea1918cd3)" d="M 569.823493 405.2 
L 569.823493 248.293594 
" style="fill:none;stroke:#cccccc;stroke-linecap:round;"/>
     </g>
     <g id="line2d_100">
      <g>
       <use style="fill:#262626;stroke:#262626;" x="569.823493262" xlink:href="#m3de125207f" y="405.2"/>
      </g>
     </g>
     <g id="line2d_101">
      <g>
       <use style="fill:#262626;stroke:#262626;" x="569.823493262" xlink:href="#m3de125207f" y="248.29359375"/>
      </g>
     </g>
     <g id="text_27">
      <!-- 22 -->
      <g style="fill:#262626;" transform="translate(564.262555762 419.3578125)scale(0.1 -0.1)">
       <use xlink:href="#ArialMT-32"/>
       <use x="55.615234375" xlink:href="#ArialMT-32"/>
      </g>
     </g>
    </g>
    <g id="xtick_16">
     <g id="line2d_102">
      <path clip-path="url(#p7ea1918cd3)" d="M 703.575 405.2 
L 703.575 248.293594 
" style="fill:none;stroke:#cccccc;stroke-linecap:round;"/>
     </g>
     <g id="line2d_103">
      <g>
       <use style="fill:#262626;stroke:#262626;" x="703.575" xlink:href="#m3de125207f" y="405.2"/>
      </g>
     </g>
     <g id="line2d_104">
      <g>
       <use style="fill:#262626;stroke:#262626;" x="703.575" xlink:href="#m3de125207f" y="248.29359375"/>
      </g>
     </g>
     <g id="text_28">
      <!-- 27 -->
      <g style="fill:#262626;" transform="translate(698.0140625 419.3578125)scale(0.1 -0.1)">
       <use xlink:href="#ArialMT-32"/>
       <use x="55.615234375" xlink:href="#ArialMT-37"/>
      </g>
     </g>
    </g>
   </g>
   <g id="matplotlib.axis_6">
    <g id="ytick_25">
     <g id="line2d_105">
      <path clip-path="url(#p7ea1918cd3)" d="M 34.817466 405.2 
L 703.575 405.2 
" style="fill:none;stroke:#cccccc;stroke-linecap:round;"/>
     </g>
     <g id="line2d_106">
      <g>
       <use style="fill:#262626;stroke:#262626;" x="34.8174663086" xlink:href="#m3de125207f" y="405.2"/>
      </g>
     </g>
     <g id="line2d_107">
      <g>
       <use style="fill:#262626;stroke:#262626;" x="703.575" xlink:href="#m3de125207f" y="405.2"/>
      </g>
     </g>
     <g id="text_29">
      <!-- 0 -->
      <g style="fill:#262626;" transform="translate(22.2565288086 407.78515625)scale(0.1 -0.1)">
       <use xlink:href="#ArialMT-30"/>
      </g>
     </g>
    </g>
    <g id="ytick_26">
     <g id="line2d_108">
      <path clip-path="url(#p7ea1918cd3)" d="M 34.817466 373.818719 
L 703.575 373.818719 
" style="fill:none;stroke:#cccccc;stroke-linecap:round;"/>
     </g>
     <g id="line2d_109">
      <g>
       <use style="fill:#262626;stroke:#262626;" x="34.8174663086" xlink:href="#m3de125207f" y="373.81871875"/>
      </g>
     </g>
     <g id="line2d_110">
      <g>
       <use style="fill:#262626;stroke:#262626;" x="703.575" xlink:href="#m3de125207f" y="373.81871875"/>
      </g>
     </g>
     <g id="text_30">
      <!-- 5 -->
      <g style="fill:#262626;" transform="translate(22.2565288086 376.403875)scale(0.1 -0.1)">
       <use xlink:href="#ArialMT-35"/>
      </g>
     </g>
    </g>
    <g id="ytick_27">
     <g id="line2d_111">
      <path clip-path="url(#p7ea1918cd3)" d="M 34.817466 342.437437 
L 703.575 342.437437 
" style="fill:none;stroke:#cccccc;stroke-linecap:round;"/>
     </g>
     <g id="line2d_112">
      <g>
       <use style="fill:#262626;stroke:#262626;" x="34.8174663086" xlink:href="#m3de125207f" y="342.4374375"/>
      </g>
     </g>
     <g id="line2d_113">
      <g>
       <use style="fill:#262626;stroke:#262626;" x="703.575" xlink:href="#m3de125207f" y="342.4374375"/>
      </g>
     </g>
     <g id="text_31">
      <!-- 10 -->
      <g style="fill:#262626;" transform="translate(16.6955913086 345.02259375)scale(0.1 -0.1)">
       <use xlink:href="#ArialMT-31"/>
       <use x="55.615234375" xlink:href="#ArialMT-30"/>
      </g>
     </g>
    </g>
    <g id="ytick_28">
     <g id="line2d_114">
      <path clip-path="url(#p7ea1918cd3)" d="M 34.817466 311.056156 
L 703.575 311.056156 
" style="fill:none;stroke:#cccccc;stroke-linecap:round;"/>
     </g>
     <g id="line2d_115">
      <g>
       <use style="fill:#262626;stroke:#262626;" x="34.8174663086" xlink:href="#m3de125207f" y="311.05615625"/>
      </g>
     </g>
     <g id="line2d_116">
      <g>
       <use style="fill:#262626;stroke:#262626;" x="703.575" xlink:href="#m3de125207f" y="311.05615625"/>
      </g>
     </g>
     <g id="text_32">
      <!-- 15 -->
      <g style="fill:#262626;" transform="translate(16.6955913086 313.6413125)scale(0.1 -0.1)">
       <use xlink:href="#ArialMT-31"/>
       <use x="55.615234375" xlink:href="#ArialMT-35"/>
      </g>
     </g>
    </g>
    <g id="ytick_29">
     <g id="line2d_117">
      <path clip-path="url(#p7ea1918cd3)" d="M 34.817466 279.674875 
L 703.575 279.674875 
" style="fill:none;stroke:#cccccc;stroke-linecap:round;"/>
     </g>
     <g id="line2d_118">
      <g>
       <use style="fill:#262626;stroke:#262626;" x="34.8174663086" xlink:href="#m3de125207f" y="279.674875"/>
      </g>
     </g>
     <g id="line2d_119">
      <g>
       <use style="fill:#262626;stroke:#262626;" x="703.575" xlink:href="#m3de125207f" y="279.674875"/>
      </g>
     </g>
     <g id="text_33">
      <!-- 20 -->
      <g style="fill:#262626;" transform="translate(16.6955913086 282.26003125)scale(0.1 -0.1)">
       <use xlink:href="#ArialMT-32"/>
       <use x="55.615234375" xlink:href="#ArialMT-30"/>
      </g>
     </g>
    </g>
    <g id="ytick_30">
     <g id="line2d_120">
      <path clip-path="url(#p7ea1918cd3)" d="M 34.817466 248.293594 
L 703.575 248.293594 
" style="fill:none;stroke:#cccccc;stroke-linecap:round;"/>
     </g>
     <g id="line2d_121">
      <g>
       <use style="fill:#262626;stroke:#262626;" x="34.8174663086" xlink:href="#m3de125207f" y="248.29359375"/>
      </g>
     </g>
     <g id="line2d_122">
      <g>
       <use style="fill:#262626;stroke:#262626;" x="703.575" xlink:href="#m3de125207f" y="248.29359375"/>
      </g>
     </g>
     <g id="text_34">
      <!-- 25 -->
      <g style="fill:#262626;" transform="translate(16.6955913086 250.87875)scale(0.1 -0.1)">
       <use xlink:href="#ArialMT-32"/>
       <use x="55.615234375" xlink:href="#ArialMT-35"/>
      </g>
     </g>
    </g>
   </g>
   <g id="line2d_123">
    <path clip-path="url(#p7ea1918cd3)" d="M 34.817466 361.266206 
L 61.567768 367.542463 
L 88.318069 386.371231 
L 115.06837 373.818719 
L 141.818672 386.371231 
L 168.568973 373.818719 
L 195.319274 392.647488 
L 222.069576 398.923744 
L 248.819877 373.818719 
L 275.570178 392.647488 
L 302.32048 386.371231 
L 329.070781 373.818719 
L 355.821082 380.094975 
L 382.571384 392.647488 
L 409.321685 398.923744 
L 436.071987 386.371231 
L 462.822288 398.923744 
L 489.572589 405.2 
L 516.322891 405.2 
L 543.073192 392.647488 
L 569.823493 386.371231 
L 596.573795 405.2 
L 623.324096 392.647488 
L 650.074397 380.094975 
L 676.824699 398.923744 
" style="fill:none;stroke:#4c72b0;stroke-linecap:round;stroke-width:1.75;"/>
    <defs>
     <path d="M 0 3.5 
C 0.928211 3.5 1.81853 3.131218 2.474874 2.474874 
C 3.131218 1.81853 3.5 0.928211 3.5 0 
C 3.5 -0.928211 3.131218 -1.81853 2.474874 -2.474874 
C 1.81853 -3.131218 0.928211 -3.5 0 -3.5 
C -0.928211 -3.5 -1.81853 -3.131218 -2.474874 -2.474874 
C -3.131218 -1.81853 -3.5 -0.928211 -3.5 0 
C -3.5 0.928211 -3.131218 1.81853 -2.474874 2.474874 
C -1.81853 3.131218 -0.928211 3.5 0 3.5 
z
" id="m402f32892b"/>
    </defs>
    <g clip-path="url(#p7ea1918cd3)">
     <use style="fill:#4c72b0;" x="34.8174663086" xlink:href="#m402f32892b" y="361.26620625"/>
     <use style="fill:#4c72b0;" x="61.5677676562" xlink:href="#m402f32892b" y="367.5424625"/>
     <use style="fill:#4c72b0;" x="88.3180690039" xlink:href="#m402f32892b" y="386.37123125"/>
     <use style="fill:#4c72b0;" x="115.068370352" xlink:href="#m402f32892b" y="373.81871875"/>
     <use style="fill:#4c72b0;" x="141.818671699" xlink:href="#m402f32892b" y="386.37123125"/>
     <use style="fill:#4c72b0;" x="168.568973047" xlink:href="#m402f32892b" y="373.81871875"/>
     <use style="fill:#4c72b0;" x="195.319274395" xlink:href="#m402f32892b" y="392.6474875"/>
     <use style="fill:#4c72b0;" x="222.069575742" xlink:href="#m402f32892b" y="398.92374375"/>
     <use style="fill:#4c72b0;" x="248.81987709" xlink:href="#m402f32892b" y="373.81871875"/>
     <use style="fill:#4c72b0;" x="275.570178438" xlink:href="#m402f32892b" y="392.6474875"/>
     <use style="fill:#4c72b0;" x="302.320479785" xlink:href="#m402f32892b" y="386.37123125"/>
     <use style="fill:#4c72b0;" x="329.070781133" xlink:href="#m402f32892b" y="373.81871875"/>
     <use style="fill:#4c72b0;" x="355.82108248" xlink:href="#m402f32892b" y="380.094975"/>
     <use style="fill:#4c72b0;" x="382.571383828" xlink:href="#m402f32892b" y="392.6474875"/>
     <use style="fill:#4c72b0;" x="409.321685176" xlink:href="#m402f32892b" y="398.92374375"/>
     <use style="fill:#4c72b0;" x="436.071986523" xlink:href="#m402f32892b" y="386.37123125"/>
     <use style="fill:#4c72b0;" x="462.822287871" xlink:href="#m402f32892b" y="398.92374375"/>
     <use style="fill:#4c72b0;" x="489.572589219" xlink:href="#m402f32892b" y="405.2"/>
     <use style="fill:#4c72b0;" x="516.322890566" xlink:href="#m402f32892b" y="405.2"/>
     <use style="fill:#4c72b0;" x="543.073191914" xlink:href="#m402f32892b" y="392.6474875"/>
     <use style="fill:#4c72b0;" x="569.823493262" xlink:href="#m402f32892b" y="386.37123125"/>
     <use style="fill:#4c72b0;" x="596.573794609" xlink:href="#m402f32892b" y="405.2"/>
     <use style="fill:#4c72b0;" x="623.324095957" xlink:href="#m402f32892b" y="392.6474875"/>
     <use style="fill:#4c72b0;" x="650.074397305" xlink:href="#m402f32892b" y="380.094975"/>
     <use style="fill:#4c72b0;" x="676.824698652" xlink:href="#m402f32892b" y="398.92374375"/>
    </g>
   </g>
   <g id="line2d_124">
    <path clip-path="url(#p7ea1918cd3)" d="M 34.817466 336.161181 
L 61.567768 317.332413 
L 88.318069 329.884925 
L 115.06837 361.266206 
L 141.818672 342.437437 
L 168.568973 336.161181 
L 195.319274 336.161181 
L 222.069576 380.094975 
L 248.819877 354.98995 
L 275.570178 354.98995 
L 302.32048 380.094975 
L 329.070781 380.094975 
L 355.821082 367.542463 
L 382.571384 354.98995 
L 409.321685 392.647488 
L 436.071987 386.371231 
L 462.822288 386.371231 
L 489.572589 386.371231 
L 516.322891 405.2 
L 543.073192 405.2 
L 569.823493 405.2 
L 596.573795 392.647488 
L 623.324096 392.647488 
L 650.074397 405.2 
L 676.824699 405.2 
L 703.575 398.923744 
" style="fill:none;stroke:#55a868;stroke-linecap:round;stroke-width:1.75;"/>
    <defs>
     <path d="M 0 3.5 
C 0.928211 3.5 1.81853 3.131218 2.474874 2.474874 
C 3.131218 1.81853 3.5 0.928211 3.5 0 
C 3.5 -0.928211 3.131218 -1.81853 2.474874 -2.474874 
C 1.81853 -3.131218 0.928211 -3.5 0 -3.5 
C -0.928211 -3.5 -1.81853 -3.131218 -2.474874 -2.474874 
C -3.131218 -1.81853 -3.5 -0.928211 -3.5 0 
C -3.5 0.928211 -3.131218 1.81853 -2.474874 2.474874 
C -1.81853 3.131218 -0.928211 3.5 0 3.5 
z
" id="m74507bf9c9"/>
    </defs>
    <g clip-path="url(#p7ea1918cd3)">
     <use style="fill:#55a868;" x="34.8174663086" xlink:href="#m74507bf9c9" y="336.16118125"/>
     <use style="fill:#55a868;" x="61.5677676562" xlink:href="#m74507bf9c9" y="317.3324125"/>
     <use style="fill:#55a868;" x="88.3180690039" xlink:href="#m74507bf9c9" y="329.884925"/>
     <use style="fill:#55a868;" x="115.068370352" xlink:href="#m74507bf9c9" y="361.26620625"/>
     <use style="fill:#55a868;" x="141.818671699" xlink:href="#m74507bf9c9" y="342.4374375"/>
     <use style="fill:#55a868;" x="168.568973047" xlink:href="#m74507bf9c9" y="336.16118125"/>
     <use style="fill:#55a868;" x="195.319274395" xlink:href="#m74507bf9c9" y="336.16118125"/>
     <use style="fill:#55a868;" x="222.069575742" xlink:href="#m74507bf9c9" y="380.094975"/>
     <use style="fill:#55a868;" x="248.81987709" xlink:href="#m74507bf9c9" y="354.98995"/>
     <use style="fill:#55a868;" x="275.570178438" xlink:href="#m74507bf9c9" y="354.98995"/>
     <use style="fill:#55a868;" x="302.320479785" xlink:href="#m74507bf9c9" y="380.094975"/>
     <use style="fill:#55a868;" x="329.070781133" xlink:href="#m74507bf9c9" y="380.094975"/>
     <use style="fill:#55a868;" x="355.82108248" xlink:href="#m74507bf9c9" y="367.5424625"/>
     <use style="fill:#55a868;" x="382.571383828" xlink:href="#m74507bf9c9" y="354.98995"/>
     <use style="fill:#55a868;" x="409.321685176" xlink:href="#m74507bf9c9" y="392.6474875"/>
     <use style="fill:#55a868;" x="436.071986523" xlink:href="#m74507bf9c9" y="386.37123125"/>
     <use style="fill:#55a868;" x="462.822287871" xlink:href="#m74507bf9c9" y="386.37123125"/>
     <use style="fill:#55a868;" x="489.572589219" xlink:href="#m74507bf9c9" y="386.37123125"/>
     <use style="fill:#55a868;" x="516.322890566" xlink:href="#m74507bf9c9" y="405.2"/>
     <use style="fill:#55a868;" x="543.073191914" xlink:href="#m74507bf9c9" y="405.2"/>
     <use style="fill:#55a868;" x="569.823493262" xlink:href="#m74507bf9c9" y="405.2"/>
     <use style="fill:#55a868;" x="596.573794609" xlink:href="#m74507bf9c9" y="392.6474875"/>
     <use style="fill:#55a868;" x="623.324095957" xlink:href="#m74507bf9c9" y="392.6474875"/>
     <use style="fill:#55a868;" x="650.074397305" xlink:href="#m74507bf9c9" y="405.2"/>
     <use style="fill:#55a868;" x="676.824698652" xlink:href="#m74507bf9c9" y="405.2"/>
     <use style="fill:#55a868;" x="703.575" xlink:href="#m74507bf9c9" y="398.92374375"/>
    </g>
   </g>
   <g id="line2d_125">
    <path clip-path="url(#p7ea1918cd3)" d="M 34.817466 279.674875 
L 61.567768 254.56985 
L 88.318069 298.503644 
L 115.06837 285.951131 
L 141.818672 285.951131 
L 168.568973 304.7799 
L 195.319274 361.266206 
L 222.069576 342.437437 
L 248.819877 311.056156 
L 275.570178 354.98995 
L 302.32048 380.094975 
L 329.070781 373.818719 
L 355.821082 380.094975 
L 382.571384 367.542463 
L 409.321685 380.094975 
L 436.071987 392.647488 
L 462.822288 386.371231 
L 489.572589 386.371231 
L 516.322891 398.923744 
L 543.073192 405.2 
L 569.823493 392.647488 
L 596.573795 405.2 
L 623.324096 405.2 
L 650.074397 398.923744 
" style="fill:none;stroke:#c44e52;stroke-linecap:round;stroke-width:1.75;"/>
    <defs>
     <path d="M 0 3.5 
C 0.928211 3.5 1.81853 3.131218 2.474874 2.474874 
C 3.131218 1.81853 3.5 0.928211 3.5 0 
C 3.5 -0.928211 3.131218 -1.81853 2.474874 -2.474874 
C 1.81853 -3.131218 0.928211 -3.5 0 -3.5 
C -0.928211 -3.5 -1.81853 -3.131218 -2.474874 -2.474874 
C -3.131218 -1.81853 -3.5 -0.928211 -3.5 0 
C -3.5 0.928211 -3.131218 1.81853 -2.474874 2.474874 
C -1.81853 3.131218 -0.928211 3.5 0 3.5 
z
" id="m73237c8926"/>
    </defs>
    <g clip-path="url(#p7ea1918cd3)">
     <use style="fill:#c44e52;" x="34.8174663086" xlink:href="#m73237c8926" y="279.674875"/>
     <use style="fill:#c44e52;" x="61.5677676562" xlink:href="#m73237c8926" y="254.56985"/>
     <use style="fill:#c44e52;" x="88.3180690039" xlink:href="#m73237c8926" y="298.50364375"/>
     <use style="fill:#c44e52;" x="115.068370352" xlink:href="#m73237c8926" y="285.95113125"/>
     <use style="fill:#c44e52;" x="141.818671699" xlink:href="#m73237c8926" y="285.95113125"/>
     <use style="fill:#c44e52;" x="168.568973047" xlink:href="#m73237c8926" y="304.7799"/>
     <use style="fill:#c44e52;" x="195.319274395" xlink:href="#m73237c8926" y="361.26620625"/>
     <use style="fill:#c44e52;" x="222.069575742" xlink:href="#m73237c8926" y="342.4374375"/>
     <use style="fill:#c44e52;" x="248.81987709" xlink:href="#m73237c8926" y="311.05615625"/>
     <use style="fill:#c44e52;" x="275.570178438" xlink:href="#m73237c8926" y="354.98995"/>
     <use style="fill:#c44e52;" x="302.320479785" xlink:href="#m73237c8926" y="380.094975"/>
     <use style="fill:#c44e52;" x="329.070781133" xlink:href="#m73237c8926" y="373.81871875"/>
     <use style="fill:#c44e52;" x="355.82108248" xlink:href="#m73237c8926" y="380.094975"/>
     <use style="fill:#c44e52;" x="382.571383828" xlink:href="#m73237c8926" y="367.5424625"/>
     <use style="fill:#c44e52;" x="409.321685176" xlink:href="#m73237c8926" y="380.094975"/>
     <use style="fill:#c44e52;" x="436.071986523" xlink:href="#m73237c8926" y="392.6474875"/>
     <use style="fill:#c44e52;" x="462.822287871" xlink:href="#m73237c8926" y="386.37123125"/>
     <use style="fill:#c44e52;" x="489.572589219" xlink:href="#m73237c8926" y="386.37123125"/>
     <use style="fill:#c44e52;" x="516.322890566" xlink:href="#m73237c8926" y="398.92374375"/>
     <use style="fill:#c44e52;" x="543.073191914" xlink:href="#m73237c8926" y="405.2"/>
     <use style="fill:#c44e52;" x="569.823493262" xlink:href="#m73237c8926" y="392.6474875"/>
     <use style="fill:#c44e52;" x="596.573794609" xlink:href="#m73237c8926" y="405.2"/>
     <use style="fill:#c44e52;" x="623.324095957" xlink:href="#m73237c8926" y="405.2"/>
     <use style="fill:#c44e52;" x="650.074397305" xlink:href="#m73237c8926" y="398.92374375"/>
    </g>
   </g>
   <g id="patch_47">
    <path d="M 34.817466 405.2 
L 34.817466 248.293594 
" style="fill:none;stroke:#cccccc;stroke-linecap:square;stroke-linejoin:miter;"/>
   </g>
   <g id="patch_48">
    <path d="M 34.817466 248.293594 
L 703.575 248.293594 
" style="fill:none;stroke:#cccccc;stroke-linecap:square;stroke-linejoin:miter;"/>
   </g>
   <g id="patch_49">
    <path d="M 703.575 405.2 
L 703.575 248.293594 
" style="fill:none;stroke:#cccccc;stroke-linecap:square;stroke-linejoin:miter;"/>
   </g>
   <g id="patch_50">
    <path d="M 34.817466 405.2 
L 703.575 405.2 
" style="fill:none;stroke:#cccccc;stroke-linecap:square;stroke-linejoin:miter;"/>
   </g>
   <g id="text_35">
    <!-- order count by interval days between order and orders per an address -->
    <g style="fill:#262626;" transform="translate(183.437170654 243.29359375)scale(0.12 -0.12)">
     <use xlink:href="#ArialMT-6f"/>
     <use x="55.615234375" xlink:href="#ArialMT-72"/>
     <use x="88.916015625" xlink:href="#ArialMT-64"/>
     <use x="144.53125" xlink:href="#ArialMT-65"/>
     <use x="200.146484375" xlink:href="#ArialMT-72"/>
     <use x="233.447265625" xlink:href="#ArialMT-20"/>
     <use x="261.23046875" xlink:href="#ArialMT-63"/>
     <use x="311.23046875" xlink:href="#ArialMT-6f"/>
     <use x="366.845703125" xlink:href="#ArialMT-75"/>
     <use x="422.4609375" xlink:href="#ArialMT-6e"/>
     <use x="478.076171875" xlink:href="#ArialMT-74"/>
     <use x="505.859375" xlink:href="#ArialMT-20"/>
     <use x="533.642578125" xlink:href="#ArialMT-62"/>
     <use x="589.2578125" xlink:href="#ArialMT-79"/>
     <use x="639.2578125" xlink:href="#ArialMT-20"/>
     <use x="667.041015625" xlink:href="#ArialMT-69"/>
     <use x="689.2578125" xlink:href="#ArialMT-6e"/>
     <use x="744.873046875" xlink:href="#ArialMT-74"/>
     <use x="772.65625" xlink:href="#ArialMT-65"/>
     <use x="828.271484375" xlink:href="#ArialMT-72"/>
     <use x="861.572265625" xlink:href="#ArialMT-76"/>
     <use x="911.572265625" xlink:href="#ArialMT-61"/>
     <use x="967.1875" xlink:href="#ArialMT-6c"/>
     <use x="989.404296875" xlink:href="#ArialMT-20"/>
     <use x="1017.1875" xlink:href="#ArialMT-64"/>
     <use x="1072.802734375" xlink:href="#ArialMT-61"/>
     <use x="1128.41796875" xlink:href="#ArialMT-79"/>
     <use x="1178.41796875" xlink:href="#ArialMT-73"/>
     <use x="1228.41796875" xlink:href="#ArialMT-20"/>
     <use x="1256.201171875" xlink:href="#ArialMT-62"/>
     <use x="1311.81640625" xlink:href="#ArialMT-65"/>
     <use x="1367.431640625" xlink:href="#ArialMT-74"/>
     <use x="1395.21484375" xlink:href="#ArialMT-77"/>
     <use x="1467.431640625" xlink:href="#ArialMT-65"/>
     <use x="1523.046875" xlink:href="#ArialMT-65"/>
     <use x="1578.662109375" xlink:href="#ArialMT-6e"/>
     <use x="1634.27734375" xlink:href="#ArialMT-20"/>
     <use x="1662.060546875" xlink:href="#ArialMT-6f"/>
     <use x="1717.67578125" xlink:href="#ArialMT-72"/>
     <use x="1750.9765625" xlink:href="#ArialMT-64"/>
     <use x="1806.591796875" xlink:href="#ArialMT-65"/>
     <use x="1862.20703125" xlink:href="#ArialMT-72"/>
     <use x="1895.5078125" xlink:href="#ArialMT-20"/>
     <use x="1923.291015625" xlink:href="#ArialMT-61"/>
     <use x="1978.90625" xlink:href="#ArialMT-6e"/>
     <use x="2034.521484375" xlink:href="#ArialMT-64"/>
     <use x="2090.13671875" xlink:href="#ArialMT-20"/>
     <use x="2117.919921875" xlink:href="#ArialMT-6f"/>
     <use x="2173.53515625" xlink:href="#ArialMT-72"/>
     <use x="2206.8359375" xlink:href="#ArialMT-64"/>
     <use x="2262.451171875" xlink:href="#ArialMT-65"/>
     <use x="2318.06640625" xlink:href="#ArialMT-72"/>
     <use x="2351.3671875" xlink:href="#ArialMT-73"/>
     <use x="2401.3671875" xlink:href="#ArialMT-20"/>
     <use x="2429.150390625" xlink:href="#ArialMT-70"/>
     <use x="2484.765625" xlink:href="#ArialMT-65"/>
     <use x="2540.380859375" xlink:href="#ArialMT-72"/>
     <use x="2573.681640625" xlink:href="#ArialMT-20"/>
     <use x="2601.46484375" xlink:href="#ArialMT-61"/>
     <use x="2657.080078125" xlink:href="#ArialMT-6e"/>
     <use x="2712.6953125" xlink:href="#ArialMT-20"/>
     <use x="2740.478515625" xlink:href="#ArialMT-61"/>
     <use x="2796.09375" xlink:href="#ArialMT-64"/>
     <use x="2851.708984375" xlink:href="#ArialMT-64"/>
     <use x="2907.32421875" xlink:href="#ArialMT-72"/>
     <use x="2940.625" xlink:href="#ArialMT-65"/>
     <use x="2996.240234375" xlink:href="#ArialMT-73"/>
     <use x="3046.240234375" xlink:href="#ArialMT-73"/>
    </g>
   </g>
   <g id="legend_1">
    <g id="line2d_126">
     <path d="M 661.014063 260.951406 
L 681.014063 260.951406 
" style="fill:none;stroke:#4c72b0;stroke-linecap:round;stroke-width:1.75;"/>
    </g>
    <g id="line2d_127">
     <g>
      <use style="fill:#4c72b0;" x="671.0140625" xlink:href="#m402f32892b" y="260.95140625"/>
     </g>
    </g>
    <g id="text_36">
     <!-- 2 -->
     <g style="fill:#262626;" transform="translate(689.0140625 264.45140625)scale(0.1 -0.1)">
      <use xlink:href="#ArialMT-32"/>
     </g>
    </g>
    <g id="line2d_128">
     <path d="M 661.014063 275.096719 
L 681.014063 275.096719 
" style="fill:none;stroke:#55a868;stroke-linecap:round;stroke-width:1.75;"/>
    </g>
    <g id="line2d_129">
     <g>
      <use style="fill:#55a868;" x="671.0140625" xlink:href="#m74507bf9c9" y="275.09671875"/>
     </g>
    </g>
    <g id="text_37">
     <!-- 3 -->
     <g style="fill:#262626;" transform="translate(689.0140625 278.59671875)scale(0.1 -0.1)">
      <use xlink:href="#ArialMT-33"/>
     </g>
    </g>
    <g id="line2d_130">
     <path d="M 661.014063 289.242031 
L 681.014063 289.242031 
" style="fill:none;stroke:#c44e52;stroke-linecap:round;stroke-width:1.75;"/>
    </g>
    <g id="line2d_131">
     <g>
      <use style="fill:#c44e52;" x="671.0140625" xlink:href="#m73237c8926" y="289.24203125"/>
     </g>
    </g>
    <g id="text_38">
     <!-- 4 -->
     <g style="fill:#262626;" transform="translate(689.0140625 292.74203125)scale(0.1 -0.1)">
      <use xlink:href="#ArialMT-34"/>
     </g>
    </g>
   </g>
  </g>
 </g>
 <defs>
  <clipPath id="pbe829001b6">
   <rect height="156.90640625" width="312.853766846" x="34.8174663086" y="37.0934375"/>
  </clipPath>
  <clipPath id="p595cafef85">
   <rect height="156.90640625" width="312.853766846" x="390.721233154" y="37.0934375"/>
  </clipPath>
  <clipPath id="p7ea1918cd3">
   <rect height="156.90640625" width="668.757533691" x="34.8174663086" y="248.29359375"/>
  </clipPath>
 </defs>
</svg>
