<?xml version="1.0" encoding="UTF-8" standalone="no"?>
<!DOCTYPE svg PUBLIC "-//W3C//DTD SVG 1.1//EN"
 "http://www.w3.org/Graphics/SVG/1.1/DTD/svg11.dtd">
<!-- Generated by graphviz version 2.38.0 (20140413.2041)
 -->
<!-- Title: Tree Pages: 1 -->
<svg width="1256pt" height="671pt"
 viewBox="0.00 0.00 1256.00 671.00" xmlns="http://www.w3.org/2000/svg" xmlns:xlink="http://www.w3.org/1999/xlink">
<g id="graph0" class="graph" transform="scale(1 1) rotate(0) translate(4 667)">
<title>Tree</title>
<polygon fill="white" stroke="none" points="-4,4 -4,-667 1252,-667 1252,4 -4,4"/>
<!-- 0 -->
<g id="node1" class="node"><title>0</title>
<path fill="#399de5" fill-opacity="0.443137" stroke="black" d="M674,-663C674,-663 552,-663 552,-663 546,-663 540,-657 540,-651 540,-651 540,-592 540,-592 540,-586 546,-580 552,-580 552,-580 674,-580 674,-580 680,-580 686,-586 686,-592 686,-592 686,-651 686,-651 686,-657 680,-663 674,-663"/>
<text text-anchor="start" x="566" y="-647.8" font-family="Helvetica,sans-Serif" font-size="14.00">run&#45;times ≤ 2.5</text>
<text text-anchor="start" x="571.5" y="-632.8" font-family="Helvetica,sans-Serif" font-size="14.00">gini = 0.4591</text>
<text text-anchor="start" x="561.5" y="-617.8" font-family="Helvetica,sans-Serif" font-size="14.00">samples = 5000</text>
<text text-anchor="start" x="548" y="-602.8" font-family="Helvetica,sans-Serif" font-size="14.00">value = [1785, 3215]</text>
<text text-anchor="start" x="583.5" y="-587.8" font-family="Helvetica,sans-Serif" font-size="14.00">class = N</text>
</g>
<!-- 1 -->
<g id="node2" class="node"><title>1</title>
<path fill="#e58139" fill-opacity="0.145098" stroke="black" d="M600,-544C600,-544 470,-544 470,-544 464,-544 458,-538 458,-532 458,-532 458,-473 458,-473 458,-467 464,-461 470,-461 470,-461 600,-461 600,-461 606,-461 612,-467 612,-473 612,-473 612,-532 612,-532 612,-538 606,-544 600,-544"/>
<text text-anchor="start" x="466" y="-528.8" font-family="Helvetica,sans-Serif" font-size="14.00">shoe&#45;has&#45;colors ≤ 0.5</text>
<text text-anchor="start" x="497.5" y="-513.8" font-family="Helvetica,sans-Serif" font-size="14.00">gini = 0.497</text>
<text text-anchor="start" x="483.5" y="-498.8" font-family="Helvetica,sans-Serif" font-size="14.00">samples = 3313</text>
<text text-anchor="start" x="470" y="-483.8" font-family="Helvetica,sans-Serif" font-size="14.00">value = [1785, 1528]</text>
<text text-anchor="start" x="506" y="-468.8" font-family="Helvetica,sans-Serif" font-size="14.00">class = Y</text>
</g>
<!-- 0&#45;&gt;1 -->
<g id="edge1" class="edge"><title>0&#45;&gt;1</title>
<path fill="none" stroke="black" d="M585.938,-579.907C580.07,-571.105 573.802,-561.703 567.741,-552.612"/>
<polygon fill="black" stroke="black" points="570.473,-550.4 562.014,-544.021 564.649,-554.283 570.473,-550.4"/>
<text text-anchor="middle" x="557.111" y="-564.835" font-family="Helvetica,sans-Serif" font-size="14.00">True</text>
</g>
<!-- 24 -->
<g id="node25" class="node"><title>24</title>
<path fill="#399de5" stroke="black" d="M740,-536.5C740,-536.5 642,-536.5 642,-536.5 636,-536.5 630,-530.5 630,-524.5 630,-524.5 630,-480.5 630,-480.5 630,-474.5 636,-468.5 642,-468.5 642,-468.5 740,-468.5 740,-468.5 746,-468.5 752,-474.5 752,-480.5 752,-480.5 752,-524.5 752,-524.5 752,-530.5 746,-536.5 740,-536.5"/>
<text text-anchor="start" x="662" y="-521.3" font-family="Helvetica,sans-Serif" font-size="14.00">gini = 0.0</text>
<text text-anchor="start" x="639.5" y="-506.3" font-family="Helvetica,sans-Serif" font-size="14.00">samples = 1687</text>
<text text-anchor="start" x="638" y="-491.3" font-family="Helvetica,sans-Serif" font-size="14.00">value = [0, 1687]</text>
<text text-anchor="start" x="661.5" y="-476.3" font-family="Helvetica,sans-Serif" font-size="14.00">class = N</text>
</g>
<!-- 0&#45;&gt;24 -->
<g id="edge24" class="edge"><title>0&#45;&gt;24</title>
<path fill="none" stroke="black" d="M640.062,-579.907C647.565,-568.652 655.721,-556.418 663.263,-545.106"/>
<polygon fill="black" stroke="black" points="666.254,-546.929 668.889,-536.667 660.429,-543.046 666.254,-546.929"/>
<text text-anchor="middle" x="673.792" y="-557.481" font-family="Helvetica,sans-Serif" font-size="14.00">False</text>
</g>
<!-- 2 -->
<g id="node3" class="node"><title>2</title>
<path fill="#e58139" fill-opacity="0.800000" stroke="black" d="M490,-425C490,-425 376,-425 376,-425 370,-425 364,-419 364,-413 364,-413 364,-354 364,-354 364,-348 370,-342 376,-342 376,-342 490,-342 490,-342 496,-342 502,-348 502,-354 502,-354 502,-413 502,-413 502,-419 496,-425 490,-425"/>
<text text-anchor="start" x="386" y="-409.8" font-family="Helvetica,sans-Serif" font-size="14.00">run&#45;times ≤ 0.5</text>
<text text-anchor="start" x="391.5" y="-394.8" font-family="Helvetica,sans-Serif" font-size="14.00">gini = 0.2763</text>
<text text-anchor="start" x="381.5" y="-379.8" font-family="Helvetica,sans-Serif" font-size="14.00">samples = 1389</text>
<text text-anchor="start" x="372" y="-364.8" font-family="Helvetica,sans-Serif" font-size="14.00">value = [1159, 230]</text>
<text text-anchor="start" x="404" y="-349.8" font-family="Helvetica,sans-Serif" font-size="14.00">class = Y</text>
</g>
<!-- 1&#45;&gt;2 -->
<g id="edge2" class="edge"><title>1&#45;&gt;2</title>
<path fill="none" stroke="black" d="M499.612,-460.907C491.7,-451.832 483.234,-442.121 475.081,-432.769"/>
<polygon fill="black" stroke="black" points="477.535,-430.259 468.326,-425.021 472.259,-434.859 477.535,-430.259"/>
</g>
<!-- 13 -->
<g id="node14" class="node"><title>13</title>
<path fill="#399de5" fill-opacity="0.517647" stroke="black" d="M725,-425C725,-425 551,-425 551,-425 545,-425 539,-419 539,-413 539,-413 539,-354 539,-354 539,-348 545,-342 551,-342 551,-342 725,-342 725,-342 731,-342 737,-348 737,-354 737,-354 737,-413 737,-413 737,-419 731,-425 725,-425"/>
<text text-anchor="start" x="547" y="-409.8" font-family="Helvetica,sans-Serif" font-size="14.00">shoe&#45;has&#45;cool&#45;features ≤ 0.5</text>
<text text-anchor="start" x="600.5" y="-394.8" font-family="Helvetica,sans-Serif" font-size="14.00">gini = 0.439</text>
<text text-anchor="start" x="586.5" y="-379.8" font-family="Helvetica,sans-Serif" font-size="14.00">samples = 1924</text>
<text text-anchor="start" x="577" y="-364.8" font-family="Helvetica,sans-Serif" font-size="14.00">value = [626, 1298]</text>
<text text-anchor="start" x="608.5" y="-349.8" font-family="Helvetica,sans-Serif" font-size="14.00">class = N</text>
</g>
<!-- 1&#45;&gt;13 -->
<g id="edge13" class="edge"><title>1&#45;&gt;13</title>
<path fill="none" stroke="black" d="M570.735,-460.907C578.725,-451.832 587.274,-442.121 595.506,-432.769"/>
<polygon fill="black" stroke="black" points="598.347,-434.839 602.328,-425.021 593.093,-430.214 598.347,-434.839"/>
</g>
<!-- 3 -->
<g id="node4" class="node"><title>3</title>
<path fill="#e58139" fill-opacity="0.650980" stroke="black" d="M284,-306C284,-306 110,-306 110,-306 104,-306 98,-300 98,-294 98,-294 98,-235 98,-235 98,-229 104,-223 110,-223 110,-223 284,-223 284,-223 290,-223 296,-229 296,-235 296,-235 296,-294 296,-294 296,-300 290,-306 284,-306"/>
<text text-anchor="start" x="106" y="-290.8" font-family="Helvetica,sans-Serif" font-size="14.00">shoe&#45;has&#45;cool&#45;features ≤ 0.5</text>
<text text-anchor="start" x="155.5" y="-275.8" font-family="Helvetica,sans-Serif" font-size="14.00">gini = 0.3835</text>
<text text-anchor="start" x="149.5" y="-260.8" font-family="Helvetica,sans-Serif" font-size="14.00">samples = 491</text>
<text text-anchor="start" x="140" y="-245.8" font-family="Helvetica,sans-Serif" font-size="14.00">value = [364, 127]</text>
<text text-anchor="start" x="168" y="-230.8" font-family="Helvetica,sans-Serif" font-size="14.00">class = Y</text>
</g>
<!-- 2&#45;&gt;3 -->
<g id="edge3" class="edge"><title>2&#45;&gt;3</title>
<path fill="none" stroke="black" d="M363.787,-348.187C340.045,-336.416 313.104,-323.06 287.906,-310.568"/>
<polygon fill="black" stroke="black" points="289.225,-307.315 278.711,-306.009 286.116,-313.587 289.225,-307.315"/>
</g>
<!-- 6 -->
<g id="node7" class="node"><title>6</title>
<path fill="#e58139" fill-opacity="0.870588" stroke="black" d="M520,-306C520,-306 346,-306 346,-306 340,-306 334,-300 334,-294 334,-294 334,-235 334,-235 334,-229 340,-223 346,-223 346,-223 520,-223 520,-223 526,-223 532,-229 532,-235 532,-235 532,-294 532,-294 532,-300 526,-306 520,-306"/>
<text text-anchor="start" x="342" y="-290.8" font-family="Helvetica,sans-Serif" font-size="14.00">shoe&#45;has&#45;cool&#45;features ≤ 0.5</text>
<text text-anchor="start" x="391.5" y="-275.8" font-family="Helvetica,sans-Serif" font-size="14.00">gini = 0.2031</text>
<text text-anchor="start" x="385.5" y="-260.8" font-family="Helvetica,sans-Serif" font-size="14.00">samples = 898</text>
<text text-anchor="start" x="376" y="-245.8" font-family="Helvetica,sans-Serif" font-size="14.00">value = [795, 103]</text>
<text text-anchor="start" x="404" y="-230.8" font-family="Helvetica,sans-Serif" font-size="14.00">class = Y</text>
</g>
<!-- 2&#45;&gt;6 -->
<g id="edge6" class="edge"><title>2&#45;&gt;6</title>
<path fill="none" stroke="black" d="M433,-341.907C433,-333.649 433,-324.864 433,-316.302"/>
<polygon fill="black" stroke="black" points="436.5,-316.021 433,-306.021 429.5,-316.021 436.5,-316.021"/>
</g>
<!-- 4 -->
<g id="node5" class="node"><title>4</title>
<path fill="#e58139" fill-opacity="0.701961" stroke="black" d="M110,-179.5C110,-179.5 12,-179.5 12,-179.5 6,-179.5 7.10543e-015,-173.5 7.10543e-015,-167.5 7.10543e-015,-167.5 7.10543e-015,-123.5 7.10543e-015,-123.5 7.10543e-015,-117.5 6,-111.5 12,-111.5 12,-111.5 110,-111.5 110,-111.5 116,-111.5 122,-117.5 122,-123.5 122,-123.5 122,-167.5 122,-167.5 122,-173.5 116,-179.5 110,-179.5"/>
<text text-anchor="start" x="19.5" y="-164.3" font-family="Helvetica,sans-Serif" font-size="14.00">gini = 0.3536</text>
<text text-anchor="start" x="13.5" y="-149.3" font-family="Helvetica,sans-Serif" font-size="14.00">samples = 401</text>
<text text-anchor="start" x="8" y="-134.3" font-family="Helvetica,sans-Serif" font-size="14.00">value = [309, 92]</text>
<text text-anchor="start" x="32" y="-119.3" font-family="Helvetica,sans-Serif" font-size="14.00">class = Y</text>
</g>
<!-- 3&#45;&gt;4 -->
<g id="edge4" class="edge"><title>3&#45;&gt;4</title>
<path fill="none" stroke="black" d="M149.815,-222.907C136.091,-211.101 121.115,-198.217 107.437,-186.45"/>
<polygon fill="black" stroke="black" points="109.416,-183.535 99.553,-179.667 104.851,-188.842 109.416,-183.535"/>
</g>
<!-- 5 -->
<g id="node6" class="node"><title>5</title>
<path fill="#e58139" fill-opacity="0.364706" stroke="black" d="M241.5,-179.5C241.5,-179.5 152.5,-179.5 152.5,-179.5 146.5,-179.5 140.5,-173.5 140.5,-167.5 140.5,-167.5 140.5,-123.5 140.5,-123.5 140.5,-117.5 146.5,-111.5 152.5,-111.5 152.5,-111.5 241.5,-111.5 241.5,-111.5 247.5,-111.5 253.5,-117.5 253.5,-123.5 253.5,-123.5 253.5,-167.5 253.5,-167.5 253.5,-173.5 247.5,-179.5 241.5,-179.5"/>
<text text-anchor="start" x="155.5" y="-164.3" font-family="Helvetica,sans-Serif" font-size="14.00">gini = 0.4753</text>
<text text-anchor="start" x="153.5" y="-149.3" font-family="Helvetica,sans-Serif" font-size="14.00">samples = 90</text>
<text text-anchor="start" x="148.5" y="-134.3" font-family="Helvetica,sans-Serif" font-size="14.00">value = [55, 35]</text>
<text text-anchor="start" x="168" y="-119.3" font-family="Helvetica,sans-Serif" font-size="14.00">class = Y</text>
</g>
<!-- 3&#45;&gt;5 -->
<g id="edge5" class="edge"><title>3&#45;&gt;5</title>
<path fill="none" stroke="black" d="M197,-222.907C197,-212.204 197,-200.615 197,-189.776"/>
<polygon fill="black" stroke="black" points="200.5,-189.667 197,-179.667 193.5,-189.667 200.5,-189.667"/>
</g>
<!-- 7 -->
<g id="node8" class="node"><title>7</title>
<path fill="#e58139" fill-opacity="0.905882" stroke="black" d="M382,-187C382,-187 284,-187 284,-187 278,-187 272,-181 272,-175 272,-175 272,-116 272,-116 272,-110 278,-104 284,-104 284,-104 382,-104 382,-104 388,-104 394,-110 394,-116 394,-116 394,-175 394,-175 394,-181 388,-187 382,-187"/>
<text text-anchor="start" x="286" y="-171.8" font-family="Helvetica,sans-Serif" font-size="14.00">run&#45;times ≤ 1.5</text>
<text text-anchor="start" x="291.5" y="-156.8" font-family="Helvetica,sans-Serif" font-size="14.00">gini = 0.1565</text>
<text text-anchor="start" x="285.5" y="-141.8" font-family="Helvetica,sans-Serif" font-size="14.00">samples = 748</text>
<text text-anchor="start" x="280" y="-126.8" font-family="Helvetica,sans-Serif" font-size="14.00">value = [684, 64]</text>
<text text-anchor="start" x="304" y="-111.8" font-family="Helvetica,sans-Serif" font-size="14.00">class = Y</text>
</g>
<!-- 6&#45;&gt;7 -->
<g id="edge7" class="edge"><title>6&#45;&gt;7</title>
<path fill="none" stroke="black" d="M398.305,-222.907C390.549,-213.832 382.249,-204.121 374.256,-194.769"/>
<polygon fill="black" stroke="black" points="376.791,-192.349 367.633,-187.021 371.47,-196.897 376.791,-192.349"/>
</g>
<!-- 10 -->
<g id="node11" class="node"><title>10</title>
<path fill="#e58139" fill-opacity="0.647059" stroke="black" d="M522,-187C522,-187 424,-187 424,-187 418,-187 412,-181 412,-175 412,-175 412,-116 412,-116 412,-110 418,-104 424,-104 424,-104 522,-104 522,-104 528,-104 534,-110 534,-116 534,-116 534,-175 534,-175 534,-181 528,-187 522,-187"/>
<text text-anchor="start" x="426" y="-171.8" font-family="Helvetica,sans-Serif" font-size="14.00">run&#45;times ≤ 1.5</text>
<text text-anchor="start" x="431.5" y="-156.8" font-family="Helvetica,sans-Serif" font-size="14.00">gini = 0.3848</text>
<text text-anchor="start" x="425.5" y="-141.8" font-family="Helvetica,sans-Serif" font-size="14.00">samples = 150</text>
<text text-anchor="start" x="420" y="-126.8" font-family="Helvetica,sans-Serif" font-size="14.00">value = [111, 39]</text>
<text text-anchor="start" x="444" y="-111.8" font-family="Helvetica,sans-Serif" font-size="14.00">class = Y</text>
</g>
<!-- 6&#45;&gt;10 -->
<g id="edge10" class="edge"><title>6&#45;&gt;10</title>
<path fill="none" stroke="black" d="M446.878,-222.907C449.763,-214.468 452.837,-205.477 455.825,-196.738"/>
<polygon fill="black" stroke="black" points="459.223,-197.615 459.147,-187.021 452.6,-195.351 459.223,-197.615"/>
</g>
<!-- 8 -->
<g id="node9" class="node"><title>8</title>
<path fill="#e58139" fill-opacity="0.894118" stroke="black" d="M243,-68C243,-68 145,-68 145,-68 139,-68 133,-62 133,-56 133,-56 133,-12 133,-12 133,-6 139,-0 145,-0 145,-0 243,-0 243,-0 249,-0 255,-6 255,-12 255,-12 255,-56 255,-56 255,-62 249,-68 243,-68"/>
<text text-anchor="start" x="152.5" y="-52.8" font-family="Helvetica,sans-Serif" font-size="14.00">gini = 0.1709</text>
<text text-anchor="start" x="146.5" y="-37.8" font-family="Helvetica,sans-Serif" font-size="14.00">samples = 371</text>
<text text-anchor="start" x="141" y="-22.8" font-family="Helvetica,sans-Serif" font-size="14.00">value = [336, 35]</text>
<text text-anchor="start" x="165" y="-7.8" font-family="Helvetica,sans-Serif" font-size="14.00">class = Y</text>
</g>
<!-- 7&#45;&gt;8 -->
<g id="edge8" class="edge"><title>7&#45;&gt;8</title>
<path fill="none" stroke="black" d="M281.242,-103.726C269.2,-94.2406 256.398,-84.1551 244.416,-74.7159"/>
<polygon fill="black" stroke="black" points="246.292,-71.7385 236.271,-68.2996 241.96,-77.2372 246.292,-71.7385"/>
</g>
<!-- 9 -->
<g id="node10" class="node"><title>9</title>
<path fill="#e58139" fill-opacity="0.917647" stroke="black" d="M383,-68C383,-68 285,-68 285,-68 279,-68 273,-62 273,-56 273,-56 273,-12 273,-12 273,-6 279,-0 285,-0 285,-0 383,-0 383,-0 389,-0 395,-6 395,-12 395,-12 395,-56 395,-56 395,-62 389,-68 383,-68"/>
<text text-anchor="start" x="296.5" y="-52.8" font-family="Helvetica,sans-Serif" font-size="14.00">gini = 0.142</text>
<text text-anchor="start" x="286.5" y="-37.8" font-family="Helvetica,sans-Serif" font-size="14.00">samples = 377</text>
<text text-anchor="start" x="281" y="-22.8" font-family="Helvetica,sans-Serif" font-size="14.00">value = [348, 29]</text>
<text text-anchor="start" x="305" y="-7.8" font-family="Helvetica,sans-Serif" font-size="14.00">class = Y</text>
</g>
<!-- 7&#45;&gt;9 -->
<g id="edge9" class="edge"><title>7&#45;&gt;9</title>
<path fill="none" stroke="black" d="M333.372,-103.726C333.447,-95.5175 333.526,-86.8595 333.602,-78.56"/>
<polygon fill="black" stroke="black" points="337.104,-78.3312 333.696,-68.2996 330.105,-78.2672 337.104,-78.3312"/>
</g>
<!-- 11 -->
<g id="node12" class="node"><title>11</title>
<path fill="#e58139" fill-opacity="0.631373" stroke="black" d="M516.5,-68C516.5,-68 427.5,-68 427.5,-68 421.5,-68 415.5,-62 415.5,-56 415.5,-56 415.5,-12 415.5,-12 415.5,-6 421.5,-0 427.5,-0 427.5,-0 516.5,-0 516.5,-0 522.5,-0 528.5,-6 528.5,-12 528.5,-12 528.5,-56 528.5,-56 528.5,-62 522.5,-68 516.5,-68"/>
<text text-anchor="start" x="430.5" y="-52.8" font-family="Helvetica,sans-Serif" font-size="14.00">gini = 0.3926</text>
<text text-anchor="start" x="428.5" y="-37.8" font-family="Helvetica,sans-Serif" font-size="14.00">samples = 82</text>
<text text-anchor="start" x="423.5" y="-22.8" font-family="Helvetica,sans-Serif" font-size="14.00">value = [60, 22]</text>
<text text-anchor="start" x="443" y="-7.8" font-family="Helvetica,sans-Serif" font-size="14.00">class = Y</text>
</g>
<!-- 10&#45;&gt;11 -->
<g id="edge11" class="edge"><title>10&#45;&gt;11</title>
<path fill="none" stroke="black" d="M472.628,-103.726C472.553,-95.5175 472.474,-86.8595 472.398,-78.56"/>
<polygon fill="black" stroke="black" points="475.895,-78.2672 472.304,-68.2996 468.896,-78.3312 475.895,-78.2672"/>
</g>
<!-- 12 -->
<g id="node13" class="node"><title>12</title>
<path fill="#e58139" fill-opacity="0.666667" stroke="black" d="M647.5,-68C647.5,-68 558.5,-68 558.5,-68 552.5,-68 546.5,-62 546.5,-56 546.5,-56 546.5,-12 546.5,-12 546.5,-6 552.5,-0 558.5,-0 558.5,-0 647.5,-0 647.5,-0 653.5,-0 659.5,-6 659.5,-12 659.5,-12 659.5,-56 659.5,-56 659.5,-62 653.5,-68 647.5,-68"/>
<text text-anchor="start" x="565.5" y="-52.8" font-family="Helvetica,sans-Serif" font-size="14.00">gini = 0.375</text>
<text text-anchor="start" x="559.5" y="-37.8" font-family="Helvetica,sans-Serif" font-size="14.00">samples = 68</text>
<text text-anchor="start" x="554.5" y="-22.8" font-family="Helvetica,sans-Serif" font-size="14.00">value = [51, 17]</text>
<text text-anchor="start" x="574" y="-7.8" font-family="Helvetica,sans-Serif" font-size="14.00">class = Y</text>
</g>
<!-- 10&#45;&gt;12 -->
<g id="edge12" class="edge"><title>10&#45;&gt;12</title>
<path fill="none" stroke="black" d="M521.407,-103.726C532.56,-94.3318 544.412,-84.349 555.525,-74.9883"/>
<polygon fill="black" stroke="black" points="558.073,-77.4188 563.466,-68.2996 553.563,-72.065 558.073,-77.4188"/>
</g>
<!-- 14 -->
<g id="node15" class="node"><title>14</title>
<path fill="#399de5" fill-opacity="0.364706" stroke="black" d="M691,-306C691,-306 585,-306 585,-306 579,-306 573,-300 573,-294 573,-294 573,-235 573,-235 573,-229 579,-223 585,-223 585,-223 691,-223 691,-223 697,-223 703,-229 703,-235 703,-235 703,-294 703,-294 703,-300 697,-306 691,-306"/>
<text text-anchor="start" x="591" y="-290.8" font-family="Helvetica,sans-Serif" font-size="14.00">run&#45;times ≤ 0.5</text>
<text text-anchor="start" x="600.5" y="-275.8" font-family="Helvetica,sans-Serif" font-size="14.00">gini = 0.475</text>
<text text-anchor="start" x="586.5" y="-260.8" font-family="Helvetica,sans-Serif" font-size="14.00">samples = 1391</text>
<text text-anchor="start" x="581" y="-245.8" font-family="Helvetica,sans-Serif" font-size="14.00">value = [540, 851]</text>
<text text-anchor="start" x="608.5" y="-230.8" font-family="Helvetica,sans-Serif" font-size="14.00">class = N</text>
</g>
<!-- 13&#45;&gt;14 -->
<g id="edge14" class="edge"><title>13&#45;&gt;14</title>
<path fill="none" stroke="black" d="M638,-341.907C638,-333.649 638,-324.864 638,-316.302"/>
<polygon fill="black" stroke="black" points="641.5,-316.021 638,-306.021 634.5,-316.021 641.5,-316.021"/>
</g>
<!-- 19 -->
<g id="node20" class="node"><title>19</title>
<path fill="#399de5" fill-opacity="0.807843" stroke="black" d="M958,-306C958,-306 860,-306 860,-306 854,-306 848,-300 848,-294 848,-294 848,-235 848,-235 848,-229 854,-223 860,-223 860,-223 958,-223 958,-223 964,-223 970,-229 970,-235 970,-235 970,-294 970,-294 970,-300 964,-306 958,-306"/>
<text text-anchor="start" x="862" y="-290.8" font-family="Helvetica,sans-Serif" font-size="14.00">run&#45;times ≤ 0.5</text>
<text text-anchor="start" x="867.5" y="-275.8" font-family="Helvetica,sans-Serif" font-size="14.00">gini = 0.2706</text>
<text text-anchor="start" x="861.5" y="-260.8" font-family="Helvetica,sans-Serif" font-size="14.00">samples = 533</text>
<text text-anchor="start" x="856" y="-245.8" font-family="Helvetica,sans-Serif" font-size="14.00">value = [86, 447]</text>
<text text-anchor="start" x="879.5" y="-230.8" font-family="Helvetica,sans-Serif" font-size="14.00">class = N</text>
</g>
<!-- 13&#45;&gt;19 -->
<g id="edge19" class="edge"><title>13&#45;&gt;19</title>
<path fill="none" stroke="black" d="M732.022,-341.907C766.946,-326.83 805.938,-309.995 838.415,-295.974"/>
<polygon fill="black" stroke="black" points="840.039,-299.085 847.833,-291.908 837.264,-292.659 840.039,-299.085"/>
</g>
<!-- 15 -->
<g id="node16" class="node"><title>15</title>
<path fill="#399de5" fill-opacity="0.600000" stroke="black" d="M670,-179.5C670,-179.5 564,-179.5 564,-179.5 558,-179.5 552,-173.5 552,-167.5 552,-167.5 552,-123.5 552,-123.5 552,-117.5 558,-111.5 564,-111.5 564,-111.5 670,-111.5 670,-111.5 676,-111.5 682,-117.5 682,-123.5 682,-123.5 682,-167.5 682,-167.5 682,-173.5 676,-179.5 670,-179.5"/>
<text text-anchor="start" x="575.5" y="-164.3" font-family="Helvetica,sans-Serif" font-size="14.00">gini = 0.4082</text>
<text text-anchor="start" x="569.5" y="-149.3" font-family="Helvetica,sans-Serif" font-size="14.00">samples = 651</text>
<text text-anchor="start" x="560" y="-134.3" font-family="Helvetica,sans-Serif" font-size="14.00">value = [186, 465]</text>
<text text-anchor="start" x="587.5" y="-119.3" font-family="Helvetica,sans-Serif" font-size="14.00">class = N</text>
</g>
<!-- 14&#45;&gt;15 -->
<g id="edge15" class="edge"><title>14&#45;&gt;15</title>
<path fill="none" stroke="black" d="M630.714,-222.907C628.793,-212.204 626.713,-200.615 624.768,-189.776"/>
<polygon fill="black" stroke="black" points="628.165,-188.891 622.953,-179.667 621.275,-190.128 628.165,-188.891"/>
</g>
<!-- 16 -->
<g id="node17" class="node"><title>16</title>
<path fill="#399de5" fill-opacity="0.082353" stroke="black" d="M818,-187C818,-187 712,-187 712,-187 706,-187 700,-181 700,-175 700,-175 700,-116 700,-116 700,-110 706,-104 712,-104 712,-104 818,-104 818,-104 824,-104 830,-110 830,-116 830,-116 830,-175 830,-175 830,-181 824,-187 818,-187"/>
<text text-anchor="start" x="718" y="-171.8" font-family="Helvetica,sans-Serif" font-size="14.00">run&#45;times ≤ 1.5</text>
<text text-anchor="start" x="723.5" y="-156.8" font-family="Helvetica,sans-Serif" font-size="14.00">gini = 0.4991</text>
<text text-anchor="start" x="717.5" y="-141.8" font-family="Helvetica,sans-Serif" font-size="14.00">samples = 740</text>
<text text-anchor="start" x="708" y="-126.8" font-family="Helvetica,sans-Serif" font-size="14.00">value = [354, 386]</text>
<text text-anchor="start" x="735.5" y="-111.8" font-family="Helvetica,sans-Serif" font-size="14.00">class = N</text>
</g>
<!-- 14&#45;&gt;16 -->
<g id="edge16" class="edge"><title>14&#45;&gt;16</title>
<path fill="none" stroke="black" d="M682.062,-222.907C692.208,-213.56 703.087,-203.538 713.517,-193.929"/>
<polygon fill="black" stroke="black" points="716.033,-196.371 721.016,-187.021 711.29,-191.222 716.033,-196.371"/>
</g>
<!-- 17 -->
<g id="node18" class="node"><title>17</title>
<path fill="#399de5" fill-opacity="0.066667" stroke="black" d="M800,-68C800,-68 694,-68 694,-68 688,-68 682,-62 682,-56 682,-56 682,-12 682,-12 682,-6 688,-0 694,-0 694,-0 800,-0 800,-0 806,-0 812,-6 812,-12 812,-12 812,-56 812,-56 812,-62 806,-68 800,-68"/>
<text text-anchor="start" x="705.5" y="-52.8" font-family="Helvetica,sans-Serif" font-size="14.00">gini = 0.4994</text>
<text text-anchor="start" x="699.5" y="-37.8" font-family="Helvetica,sans-Serif" font-size="14.00">samples = 373</text>
<text text-anchor="start" x="690" y="-22.8" font-family="Helvetica,sans-Serif" font-size="14.00">value = [180, 193]</text>
<text text-anchor="start" x="717.5" y="-7.8" font-family="Helvetica,sans-Serif" font-size="14.00">class = N</text>
</g>
<!-- 16&#45;&gt;17 -->
<g id="edge17" class="edge"><title>16&#45;&gt;17</title>
<path fill="none" stroke="black" d="M758.297,-103.726C756.933,-95.4263 755.493,-86.6671 754.115,-78.2834"/>
<polygon fill="black" stroke="black" points="757.55,-77.5994 752.474,-68.2996 750.642,-78.7349 757.55,-77.5994"/>
</g>
<!-- 18 -->
<g id="node19" class="node"><title>18</title>
<path fill="#399de5" fill-opacity="0.098039" stroke="black" d="M948,-68C948,-68 842,-68 842,-68 836,-68 830,-62 830,-56 830,-56 830,-12 830,-12 830,-6 836,-0 842,-0 842,-0 948,-0 948,-0 954,-0 960,-6 960,-12 960,-12 960,-56 960,-56 960,-62 954,-68 948,-68"/>
<text text-anchor="start" x="853.5" y="-52.8" font-family="Helvetica,sans-Serif" font-size="14.00">gini = 0.4987</text>
<text text-anchor="start" x="847.5" y="-37.8" font-family="Helvetica,sans-Serif" font-size="14.00">samples = 367</text>
<text text-anchor="start" x="838" y="-22.8" font-family="Helvetica,sans-Serif" font-size="14.00">value = [174, 193]</text>
<text text-anchor="start" x="865.5" y="-7.8" font-family="Helvetica,sans-Serif" font-size="14.00">class = N</text>
</g>
<!-- 16&#45;&gt;18 -->
<g id="edge18" class="edge"><title>16&#45;&gt;18</title>
<path fill="none" stroke="black" d="M813.407,-103.726C824.56,-94.3318 836.412,-84.349 847.525,-74.9883"/>
<polygon fill="black" stroke="black" points="850.073,-77.4188 855.466,-68.2996 845.563,-72.065 850.073,-77.4188"/>
</g>
<!-- 20 -->
<g id="node21" class="node"><title>20</title>
<path fill="#399de5" fill-opacity="0.866667" stroke="black" d="M958,-179.5C958,-179.5 860,-179.5 860,-179.5 854,-179.5 848,-173.5 848,-167.5 848,-167.5 848,-123.5 848,-123.5 848,-117.5 854,-111.5 860,-111.5 860,-111.5 958,-111.5 958,-111.5 964,-111.5 970,-117.5 970,-123.5 970,-123.5 970,-167.5 970,-167.5 970,-173.5 964,-179.5 958,-179.5"/>
<text text-anchor="start" x="867.5" y="-164.3" font-family="Helvetica,sans-Serif" font-size="14.00">gini = 0.2069</text>
<text text-anchor="start" x="861.5" y="-149.3" font-family="Helvetica,sans-Serif" font-size="14.00">samples = 239</text>
<text text-anchor="start" x="856" y="-134.3" font-family="Helvetica,sans-Serif" font-size="14.00">value = [28, 211]</text>
<text text-anchor="start" x="879.5" y="-119.3" font-family="Helvetica,sans-Serif" font-size="14.00">class = N</text>
</g>
<!-- 19&#45;&gt;20 -->
<g id="edge20" class="edge"><title>19&#45;&gt;20</title>
<path fill="none" stroke="black" d="M909,-222.907C909,-212.204 909,-200.615 909,-189.776"/>
<polygon fill="black" stroke="black" points="912.5,-189.667 909,-179.667 905.5,-189.667 912.5,-189.667"/>
</g>
<!-- 21 -->
<g id="node22" class="node"><title>21</title>
<path fill="#399de5" fill-opacity="0.752941" stroke="black" d="M1098,-187C1098,-187 1000,-187 1000,-187 994,-187 988,-181 988,-175 988,-175 988,-116 988,-116 988,-110 994,-104 1000,-104 1000,-104 1098,-104 1098,-104 1104,-104 1110,-110 1110,-116 1110,-116 1110,-175 1110,-175 1110,-181 1104,-187 1098,-187"/>
<text text-anchor="start" x="1002" y="-171.8" font-family="Helvetica,sans-Serif" font-size="14.00">run&#45;times ≤ 1.5</text>
<text text-anchor="start" x="1007.5" y="-156.8" font-family="Helvetica,sans-Serif" font-size="14.00">gini = 0.3167</text>
<text text-anchor="start" x="1001.5" y="-141.8" font-family="Helvetica,sans-Serif" font-size="14.00">samples = 294</text>
<text text-anchor="start" x="996" y="-126.8" font-family="Helvetica,sans-Serif" font-size="14.00">value = [58, 236]</text>
<text text-anchor="start" x="1019.5" y="-111.8" font-family="Helvetica,sans-Serif" font-size="14.00">class = N</text>
</g>
<!-- 19&#45;&gt;21 -->
<g id="edge21" class="edge"><title>19&#45;&gt;21</title>
<path fill="none" stroke="black" d="M957.572,-222.907C968.866,-213.469 980.983,-203.343 992.582,-193.649"/>
<polygon fill="black" stroke="black" points="995.085,-196.119 1000.51,-187.021 990.596,-190.748 995.085,-196.119"/>
</g>
<!-- 22 -->
<g id="node23" class="node"><title>22</title>
<path fill="#399de5" fill-opacity="0.729412" stroke="black" d="M1096,-68C1096,-68 998,-68 998,-68 992,-68 986,-62 986,-56 986,-56 986,-12 986,-12 986,-6 992,-0 998,-0 998,-0 1096,-0 1096,-0 1102,-0 1108,-6 1108,-12 1108,-12 1108,-56 1108,-56 1108,-62 1102,-68 1096,-68"/>
<text text-anchor="start" x="1009.5" y="-52.8" font-family="Helvetica,sans-Serif" font-size="14.00">gini = 0.335</text>
<text text-anchor="start" x="999.5" y="-37.8" font-family="Helvetica,sans-Serif" font-size="14.00">samples = 141</text>
<text text-anchor="start" x="994" y="-22.8" font-family="Helvetica,sans-Serif" font-size="14.00">value = [30, 111]</text>
<text text-anchor="start" x="1017.5" y="-7.8" font-family="Helvetica,sans-Serif" font-size="14.00">class = N</text>
</g>
<!-- 21&#45;&gt;22 -->
<g id="edge22" class="edge"><title>21&#45;&gt;22</title>
<path fill="none" stroke="black" d="M1048.26,-103.726C1048.11,-95.5175 1047.95,-86.8595 1047.8,-78.56"/>
<polygon fill="black" stroke="black" points="1051.29,-78.234 1047.61,-68.2996 1044.29,-78.3619 1051.29,-78.234"/>
</g>
<!-- 23 -->
<g id="node24" class="node"><title>23</title>
<path fill="#399de5" fill-opacity="0.776471" stroke="black" d="M1236,-68C1236,-68 1138,-68 1138,-68 1132,-68 1126,-62 1126,-56 1126,-56 1126,-12 1126,-12 1126,-6 1132,-0 1138,-0 1138,-0 1236,-0 1236,-0 1242,-0 1248,-6 1248,-12 1248,-12 1248,-56 1248,-56 1248,-62 1242,-68 1236,-68"/>
<text text-anchor="start" x="1149.5" y="-52.8" font-family="Helvetica,sans-Serif" font-size="14.00">gini = 0.299</text>
<text text-anchor="start" x="1139.5" y="-37.8" font-family="Helvetica,sans-Serif" font-size="14.00">samples = 153</text>
<text text-anchor="start" x="1134" y="-22.8" font-family="Helvetica,sans-Serif" font-size="14.00">value = [28, 125]</text>
<text text-anchor="start" x="1157.5" y="-7.8" font-family="Helvetica,sans-Serif" font-size="14.00">class = N</text>
</g>
<!-- 21&#45;&gt;23 -->
<g id="edge23" class="edge"><title>21&#45;&gt;23</title>
<path fill="none" stroke="black" d="M1100.39,-103.726C1112.34,-94.2406 1125.05,-84.1551 1136.95,-74.7159"/>
<polygon fill="black" stroke="black" points="1139.38,-77.2571 1145.03,-68.2996 1135.02,-71.7736 1139.38,-77.2571"/>
</g>
</g>
</svg>
