<?xml version="1.0" encoding="utf-8" standalone="no"?>
<!DOCTYPE svg PUBLIC "-//W3C//DTD SVG 1.1//EN"
  "http://www.w3.org/Graphics/SVG/1.1/DTD/svg11.dtd">
<!-- Created with matplotlib (http://matplotlib.org/) -->
<svg height="426pt" version="1.1" viewBox="0 0 803 426" width="803pt" xmlns="http://www.w3.org/2000/svg" xmlns:xlink="http://www.w3.org/1999/xlink">
 <defs>
  <style type="text/css">
*{stroke-linecap:butt;stroke-linejoin:round;stroke-miterlimit:100000;}
  </style>
 </defs>
 <g id="figure_1">
  <g id="patch_1">
   <path d="M 0 426.142969 
L 803.82875 426.142969 
L 803.82875 0 
L 0 0 
z
" style="fill:#ffffff;"/>
  </g>
  <g id="axes_1">
   <g id="patch_2">
    <path d="M 45.942656 177.137813 
L 351.164531 177.137813 
L 351.164531 20.789375 
L 45.942656 20.789375 
z
" style="fill:#ffffff;"/>
   </g>
   <g id="matplotlib.axis_1">
    <g id="xtick_1">
     <g id="line2d_1">
      <defs>
       <path d="M 0 0 
L 0 0 
" id="m59010fbe50" style="stroke:#262626;"/>
      </defs>
      <g>
       <use style="fill:#262626;stroke:#262626;" x="71.3778125" xlink:href="#m59010fbe50" y="177.1378125"/>
      </g>
     </g>
     <g id="line2d_2">
      <g>
       <use style="fill:#262626;stroke:#262626;" x="71.3778125" xlink:href="#m59010fbe50" y="20.789375"/>
      </g>
     </g>
     <g id="text_1">
      <!-- white -->
      <defs>
       <path d="M 16.15625 0 
L 0.296875 51.859375 
L 9.375 51.859375 
L 17.625 21.921875 
L 20.703125 10.796875 
Q 20.90625 11.625 23.390625 21.484375 
L 31.640625 51.859375 
L 40.671875 51.859375 
L 48.4375 21.78125 
L 51.03125 11.859375 
L 54 21.875 
L 62.890625 51.859375 
L 71.4375 51.859375 
L 55.21875 0 
L 46.09375 0 
L 37.84375 31.0625 
L 35.84375 39.890625 
L 25.34375 0 
z
" id="ArialMT-77"/>
       <path d="M 42.09375 16.703125 
L 51.171875 15.578125 
Q 49.03125 7.625 43.21875 3.21875 
Q 37.40625 -1.171875 28.375 -1.171875 
Q 17 -1.171875 10.328125 5.828125 
Q 3.65625 12.84375 3.65625 25.484375 
Q 3.65625 38.578125 10.390625 45.796875 
Q 17.140625 53.03125 27.875 53.03125 
Q 38.28125 53.03125 44.875 45.953125 
Q 51.46875 38.875 51.46875 26.03125 
Q 51.46875 25.25 51.421875 23.6875 
L 12.75 23.6875 
Q 13.234375 15.140625 17.578125 10.59375 
Q 21.921875 6.0625 28.421875 6.0625 
Q 33.25 6.0625 36.671875 8.59375 
Q 40.09375 11.140625 42.09375 16.703125 
M 13.234375 30.90625 
L 42.1875 30.90625 
Q 41.609375 37.453125 38.875 40.71875 
Q 34.671875 45.796875 27.984375 45.796875 
Q 21.921875 45.796875 17.796875 41.75 
Q 13.671875 37.703125 13.234375 30.90625 
" id="ArialMT-65"/>
       <path d="M 25.78125 7.859375 
L 27.046875 0.09375 
Q 23.34375 -0.6875 20.40625 -0.6875 
Q 15.625 -0.6875 12.984375 0.828125 
Q 10.359375 2.34375 9.28125 4.8125 
Q 8.203125 7.28125 8.203125 15.1875 
L 8.203125 45.015625 
L 1.765625 45.015625 
L 1.765625 51.859375 
L 8.203125 51.859375 
L 8.203125 64.703125 
L 16.9375 69.96875 
L 16.9375 51.859375 
L 25.78125 51.859375 
L 25.78125 45.015625 
L 16.9375 45.015625 
L 16.9375 14.703125 
Q 16.9375 10.9375 17.40625 9.859375 
Q 17.875 8.796875 18.921875 8.15625 
Q 19.96875 7.515625 21.921875 7.515625 
Q 23.390625 7.515625 25.78125 7.859375 
" id="ArialMT-74"/>
       <path d="M 6.59375 0 
L 6.59375 71.578125 
L 15.375 71.578125 
L 15.375 45.90625 
Q 21.53125 53.03125 30.90625 53.03125 
Q 36.671875 53.03125 40.921875 50.75 
Q 45.171875 48.484375 47 44.484375 
Q 48.828125 40.484375 48.828125 32.859375 
L 48.828125 0 
L 40.046875 0 
L 40.046875 32.859375 
Q 40.046875 39.453125 37.1875 42.453125 
Q 34.328125 45.453125 29.109375 45.453125 
Q 25.203125 45.453125 21.75 43.421875 
Q 18.3125 41.40625 16.84375 37.9375 
Q 15.375 34.46875 15.375 28.375 
L 15.375 0 
z
" id="ArialMT-68"/>
       <path d="M 6.640625 61.46875 
L 6.640625 71.578125 
L 15.4375 71.578125 
L 15.4375 61.46875 
z
M 6.640625 0 
L 6.640625 51.859375 
L 15.4375 51.859375 
L 15.4375 0 
z
" id="ArialMT-69"/>
      </defs>
      <g style="fill:#262626;" transform="translate(59.7059375 191.295625)scale(0.1 -0.1)">
       <use xlink:href="#ArialMT-77"/>
       <use x="72.216796875" xlink:href="#ArialMT-68"/>
       <use x="127.83203125" xlink:href="#ArialMT-69"/>
       <use x="150.048828125" xlink:href="#ArialMT-74"/>
       <use x="177.83203125" xlink:href="#ArialMT-65"/>
      </g>
     </g>
    </g>
    <g id="xtick_2">
     <g id="line2d_3">
      <g>
       <use style="fill:#262626;stroke:#262626;" x="122.248125" xlink:href="#m59010fbe50" y="177.1378125"/>
      </g>
     </g>
     <g id="line2d_4">
      <g>
       <use style="fill:#262626;stroke:#262626;" x="122.248125" xlink:href="#m59010fbe50" y="20.789375"/>
      </g>
     </g>
     <g id="text_2">
      <!-- red -->
      <defs>
       <path d="M 40.234375 0 
L 40.234375 6.546875 
Q 35.296875 -1.171875 25.734375 -1.171875 
Q 19.53125 -1.171875 14.328125 2.25 
Q 9.125 5.671875 6.265625 11.796875 
Q 3.421875 17.921875 3.421875 25.875 
Q 3.421875 33.640625 6 39.96875 
Q 8.59375 46.296875 13.765625 49.65625 
Q 18.953125 53.03125 25.34375 53.03125 
Q 30.03125 53.03125 33.6875 51.046875 
Q 37.359375 49.078125 39.65625 45.90625 
L 39.65625 71.578125 
L 48.390625 71.578125 
L 48.390625 0 
z
M 12.453125 25.875 
Q 12.453125 15.921875 16.640625 10.984375 
Q 20.84375 6.0625 26.5625 6.0625 
Q 32.328125 6.0625 36.34375 10.765625 
Q 40.375 15.484375 40.375 25.140625 
Q 40.375 35.796875 36.265625 40.765625 
Q 32.171875 45.75 26.171875 45.75 
Q 20.3125 45.75 16.375 40.96875 
Q 12.453125 36.1875 12.453125 25.875 
" id="ArialMT-64"/>
       <path d="M 6.5 0 
L 6.5 51.859375 
L 14.40625 51.859375 
L 14.40625 44 
Q 17.4375 49.515625 20 51.265625 
Q 22.5625 53.03125 25.640625 53.03125 
Q 30.078125 53.03125 34.671875 50.203125 
L 31.640625 42.046875 
Q 28.421875 43.953125 25.203125 43.953125 
Q 22.3125 43.953125 20.015625 42.21875 
Q 17.71875 40.484375 16.75 37.40625 
Q 15.28125 32.71875 15.28125 27.15625 
L 15.28125 0 
z
" id="ArialMT-72"/>
      </defs>
      <g style="fill:#262626;" transform="translate(115.02234375 191.295625)scale(0.1 -0.1)">
       <use xlink:href="#ArialMT-72"/>
       <use x="33.30078125" xlink:href="#ArialMT-65"/>
       <use x="88.916015625" xlink:href="#ArialMT-64"/>
      </g>
     </g>
    </g>
    <g id="xtick_3">
     <g id="line2d_5">
      <g>
       <use style="fill:#262626;stroke:#262626;" x="173.1184375" xlink:href="#m59010fbe50" y="177.1378125"/>
      </g>
     </g>
     <g id="line2d_6">
      <g>
       <use style="fill:#262626;stroke:#262626;" x="173.1184375" xlink:href="#m59010fbe50" y="20.789375"/>
      </g>
     </g>
     <g id="text_3">
      <!-- blue -->
      <defs>
       <path d="M 6.390625 0 
L 6.390625 71.578125 
L 15.1875 71.578125 
L 15.1875 0 
z
" id="ArialMT-6c"/>
       <path d="M 14.703125 0 
L 6.546875 0 
L 6.546875 71.578125 
L 15.328125 71.578125 
L 15.328125 46.046875 
Q 20.90625 53.03125 29.546875 53.03125 
Q 34.328125 53.03125 38.59375 51.09375 
Q 42.875 49.171875 45.625 45.671875 
Q 48.390625 42.1875 49.953125 37.25 
Q 51.515625 32.328125 51.515625 26.703125 
Q 51.515625 13.375 44.921875 6.09375 
Q 38.328125 -1.171875 29.109375 -1.171875 
Q 19.921875 -1.171875 14.703125 6.5 
z
M 14.59375 26.3125 
Q 14.59375 17 17.140625 12.84375 
Q 21.296875 6.0625 28.375 6.0625 
Q 34.125 6.0625 38.328125 11.0625 
Q 42.53125 16.0625 42.53125 25.984375 
Q 42.53125 36.140625 38.5 40.96875 
Q 34.46875 45.796875 28.765625 45.796875 
Q 23 45.796875 18.796875 40.796875 
Q 14.59375 35.796875 14.59375 26.3125 
" id="ArialMT-62"/>
       <path d="M 40.578125 0 
L 40.578125 7.625 
Q 34.515625 -1.171875 24.125 -1.171875 
Q 19.53125 -1.171875 15.546875 0.578125 
Q 11.578125 2.34375 9.640625 5 
Q 7.71875 7.671875 6.9375 11.53125 
Q 6.390625 14.109375 6.390625 19.734375 
L 6.390625 51.859375 
L 15.1875 51.859375 
L 15.1875 23.09375 
Q 15.1875 16.21875 15.71875 13.8125 
Q 16.546875 10.359375 19.234375 8.375 
Q 21.921875 6.390625 25.875 6.390625 
Q 29.828125 6.390625 33.296875 8.421875 
Q 36.765625 10.453125 38.203125 13.9375 
Q 39.65625 17.4375 39.65625 24.078125 
L 39.65625 51.859375 
L 48.4375 51.859375 
L 48.4375 0 
z
" id="ArialMT-75"/>
      </defs>
      <g style="fill:#262626;" transform="translate(163.66609375 191.295625)scale(0.1 -0.1)">
       <use xlink:href="#ArialMT-62"/>
       <use x="55.615234375" xlink:href="#ArialMT-6c"/>
       <use x="77.83203125" xlink:href="#ArialMT-75"/>
       <use x="133.447265625" xlink:href="#ArialMT-65"/>
      </g>
     </g>
    </g>
    <g id="xtick_4">
     <g id="line2d_7">
      <g>
       <use style="fill:#262626;stroke:#262626;" x="223.98875" xlink:href="#m59010fbe50" y="177.1378125"/>
      </g>
     </g>
     <g id="line2d_8">
      <g>
       <use style="fill:#262626;stroke:#262626;" x="223.98875" xlink:href="#m59010fbe50" y="20.789375"/>
      </g>
     </g>
     <g id="text_4">
      <!-- dark-blue -->
      <defs>
       <path d="M 6.640625 0 
L 6.640625 71.578125 
L 15.4375 71.578125 
L 15.4375 30.765625 
L 36.234375 51.859375 
L 47.609375 51.859375 
L 27.78125 32.625 
L 49.609375 0 
L 38.765625 0 
L 21.625 26.515625 
L 15.4375 20.5625 
L 15.4375 0 
z
" id="ArialMT-6b"/>
       <path d="M 3.171875 21.484375 
L 3.171875 30.328125 
L 30.171875 30.328125 
L 30.171875 21.484375 
z
" id="ArialMT-2d"/>
       <path d="M 40.4375 6.390625 
Q 35.546875 2.25 31.03125 0.53125 
Q 26.515625 -1.171875 21.34375 -1.171875 
Q 12.796875 -1.171875 8.203125 3 
Q 3.609375 7.171875 3.609375 13.671875 
Q 3.609375 17.484375 5.34375 20.625 
Q 7.078125 23.78125 9.890625 25.6875 
Q 12.703125 27.59375 16.21875 28.5625 
Q 18.796875 29.25 24.03125 29.890625 
Q 34.671875 31.15625 39.703125 32.90625 
Q 39.75 34.71875 39.75 35.203125 
Q 39.75 40.578125 37.25 42.78125 
Q 33.890625 45.75 27.25 45.75 
Q 21.046875 45.75 18.09375 43.578125 
Q 15.140625 41.40625 13.71875 35.890625 
L 5.125 37.0625 
Q 6.296875 42.578125 8.984375 45.96875 
Q 11.671875 49.359375 16.75 51.1875 
Q 21.828125 53.03125 28.515625 53.03125 
Q 35.15625 53.03125 39.296875 51.46875 
Q 43.453125 49.90625 45.40625 47.53125 
Q 47.359375 45.171875 48.140625 41.546875 
Q 48.578125 39.3125 48.578125 33.453125 
L 48.578125 21.734375 
Q 48.578125 9.46875 49.140625 6.21875 
Q 49.703125 2.984375 51.375 0 
L 42.1875 0 
Q 40.828125 2.734375 40.4375 6.390625 
M 39.703125 26.03125 
Q 34.90625 24.078125 25.34375 22.703125 
Q 19.921875 21.921875 17.671875 20.9375 
Q 15.4375 19.96875 14.203125 18.09375 
Q 12.984375 16.21875 12.984375 13.921875 
Q 12.984375 10.40625 15.640625 8.0625 
Q 18.3125 5.71875 23.4375 5.71875 
Q 28.515625 5.71875 32.46875 7.9375 
Q 36.421875 10.15625 38.28125 14.015625 
Q 39.703125 17 39.703125 22.796875 
z
" id="ArialMT-61"/>
      </defs>
      <g style="fill:#262626;" transform="translate(203.14578125 191.295625)scale(0.1 -0.1)">
       <use xlink:href="#ArialMT-64"/>
       <use x="55.615234375" xlink:href="#ArialMT-61"/>
       <use x="111.23046875" xlink:href="#ArialMT-72"/>
       <use x="144.53125" xlink:href="#ArialMT-6b"/>
       <use x="194.53125" xlink:href="#ArialMT-2d"/>
       <use x="227.83203125" xlink:href="#ArialMT-62"/>
       <use x="283.447265625" xlink:href="#ArialMT-6c"/>
       <use x="305.6640625" xlink:href="#ArialMT-75"/>
       <use x="361.279296875" xlink:href="#ArialMT-65"/>
      </g>
     </g>
    </g>
    <g id="xtick_5">
     <g id="line2d_9">
      <g>
       <use style="fill:#262626;stroke:#262626;" x="274.8590625" xlink:href="#m59010fbe50" y="177.1378125"/>
      </g>
     </g>
     <g id="line2d_10">
      <g>
       <use style="fill:#262626;stroke:#262626;" x="274.8590625" xlink:href="#m59010fbe50" y="20.789375"/>
      </g>
     </g>
     <g id="text_5">
      <!-- silver -->
      <defs>
       <path d="M 21 0 
L 1.265625 51.859375 
L 10.546875 51.859375 
L 21.6875 20.796875 
Q 23.484375 15.765625 25 10.359375 
Q 26.171875 14.453125 28.265625 20.21875 
L 39.796875 51.859375 
L 48.828125 51.859375 
L 29.203125 0 
z
" id="ArialMT-76"/>
       <path d="M 3.078125 15.484375 
L 11.765625 16.84375 
Q 12.5 11.625 15.84375 8.84375 
Q 19.1875 6.0625 25.203125 6.0625 
Q 31.25 6.0625 34.171875 8.515625 
Q 37.109375 10.984375 37.109375 14.3125 
Q 37.109375 17.28125 34.515625 19 
Q 32.71875 20.171875 25.53125 21.96875 
Q 15.875 24.421875 12.140625 26.203125 
Q 8.40625 27.984375 6.46875 31.125 
Q 4.546875 34.28125 4.546875 38.09375 
Q 4.546875 41.546875 6.125 44.5 
Q 7.71875 47.46875 10.453125 49.421875 
Q 12.5 50.921875 16.03125 51.96875 
Q 19.578125 53.03125 23.640625 53.03125 
Q 29.734375 53.03125 34.34375 51.265625 
Q 38.96875 49.515625 41.15625 46.5 
Q 43.359375 43.5 44.1875 38.484375 
L 35.59375 37.3125 
Q 35.015625 41.3125 32.203125 43.546875 
Q 29.390625 45.796875 24.265625 45.796875 
Q 18.21875 45.796875 15.625 43.796875 
Q 13.03125 41.796875 13.03125 39.109375 
Q 13.03125 37.40625 14.109375 36.03125 
Q 15.1875 34.625 17.484375 33.6875 
Q 18.796875 33.203125 25.25 31.453125 
Q 34.578125 28.953125 38.25 27.359375 
Q 41.9375 25.78125 44.03125 22.75 
Q 46.140625 19.734375 46.140625 15.234375 
Q 46.140625 10.84375 43.578125 6.953125 
Q 41.015625 3.078125 36.171875 0.953125 
Q 31.34375 -1.171875 25.25 -1.171875 
Q 15.140625 -1.171875 9.84375 3.03125 
Q 4.546875 7.234375 3.078125 15.484375 
" id="ArialMT-73"/>
      </defs>
      <g style="fill:#262626;" transform="translate(263.191875 191.295625)scale(0.1 -0.1)">
       <use xlink:href="#ArialMT-73"/>
       <use x="50.0" xlink:href="#ArialMT-69"/>
       <use x="72.216796875" xlink:href="#ArialMT-6c"/>
       <use x="94.43359375" xlink:href="#ArialMT-76"/>
       <use x="144.43359375" xlink:href="#ArialMT-65"/>
       <use x="200.048828125" xlink:href="#ArialMT-72"/>
      </g>
     </g>
    </g>
    <g id="xtick_6">
     <g id="line2d_11">
      <g>
       <use style="fill:#262626;stroke:#262626;" x="325.729375" xlink:href="#m59010fbe50" y="177.1378125"/>
      </g>
     </g>
     <g id="line2d_12">
      <g>
       <use style="fill:#262626;stroke:#262626;" x="325.729375" xlink:href="#m59010fbe50" y="20.789375"/>
      </g>
     </g>
     <g id="text_6">
      <!-- black -->
      <defs>
       <path d="M 40.4375 19 
L 49.078125 17.875 
Q 47.65625 8.9375 41.8125 3.875 
Q 35.984375 -1.171875 27.484375 -1.171875 
Q 16.84375 -1.171875 10.375 5.78125 
Q 3.90625 12.75 3.90625 25.734375 
Q 3.90625 34.125 6.6875 40.421875 
Q 9.46875 46.734375 15.15625 49.875 
Q 20.84375 53.03125 27.546875 53.03125 
Q 35.984375 53.03125 41.359375 48.75 
Q 46.734375 44.484375 48.25 36.625 
L 39.703125 35.296875 
Q 38.484375 40.53125 35.375 43.15625 
Q 32.28125 45.796875 27.875 45.796875 
Q 21.234375 45.796875 17.078125 41.03125 
Q 12.9375 36.28125 12.9375 25.984375 
Q 12.9375 15.53125 16.9375 10.796875 
Q 20.953125 6.0625 27.390625 6.0625 
Q 32.5625 6.0625 36.03125 9.234375 
Q 39.5 12.40625 40.4375 19 
" id="ArialMT-63"/>
      </defs>
      <g style="fill:#262626;" transform="translate(314.0575 191.295625)scale(0.1 -0.1)">
       <use xlink:href="#ArialMT-62"/>
       <use x="55.615234375" xlink:href="#ArialMT-6c"/>
       <use x="77.83203125" xlink:href="#ArialMT-61"/>
       <use x="133.447265625" xlink:href="#ArialMT-63"/>
       <use x="183.447265625" xlink:href="#ArialMT-6b"/>
      </g>
     </g>
    </g>
    <g id="text_7">
     <!-- Color -->
     <defs>
      <path d="M 3.328125 25.921875 
Q 3.328125 40.328125 11.328125 47.265625 
Q 18.015625 53.03125 27.640625 53.03125 
Q 38.328125 53.03125 45.109375 46.015625 
Q 51.90625 39.015625 51.90625 26.65625 
Q 51.90625 16.65625 48.90625 10.90625 
Q 45.90625 5.171875 40.15625 2 
Q 34.421875 -1.171875 27.640625 -1.171875 
Q 16.75 -1.171875 10.03125 5.8125 
Q 3.328125 12.796875 3.328125 25.921875 
M 12.359375 25.921875 
Q 12.359375 15.96875 16.703125 11.015625 
Q 21.046875 6.0625 27.640625 6.0625 
Q 34.1875 6.0625 38.53125 11.03125 
Q 42.875 16.015625 42.875 26.21875 
Q 42.875 35.84375 38.5 40.796875 
Q 34.125 45.75 27.640625 45.75 
Q 21.046875 45.75 16.703125 40.8125 
Q 12.359375 35.890625 12.359375 25.921875 
" id="ArialMT-6f"/>
      <path d="M 58.796875 25.09375 
L 68.265625 22.703125 
Q 65.28125 11.03125 57.546875 4.90625 
Q 49.8125 -1.21875 38.625 -1.21875 
Q 27.046875 -1.21875 19.796875 3.484375 
Q 12.546875 8.203125 8.765625 17.140625 
Q 4.984375 26.078125 4.984375 36.328125 
Q 4.984375 47.515625 9.25 55.828125 
Q 13.53125 64.15625 21.40625 68.46875 
Q 29.296875 72.796875 38.765625 72.796875 
Q 49.515625 72.796875 56.828125 67.328125 
Q 64.15625 61.859375 67.046875 51.953125 
L 57.71875 49.75 
Q 55.21875 57.5625 50.484375 61.125 
Q 45.75 64.703125 38.578125 64.703125 
Q 30.328125 64.703125 24.78125 60.734375 
Q 19.234375 56.78125 16.984375 50.109375 
Q 14.75 43.453125 14.75 36.375 
Q 14.75 27.25 17.40625 20.4375 
Q 20.0625 13.625 25.671875 10.25 
Q 31.296875 6.890625 37.84375 6.890625 
Q 45.796875 6.890625 51.3125 11.46875 
Q 56.84375 16.0625 58.796875 25.09375 
" id="ArialMT-43"/>
     </defs>
     <g style="fill:#262626;" transform="translate(185.411171875 206.15671875)scale(0.11 -0.11)">
      <use xlink:href="#ArialMT-43"/>
      <use x="72.216796875" xlink:href="#ArialMT-6f"/>
      <use x="127.83203125" xlink:href="#ArialMT-6c"/>
      <use x="150.048828125" xlink:href="#ArialMT-6f"/>
      <use x="205.6640625" xlink:href="#ArialMT-72"/>
     </g>
    </g>
   </g>
   <g id="matplotlib.axis_2">
    <g id="ytick_1">
     <g id="line2d_13">
      <path clip-path="url(#p60013a807d)" d="M 45.942656 177.137813 
L 351.164531 177.137813 
" style="fill:none;stroke:#cccccc;stroke-linecap:round;"/>
     </g>
     <g id="line2d_14">
      <g>
       <use style="fill:#262626;stroke:#262626;" x="45.94265625" xlink:href="#m59010fbe50" y="177.1378125"/>
      </g>
     </g>
     <g id="line2d_15">
      <g>
       <use style="fill:#262626;stroke:#262626;" x="351.16453125" xlink:href="#m59010fbe50" y="177.1378125"/>
      </g>
     </g>
     <g id="text_8">
      <!-- 0 -->
      <defs>
       <path d="M 4.15625 35.296875 
Q 4.15625 48 6.765625 55.734375 
Q 9.375 63.484375 14.515625 67.671875 
Q 19.671875 71.875 27.484375 71.875 
Q 33.25 71.875 37.59375 69.546875 
Q 41.9375 67.234375 44.765625 62.859375 
Q 47.609375 58.5 49.21875 52.21875 
Q 50.828125 45.953125 50.828125 35.296875 
Q 50.828125 22.703125 48.234375 14.96875 
Q 45.65625 7.234375 40.5 3 
Q 35.359375 -1.21875 27.484375 -1.21875 
Q 17.140625 -1.21875 11.234375 6.203125 
Q 4.15625 15.140625 4.15625 35.296875 
M 13.1875 35.296875 
Q 13.1875 17.671875 17.3125 11.828125 
Q 21.4375 6 27.484375 6 
Q 33.546875 6 37.671875 11.859375 
Q 41.796875 17.71875 41.796875 35.296875 
Q 41.796875 52.984375 37.671875 58.78125 
Q 33.546875 64.59375 27.390625 64.59375 
Q 21.34375 64.59375 17.71875 59.46875 
Q 13.1875 52.9375 13.1875 35.296875 
" id="ArialMT-30"/>
      </defs>
      <g style="fill:#262626;" transform="translate(33.38171875 179.72296875)scale(0.1 -0.1)">
       <use xlink:href="#ArialMT-30"/>
      </g>
     </g>
    </g>
    <g id="ytick_2">
     <g id="line2d_16">
      <path clip-path="url(#p60013a807d)" d="M 45.942656 145.868125 
L 351.164531 145.868125 
" style="fill:none;stroke:#cccccc;stroke-linecap:round;"/>
     </g>
     <g id="line2d_17">
      <g>
       <use style="fill:#262626;stroke:#262626;" x="45.94265625" xlink:href="#m59010fbe50" y="145.868125"/>
      </g>
     </g>
     <g id="line2d_18">
      <g>
       <use style="fill:#262626;stroke:#262626;" x="351.16453125" xlink:href="#m59010fbe50" y="145.868125"/>
      </g>
     </g>
     <g id="text_9">
      <!-- 50 -->
      <defs>
       <path d="M 4.15625 18.75 
L 13.375 19.53125 
Q 14.40625 12.796875 18.140625 9.390625 
Q 21.875 6 27.15625 6 
Q 33.5 6 37.890625 10.78125 
Q 42.28125 15.578125 42.28125 23.484375 
Q 42.28125 31 38.0625 35.34375 
Q 33.84375 39.703125 27 39.703125 
Q 22.75 39.703125 19.328125 37.765625 
Q 15.921875 35.84375 13.96875 32.765625 
L 5.71875 33.84375 
L 12.640625 70.609375 
L 48.25 70.609375 
L 48.25 62.203125 
L 19.671875 62.203125 
L 15.828125 42.96875 
Q 22.265625 47.46875 29.34375 47.46875 
Q 38.71875 47.46875 45.15625 40.96875 
Q 51.609375 34.46875 51.609375 24.265625 
Q 51.609375 14.546875 45.953125 7.46875 
Q 39.0625 -1.21875 27.15625 -1.21875 
Q 17.390625 -1.21875 11.203125 4.25 
Q 5.03125 9.71875 4.15625 18.75 
" id="ArialMT-35"/>
      </defs>
      <g style="fill:#262626;" transform="translate(27.82078125 148.45328125)scale(0.1 -0.1)">
       <use xlink:href="#ArialMT-35"/>
       <use x="55.615234375" xlink:href="#ArialMT-30"/>
      </g>
     </g>
    </g>
    <g id="ytick_3">
     <g id="line2d_19">
      <path clip-path="url(#p60013a807d)" d="M 45.942656 114.598438 
L 351.164531 114.598438 
" style="fill:none;stroke:#cccccc;stroke-linecap:round;"/>
     </g>
     <g id="line2d_20">
      <g>
       <use style="fill:#262626;stroke:#262626;" x="45.94265625" xlink:href="#m59010fbe50" y="114.5984375"/>
      </g>
     </g>
     <g id="line2d_21">
      <g>
       <use style="fill:#262626;stroke:#262626;" x="351.16453125" xlink:href="#m59010fbe50" y="114.5984375"/>
      </g>
     </g>
     <g id="text_10">
      <!-- 100 -->
      <defs>
       <path d="M 37.25 0 
L 28.46875 0 
L 28.46875 56 
Q 25.296875 52.984375 20.140625 49.953125 
Q 14.984375 46.921875 10.890625 45.40625 
L 10.890625 53.90625 
Q 18.265625 57.375 23.78125 62.296875 
Q 29.296875 67.234375 31.59375 71.875 
L 37.25 71.875 
z
" id="ArialMT-31"/>
      </defs>
      <g style="fill:#262626;" transform="translate(22.25984375 117.18359375)scale(0.1 -0.1)">
       <use xlink:href="#ArialMT-31"/>
       <use x="55.615234375" xlink:href="#ArialMT-30"/>
       <use x="111.23046875" xlink:href="#ArialMT-30"/>
      </g>
     </g>
    </g>
    <g id="ytick_4">
     <g id="line2d_22">
      <path clip-path="url(#p60013a807d)" d="M 45.942656 83.32875 
L 351.164531 83.32875 
" style="fill:none;stroke:#cccccc;stroke-linecap:round;"/>
     </g>
     <g id="line2d_23">
      <g>
       <use style="fill:#262626;stroke:#262626;" x="45.94265625" xlink:href="#m59010fbe50" y="83.32875"/>
      </g>
     </g>
     <g id="line2d_24">
      <g>
       <use style="fill:#262626;stroke:#262626;" x="351.16453125" xlink:href="#m59010fbe50" y="83.32875"/>
      </g>
     </g>
     <g id="text_11">
      <!-- 150 -->
      <g style="fill:#262626;" transform="translate(22.25984375 85.91390625)scale(0.1 -0.1)">
       <use xlink:href="#ArialMT-31"/>
       <use x="55.615234375" xlink:href="#ArialMT-35"/>
       <use x="111.23046875" xlink:href="#ArialMT-30"/>
      </g>
     </g>
    </g>
    <g id="ytick_5">
     <g id="line2d_25">
      <path clip-path="url(#p60013a807d)" d="M 45.942656 52.059063 
L 351.164531 52.059063 
" style="fill:none;stroke:#cccccc;stroke-linecap:round;"/>
     </g>
     <g id="line2d_26">
      <g>
       <use style="fill:#262626;stroke:#262626;" x="45.94265625" xlink:href="#m59010fbe50" y="52.0590625"/>
      </g>
     </g>
     <g id="line2d_27">
      <g>
       <use style="fill:#262626;stroke:#262626;" x="351.16453125" xlink:href="#m59010fbe50" y="52.0590625"/>
      </g>
     </g>
     <g id="text_12">
      <!-- 200 -->
      <defs>
       <path d="M 50.34375 8.453125 
L 50.34375 0 
L 3.03125 0 
Q 2.9375 3.171875 4.046875 6.109375 
Q 5.859375 10.9375 9.828125 15.625 
Q 13.8125 20.3125 21.34375 26.46875 
Q 33.015625 36.03125 37.109375 41.625 
Q 41.21875 47.21875 41.21875 52.203125 
Q 41.21875 57.421875 37.46875 61 
Q 33.734375 64.59375 27.734375 64.59375 
Q 21.390625 64.59375 17.578125 60.78125 
Q 13.765625 56.984375 13.71875 50.25 
L 4.6875 51.171875 
Q 5.609375 61.28125 11.65625 66.578125 
Q 17.71875 71.875 27.9375 71.875 
Q 38.234375 71.875 44.234375 66.15625 
Q 50.25 60.453125 50.25 52 
Q 50.25 47.703125 48.484375 43.546875 
Q 46.734375 39.40625 42.65625 34.8125 
Q 38.578125 30.21875 29.109375 22.21875 
Q 21.1875 15.578125 18.9375 13.203125 
Q 16.703125 10.84375 15.234375 8.453125 
z
" id="ArialMT-32"/>
      </defs>
      <g style="fill:#262626;" transform="translate(22.25984375 54.64421875)scale(0.1 -0.1)">
       <use xlink:href="#ArialMT-32"/>
       <use x="55.615234375" xlink:href="#ArialMT-30"/>
       <use x="111.23046875" xlink:href="#ArialMT-30"/>
      </g>
     </g>
    </g>
    <g id="ytick_6">
     <g id="line2d_28">
      <path clip-path="url(#p60013a807d)" d="M 45.942656 20.789375 
L 351.164531 20.789375 
" style="fill:none;stroke:#cccccc;stroke-linecap:round;"/>
     </g>
     <g id="line2d_29">
      <g>
       <use style="fill:#262626;stroke:#262626;" x="45.94265625" xlink:href="#m59010fbe50" y="20.789375"/>
      </g>
     </g>
     <g id="line2d_30">
      <g>
       <use style="fill:#262626;stroke:#262626;" x="351.16453125" xlink:href="#m59010fbe50" y="20.789375"/>
      </g>
     </g>
     <g id="text_13">
      <!-- 250 -->
      <g style="fill:#262626;" transform="translate(22.25984375 23.37453125)scale(0.1 -0.1)">
       <use xlink:href="#ArialMT-32"/>
       <use x="55.615234375" xlink:href="#ArialMT-35"/>
       <use x="111.23046875" xlink:href="#ArialMT-30"/>
      </g>
     </g>
    </g>
    <g id="text_14">
     <!-- count -->
     <defs>
      <path d="M 6.59375 0 
L 6.59375 51.859375 
L 14.5 51.859375 
L 14.5 44.484375 
Q 20.21875 53.03125 31 53.03125 
Q 35.6875 53.03125 39.625 51.34375 
Q 43.5625 49.65625 45.515625 46.921875 
Q 47.46875 44.1875 48.25 40.4375 
Q 48.734375 37.984375 48.734375 31.890625 
L 48.734375 0 
L 39.9375 0 
L 39.9375 31.546875 
Q 39.9375 36.921875 38.90625 39.578125 
Q 37.890625 42.234375 35.28125 43.8125 
Q 32.671875 45.40625 29.15625 45.40625 
Q 23.53125 45.40625 19.453125 41.84375 
Q 15.375 38.28125 15.375 28.328125 
L 15.375 0 
z
" id="ArialMT-6e"/>
     </defs>
     <g style="fill:#262626;" transform="translate(15.07359375 112.417109375)rotate(-90.0)scale(0.11 -0.11)">
      <use xlink:href="#ArialMT-63"/>
      <use x="50.0" xlink:href="#ArialMT-6f"/>
      <use x="105.615234375" xlink:href="#ArialMT-75"/>
      <use x="161.23046875" xlink:href="#ArialMT-6e"/>
      <use x="216.845703125" xlink:href="#ArialMT-74"/>
     </g>
    </g>
   </g>
   <g id="patch_3">
    <path clip-path="url(#p60013a807d)" d="M 51.029687 177.137813 
L 91.725937 177.137813 
L 91.725937 82.077963 
L 51.029687 82.077963 
z
" style="fill:#ffffff;stroke:#000000;stroke-linejoin:miter;stroke-width:0.3;"/>
   </g>
   <g id="patch_4">
    <path clip-path="url(#p60013a807d)" d="M 101.9 177.137813 
L 142.59625 177.137813 
L 142.59625 30.795675 
L 101.9 30.795675 
z
" style="fill:#7a1111;stroke:#000000;stroke-linejoin:miter;stroke-width:0.3;"/>
   </g>
   <g id="patch_5">
    <path clip-path="url(#p60013a807d)" d="M 152.770312 177.137813 
L 193.466563 177.137813 
L 193.466563 96.462019 
L 152.770312 96.462019 
z
" style="fill:#2020df;stroke:#000000;stroke-linejoin:miter;stroke-width:0.3;"/>
   </g>
   <g id="patch_6">
    <path clip-path="url(#p60013a807d)" d="M 203.640625 177.137813 
L 244.336875 177.137813 
L 244.336875 80.201781 
L 203.640625 80.201781 
z
" style="fill:#11117a;stroke:#000000;stroke-linejoin:miter;stroke-width:0.3;"/>
   </g>
   <g id="patch_7">
    <path clip-path="url(#p60013a807d)" d="M 254.510937 177.137813 
L 295.207187 177.137813 
L 295.207187 78.3256 
L 254.510937 78.3256 
z
" style="fill:#808080;stroke:#000000;stroke-linejoin:miter;stroke-width:0.3;"/>
   </g>
   <g id="patch_8">
    <path clip-path="url(#p60013a807d)" d="M 305.38125 177.137813 
L 346.0775 177.137813 
L 346.0775 69.570088 
L 305.38125 69.570088 
z
" style="stroke:#000000;stroke-linejoin:miter;stroke-width:0.3;"/>
   </g>
   <g id="patch_9">
    <path d="M 45.942656 20.789375 
L 351.164531 20.789375 
" style="fill:none;stroke:#cccccc;stroke-linecap:square;stroke-linejoin:miter;"/>
   </g>
   <g id="patch_10">
    <path d="M 351.164531 177.137813 
L 351.164531 20.789375 
" style="fill:none;stroke:#cccccc;stroke-linecap:square;stroke-linejoin:miter;"/>
   </g>
   <g id="patch_11">
    <path d="M 45.942656 177.137813 
L 351.164531 177.137813 
" style="fill:none;stroke:#cccccc;stroke-linecap:square;stroke-linejoin:miter;"/>
   </g>
   <g id="patch_12">
    <path d="M 45.942656 177.137813 
L 45.942656 20.789375 
" style="fill:none;stroke:#cccccc;stroke-linecap:square;stroke-linejoin:miter;"/>
   </g>
   <g id="text_15">
    <!-- click count by car color -->
    <defs>
     <path d="M 6.203125 -19.96875 
L 5.21875 -11.71875 
Q 8.109375 -12.5 10.25 -12.5 
Q 13.1875 -12.5 14.9375 -11.515625 
Q 16.703125 -10.546875 17.828125 -8.796875 
Q 18.65625 -7.46875 20.515625 -2.25 
Q 20.75 -1.515625 21.296875 -0.09375 
L 1.609375 51.859375 
L 11.078125 51.859375 
L 21.875 21.828125 
Q 23.96875 16.109375 25.640625 9.8125 
Q 27.15625 15.875 29.25 21.625 
L 40.328125 51.859375 
L 49.125 51.859375 
L 29.390625 -0.875 
Q 26.21875 -9.421875 24.46875 -12.640625 
Q 22.125 -17 19.09375 -19.015625 
Q 16.0625 -21.046875 11.859375 -21.046875 
Q 9.328125 -21.046875 6.203125 -19.96875 
" id="ArialMT-79"/>
     <path id="ArialMT-20"/>
    </defs>
    <g style="fill:#262626;" transform="translate(137.86828125 15.789375)scale(0.12 -0.12)">
     <use xlink:href="#ArialMT-63"/>
     <use x="50.0" xlink:href="#ArialMT-6c"/>
     <use x="72.216796875" xlink:href="#ArialMT-69"/>
     <use x="94.43359375" xlink:href="#ArialMT-63"/>
     <use x="144.43359375" xlink:href="#ArialMT-6b"/>
     <use x="194.43359375" xlink:href="#ArialMT-20"/>
     <use x="222.216796875" xlink:href="#ArialMT-63"/>
     <use x="272.216796875" xlink:href="#ArialMT-6f"/>
     <use x="327.83203125" xlink:href="#ArialMT-75"/>
     <use x="383.447265625" xlink:href="#ArialMT-6e"/>
     <use x="439.0625" xlink:href="#ArialMT-74"/>
     <use x="466.845703125" xlink:href="#ArialMT-20"/>
     <use x="494.62890625" xlink:href="#ArialMT-62"/>
     <use x="550.244140625" xlink:href="#ArialMT-79"/>
     <use x="600.244140625" xlink:href="#ArialMT-20"/>
     <use x="628.02734375" xlink:href="#ArialMT-63"/>
     <use x="678.02734375" xlink:href="#ArialMT-61"/>
     <use x="733.642578125" xlink:href="#ArialMT-72"/>
     <use x="766.943359375" xlink:href="#ArialMT-20"/>
     <use x="794.7265625" xlink:href="#ArialMT-63"/>
     <use x="844.7265625" xlink:href="#ArialMT-6f"/>
     <use x="900.341796875" xlink:href="#ArialMT-6c"/>
     <use x="922.55859375" xlink:href="#ArialMT-6f"/>
     <use x="978.173828125" xlink:href="#ArialMT-72"/>
    </g>
   </g>
  </g>
  <g id="axes_2">
   <g id="patch_13">
    <path d="M 401.245781 177.137813 
L 706.467656 177.137813 
L 706.467656 20.789375 
L 401.245781 20.789375 
z
" style="fill:#ffffff;"/>
   </g>
   <g id="matplotlib.axis_3">
    <g id="xtick_7">
     <g id="line2d_31">
      <g>
       <use style="fill:#262626;stroke:#262626;" x="426.6809375" xlink:href="#m59010fbe50" y="177.1378125"/>
      </g>
     </g>
     <g id="line2d_32">
      <g>
       <use style="fill:#262626;stroke:#262626;" x="426.6809375" xlink:href="#m59010fbe50" y="20.789375"/>
      </g>
     </g>
     <g id="text_16">
      <!-- white -->
      <g style="fill:#262626;" transform="translate(415.0090625 191.295625)scale(0.1 -0.1)">
       <use xlink:href="#ArialMT-77"/>
       <use x="72.216796875" xlink:href="#ArialMT-68"/>
       <use x="127.83203125" xlink:href="#ArialMT-69"/>
       <use x="150.048828125" xlink:href="#ArialMT-74"/>
       <use x="177.83203125" xlink:href="#ArialMT-65"/>
      </g>
     </g>
    </g>
    <g id="xtick_8">
     <g id="line2d_33">
      <g>
       <use style="fill:#262626;stroke:#262626;" x="477.55125" xlink:href="#m59010fbe50" y="177.1378125"/>
      </g>
     </g>
     <g id="line2d_34">
      <g>
       <use style="fill:#262626;stroke:#262626;" x="477.55125" xlink:href="#m59010fbe50" y="20.789375"/>
      </g>
     </g>
     <g id="text_17">
      <!-- red -->
      <g style="fill:#262626;" transform="translate(470.32546875 191.295625)scale(0.1 -0.1)">
       <use xlink:href="#ArialMT-72"/>
       <use x="33.30078125" xlink:href="#ArialMT-65"/>
       <use x="88.916015625" xlink:href="#ArialMT-64"/>
      </g>
     </g>
    </g>
    <g id="xtick_9">
     <g id="line2d_35">
      <g>
       <use style="fill:#262626;stroke:#262626;" x="528.4215625" xlink:href="#m59010fbe50" y="177.1378125"/>
      </g>
     </g>
     <g id="line2d_36">
      <g>
       <use style="fill:#262626;stroke:#262626;" x="528.4215625" xlink:href="#m59010fbe50" y="20.789375"/>
      </g>
     </g>
     <g id="text_18">
      <!-- blue -->
      <g style="fill:#262626;" transform="translate(518.96921875 191.295625)scale(0.1 -0.1)">
       <use xlink:href="#ArialMT-62"/>
       <use x="55.615234375" xlink:href="#ArialMT-6c"/>
       <use x="77.83203125" xlink:href="#ArialMT-75"/>
       <use x="133.447265625" xlink:href="#ArialMT-65"/>
      </g>
     </g>
    </g>
    <g id="xtick_10">
     <g id="line2d_37">
      <g>
       <use style="fill:#262626;stroke:#262626;" x="579.291875" xlink:href="#m59010fbe50" y="177.1378125"/>
      </g>
     </g>
     <g id="line2d_38">
      <g>
       <use style="fill:#262626;stroke:#262626;" x="579.291875" xlink:href="#m59010fbe50" y="20.789375"/>
      </g>
     </g>
     <g id="text_19">
      <!-- dark-blue -->
      <g style="fill:#262626;" transform="translate(558.44890625 191.295625)scale(0.1 -0.1)">
       <use xlink:href="#ArialMT-64"/>
       <use x="55.615234375" xlink:href="#ArialMT-61"/>
       <use x="111.23046875" xlink:href="#ArialMT-72"/>
       <use x="144.53125" xlink:href="#ArialMT-6b"/>
       <use x="194.53125" xlink:href="#ArialMT-2d"/>
       <use x="227.83203125" xlink:href="#ArialMT-62"/>
       <use x="283.447265625" xlink:href="#ArialMT-6c"/>
       <use x="305.6640625" xlink:href="#ArialMT-75"/>
       <use x="361.279296875" xlink:href="#ArialMT-65"/>
      </g>
     </g>
    </g>
    <g id="xtick_11">
     <g id="line2d_39">
      <g>
       <use style="fill:#262626;stroke:#262626;" x="630.1621875" xlink:href="#m59010fbe50" y="177.1378125"/>
      </g>
     </g>
     <g id="line2d_40">
      <g>
       <use style="fill:#262626;stroke:#262626;" x="630.1621875" xlink:href="#m59010fbe50" y="20.789375"/>
      </g>
     </g>
     <g id="text_20">
      <!-- silver -->
      <g style="fill:#262626;" transform="translate(618.495 191.295625)scale(0.1 -0.1)">
       <use xlink:href="#ArialMT-73"/>
       <use x="50.0" xlink:href="#ArialMT-69"/>
       <use x="72.216796875" xlink:href="#ArialMT-6c"/>
       <use x="94.43359375" xlink:href="#ArialMT-76"/>
       <use x="144.43359375" xlink:href="#ArialMT-65"/>
       <use x="200.048828125" xlink:href="#ArialMT-72"/>
      </g>
     </g>
    </g>
    <g id="xtick_12">
     <g id="line2d_41">
      <g>
       <use style="fill:#262626;stroke:#262626;" x="681.0325" xlink:href="#m59010fbe50" y="177.1378125"/>
      </g>
     </g>
     <g id="line2d_42">
      <g>
       <use style="fill:#262626;stroke:#262626;" x="681.0325" xlink:href="#m59010fbe50" y="20.789375"/>
      </g>
     </g>
     <g id="text_21">
      <!-- black -->
      <g style="fill:#262626;" transform="translate(669.360625 191.295625)scale(0.1 -0.1)">
       <use xlink:href="#ArialMT-62"/>
       <use x="55.615234375" xlink:href="#ArialMT-6c"/>
       <use x="77.83203125" xlink:href="#ArialMT-61"/>
       <use x="133.447265625" xlink:href="#ArialMT-63"/>
       <use x="183.447265625" xlink:href="#ArialMT-6b"/>
      </g>
     </g>
    </g>
    <g id="text_22">
     <!-- Color -->
     <g style="fill:#262626;" transform="translate(540.714296875 206.15671875)scale(0.11 -0.11)">
      <use xlink:href="#ArialMT-43"/>
      <use x="72.216796875" xlink:href="#ArialMT-6f"/>
      <use x="127.83203125" xlink:href="#ArialMT-6c"/>
      <use x="150.048828125" xlink:href="#ArialMT-6f"/>
      <use x="205.6640625" xlink:href="#ArialMT-72"/>
     </g>
    </g>
   </g>
   <g id="matplotlib.axis_4">
    <g id="ytick_7">
     <g id="line2d_43">
      <path clip-path="url(#p65ad9d9cee)" d="M 401.245781 177.137813 
L 706.467656 177.137813 
" style="fill:none;stroke:#cccccc;stroke-linecap:round;"/>
     </g>
     <g id="line2d_44">
      <g>
       <use style="fill:#262626;stroke:#262626;" x="401.24578125" xlink:href="#m59010fbe50" y="177.1378125"/>
      </g>
     </g>
     <g id="line2d_45">
      <g>
       <use style="fill:#262626;stroke:#262626;" x="706.46765625" xlink:href="#m59010fbe50" y="177.1378125"/>
      </g>
     </g>
     <g id="text_23">
      <!-- 0 -->
      <g style="fill:#262626;" transform="translate(388.68484375 179.72296875)scale(0.1 -0.1)">
       <use xlink:href="#ArialMT-30"/>
      </g>
     </g>
    </g>
    <g id="ytick_8">
     <g id="line2d_46">
      <path clip-path="url(#p65ad9d9cee)" d="M 401.245781 159.765764 
L 706.467656 159.765764 
" style="fill:none;stroke:#cccccc;stroke-linecap:round;"/>
     </g>
     <g id="line2d_47">
      <g>
       <use style="fill:#262626;stroke:#262626;" x="401.24578125" xlink:href="#m59010fbe50" y="159.765763889"/>
      </g>
     </g>
     <g id="line2d_48">
      <g>
       <use style="fill:#262626;stroke:#262626;" x="706.46765625" xlink:href="#m59010fbe50" y="159.765763889"/>
      </g>
     </g>
     <g id="text_24">
      <!-- 10 -->
      <g style="fill:#262626;" transform="translate(383.12390625 162.350920139)scale(0.1 -0.1)">
       <use xlink:href="#ArialMT-31"/>
       <use x="55.615234375" xlink:href="#ArialMT-30"/>
      </g>
     </g>
    </g>
    <g id="ytick_9">
     <g id="line2d_49">
      <path clip-path="url(#p65ad9d9cee)" d="M 401.245781 142.393715 
L 706.467656 142.393715 
" style="fill:none;stroke:#cccccc;stroke-linecap:round;"/>
     </g>
     <g id="line2d_50">
      <g>
       <use style="fill:#262626;stroke:#262626;" x="401.24578125" xlink:href="#m59010fbe50" y="142.393715278"/>
      </g>
     </g>
     <g id="line2d_51">
      <g>
       <use style="fill:#262626;stroke:#262626;" x="706.46765625" xlink:href="#m59010fbe50" y="142.393715278"/>
      </g>
     </g>
     <g id="text_25">
      <!-- 20 -->
      <g style="fill:#262626;" transform="translate(383.12390625 144.978871528)scale(0.1 -0.1)">
       <use xlink:href="#ArialMT-32"/>
       <use x="55.615234375" xlink:href="#ArialMT-30"/>
      </g>
     </g>
    </g>
    <g id="ytick_10">
     <g id="line2d_52">
      <path clip-path="url(#p65ad9d9cee)" d="M 401.245781 125.021667 
L 706.467656 125.021667 
" style="fill:none;stroke:#cccccc;stroke-linecap:round;"/>
     </g>
     <g id="line2d_53">
      <g>
       <use style="fill:#262626;stroke:#262626;" x="401.24578125" xlink:href="#m59010fbe50" y="125.021666667"/>
      </g>
     </g>
     <g id="line2d_54">
      <g>
       <use style="fill:#262626;stroke:#262626;" x="706.46765625" xlink:href="#m59010fbe50" y="125.021666667"/>
      </g>
     </g>
     <g id="text_26">
      <!-- 30 -->
      <defs>
       <path d="M 4.203125 18.890625 
L 12.984375 20.0625 
Q 14.5 12.59375 18.140625 9.296875 
Q 21.78125 6 27 6 
Q 33.203125 6 37.46875 10.296875 
Q 41.75 14.59375 41.75 20.953125 
Q 41.75 27 37.796875 30.921875 
Q 33.84375 34.859375 27.734375 34.859375 
Q 25.25 34.859375 21.53125 33.890625 
L 22.515625 41.609375 
Q 23.390625 41.5 23.921875 41.5 
Q 29.546875 41.5 34.03125 44.421875 
Q 38.53125 47.359375 38.53125 53.46875 
Q 38.53125 58.296875 35.25 61.46875 
Q 31.984375 64.65625 26.8125 64.65625 
Q 21.6875 64.65625 18.265625 61.421875 
Q 14.84375 58.203125 13.875 51.765625 
L 5.078125 53.328125 
Q 6.6875 62.15625 12.390625 67.015625 
Q 18.109375 71.875 26.609375 71.875 
Q 32.46875 71.875 37.390625 69.359375 
Q 42.328125 66.84375 44.9375 62.5 
Q 47.5625 58.15625 47.5625 53.265625 
Q 47.5625 48.640625 45.0625 44.828125 
Q 42.578125 41.015625 37.703125 38.765625 
Q 44.046875 37.3125 47.5625 32.6875 
Q 51.078125 28.078125 51.078125 21.140625 
Q 51.078125 11.765625 44.234375 5.25 
Q 37.40625 -1.265625 26.953125 -1.265625 
Q 17.53125 -1.265625 11.296875 4.34375 
Q 5.078125 9.96875 4.203125 18.890625 
" id="ArialMT-33"/>
      </defs>
      <g style="fill:#262626;" transform="translate(383.12390625 127.606822917)scale(0.1 -0.1)">
       <use xlink:href="#ArialMT-33"/>
       <use x="55.615234375" xlink:href="#ArialMT-30"/>
      </g>
     </g>
    </g>
    <g id="ytick_11">
     <g id="line2d_55">
      <path clip-path="url(#p65ad9d9cee)" d="M 401.245781 107.649618 
L 706.467656 107.649618 
" style="fill:none;stroke:#cccccc;stroke-linecap:round;"/>
     </g>
     <g id="line2d_56">
      <g>
       <use style="fill:#262626;stroke:#262626;" x="401.24578125" xlink:href="#m59010fbe50" y="107.649618056"/>
      </g>
     </g>
     <g id="line2d_57">
      <g>
       <use style="fill:#262626;stroke:#262626;" x="706.46765625" xlink:href="#m59010fbe50" y="107.649618056"/>
      </g>
     </g>
     <g id="text_27">
      <!-- 40 -->
      <defs>
       <path d="M 32.328125 0 
L 32.328125 17.140625 
L 1.265625 17.140625 
L 1.265625 25.203125 
L 33.9375 71.578125 
L 41.109375 71.578125 
L 41.109375 25.203125 
L 50.78125 25.203125 
L 50.78125 17.140625 
L 41.109375 17.140625 
L 41.109375 0 
z
M 32.328125 25.203125 
L 32.328125 57.46875 
L 9.90625 25.203125 
z
" id="ArialMT-34"/>
      </defs>
      <g style="fill:#262626;" transform="translate(383.12390625 110.234774306)scale(0.1 -0.1)">
       <use xlink:href="#ArialMT-34"/>
       <use x="55.615234375" xlink:href="#ArialMT-30"/>
      </g>
     </g>
    </g>
    <g id="ytick_12">
     <g id="line2d_58">
      <path clip-path="url(#p65ad9d9cee)" d="M 401.245781 90.277569 
L 706.467656 90.277569 
" style="fill:none;stroke:#cccccc;stroke-linecap:round;"/>
     </g>
     <g id="line2d_59">
      <g>
       <use style="fill:#262626;stroke:#262626;" x="401.24578125" xlink:href="#m59010fbe50" y="90.2775694444"/>
      </g>
     </g>
     <g id="line2d_60">
      <g>
       <use style="fill:#262626;stroke:#262626;" x="706.46765625" xlink:href="#m59010fbe50" y="90.2775694444"/>
      </g>
     </g>
     <g id="text_28">
      <!-- 50 -->
      <g style="fill:#262626;" transform="translate(383.12390625 92.8627256944)scale(0.1 -0.1)">
       <use xlink:href="#ArialMT-35"/>
       <use x="55.615234375" xlink:href="#ArialMT-30"/>
      </g>
     </g>
    </g>
    <g id="ytick_13">
     <g id="line2d_61">
      <path clip-path="url(#p65ad9d9cee)" d="M 401.245781 72.905521 
L 706.467656 72.905521 
" style="fill:none;stroke:#cccccc;stroke-linecap:round;"/>
     </g>
     <g id="line2d_62">
      <g>
       <use style="fill:#262626;stroke:#262626;" x="401.24578125" xlink:href="#m59010fbe50" y="72.9055208333"/>
      </g>
     </g>
     <g id="line2d_63">
      <g>
       <use style="fill:#262626;stroke:#262626;" x="706.46765625" xlink:href="#m59010fbe50" y="72.9055208333"/>
      </g>
     </g>
     <g id="text_29">
      <!-- 60 -->
      <defs>
       <path d="M 49.75 54.046875 
L 41.015625 53.375 
Q 39.84375 58.546875 37.703125 60.890625 
Q 34.125 64.65625 28.90625 64.65625 
Q 24.703125 64.65625 21.53125 62.3125 
Q 17.390625 59.28125 14.984375 53.46875 
Q 12.59375 47.65625 12.5 36.921875 
Q 15.671875 41.75 20.265625 44.09375 
Q 24.859375 46.4375 29.890625 46.4375 
Q 38.671875 46.4375 44.84375 39.96875 
Q 51.03125 33.5 51.03125 23.25 
Q 51.03125 16.5 48.125 10.71875 
Q 45.21875 4.9375 40.140625 1.859375 
Q 35.0625 -1.21875 28.609375 -1.21875 
Q 17.625 -1.21875 10.6875 6.859375 
Q 3.765625 14.9375 3.765625 33.5 
Q 3.765625 54.25 11.421875 63.671875 
Q 18.109375 71.875 29.4375 71.875 
Q 37.890625 71.875 43.28125 67.140625 
Q 48.6875 62.40625 49.75 54.046875 
M 13.875 23.1875 
Q 13.875 18.65625 15.796875 14.5 
Q 17.71875 10.359375 21.1875 8.171875 
Q 24.65625 6 28.46875 6 
Q 34.03125 6 38.03125 10.484375 
Q 42.046875 14.984375 42.046875 22.703125 
Q 42.046875 30.125 38.078125 34.390625 
Q 34.125 38.671875 28.125 38.671875 
Q 22.171875 38.671875 18.015625 34.390625 
Q 13.875 30.125 13.875 23.1875 
" id="ArialMT-36"/>
      </defs>
      <g style="fill:#262626;" transform="translate(383.12390625 75.4906770833)scale(0.1 -0.1)">
       <use xlink:href="#ArialMT-36"/>
       <use x="55.615234375" xlink:href="#ArialMT-30"/>
      </g>
     </g>
    </g>
    <g id="ytick_14">
     <g id="line2d_64">
      <path clip-path="url(#p65ad9d9cee)" d="M 401.245781 55.533472 
L 706.467656 55.533472 
" style="fill:none;stroke:#cccccc;stroke-linecap:round;"/>
     </g>
     <g id="line2d_65">
      <g>
       <use style="fill:#262626;stroke:#262626;" x="401.24578125" xlink:href="#m59010fbe50" y="55.5334722222"/>
      </g>
     </g>
     <g id="line2d_66">
      <g>
       <use style="fill:#262626;stroke:#262626;" x="706.46765625" xlink:href="#m59010fbe50" y="55.5334722222"/>
      </g>
     </g>
     <g id="text_30">
      <!-- 70 -->
      <defs>
       <path d="M 4.734375 62.203125 
L 4.734375 70.65625 
L 51.078125 70.65625 
L 51.078125 63.8125 
Q 44.234375 56.546875 37.515625 44.484375 
Q 30.8125 32.421875 27.15625 19.671875 
Q 24.515625 10.6875 23.78125 0 
L 14.75 0 
Q 14.890625 8.453125 18.0625 20.40625 
Q 21.234375 32.375 27.171875 43.484375 
Q 33.109375 54.59375 39.796875 62.203125 
z
" id="ArialMT-37"/>
      </defs>
      <g style="fill:#262626;" transform="translate(383.12390625 58.1186284722)scale(0.1 -0.1)">
       <use xlink:href="#ArialMT-37"/>
       <use x="55.615234375" xlink:href="#ArialMT-30"/>
      </g>
     </g>
    </g>
    <g id="ytick_15">
     <g id="line2d_67">
      <path clip-path="url(#p65ad9d9cee)" d="M 401.245781 38.161424 
L 706.467656 38.161424 
" style="fill:none;stroke:#cccccc;stroke-linecap:round;"/>
     </g>
     <g id="line2d_68">
      <g>
       <use style="fill:#262626;stroke:#262626;" x="401.24578125" xlink:href="#m59010fbe50" y="38.1614236111"/>
      </g>
     </g>
     <g id="line2d_69">
      <g>
       <use style="fill:#262626;stroke:#262626;" x="706.46765625" xlink:href="#m59010fbe50" y="38.1614236111"/>
      </g>
     </g>
     <g id="text_31">
      <!-- 80 -->
      <defs>
       <path d="M 17.671875 38.8125 
Q 12.203125 40.828125 9.5625 44.53125 
Q 6.9375 48.25 6.9375 53.421875 
Q 6.9375 61.234375 12.546875 66.546875 
Q 18.171875 71.875 27.484375 71.875 
Q 36.859375 71.875 42.578125 66.421875 
Q 48.296875 60.984375 48.296875 53.171875 
Q 48.296875 48.1875 45.671875 44.5 
Q 43.0625 40.828125 37.75 38.8125 
Q 44.34375 36.671875 47.78125 31.875 
Q 51.21875 27.09375 51.21875 20.453125 
Q 51.21875 11.28125 44.71875 5.03125 
Q 38.234375 -1.21875 27.640625 -1.21875 
Q 17.046875 -1.21875 10.546875 5.046875 
Q 4.046875 11.328125 4.046875 20.703125 
Q 4.046875 27.6875 7.59375 32.390625 
Q 11.140625 37.109375 17.671875 38.8125 
M 15.921875 53.71875 
Q 15.921875 48.640625 19.1875 45.40625 
Q 22.46875 42.1875 27.6875 42.1875 
Q 32.765625 42.1875 36.015625 45.375 
Q 39.265625 48.578125 39.265625 53.21875 
Q 39.265625 58.0625 35.90625 61.359375 
Q 32.5625 64.65625 27.59375 64.65625 
Q 22.5625 64.65625 19.234375 61.421875 
Q 15.921875 58.203125 15.921875 53.71875 
M 13.09375 20.65625 
Q 13.09375 16.890625 14.875 13.375 
Q 16.65625 9.859375 20.171875 7.921875 
Q 23.6875 6 27.734375 6 
Q 34.03125 6 38.125 10.046875 
Q 42.234375 14.109375 42.234375 20.359375 
Q 42.234375 26.703125 38.015625 30.859375 
Q 33.796875 35.015625 27.4375 35.015625 
Q 21.234375 35.015625 17.15625 30.90625 
Q 13.09375 26.8125 13.09375 20.65625 
" id="ArialMT-38"/>
      </defs>
      <g style="fill:#262626;" transform="translate(383.12390625 40.7465798611)scale(0.1 -0.1)">
       <use xlink:href="#ArialMT-38"/>
       <use x="55.615234375" xlink:href="#ArialMT-30"/>
      </g>
     </g>
    </g>
    <g id="ytick_16">
     <g id="line2d_70">
      <path clip-path="url(#p65ad9d9cee)" d="M 401.245781 20.789375 
L 706.467656 20.789375 
" style="fill:none;stroke:#cccccc;stroke-linecap:round;"/>
     </g>
     <g id="line2d_71">
      <g>
       <use style="fill:#262626;stroke:#262626;" x="401.24578125" xlink:href="#m59010fbe50" y="20.789375"/>
      </g>
     </g>
     <g id="line2d_72">
      <g>
       <use style="fill:#262626;stroke:#262626;" x="706.46765625" xlink:href="#m59010fbe50" y="20.789375"/>
      </g>
     </g>
     <g id="text_32">
      <!-- 90 -->
      <defs>
       <path d="M 5.46875 16.546875 
L 13.921875 17.328125 
Q 14.984375 11.375 18.015625 8.6875 
Q 21.046875 6 25.78125 6 
Q 29.828125 6 32.875 7.859375 
Q 35.9375 9.71875 37.890625 12.8125 
Q 39.84375 15.921875 41.15625 21.1875 
Q 42.484375 26.46875 42.484375 31.9375 
Q 42.484375 32.515625 42.4375 33.6875 
Q 39.796875 29.5 35.234375 26.875 
Q 30.671875 24.265625 25.34375 24.265625 
Q 16.453125 24.265625 10.296875 30.703125 
Q 4.15625 37.15625 4.15625 47.703125 
Q 4.15625 58.59375 10.578125 65.234375 
Q 17 71.875 26.65625 71.875 
Q 33.640625 71.875 39.421875 68.109375 
Q 45.21875 64.359375 48.21875 57.390625 
Q 51.21875 50.4375 51.21875 37.25 
Q 51.21875 23.53125 48.234375 15.40625 
Q 45.265625 7.28125 39.375 3.03125 
Q 33.5 -1.21875 25.59375 -1.21875 
Q 17.1875 -1.21875 11.859375 3.4375 
Q 6.546875 8.109375 5.46875 16.546875 
M 41.453125 48.140625 
Q 41.453125 55.71875 37.421875 60.15625 
Q 33.40625 64.59375 27.734375 64.59375 
Q 21.875 64.59375 17.53125 59.8125 
Q 13.1875 55.03125 13.1875 47.40625 
Q 13.1875 40.578125 17.3125 36.296875 
Q 21.4375 32.03125 27.484375 32.03125 
Q 33.59375 32.03125 37.515625 36.296875 
Q 41.453125 40.578125 41.453125 48.140625 
" id="ArialMT-39"/>
      </defs>
      <g style="fill:#262626;" transform="translate(383.12390625 23.37453125)scale(0.1 -0.1)">
       <use xlink:href="#ArialMT-39"/>
       <use x="55.615234375" xlink:href="#ArialMT-30"/>
      </g>
     </g>
    </g>
    <g id="text_33">
     <!-- count -->
     <g style="fill:#262626;" transform="translate(375.93765625 112.417109375)rotate(-90.0)scale(0.11 -0.11)">
      <use xlink:href="#ArialMT-63"/>
      <use x="50.0" xlink:href="#ArialMT-6f"/>
      <use x="105.615234375" xlink:href="#ArialMT-75"/>
      <use x="161.23046875" xlink:href="#ArialMT-6e"/>
      <use x="216.845703125" xlink:href="#ArialMT-74"/>
     </g>
    </g>
   </g>
   <g id="patch_14">
    <path clip-path="url(#p65ad9d9cee)" d="M 406.332813 177.137813 
L 414.472063 177.137813 
L 414.472063 125.021667 
L 406.332813 125.021667 
z
" style="fill:#cb6d67;stroke:#000000;stroke-linejoin:miter;stroke-width:0.3;"/>
   </g>
   <g id="patch_15">
    <path clip-path="url(#p65ad9d9cee)" d="M 457.203125 177.137813 
L 465.342375 177.137813 
L 465.342375 114.598438 
L 457.203125 114.598438 
z
" style="fill:#cb6d67;stroke:#000000;stroke-linejoin:miter;stroke-width:0.3;"/>
   </g>
   <g id="patch_16">
    <path clip-path="url(#p65ad9d9cee)" d="M 508.073438 177.137813 
L 516.212688 177.137813 
L 516.212688 118.072847 
L 508.073438 118.072847 
z
" style="fill:#cb6d67;stroke:#000000;stroke-linejoin:miter;stroke-width:0.3;"/>
   </g>
   <g id="patch_17">
    <path clip-path="url(#p65ad9d9cee)" d="M 558.94375 177.137813 
L 567.083 177.137813 
L 567.083 135.444896 
L 558.94375 135.444896 
z
" style="fill:#cb6d67;stroke:#000000;stroke-linejoin:miter;stroke-width:0.3;"/>
   </g>
   <g id="patch_18">
    <path clip-path="url(#p65ad9d9cee)" d="M 609.814062 177.137813 
L 617.953313 177.137813 
L 617.953313 135.444896 
L 609.814062 135.444896 
z
" style="fill:#cb6d67;stroke:#000000;stroke-linejoin:miter;stroke-width:0.3;"/>
   </g>
   <g id="patch_19">
    <path clip-path="url(#p65ad9d9cee)" d="M 660.684375 177.137813 
L 668.823625 177.137813 
L 668.823625 111.124028 
L 660.684375 111.124028 
z
" style="fill:#cb6d67;stroke:#000000;stroke-linejoin:miter;stroke-width:0.3;"/>
   </g>
   <g id="patch_20">
    <path clip-path="url(#p65ad9d9cee)" d="M 414.472063 177.137813 
L 422.611313 177.137813 
L 422.611313 119.810052 
L 414.472063 119.810052 
z
" style="fill:#cbb867;stroke:#000000;stroke-linejoin:miter;stroke-width:0.3;"/>
   </g>
   <g id="patch_21">
    <path clip-path="url(#p65ad9d9cee)" d="M 465.342375 177.137813 
L 473.481625 177.137813 
L 473.481625 107.649618 
L 465.342375 107.649618 
z
" style="fill:#cbb867;stroke:#000000;stroke-linejoin:miter;stroke-width:0.3;"/>
   </g>
   <g id="patch_22">
    <path clip-path="url(#p65ad9d9cee)" d="M 516.212688 177.137813 
L 524.351937 177.137813 
L 524.351937 147.60533 
L 516.212688 147.60533 
z
" style="fill:#cbb867;stroke:#000000;stroke-linejoin:miter;stroke-width:0.3;"/>
   </g>
   <g id="patch_23">
    <path clip-path="url(#p65ad9d9cee)" d="M 567.083 177.137813 
L 575.22225 177.137813 
L 575.22225 125.021667 
L 567.083 125.021667 
z
" style="fill:#cbb867;stroke:#000000;stroke-linejoin:miter;stroke-width:0.3;"/>
   </g>
   <g id="patch_24">
    <path clip-path="url(#p65ad9d9cee)" d="M 617.953313 177.137813 
L 626.092563 177.137813 
L 626.092563 109.386823 
L 617.953313 109.386823 
z
" style="fill:#cbb867;stroke:#000000;stroke-linejoin:miter;stroke-width:0.3;"/>
   </g>
   <g id="patch_25">
    <path clip-path="url(#p65ad9d9cee)" d="M 668.823625 177.137813 
L 676.962875 177.137813 
L 676.962875 114.598438 
L 668.823625 114.598438 
z
" style="fill:#cbb867;stroke:#000000;stroke-linejoin:miter;stroke-width:0.3;"/>
   </g>
   <g id="patch_26">
    <path clip-path="url(#p65ad9d9cee)" d="M 422.611313 177.137813 
L 430.750563 177.137813 
L 430.750563 131.970486 
L 422.611313 131.970486 
z
" style="fill:#93cb67;stroke:#000000;stroke-linejoin:miter;stroke-width:0.3;"/>
   </g>
   <g id="patch_27">
    <path clip-path="url(#p65ad9d9cee)" d="M 473.481625 177.137813 
L 481.620875 177.137813 
L 481.620875 97.226389 
L 473.481625 97.226389 
z
" style="fill:#93cb67;stroke:#000000;stroke-linejoin:miter;stroke-width:0.3;"/>
   </g>
   <g id="patch_28">
    <path clip-path="url(#p65ad9d9cee)" d="M 524.351937 177.137813 
L 532.491188 177.137813 
L 532.491188 126.758872 
L 524.351937 126.758872 
z
" style="fill:#93cb67;stroke:#000000;stroke-linejoin:miter;stroke-width:0.3;"/>
   </g>
   <g id="patch_29">
    <path clip-path="url(#p65ad9d9cee)" d="M 575.22225 177.137813 
L 583.3615 177.137813 
L 583.3615 130.233281 
L 575.22225 130.233281 
z
" style="fill:#93cb67;stroke:#000000;stroke-linejoin:miter;stroke-width:0.3;"/>
   </g>
   <g id="patch_30">
    <path clip-path="url(#p65ad9d9cee)" d="M 626.092562 177.137813 
L 634.231813 177.137813 
L 634.231813 118.072847 
L 626.092562 118.072847 
z
" style="fill:#93cb67;stroke:#000000;stroke-linejoin:miter;stroke-width:0.3;"/>
   </g>
   <g id="patch_31">
    <path clip-path="url(#p65ad9d9cee)" d="M 676.962875 177.137813 
L 685.102125 177.137813 
L 685.102125 128.496076 
L 676.962875 128.496076 
z
" style="fill:#93cb67;stroke:#000000;stroke-linejoin:miter;stroke-width:0.3;"/>
   </g>
   <g id="patch_32">
    <path clip-path="url(#p65ad9d9cee)" d="M 430.750563 177.137813 
L 438.889813 177.137813 
L 438.889813 114.598438 
L 430.750563 114.598438 
z
" style="fill:#67cb86;stroke:#000000;stroke-linejoin:miter;stroke-width:0.3;"/>
   </g>
   <g id="patch_33">
    <path clip-path="url(#p65ad9d9cee)" d="M 481.620875 177.137813 
L 489.760125 177.137813 
L 489.760125 126.758872 
L 481.620875 126.758872 
z
" style="fill:#67cb86;stroke:#000000;stroke-linejoin:miter;stroke-width:0.3;"/>
   </g>
   <g id="patch_34">
    <path clip-path="url(#p65ad9d9cee)" d="M 532.491188 177.137813 
L 540.630438 177.137813 
L 540.630438 137.182101 
L 532.491188 137.182101 
z
" style="fill:#67cb86;stroke:#000000;stroke-linejoin:miter;stroke-width:0.3;"/>
   </g>
   <g id="patch_35">
    <path clip-path="url(#p65ad9d9cee)" d="M 583.3615 177.137813 
L 591.50075 177.137813 
L 591.50075 111.124028 
L 583.3615 111.124028 
z
" style="fill:#67cb86;stroke:#000000;stroke-linejoin:miter;stroke-width:0.3;"/>
   </g>
   <g id="patch_36">
    <path clip-path="url(#p65ad9d9cee)" d="M 634.231812 177.137813 
L 642.371062 177.137813 
L 642.371062 123.284462 
L 634.231812 123.284462 
z
" style="fill:#67cb86;stroke:#000000;stroke-linejoin:miter;stroke-width:0.3;"/>
   </g>
   <g id="patch_37">
    <path clip-path="url(#p65ad9d9cee)" d="M 685.102125 177.137813 
L 693.241375 177.137813 
L 693.241375 125.021667 
L 685.102125 125.021667 
z
" style="fill:#67cb86;stroke:#000000;stroke-linejoin:miter;stroke-width:0.3;"/>
   </g>
   <g id="patch_38">
    <path clip-path="url(#p65ad9d9cee)" d="M 438.889813 177.137813 
L 447.029063 177.137813 
L 447.029063 130.233281 
L 438.889813 130.233281 
z
" style="fill:#67c5cb;stroke:#000000;stroke-linejoin:miter;stroke-width:0.3;"/>
   </g>
   <g id="patch_39">
    <path clip-path="url(#p65ad9d9cee)" d="M 489.760125 177.137813 
L 497.899375 177.137813 
L 497.899375 32.949809 
L 489.760125 32.949809 
z
" style="fill:#67c5cb;stroke:#000000;stroke-linejoin:miter;stroke-width:0.3;"/>
   </g>
   <g id="patch_40">
    <path clip-path="url(#p65ad9d9cee)" d="M 540.630437 177.137813 
L 548.769688 177.137813 
L 548.769688 131.970486 
L 540.630437 131.970486 
z
" style="fill:#67c5cb;stroke:#000000;stroke-linejoin:miter;stroke-width:0.3;"/>
   </g>
   <g id="patch_41">
    <path clip-path="url(#p65ad9d9cee)" d="M 591.50075 177.137813 
L 599.64 177.137813 
L 599.64 114.598438 
L 591.50075 114.598438 
z
" style="fill:#67c5cb;stroke:#000000;stroke-linejoin:miter;stroke-width:0.3;"/>
   </g>
   <g id="patch_42">
    <path clip-path="url(#p65ad9d9cee)" d="M 642.371062 177.137813 
L 650.510313 177.137813 
L 650.510313 125.021667 
L 642.371062 125.021667 
z
" style="fill:#67c5cb;stroke:#000000;stroke-linejoin:miter;stroke-width:0.3;"/>
   </g>
   <g id="patch_43">
    <path clip-path="url(#p65ad9d9cee)" d="M 693.241375 177.137813 
L 701.380625 177.137813 
L 701.380625 107.649618 
L 693.241375 107.649618 
z
" style="fill:#67c5cb;stroke:#000000;stroke-linejoin:miter;stroke-width:0.3;"/>
   </g>
   <g id="patch_44">
    <path d="M 401.245781 20.789375 
L 706.467656 20.789375 
" style="fill:none;stroke:#cccccc;stroke-linecap:square;stroke-linejoin:miter;"/>
   </g>
   <g id="patch_45">
    <path d="M 706.467656 177.137813 
L 706.467656 20.789375 
" style="fill:none;stroke:#cccccc;stroke-linecap:square;stroke-linejoin:miter;"/>
   </g>
   <g id="patch_46">
    <path d="M 401.245781 177.137813 
L 706.467656 177.137813 
" style="fill:none;stroke:#cccccc;stroke-linecap:square;stroke-linejoin:miter;"/>
   </g>
   <g id="patch_47">
    <path d="M 401.245781 177.137813 
L 401.245781 20.789375 
" style="fill:none;stroke:#cccccc;stroke-linecap:square;stroke-linejoin:miter;"/>
   </g>
   <g id="text_34">
    <!-- click count by color and car brand -->
    <g style="fill:#262626;" transform="translate(464.48390625 15.789375)scale(0.12 -0.12)">
     <use xlink:href="#ArialMT-63"/>
     <use x="50.0" xlink:href="#ArialMT-6c"/>
     <use x="72.216796875" xlink:href="#ArialMT-69"/>
     <use x="94.43359375" xlink:href="#ArialMT-63"/>
     <use x="144.43359375" xlink:href="#ArialMT-6b"/>
     <use x="194.43359375" xlink:href="#ArialMT-20"/>
     <use x="222.216796875" xlink:href="#ArialMT-63"/>
     <use x="272.216796875" xlink:href="#ArialMT-6f"/>
     <use x="327.83203125" xlink:href="#ArialMT-75"/>
     <use x="383.447265625" xlink:href="#ArialMT-6e"/>
     <use x="439.0625" xlink:href="#ArialMT-74"/>
     <use x="466.845703125" xlink:href="#ArialMT-20"/>
     <use x="494.62890625" xlink:href="#ArialMT-62"/>
     <use x="550.244140625" xlink:href="#ArialMT-79"/>
     <use x="600.244140625" xlink:href="#ArialMT-20"/>
     <use x="628.02734375" xlink:href="#ArialMT-63"/>
     <use x="678.02734375" xlink:href="#ArialMT-6f"/>
     <use x="733.642578125" xlink:href="#ArialMT-6c"/>
     <use x="755.859375" xlink:href="#ArialMT-6f"/>
     <use x="811.474609375" xlink:href="#ArialMT-72"/>
     <use x="844.775390625" xlink:href="#ArialMT-20"/>
     <use x="872.55859375" xlink:href="#ArialMT-61"/>
     <use x="928.173828125" xlink:href="#ArialMT-6e"/>
     <use x="983.7890625" xlink:href="#ArialMT-64"/>
     <use x="1039.404296875" xlink:href="#ArialMT-20"/>
     <use x="1067.1875" xlink:href="#ArialMT-63"/>
     <use x="1117.1875" xlink:href="#ArialMT-61"/>
     <use x="1172.802734375" xlink:href="#ArialMT-72"/>
     <use x="1206.103515625" xlink:href="#ArialMT-20"/>
     <use x="1233.88671875" xlink:href="#ArialMT-62"/>
     <use x="1289.501953125" xlink:href="#ArialMT-72"/>
     <use x="1322.802734375" xlink:href="#ArialMT-61"/>
     <use x="1378.41796875" xlink:href="#ArialMT-6e"/>
     <use x="1434.033203125" xlink:href="#ArialMT-64"/>
    </g>
   </g>
   <g id="legend_1">
    <g id="patch_48">
     <path d="M 725.72875 31.947187 
L 745.72875 31.947187 
L 745.72875 24.947187 
L 725.72875 24.947187 
z
" style="fill:#cb6d67;stroke:#000000;stroke-linejoin:miter;stroke-width:0.3;"/>
    </g>
    <g id="text_35">
     <!-- Nissan -->
     <defs>
      <path d="M 7.625 0 
L 7.625 71.578125 
L 17.328125 71.578125 
L 54.9375 15.375 
L 54.9375 71.578125 
L 64.015625 71.578125 
L 64.015625 0 
L 54.296875 0 
L 16.703125 56.25 
L 16.703125 0 
z
" id="ArialMT-4e"/>
     </defs>
     <g style="fill:#262626;" transform="translate(753.72875 31.9471875)scale(0.1 -0.1)">
      <use xlink:href="#ArialMT-4e"/>
      <use x="72.216796875" xlink:href="#ArialMT-69"/>
      <use x="94.43359375" xlink:href="#ArialMT-73"/>
      <use x="144.43359375" xlink:href="#ArialMT-73"/>
      <use x="194.43359375" xlink:href="#ArialMT-61"/>
      <use x="250.048828125" xlink:href="#ArialMT-6e"/>
     </g>
    </g>
    <g id="patch_49">
     <path d="M 725.72875 46.214375 
L 745.72875 46.214375 
L 745.72875 39.214375 
L 725.72875 39.214375 
z
" style="fill:#cbb867;stroke:#000000;stroke-linejoin:miter;stroke-width:0.3;"/>
    </g>
    <g id="text_36">
     <!-- Chevy -->
     <g style="fill:#262626;" transform="translate(753.72875 46.214375)scale(0.1 -0.1)">
      <use xlink:href="#ArialMT-43"/>
      <use x="72.216796875" xlink:href="#ArialMT-68"/>
      <use x="127.83203125" xlink:href="#ArialMT-65"/>
      <use x="183.447265625" xlink:href="#ArialMT-76"/>
      <use x="233.447265625" xlink:href="#ArialMT-79"/>
     </g>
    </g>
    <g id="patch_50">
     <path d="M 725.72875 60.476875 
L 745.72875 60.476875 
L 745.72875 53.476875 
L 725.72875 53.476875 
z
" style="fill:#93cb67;stroke:#000000;stroke-linejoin:miter;stroke-width:0.3;"/>
    </g>
    <g id="text_37">
     <!-- Ford -->
     <defs>
      <path d="M 8.203125 0 
L 8.203125 71.578125 
L 56.5 71.578125 
L 56.5 63.140625 
L 17.671875 63.140625 
L 17.671875 40.96875 
L 51.265625 40.96875 
L 51.265625 32.515625 
L 17.671875 32.515625 
L 17.671875 0 
z
" id="ArialMT-46"/>
     </defs>
     <g style="fill:#262626;" transform="translate(753.72875 60.476875)scale(0.1 -0.1)">
      <use xlink:href="#ArialMT-46"/>
      <use x="61.083984375" xlink:href="#ArialMT-6f"/>
      <use x="116.69921875" xlink:href="#ArialMT-72"/>
      <use x="150.0" xlink:href="#ArialMT-64"/>
     </g>
    </g>
    <g id="patch_51">
     <path d="M 725.72875 74.622187 
L 745.72875 74.622187 
L 745.72875 67.622187 
L 725.72875 67.622187 
z
" style="fill:#67cb86;stroke:#000000;stroke-linejoin:miter;stroke-width:0.3;"/>
    </g>
    <g id="text_38">
     <!-- Toyota -->
     <defs>
      <path d="M 25.921875 0 
L 25.921875 63.140625 
L 2.34375 63.140625 
L 2.34375 71.578125 
L 59.078125 71.578125 
L 59.078125 63.140625 
L 35.40625 63.140625 
L 35.40625 0 
z
" id="ArialMT-54"/>
     </defs>
     <g style="fill:#262626;" transform="translate(753.72875 74.6221875)scale(0.1 -0.1)">
      <use xlink:href="#ArialMT-54"/>
      <use x="60.912109375" xlink:href="#ArialMT-6f"/>
      <use x="116.52734375" xlink:href="#ArialMT-79"/>
      <use x="166.52734375" xlink:href="#ArialMT-6f"/>
      <use x="222.142578125" xlink:href="#ArialMT-74"/>
      <use x="249.92578125" xlink:href="#ArialMT-61"/>
     </g>
    </g>
    <g id="patch_52">
     <path d="M 725.72875 88.884687 
L 745.72875 88.884687 
L 745.72875 81.884687 
L 725.72875 81.884687 
z
" style="fill:#67c5cb;stroke:#000000;stroke-linejoin:miter;stroke-width:0.3;"/>
    </g>
    <g id="text_39">
     <!-- Honda -->
     <defs>
      <path d="M 8.015625 0 
L 8.015625 71.578125 
L 17.484375 71.578125 
L 17.484375 42.1875 
L 54.6875 42.1875 
L 54.6875 71.578125 
L 64.15625 71.578125 
L 64.15625 0 
L 54.6875 0 
L 54.6875 33.734375 
L 17.484375 33.734375 
L 17.484375 0 
z
" id="ArialMT-48"/>
     </defs>
     <g style="fill:#262626;" transform="translate(753.72875 88.8846875)scale(0.1 -0.1)">
      <use xlink:href="#ArialMT-48"/>
      <use x="72.216796875" xlink:href="#ArialMT-6f"/>
      <use x="127.83203125" xlink:href="#ArialMT-6e"/>
      <use x="183.447265625" xlink:href="#ArialMT-64"/>
      <use x="239.0625" xlink:href="#ArialMT-61"/>
     </g>
    </g>
   </g>
  </g>
  <g id="axes_3"/>
  <g id="axes_4">
   <g id="patch_53">
    <path d="M 401.245781 387.737813 
L 706.467656 387.737813 
L 706.467656 231.389375 
L 401.245781 231.389375 
z
" style="fill:#ffffff;"/>
   </g>
   <g id="matplotlib.axis_5">
    <g id="xtick_13">
     <g id="line2d_73">
      <g>
       <use style="fill:#262626;stroke:#262626;" x="426.6809375" xlink:href="#m59010fbe50" y="387.7378125"/>
      </g>
     </g>
     <g id="line2d_74">
      <g>
       <use style="fill:#262626;stroke:#262626;" x="426.6809375" xlink:href="#m59010fbe50" y="231.389375"/>
      </g>
     </g>
     <g id="text_40">
      <!-- silver -->
      <g style="fill:#262626;" transform="translate(415.01375 401.895625)scale(0.1 -0.1)">
       <use xlink:href="#ArialMT-73"/>
       <use x="50.0" xlink:href="#ArialMT-69"/>
       <use x="72.216796875" xlink:href="#ArialMT-6c"/>
       <use x="94.43359375" xlink:href="#ArialMT-76"/>
       <use x="144.43359375" xlink:href="#ArialMT-65"/>
       <use x="200.048828125" xlink:href="#ArialMT-72"/>
      </g>
     </g>
    </g>
    <g id="xtick_14">
     <g id="line2d_75">
      <g>
       <use style="fill:#262626;stroke:#262626;" x="477.55125" xlink:href="#m59010fbe50" y="387.7378125"/>
      </g>
     </g>
     <g id="line2d_76">
      <g>
       <use style="fill:#262626;stroke:#262626;" x="477.55125" xlink:href="#m59010fbe50" y="231.389375"/>
      </g>
     </g>
     <g id="text_41">
      <!-- black -->
      <g style="fill:#262626;" transform="translate(465.879375 401.895625)scale(0.1 -0.1)">
       <use xlink:href="#ArialMT-62"/>
       <use x="55.615234375" xlink:href="#ArialMT-6c"/>
       <use x="77.83203125" xlink:href="#ArialMT-61"/>
       <use x="133.447265625" xlink:href="#ArialMT-63"/>
       <use x="183.447265625" xlink:href="#ArialMT-6b"/>
      </g>
     </g>
    </g>
    <g id="xtick_15">
     <g id="line2d_77">
      <g>
       <use style="fill:#262626;stroke:#262626;" x="528.4215625" xlink:href="#m59010fbe50" y="387.7378125"/>
      </g>
     </g>
     <g id="line2d_78">
      <g>
       <use style="fill:#262626;stroke:#262626;" x="528.4215625" xlink:href="#m59010fbe50" y="231.389375"/>
      </g>
     </g>
     <g id="text_42">
      <!-- white -->
      <g style="fill:#262626;" transform="translate(516.7496875 401.895625)scale(0.1 -0.1)">
       <use xlink:href="#ArialMT-77"/>
       <use x="72.216796875" xlink:href="#ArialMT-68"/>
       <use x="127.83203125" xlink:href="#ArialMT-69"/>
       <use x="150.048828125" xlink:href="#ArialMT-74"/>
       <use x="177.83203125" xlink:href="#ArialMT-65"/>
      </g>
     </g>
    </g>
    <g id="xtick_16">
     <g id="line2d_79">
      <g>
       <use style="fill:#262626;stroke:#262626;" x="579.291875" xlink:href="#m59010fbe50" y="387.7378125"/>
      </g>
     </g>
     <g id="line2d_80">
      <g>
       <use style="fill:#262626;stroke:#262626;" x="579.291875" xlink:href="#m59010fbe50" y="231.389375"/>
      </g>
     </g>
     <g id="text_43">
      <!-- blue -->
      <g style="fill:#262626;" transform="translate(569.83953125 401.895625)scale(0.1 -0.1)">
       <use xlink:href="#ArialMT-62"/>
       <use x="55.615234375" xlink:href="#ArialMT-6c"/>
       <use x="77.83203125" xlink:href="#ArialMT-75"/>
       <use x="133.447265625" xlink:href="#ArialMT-65"/>
      </g>
     </g>
    </g>
    <g id="xtick_17">
     <g id="line2d_81">
      <g>
       <use style="fill:#262626;stroke:#262626;" x="630.1621875" xlink:href="#m59010fbe50" y="387.7378125"/>
      </g>
     </g>
     <g id="line2d_82">
      <g>
       <use style="fill:#262626;stroke:#262626;" x="630.1621875" xlink:href="#m59010fbe50" y="231.389375"/>
      </g>
     </g>
     <g id="text_44">
      <!-- red -->
      <g style="fill:#262626;" transform="translate(622.93640625 401.895625)scale(0.1 -0.1)">
       <use xlink:href="#ArialMT-72"/>
       <use x="33.30078125" xlink:href="#ArialMT-65"/>
       <use x="88.916015625" xlink:href="#ArialMT-64"/>
      </g>
     </g>
    </g>
    <g id="xtick_18">
     <g id="line2d_83">
      <g>
       <use style="fill:#262626;stroke:#262626;" x="681.0325" xlink:href="#m59010fbe50" y="387.7378125"/>
      </g>
     </g>
     <g id="line2d_84">
      <g>
       <use style="fill:#262626;stroke:#262626;" x="681.0325" xlink:href="#m59010fbe50" y="231.389375"/>
      </g>
     </g>
     <g id="text_45">
      <!-- dark-blue -->
      <g style="fill:#262626;" transform="translate(660.18953125 401.895625)scale(0.1 -0.1)">
       <use xlink:href="#ArialMT-64"/>
       <use x="55.615234375" xlink:href="#ArialMT-61"/>
       <use x="111.23046875" xlink:href="#ArialMT-72"/>
       <use x="144.53125" xlink:href="#ArialMT-6b"/>
       <use x="194.53125" xlink:href="#ArialMT-2d"/>
       <use x="227.83203125" xlink:href="#ArialMT-62"/>
       <use x="283.447265625" xlink:href="#ArialMT-6c"/>
       <use x="305.6640625" xlink:href="#ArialMT-75"/>
       <use x="361.279296875" xlink:href="#ArialMT-65"/>
      </g>
     </g>
    </g>
    <g id="text_46">
     <!-- Color -->
     <g style="fill:#262626;" transform="translate(540.714296875 416.75671875)scale(0.11 -0.11)">
      <use xlink:href="#ArialMT-43"/>
      <use x="72.216796875" xlink:href="#ArialMT-6f"/>
      <use x="127.83203125" xlink:href="#ArialMT-6c"/>
      <use x="150.048828125" xlink:href="#ArialMT-6f"/>
      <use x="205.6640625" xlink:href="#ArialMT-72"/>
     </g>
    </g>
   </g>
   <g id="matplotlib.axis_6">
    <g id="ytick_17">
     <g id="line2d_85">
      <path clip-path="url(#p3d477add60)" d="M 401.245781 387.737813 
L 706.467656 387.737813 
" style="fill:none;stroke:#cccccc;stroke-linecap:round;"/>
     </g>
     <g id="line2d_86">
      <g>
       <use style="fill:#262626;stroke:#262626;" x="401.24578125" xlink:href="#m59010fbe50" y="387.7378125"/>
      </g>
     </g>
     <g id="line2d_87">
      <g>
       <use style="fill:#262626;stroke:#262626;" x="706.46765625" xlink:href="#m59010fbe50" y="387.7378125"/>
      </g>
     </g>
     <g id="text_47">
      <!-- 0 -->
      <g style="fill:#262626;" transform="translate(388.68484375 390.32296875)scale(0.1 -0.1)">
       <use xlink:href="#ArialMT-30"/>
      </g>
     </g>
    </g>
    <g id="ytick_18">
     <g id="line2d_88">
      <path clip-path="url(#p3d477add60)" d="M 401.245781 356.468125 
L 706.467656 356.468125 
" style="fill:none;stroke:#cccccc;stroke-linecap:round;"/>
     </g>
     <g id="line2d_89">
      <g>
       <use style="fill:#262626;stroke:#262626;" x="401.24578125" xlink:href="#m59010fbe50" y="356.468125"/>
      </g>
     </g>
     <g id="line2d_90">
      <g>
       <use style="fill:#262626;stroke:#262626;" x="706.46765625" xlink:href="#m59010fbe50" y="356.468125"/>
      </g>
     </g>
     <g id="text_48">
      <!-- 5 -->
      <g style="fill:#262626;" transform="translate(388.68484375 359.05328125)scale(0.1 -0.1)">
       <use xlink:href="#ArialMT-35"/>
      </g>
     </g>
    </g>
    <g id="ytick_19">
     <g id="line2d_91">
      <path clip-path="url(#p3d477add60)" d="M 401.245781 325.198438 
L 706.467656 325.198438 
" style="fill:none;stroke:#cccccc;stroke-linecap:round;"/>
     </g>
     <g id="line2d_92">
      <g>
       <use style="fill:#262626;stroke:#262626;" x="401.24578125" xlink:href="#m59010fbe50" y="325.1984375"/>
      </g>
     </g>
     <g id="line2d_93">
      <g>
       <use style="fill:#262626;stroke:#262626;" x="706.46765625" xlink:href="#m59010fbe50" y="325.1984375"/>
      </g>
     </g>
     <g id="text_49">
      <!-- 10 -->
      <g style="fill:#262626;" transform="translate(383.12390625 327.78359375)scale(0.1 -0.1)">
       <use xlink:href="#ArialMT-31"/>
       <use x="55.615234375" xlink:href="#ArialMT-30"/>
      </g>
     </g>
    </g>
    <g id="ytick_20">
     <g id="line2d_94">
      <path clip-path="url(#p3d477add60)" d="M 401.245781 293.92875 
L 706.467656 293.92875 
" style="fill:none;stroke:#cccccc;stroke-linecap:round;"/>
     </g>
     <g id="line2d_95">
      <g>
       <use style="fill:#262626;stroke:#262626;" x="401.24578125" xlink:href="#m59010fbe50" y="293.92875"/>
      </g>
     </g>
     <g id="line2d_96">
      <g>
       <use style="fill:#262626;stroke:#262626;" x="706.46765625" xlink:href="#m59010fbe50" y="293.92875"/>
      </g>
     </g>
     <g id="text_50">
      <!-- 15 -->
      <g style="fill:#262626;" transform="translate(383.12390625 296.51390625)scale(0.1 -0.1)">
       <use xlink:href="#ArialMT-31"/>
       <use x="55.615234375" xlink:href="#ArialMT-35"/>
      </g>
     </g>
    </g>
    <g id="ytick_21">
     <g id="line2d_97">
      <path clip-path="url(#p3d477add60)" d="M 401.245781 262.659063 
L 706.467656 262.659063 
" style="fill:none;stroke:#cccccc;stroke-linecap:round;"/>
     </g>
     <g id="line2d_98">
      <g>
       <use style="fill:#262626;stroke:#262626;" x="401.24578125" xlink:href="#m59010fbe50" y="262.6590625"/>
      </g>
     </g>
     <g id="line2d_99">
      <g>
       <use style="fill:#262626;stroke:#262626;" x="706.46765625" xlink:href="#m59010fbe50" y="262.6590625"/>
      </g>
     </g>
     <g id="text_51">
      <!-- 20 -->
      <g style="fill:#262626;" transform="translate(383.12390625 265.24421875)scale(0.1 -0.1)">
       <use xlink:href="#ArialMT-32"/>
       <use x="55.615234375" xlink:href="#ArialMT-30"/>
      </g>
     </g>
    </g>
    <g id="ytick_22">
     <g id="line2d_100">
      <path clip-path="url(#p3d477add60)" d="M 401.245781 231.389375 
L 706.467656 231.389375 
" style="fill:none;stroke:#cccccc;stroke-linecap:round;"/>
     </g>
     <g id="line2d_101">
      <g>
       <use style="fill:#262626;stroke:#262626;" x="401.24578125" xlink:href="#m59010fbe50" y="231.389375"/>
      </g>
     </g>
     <g id="line2d_102">
      <g>
       <use style="fill:#262626;stroke:#262626;" x="706.46765625" xlink:href="#m59010fbe50" y="231.389375"/>
      </g>
     </g>
     <g id="text_52">
      <!-- 25 -->
      <g style="fill:#262626;" transform="translate(383.12390625 233.97453125)scale(0.1 -0.1)">
       <use xlink:href="#ArialMT-32"/>
       <use x="55.615234375" xlink:href="#ArialMT-35"/>
      </g>
     </g>
    </g>
    <g id="text_53">
     <!-- count -->
     <g style="fill:#262626;" transform="translate(375.93765625 323.017109375)rotate(-90.0)scale(0.11 -0.11)">
      <use xlink:href="#ArialMT-63"/>
      <use x="50.0" xlink:href="#ArialMT-6f"/>
      <use x="105.615234375" xlink:href="#ArialMT-75"/>
      <use x="161.23046875" xlink:href="#ArialMT-6e"/>
      <use x="216.845703125" xlink:href="#ArialMT-74"/>
     </g>
    </g>
   </g>
   <g id="patch_54">
    <path clip-path="url(#p3d477add60)" d="M 406.332813 387.737813 
L 414.472063 387.737813 
L 414.472063 356.468125 
L 406.332813 356.468125 
z
" style="fill:#cb6d67;stroke:#000000;stroke-linejoin:miter;stroke-width:0.3;"/>
   </g>
   <g id="patch_55">
    <path clip-path="url(#p3d477add60)" d="M 457.203125 387.737813 
L 465.342375 387.737813 
L 465.342375 375.229938 
L 457.203125 375.229938 
z
" style="fill:#cb6d67;stroke:#000000;stroke-linejoin:miter;stroke-width:0.3;"/>
   </g>
   <g id="patch_56">
    <path clip-path="url(#p3d477add60)" d="M 508.073438 387.737813 
L 516.212688 387.737813 
L 516.212688 375.229938 
L 508.073438 375.229938 
z
" style="fill:#cb6d67;stroke:#000000;stroke-linejoin:miter;stroke-width:0.3;"/>
   </g>
   <g id="patch_57">
    <path clip-path="url(#p3d477add60)" d="M 558.94375 387.737813 
L 567.083 387.737813 
L 567.083 350.214187 
L 558.94375 350.214187 
z
" style="fill:#cb6d67;stroke:#000000;stroke-linejoin:miter;stroke-width:0.3;"/>
   </g>
   <g id="patch_58">
    <path clip-path="url(#p3d477add60)" d="M 609.814062 387.737813 
L 617.953313 387.737813 
L 617.953313 275.166938 
L 609.814062 275.166938 
z
" style="fill:#cb6d67;stroke:#000000;stroke-linejoin:miter;stroke-width:0.3;"/>
   </g>
   <g id="patch_59">
    <path clip-path="url(#p3d477add60)" d="M 660.684375 387.737813 
L 668.823625 387.737813 
L 668.823625 337.706313 
L 660.684375 337.706313 
z
" style="fill:#cb6d67;stroke:#000000;stroke-linejoin:miter;stroke-width:0.3;"/>
   </g>
   <g id="patch_60">
    <path clip-path="url(#p3d477add60)" d="M 414.472063 387.737813 
L 422.611313 387.737813 
L 422.611313 362.722062 
L 414.472063 362.722062 
z
" style="fill:#cbb867;stroke:#000000;stroke-linejoin:miter;stroke-width:0.3;"/>
   </g>
   <g id="patch_61">
    <path clip-path="url(#p3d477add60)" d="M 465.342375 387.737813 
L 473.481625 387.737813 
L 473.481625 362.722062 
L 465.342375 362.722062 
z
" style="fill:#cbb867;stroke:#000000;stroke-linejoin:miter;stroke-width:0.3;"/>
   </g>
   <g id="patch_62">
    <path clip-path="url(#p3d477add60)" d="M 516.212688 387.737813 
L 524.351937 387.737813 
L 524.351937 343.96025 
L 516.212688 343.96025 
z
" style="fill:#cbb867;stroke:#000000;stroke-linejoin:miter;stroke-width:0.3;"/>
   </g>
   <g id="patch_63">
    <path clip-path="url(#p3d477add60)" d="M 567.083 387.737813 
L 575.22225 387.737813 
L 575.22225 356.468125 
L 567.083 356.468125 
z
" style="fill:#cbb867;stroke:#000000;stroke-linejoin:miter;stroke-width:0.3;"/>
   </g>
   <g id="patch_64">
    <path clip-path="url(#p3d477add60)" d="M 617.953313 387.737813 
L 626.092563 387.737813 
L 626.092563 318.9445 
L 617.953313 318.9445 
z
" style="fill:#cbb867;stroke:#000000;stroke-linejoin:miter;stroke-width:0.3;"/>
   </g>
   <g id="patch_65">
    <path clip-path="url(#p3d477add60)" d="M 668.823625 387.737813 
L 676.962875 387.737813 
L 676.962875 331.452375 
L 668.823625 331.452375 
z
" style="fill:#cbb867;stroke:#000000;stroke-linejoin:miter;stroke-width:0.3;"/>
   </g>
   <g id="patch_66">
    <path clip-path="url(#p3d477add60)" d="M 422.611313 387.737813 
L 430.750563 387.737813 
L 430.750563 325.198438 
L 422.611313 325.198438 
z
" style="fill:#93cb67;stroke:#000000;stroke-linejoin:miter;stroke-width:0.3;"/>
   </g>
   <g id="patch_67">
    <path clip-path="url(#p3d477add60)" d="M 473.481625 387.737813 
L 481.620875 387.737813 
L 481.620875 318.9445 
L 473.481625 318.9445 
z
" style="fill:#93cb67;stroke:#000000;stroke-linejoin:miter;stroke-width:0.3;"/>
   </g>
   <g id="patch_68">
    <path clip-path="url(#p3d477add60)" d="M 524.351937 387.737813 
L 532.491188 387.737813 
L 532.491188 356.468125 
L 524.351937 356.468125 
z
" style="fill:#93cb67;stroke:#000000;stroke-linejoin:miter;stroke-width:0.3;"/>
   </g>
   <g id="patch_69">
    <path clip-path="url(#p3d477add60)" d="M 575.22225 387.737813 
L 583.3615 387.737813 
L 583.3615 356.468125 
L 575.22225 356.468125 
z
" style="fill:#93cb67;stroke:#000000;stroke-linejoin:miter;stroke-width:0.3;"/>
   </g>
   <g id="patch_70">
    <path clip-path="url(#p3d477add60)" d="M 626.092562 387.737813 
L 634.231813 387.737813 
L 634.231813 256.405125 
L 626.092562 256.405125 
z
" style="fill:#93cb67;stroke:#000000;stroke-linejoin:miter;stroke-width:0.3;"/>
   </g>
   <g id="patch_71">
    <path clip-path="url(#p3d477add60)" d="M 676.962875 387.737813 
L 685.102125 387.737813 
L 685.102125 337.706313 
L 676.962875 337.706313 
z
" style="fill:#93cb67;stroke:#000000;stroke-linejoin:miter;stroke-width:0.3;"/>
   </g>
   <g id="patch_72">
    <path clip-path="url(#p3d477add60)" d="M 430.750563 387.737813 
L 438.889813 387.737813 
L 438.889813 343.96025 
L 430.750563 343.96025 
z
" style="fill:#67cb86;stroke:#000000;stroke-linejoin:miter;stroke-width:0.3;"/>
   </g>
   <g id="patch_73">
    <path clip-path="url(#p3d477add60)" d="M 481.620875 387.737813 
L 489.760125 387.737813 
L 489.760125 287.674812 
L 481.620875 287.674812 
z
" style="fill:#67cb86;stroke:#000000;stroke-linejoin:miter;stroke-width:0.3;"/>
   </g>
   <g id="patch_74">
    <path clip-path="url(#p3d477add60)" d="M 532.491188 387.737813 
L 540.630438 387.737813 
L 540.630438 325.198438 
L 532.491188 325.198438 
z
" style="fill:#67cb86;stroke:#000000;stroke-linejoin:miter;stroke-width:0.3;"/>
   </g>
   <g id="patch_75">
    <path clip-path="url(#p3d477add60)" d="M 583.3615 387.737813 
L 591.50075 387.737813 
L 591.50075 362.722062 
L 583.3615 362.722062 
z
" style="fill:#67cb86;stroke:#000000;stroke-linejoin:miter;stroke-width:0.3;"/>
   </g>
   <g id="patch_76">
    <path clip-path="url(#p3d477add60)" d="M 634.231812 387.737813 
L 642.371062 387.737813 
L 642.371062 300.182687 
L 634.231812 300.182687 
z
" style="fill:#67cb86;stroke:#000000;stroke-linejoin:miter;stroke-width:0.3;"/>
   </g>
   <g id="patch_77">
    <path clip-path="url(#p3d477add60)" d="M 685.102125 387.737813 
L 693.241375 387.737813 
L 693.241375 381.483875 
L 685.102125 381.483875 
z
" style="fill:#67cb86;stroke:#000000;stroke-linejoin:miter;stroke-width:0.3;"/>
   </g>
   <g id="patch_78">
    <path clip-path="url(#p3d477add60)" d="M 438.889813 387.737813 
L 447.029063 387.737813 
L 447.029063 362.722062 
L 438.889813 362.722062 
z
" style="fill:#67c5cb;stroke:#000000;stroke-linejoin:miter;stroke-width:0.3;"/>
   </g>
   <g id="patch_79">
    <path clip-path="url(#p3d477add60)" d="M 489.760125 387.737813 
L 497.899375 387.737813 
L 497.899375 343.96025 
L 489.760125 343.96025 
z
" style="fill:#67c5cb;stroke:#000000;stroke-linejoin:miter;stroke-width:0.3;"/>
   </g>
   <g id="patch_80">
    <path clip-path="url(#p3d477add60)" d="M 540.630437 387.737813 
L 548.769688 387.737813 
L 548.769688 368.976 
L 540.630437 368.976 
z
" style="fill:#67c5cb;stroke:#000000;stroke-linejoin:miter;stroke-width:0.3;"/>
   </g>
   <g id="patch_81">
    <path clip-path="url(#p3d477add60)" d="M 591.50075 387.737813 
L 599.64 387.737813 
L 599.64 350.214187 
L 591.50075 350.214187 
z
" style="fill:#67c5cb;stroke:#000000;stroke-linejoin:miter;stroke-width:0.3;"/>
   </g>
   <g id="patch_82">
    <path clip-path="url(#p3d477add60)" d="M 642.371062 387.737813 
L 650.510313 387.737813 
L 650.510313 268.913 
L 642.371062 268.913 
z
" style="fill:#67c5cb;stroke:#000000;stroke-linejoin:miter;stroke-width:0.3;"/>
   </g>
   <g id="patch_83">
    <path clip-path="url(#p3d477add60)" d="M 693.241375 387.737813 
L 701.380625 387.737813 
L 701.380625 325.198438 
L 693.241375 325.198438 
z
" style="fill:#67c5cb;stroke:#000000;stroke-linejoin:miter;stroke-width:0.3;"/>
   </g>
   <g id="patch_84">
    <path d="M 401.245781 231.389375 
L 706.467656 231.389375 
" style="fill:none;stroke:#cccccc;stroke-linecap:square;stroke-linejoin:miter;"/>
   </g>
   <g id="patch_85">
    <path d="M 706.467656 387.737813 
L 706.467656 231.389375 
" style="fill:none;stroke:#cccccc;stroke-linecap:square;stroke-linejoin:miter;"/>
   </g>
   <g id="patch_86">
    <path d="M 401.245781 387.737813 
L 706.467656 387.737813 
" style="fill:none;stroke:#cccccc;stroke-linecap:square;stroke-linejoin:miter;"/>
   </g>
   <g id="patch_87">
    <path d="M 401.245781 387.737813 
L 401.245781 231.389375 
" style="fill:none;stroke:#cccccc;stroke-linecap:square;stroke-linejoin:miter;"/>
   </g>
   <g id="text_54">
    <!-- click count by color and models of Honda -->
    <defs>
     <path d="M 6.59375 0 
L 6.59375 51.859375 
L 14.453125 51.859375 
L 14.453125 44.578125 
Q 16.890625 48.390625 20.9375 50.703125 
Q 25 53.03125 30.171875 53.03125 
Q 35.9375 53.03125 39.625 50.640625 
Q 43.3125 48.25 44.828125 43.953125 
Q 50.984375 53.03125 60.84375 53.03125 
Q 68.5625 53.03125 72.703125 48.75 
Q 76.859375 44.484375 76.859375 35.59375 
L 76.859375 0 
L 68.109375 0 
L 68.109375 32.671875 
Q 68.109375 37.9375 67.25 40.25 
Q 66.40625 42.578125 64.15625 43.984375 
Q 61.921875 45.40625 58.890625 45.40625 
Q 53.421875 45.40625 49.796875 41.765625 
Q 46.1875 38.140625 46.1875 30.125 
L 46.1875 0 
L 37.40625 0 
L 37.40625 33.6875 
Q 37.40625 39.546875 35.25 42.46875 
Q 33.109375 45.40625 28.21875 45.40625 
Q 24.515625 45.40625 21.359375 43.453125 
Q 18.21875 41.5 16.796875 37.734375 
Q 15.375 33.984375 15.375 26.90625 
L 15.375 0 
z
" id="ArialMT-6d"/>
     <path d="M 8.6875 0 
L 8.6875 45.015625 
L 0.921875 45.015625 
L 0.921875 51.859375 
L 8.6875 51.859375 
L 8.6875 57.375 
Q 8.6875 62.59375 9.625 65.140625 
Q 10.890625 68.5625 14.078125 70.671875 
Q 17.28125 72.796875 23.046875 72.796875 
Q 26.765625 72.796875 31.25 71.921875 
L 29.9375 64.265625 
Q 27.203125 64.75 24.75 64.75 
Q 20.75 64.75 19.09375 63.03125 
Q 17.4375 61.328125 17.4375 56.640625 
L 17.4375 51.859375 
L 27.546875 51.859375 
L 27.546875 45.015625 
L 17.4375 45.015625 
L 17.4375 0 
z
" id="ArialMT-66"/>
    </defs>
    <g style="fill:#262626;" transform="translate(444.47203125 226.389375)scale(0.12 -0.12)">
     <use xlink:href="#ArialMT-63"/>
     <use x="50.0" xlink:href="#ArialMT-6c"/>
     <use x="72.216796875" xlink:href="#ArialMT-69"/>
     <use x="94.43359375" xlink:href="#ArialMT-63"/>
     <use x="144.43359375" xlink:href="#ArialMT-6b"/>
     <use x="194.43359375" xlink:href="#ArialMT-20"/>
     <use x="222.216796875" xlink:href="#ArialMT-63"/>
     <use x="272.216796875" xlink:href="#ArialMT-6f"/>
     <use x="327.83203125" xlink:href="#ArialMT-75"/>
     <use x="383.447265625" xlink:href="#ArialMT-6e"/>
     <use x="439.0625" xlink:href="#ArialMT-74"/>
     <use x="466.845703125" xlink:href="#ArialMT-20"/>
     <use x="494.62890625" xlink:href="#ArialMT-62"/>
     <use x="550.244140625" xlink:href="#ArialMT-79"/>
     <use x="600.244140625" xlink:href="#ArialMT-20"/>
     <use x="628.02734375" xlink:href="#ArialMT-63"/>
     <use x="678.02734375" xlink:href="#ArialMT-6f"/>
     <use x="733.642578125" xlink:href="#ArialMT-6c"/>
     <use x="755.859375" xlink:href="#ArialMT-6f"/>
     <use x="811.474609375" xlink:href="#ArialMT-72"/>
     <use x="844.775390625" xlink:href="#ArialMT-20"/>
     <use x="872.55859375" xlink:href="#ArialMT-61"/>
     <use x="928.173828125" xlink:href="#ArialMT-6e"/>
     <use x="983.7890625" xlink:href="#ArialMT-64"/>
     <use x="1039.404296875" xlink:href="#ArialMT-20"/>
     <use x="1067.1875" xlink:href="#ArialMT-6d"/>
     <use x="1150.48828125" xlink:href="#ArialMT-6f"/>
     <use x="1206.103515625" xlink:href="#ArialMT-64"/>
     <use x="1261.71875" xlink:href="#ArialMT-65"/>
     <use x="1317.333984375" xlink:href="#ArialMT-6c"/>
     <use x="1339.55078125" xlink:href="#ArialMT-73"/>
     <use x="1389.55078125" xlink:href="#ArialMT-20"/>
     <use x="1417.333984375" xlink:href="#ArialMT-6f"/>
     <use x="1472.94921875" xlink:href="#ArialMT-66"/>
     <use x="1500.732421875" xlink:href="#ArialMT-20"/>
     <use x="1528.515625" xlink:href="#ArialMT-48"/>
     <use x="1600.732421875" xlink:href="#ArialMT-6f"/>
     <use x="1656.34765625" xlink:href="#ArialMT-6e"/>
     <use x="1711.962890625" xlink:href="#ArialMT-64"/>
     <use x="1767.578125" xlink:href="#ArialMT-61"/>
    </g>
   </g>
   <g id="legend_2">
    <g id="patch_88">
     <path d="M 725.72875 242.675312 
L 745.72875 242.675312 
L 745.72875 235.675312 
L 725.72875 235.675312 
z
" style="fill:#cb6d67;stroke:#000000;stroke-linejoin:miter;stroke-width:0.3;"/>
    </g>
    <g id="text_55">
     <!-- Odyssey -->
     <defs>
      <path d="M 4.828125 34.859375 
Q 4.828125 52.6875 14.390625 62.765625 
Q 23.96875 72.859375 39.109375 72.859375 
Q 49.03125 72.859375 56.984375 68.109375 
Q 64.9375 63.375 69.109375 54.90625 
Q 73.296875 46.4375 73.296875 35.6875 
Q 73.296875 24.8125 68.890625 16.21875 
Q 64.5 7.625 56.4375 3.203125 
Q 48.390625 -1.21875 39.0625 -1.21875 
Q 28.953125 -1.21875 20.984375 3.65625 
Q 13.03125 8.546875 8.921875 16.984375 
Q 4.828125 25.4375 4.828125 34.859375 
M 14.59375 34.71875 
Q 14.59375 21.78125 21.546875 14.328125 
Q 28.515625 6.890625 39.015625 6.890625 
Q 49.703125 6.890625 56.609375 14.40625 
Q 63.53125 21.921875 63.53125 35.75 
Q 63.53125 44.484375 60.578125 51 
Q 57.625 57.515625 51.921875 61.109375 
Q 46.234375 64.703125 39.15625 64.703125 
Q 29.109375 64.703125 21.84375 57.78125 
Q 14.59375 50.875 14.59375 34.71875 
" id="ArialMT-4f"/>
     </defs>
     <g style="fill:#262626;" transform="translate(753.72875 242.6753125)scale(0.1 -0.1)">
      <use xlink:href="#ArialMT-4f"/>
      <use x="77.783203125" xlink:href="#ArialMT-64"/>
      <use x="133.3984375" xlink:href="#ArialMT-79"/>
      <use x="183.3984375" xlink:href="#ArialMT-73"/>
      <use x="233.3984375" xlink:href="#ArialMT-73"/>
      <use x="283.3984375" xlink:href="#ArialMT-65"/>
      <use x="339.013671875" xlink:href="#ArialMT-79"/>
     </g>
    </g>
    <g id="patch_89">
     <path d="M 725.72875 256.937812 
L 745.72875 256.937812 
L 745.72875 249.937812 
L 725.72875 249.937812 
z
" style="fill:#cbb867;stroke:#000000;stroke-linejoin:miter;stroke-width:0.3;"/>
    </g>
    <g id="text_56">
     <!-- Accord -->
     <defs>
      <path d="M -0.140625 0 
L 27.34375 71.578125 
L 37.546875 71.578125 
L 66.84375 0 
L 56.0625 0 
L 47.703125 21.6875 
L 17.78125 21.6875 
L 9.90625 0 
z
M 20.515625 29.390625 
L 44.78125 29.390625 
L 37.3125 49.21875 
Q 33.890625 58.25 32.234375 64.0625 
Q 30.859375 57.171875 28.375 50.390625 
z
" id="ArialMT-41"/>
     </defs>
     <g style="fill:#262626;" transform="translate(753.72875 256.9378125)scale(0.1 -0.1)">
      <use xlink:href="#ArialMT-41"/>
      <use x="66.69921875" xlink:href="#ArialMT-63"/>
      <use x="116.69921875" xlink:href="#ArialMT-63"/>
      <use x="166.69921875" xlink:href="#ArialMT-6f"/>
      <use x="222.314453125" xlink:href="#ArialMT-72"/>
      <use x="255.615234375" xlink:href="#ArialMT-64"/>
     </g>
    </g>
    <g id="patch_90">
     <path d="M 725.72875 271.083125 
L 745.72875 271.083125 
L 745.72875 264.083125 
L 725.72875 264.083125 
z
" style="fill:#93cb67;stroke:#000000;stroke-linejoin:miter;stroke-width:0.3;"/>
    </g>
    <g id="text_57">
     <!-- Fit -->
     <g style="fill:#262626;" transform="translate(753.72875 271.083125)scale(0.1 -0.1)">
      <use xlink:href="#ArialMT-46"/>
      <use x="61.083984375" xlink:href="#ArialMT-69"/>
      <use x="83.30078125" xlink:href="#ArialMT-74"/>
     </g>
    </g>
    <g id="patch_91">
     <path d="M 725.72875 285.228437 
L 745.72875 285.228437 
L 745.72875 278.228437 
L 725.72875 278.228437 
z
" style="fill:#67cb86;stroke:#000000;stroke-linejoin:miter;stroke-width:0.3;"/>
    </g>
    <g id="text_58">
     <!-- CR-V -->
     <defs>
      <path d="M 7.859375 0 
L 7.859375 71.578125 
L 39.59375 71.578125 
Q 49.171875 71.578125 54.140625 69.640625 
Q 59.125 67.71875 62.109375 62.828125 
Q 65.09375 57.953125 65.09375 52.046875 
Q 65.09375 44.4375 60.15625 39.203125 
Q 55.21875 33.984375 44.921875 32.5625 
Q 48.6875 30.765625 50.640625 29 
Q 54.78125 25.203125 58.5 19.484375 
L 70.953125 0 
L 59.03125 0 
L 49.5625 14.890625 
Q 45.40625 21.34375 42.71875 24.75 
Q 40.046875 28.171875 37.921875 29.53125 
Q 35.796875 30.90625 33.59375 31.453125 
Q 31.984375 31.78125 28.328125 31.78125 
L 17.328125 31.78125 
L 17.328125 0 
z
M 17.328125 39.984375 
L 37.703125 39.984375 
Q 44.1875 39.984375 47.84375 41.328125 
Q 51.515625 42.671875 53.421875 45.625 
Q 55.328125 48.578125 55.328125 52.046875 
Q 55.328125 57.125 51.640625 60.390625 
Q 47.953125 63.671875 39.984375 63.671875 
L 17.328125 63.671875 
z
" id="ArialMT-52"/>
      <path d="M 28.171875 0 
L 0.4375 71.578125 
L 10.6875 71.578125 
L 29.296875 19.578125 
Q 31.546875 13.328125 33.0625 7.859375 
Q 34.71875 13.71875 36.921875 19.578125 
L 56.25 71.578125 
L 65.921875 71.578125 
L 37.890625 0 
z
" id="ArialMT-56"/>
     </defs>
     <g style="fill:#262626;" transform="translate(753.72875 285.2284375)scale(0.1 -0.1)">
      <use xlink:href="#ArialMT-43"/>
      <use x="72.216796875" xlink:href="#ArialMT-52"/>
      <use x="144.43359375" xlink:href="#ArialMT-2d"/>
      <use x="177.734375" xlink:href="#ArialMT-56"/>
     </g>
    </g>
    <g id="patch_92">
     <path d="M 725.72875 299.37375 
L 745.72875 299.37375 
L 745.72875 292.37375 
L 725.72875 292.37375 
z
" style="fill:#67c5cb;stroke:#000000;stroke-linejoin:miter;stroke-width:0.3;"/>
    </g>
    <g id="text_59">
     <!-- Civic -->
     <g style="fill:#262626;" transform="translate(753.72875 299.37375)scale(0.1 -0.1)">
      <use xlink:href="#ArialMT-43"/>
      <use x="72.216796875" xlink:href="#ArialMT-69"/>
      <use x="94.43359375" xlink:href="#ArialMT-76"/>
      <use x="144.43359375" xlink:href="#ArialMT-69"/>
      <use x="166.650390625" xlink:href="#ArialMT-63"/>
     </g>
    </g>
   </g>
  </g>
 </g>
 <defs>
  <clipPath id="p65ad9d9cee">
   <rect height="156.3484375" width="305.221875" x="401.24578125" y="20.789375"/>
  </clipPath>
  <clipPath id="p60013a807d">
   <rect height="156.3484375" width="305.221875" x="45.94265625" y="20.789375"/>
  </clipPath>
  <clipPath id="p3d477add60">
   <rect height="156.3484375" width="305.221875" x="401.24578125" y="231.389375"/>
  </clipPath>
 </defs>
</svg>
