<?xml version="1.0" encoding="utf-8" standalone="no"?>
<!DOCTYPE svg PUBLIC "-//W3C//DTD SVG 1.1//EN"
  "http://www.w3.org/Graphics/SVG/1.1/DTD/svg11.dtd">
<!-- Created with matplotlib (http://matplotlib.org/) -->
<svg height="576pt" version="1.1" viewBox="0 0 576 576" width="576pt" xmlns="http://www.w3.org/2000/svg" xmlns:xlink="http://www.w3.org/1999/xlink">
 <defs>
  <style type="text/css">
*{stroke-linecap:butt;stroke-linejoin:round;stroke-miterlimit:100000;}
  </style>
 </defs>
 <g id="figure_1">
  <g id="patch_1">
   <path d="M 0 576 
L 576 576 
L 576 0 
L 0 0 
z
" style="fill:#ffffff;"/>
  </g>
  <g id="axes_1">
   <g id="patch_2">
    <path d="M 72 504 
L 518.4 504 
L 518.4 57.6 
L 72 57.6 
z
" style="fill:#ffffff;"/>
   </g>
   <g id="matplotlib.axis_1">
    <g id="xtick_1">
     <g id="line2d_1">
      <defs>
       <path d="M 0 0 
L 0 0 
" id="mb13c7015bf" style="stroke:#262626;"/>
      </defs>
      <g>
       <use style="fill:#262626;stroke:#262626;" x="72.0" xlink:href="#mb13c7015bf" y="504.0"/>
      </g>
     </g>
     <g id="line2d_2">
      <g>
       <use style="fill:#262626;stroke:#262626;" x="72.0" xlink:href="#mb13c7015bf" y="57.6"/>
      </g>
     </g>
     <g id="text_1">
      <!-- 0 -->
      <defs>
       <path d="M 4.15625 35.296875 
Q 4.15625 48 6.765625 55.734375 
Q 9.375 63.484375 14.515625 67.671875 
Q 19.671875 71.875 27.484375 71.875 
Q 33.25 71.875 37.59375 69.546875 
Q 41.9375 67.234375 44.765625 62.859375 
Q 47.609375 58.5 49.21875 52.21875 
Q 50.828125 45.953125 50.828125 35.296875 
Q 50.828125 22.703125 48.234375 14.96875 
Q 45.65625 7.234375 40.5 3 
Q 35.359375 -1.21875 27.484375 -1.21875 
Q 17.140625 -1.21875 11.234375 6.203125 
Q 4.15625 15.140625 4.15625 35.296875 
M 13.1875 35.296875 
Q 13.1875 17.671875 17.3125 11.828125 
Q 21.4375 6 27.484375 6 
Q 33.546875 6 37.671875 11.859375 
Q 41.796875 17.71875 41.796875 35.296875 
Q 41.796875 52.984375 37.671875 58.78125 
Q 33.546875 64.59375 27.390625 64.59375 
Q 21.34375 64.59375 17.71875 59.46875 
Q 13.1875 52.9375 13.1875 35.296875 
" id="ArialMT-30"/>
      </defs>
      <g style="fill:#262626;" transform="translate(69.21953125 518.1578125)scale(0.1 -0.1)">
       <use xlink:href="#ArialMT-30"/>
      </g>
     </g>
    </g>
    <g id="xtick_2">
     <g id="line2d_3">
      <g>
       <use style="fill:#262626;stroke:#262626;" x="131.52" xlink:href="#mb13c7015bf" y="504.0"/>
      </g>
     </g>
     <g id="line2d_4">
      <g>
       <use style="fill:#262626;stroke:#262626;" x="131.52" xlink:href="#mb13c7015bf" y="57.6"/>
      </g>
     </g>
     <g id="text_2">
      <!-- 2 -->
      <defs>
       <path d="M 50.34375 8.453125 
L 50.34375 0 
L 3.03125 0 
Q 2.9375 3.171875 4.046875 6.109375 
Q 5.859375 10.9375 9.828125 15.625 
Q 13.8125 20.3125 21.34375 26.46875 
Q 33.015625 36.03125 37.109375 41.625 
Q 41.21875 47.21875 41.21875 52.203125 
Q 41.21875 57.421875 37.46875 61 
Q 33.734375 64.59375 27.734375 64.59375 
Q 21.390625 64.59375 17.578125 60.78125 
Q 13.765625 56.984375 13.71875 50.25 
L 4.6875 51.171875 
Q 5.609375 61.28125 11.65625 66.578125 
Q 17.71875 71.875 27.9375 71.875 
Q 38.234375 71.875 44.234375 66.15625 
Q 50.25 60.453125 50.25 52 
Q 50.25 47.703125 48.484375 43.546875 
Q 46.734375 39.40625 42.65625 34.8125 
Q 38.578125 30.21875 29.109375 22.21875 
Q 21.1875 15.578125 18.9375 13.203125 
Q 16.703125 10.84375 15.234375 8.453125 
z
" id="ArialMT-32"/>
      </defs>
      <g style="fill:#262626;" transform="translate(128.73953125 518.1578125)scale(0.1 -0.1)">
       <use xlink:href="#ArialMT-32"/>
      </g>
     </g>
    </g>
    <g id="xtick_3">
     <g id="line2d_5">
      <g>
       <use style="fill:#262626;stroke:#262626;" x="191.04" xlink:href="#mb13c7015bf" y="504.0"/>
      </g>
     </g>
     <g id="line2d_6">
      <g>
       <use style="fill:#262626;stroke:#262626;" x="191.04" xlink:href="#mb13c7015bf" y="57.6"/>
      </g>
     </g>
     <g id="text_3">
      <!-- 4 -->
      <defs>
       <path d="M 32.328125 0 
L 32.328125 17.140625 
L 1.265625 17.140625 
L 1.265625 25.203125 
L 33.9375 71.578125 
L 41.109375 71.578125 
L 41.109375 25.203125 
L 50.78125 25.203125 
L 50.78125 17.140625 
L 41.109375 17.140625 
L 41.109375 0 
z
M 32.328125 25.203125 
L 32.328125 57.46875 
L 9.90625 25.203125 
z
" id="ArialMT-34"/>
      </defs>
      <g style="fill:#262626;" transform="translate(188.25953125 518.1578125)scale(0.1 -0.1)">
       <use xlink:href="#ArialMT-34"/>
      </g>
     </g>
    </g>
    <g id="xtick_4">
     <g id="line2d_7">
      <g>
       <use style="fill:#262626;stroke:#262626;" x="250.56" xlink:href="#mb13c7015bf" y="504.0"/>
      </g>
     </g>
     <g id="line2d_8">
      <g>
       <use style="fill:#262626;stroke:#262626;" x="250.56" xlink:href="#mb13c7015bf" y="57.6"/>
      </g>
     </g>
     <g id="text_4">
      <!-- 6 -->
      <defs>
       <path d="M 49.75 54.046875 
L 41.015625 53.375 
Q 39.84375 58.546875 37.703125 60.890625 
Q 34.125 64.65625 28.90625 64.65625 
Q 24.703125 64.65625 21.53125 62.3125 
Q 17.390625 59.28125 14.984375 53.46875 
Q 12.59375 47.65625 12.5 36.921875 
Q 15.671875 41.75 20.265625 44.09375 
Q 24.859375 46.4375 29.890625 46.4375 
Q 38.671875 46.4375 44.84375 39.96875 
Q 51.03125 33.5 51.03125 23.25 
Q 51.03125 16.5 48.125 10.71875 
Q 45.21875 4.9375 40.140625 1.859375 
Q 35.0625 -1.21875 28.609375 -1.21875 
Q 17.625 -1.21875 10.6875 6.859375 
Q 3.765625 14.9375 3.765625 33.5 
Q 3.765625 54.25 11.421875 63.671875 
Q 18.109375 71.875 29.4375 71.875 
Q 37.890625 71.875 43.28125 67.140625 
Q 48.6875 62.40625 49.75 54.046875 
M 13.875 23.1875 
Q 13.875 18.65625 15.796875 14.5 
Q 17.71875 10.359375 21.1875 8.171875 
Q 24.65625 6 28.46875 6 
Q 34.03125 6 38.03125 10.484375 
Q 42.046875 14.984375 42.046875 22.703125 
Q 42.046875 30.125 38.078125 34.390625 
Q 34.125 38.671875 28.125 38.671875 
Q 22.171875 38.671875 18.015625 34.390625 
Q 13.875 30.125 13.875 23.1875 
" id="ArialMT-36"/>
      </defs>
      <g style="fill:#262626;" transform="translate(247.77953125 518.1578125)scale(0.1 -0.1)">
       <use xlink:href="#ArialMT-36"/>
      </g>
     </g>
    </g>
    <g id="xtick_5">
     <g id="line2d_9">
      <g>
       <use style="fill:#262626;stroke:#262626;" x="310.08" xlink:href="#mb13c7015bf" y="504.0"/>
      </g>
     </g>
     <g id="line2d_10">
      <g>
       <use style="fill:#262626;stroke:#262626;" x="310.08" xlink:href="#mb13c7015bf" y="57.6"/>
      </g>
     </g>
     <g id="text_5">
      <!-- 8 -->
      <defs>
       <path d="M 17.671875 38.8125 
Q 12.203125 40.828125 9.5625 44.53125 
Q 6.9375 48.25 6.9375 53.421875 
Q 6.9375 61.234375 12.546875 66.546875 
Q 18.171875 71.875 27.484375 71.875 
Q 36.859375 71.875 42.578125 66.421875 
Q 48.296875 60.984375 48.296875 53.171875 
Q 48.296875 48.1875 45.671875 44.5 
Q 43.0625 40.828125 37.75 38.8125 
Q 44.34375 36.671875 47.78125 31.875 
Q 51.21875 27.09375 51.21875 20.453125 
Q 51.21875 11.28125 44.71875 5.03125 
Q 38.234375 -1.21875 27.640625 -1.21875 
Q 17.046875 -1.21875 10.546875 5.046875 
Q 4.046875 11.328125 4.046875 20.703125 
Q 4.046875 27.6875 7.59375 32.390625 
Q 11.140625 37.109375 17.671875 38.8125 
M 15.921875 53.71875 
Q 15.921875 48.640625 19.1875 45.40625 
Q 22.46875 42.1875 27.6875 42.1875 
Q 32.765625 42.1875 36.015625 45.375 
Q 39.265625 48.578125 39.265625 53.21875 
Q 39.265625 58.0625 35.90625 61.359375 
Q 32.5625 64.65625 27.59375 64.65625 
Q 22.5625 64.65625 19.234375 61.421875 
Q 15.921875 58.203125 15.921875 53.71875 
M 13.09375 20.65625 
Q 13.09375 16.890625 14.875 13.375 
Q 16.65625 9.859375 20.171875 7.921875 
Q 23.6875 6 27.734375 6 
Q 34.03125 6 38.125 10.046875 
Q 42.234375 14.109375 42.234375 20.359375 
Q 42.234375 26.703125 38.015625 30.859375 
Q 33.796875 35.015625 27.4375 35.015625 
Q 21.234375 35.015625 17.15625 30.90625 
Q 13.09375 26.8125 13.09375 20.65625 
" id="ArialMT-38"/>
      </defs>
      <g style="fill:#262626;" transform="translate(307.29953125 518.1578125)scale(0.1 -0.1)">
       <use xlink:href="#ArialMT-38"/>
      </g>
     </g>
    </g>
    <g id="xtick_6">
     <g id="line2d_11">
      <g>
       <use style="fill:#262626;stroke:#262626;" x="369.6" xlink:href="#mb13c7015bf" y="504.0"/>
      </g>
     </g>
     <g id="line2d_12">
      <g>
       <use style="fill:#262626;stroke:#262626;" x="369.6" xlink:href="#mb13c7015bf" y="57.6"/>
      </g>
     </g>
     <g id="text_6">
      <!-- 10 -->
      <defs>
       <path d="M 37.25 0 
L 28.46875 0 
L 28.46875 56 
Q 25.296875 52.984375 20.140625 49.953125 
Q 14.984375 46.921875 10.890625 45.40625 
L 10.890625 53.90625 
Q 18.265625 57.375 23.78125 62.296875 
Q 29.296875 67.234375 31.59375 71.875 
L 37.25 71.875 
z
" id="ArialMT-31"/>
      </defs>
      <g style="fill:#262626;" transform="translate(364.0390625 518.1578125)scale(0.1 -0.1)">
       <use xlink:href="#ArialMT-31"/>
       <use x="55.615234375" xlink:href="#ArialMT-30"/>
      </g>
     </g>
    </g>
    <g id="xtick_7">
     <g id="line2d_13">
      <g>
       <use style="fill:#262626;stroke:#262626;" x="429.12" xlink:href="#mb13c7015bf" y="504.0"/>
      </g>
     </g>
     <g id="line2d_14">
      <g>
       <use style="fill:#262626;stroke:#262626;" x="429.12" xlink:href="#mb13c7015bf" y="57.6"/>
      </g>
     </g>
     <g id="text_7">
      <!-- 12 -->
      <g style="fill:#262626;" transform="translate(423.5590625 518.1578125)scale(0.1 -0.1)">
       <use xlink:href="#ArialMT-31"/>
       <use x="55.615234375" xlink:href="#ArialMT-32"/>
      </g>
     </g>
    </g>
    <g id="xtick_8">
     <g id="line2d_15">
      <g>
       <use style="fill:#262626;stroke:#262626;" x="488.64" xlink:href="#mb13c7015bf" y="504.0"/>
      </g>
     </g>
     <g id="line2d_16">
      <g>
       <use style="fill:#262626;stroke:#262626;" x="488.64" xlink:href="#mb13c7015bf" y="57.6"/>
      </g>
     </g>
     <g id="text_8">
      <!-- 14 -->
      <g style="fill:#262626;" transform="translate(483.0790625 518.1578125)scale(0.1 -0.1)">
       <use xlink:href="#ArialMT-31"/>
       <use x="55.615234375" xlink:href="#ArialMT-34"/>
      </g>
     </g>
    </g>
    <g id="text_9">
     <!-- miles_from_gym -->
     <defs>
      <path d="M -1.515625 -19.875 
L -1.515625 -13.53125 
L 56.734375 -13.53125 
L 56.734375 -19.875 
z
" id="ArialMT-5f"/>
      <path d="M 6.59375 0 
L 6.59375 51.859375 
L 14.453125 51.859375 
L 14.453125 44.578125 
Q 16.890625 48.390625 20.9375 50.703125 
Q 25 53.03125 30.171875 53.03125 
Q 35.9375 53.03125 39.625 50.640625 
Q 43.3125 48.25 44.828125 43.953125 
Q 50.984375 53.03125 60.84375 53.03125 
Q 68.5625 53.03125 72.703125 48.75 
Q 76.859375 44.484375 76.859375 35.59375 
L 76.859375 0 
L 68.109375 0 
L 68.109375 32.671875 
Q 68.109375 37.9375 67.25 40.25 
Q 66.40625 42.578125 64.15625 43.984375 
Q 61.921875 45.40625 58.890625 45.40625 
Q 53.421875 45.40625 49.796875 41.765625 
Q 46.1875 38.140625 46.1875 30.125 
L 46.1875 0 
L 37.40625 0 
L 37.40625 33.6875 
Q 37.40625 39.546875 35.25 42.46875 
Q 33.109375 45.40625 28.21875 45.40625 
Q 24.515625 45.40625 21.359375 43.453125 
Q 18.21875 41.5 16.796875 37.734375 
Q 15.375 33.984375 15.375 26.90625 
L 15.375 0 
z
" id="ArialMT-6d"/>
      <path d="M 8.6875 0 
L 8.6875 45.015625 
L 0.921875 45.015625 
L 0.921875 51.859375 
L 8.6875 51.859375 
L 8.6875 57.375 
Q 8.6875 62.59375 9.625 65.140625 
Q 10.890625 68.5625 14.078125 70.671875 
Q 17.28125 72.796875 23.046875 72.796875 
Q 26.765625 72.796875 31.25 71.921875 
L 29.9375 64.265625 
Q 27.203125 64.75 24.75 64.75 
Q 20.75 64.75 19.09375 63.03125 
Q 17.4375 61.328125 17.4375 56.640625 
L 17.4375 51.859375 
L 27.546875 51.859375 
L 27.546875 45.015625 
L 17.4375 45.015625 
L 17.4375 0 
z
" id="ArialMT-66"/>
      <path d="M 6.390625 0 
L 6.390625 71.578125 
L 15.1875 71.578125 
L 15.1875 0 
z
" id="ArialMT-6c"/>
      <path d="M 6.203125 -19.96875 
L 5.21875 -11.71875 
Q 8.109375 -12.5 10.25 -12.5 
Q 13.1875 -12.5 14.9375 -11.515625 
Q 16.703125 -10.546875 17.828125 -8.796875 
Q 18.65625 -7.46875 20.515625 -2.25 
Q 20.75 -1.515625 21.296875 -0.09375 
L 1.609375 51.859375 
L 11.078125 51.859375 
L 21.875 21.828125 
Q 23.96875 16.109375 25.640625 9.8125 
Q 27.15625 15.875 29.25 21.625 
L 40.328125 51.859375 
L 49.125 51.859375 
L 29.390625 -0.875 
Q 26.21875 -9.421875 24.46875 -12.640625 
Q 22.125 -17 19.09375 -19.015625 
Q 16.0625 -21.046875 11.859375 -21.046875 
Q 9.328125 -21.046875 6.203125 -19.96875 
" id="ArialMT-79"/>
      <path d="M 4.984375 -4.296875 
L 13.53125 -5.5625 
Q 14.0625 -9.515625 16.5 -11.328125 
Q 19.78125 -13.765625 25.4375 -13.765625 
Q 31.546875 -13.765625 34.859375 -11.328125 
Q 38.1875 -8.890625 39.359375 -4.5 
Q 40.046875 -1.8125 39.984375 6.78125 
Q 34.234375 0 25.640625 0 
Q 14.9375 0 9.078125 7.71875 
Q 3.21875 15.4375 3.21875 26.21875 
Q 3.21875 33.640625 5.90625 39.90625 
Q 8.59375 46.1875 13.6875 49.609375 
Q 18.796875 53.03125 25.6875 53.03125 
Q 34.859375 53.03125 40.828125 45.609375 
L 40.828125 51.859375 
L 48.921875 51.859375 
L 48.921875 7.03125 
Q 48.921875 -5.078125 46.453125 -10.125 
Q 44 -15.1875 38.640625 -18.109375 
Q 33.296875 -21.046875 25.484375 -21.046875 
Q 16.21875 -21.046875 10.5 -16.875 
Q 4.78125 -12.703125 4.984375 -4.296875 
M 12.25 26.859375 
Q 12.25 16.65625 16.296875 11.96875 
Q 20.359375 7.28125 26.46875 7.28125 
Q 32.515625 7.28125 36.609375 11.9375 
Q 40.71875 16.609375 40.71875 26.5625 
Q 40.71875 36.078125 36.5 40.90625 
Q 32.28125 45.75 26.3125 45.75 
Q 20.453125 45.75 16.34375 40.984375 
Q 12.25 36.234375 12.25 26.859375 
" id="ArialMT-67"/>
      <path d="M 42.09375 16.703125 
L 51.171875 15.578125 
Q 49.03125 7.625 43.21875 3.21875 
Q 37.40625 -1.171875 28.375 -1.171875 
Q 17 -1.171875 10.328125 5.828125 
Q 3.65625 12.84375 3.65625 25.484375 
Q 3.65625 38.578125 10.390625 45.796875 
Q 17.140625 53.03125 27.875 53.03125 
Q 38.28125 53.03125 44.875 45.953125 
Q 51.46875 38.875 51.46875 26.03125 
Q 51.46875 25.25 51.421875 23.6875 
L 12.75 23.6875 
Q 13.234375 15.140625 17.578125 10.59375 
Q 21.921875 6.0625 28.421875 6.0625 
Q 33.25 6.0625 36.671875 8.59375 
Q 40.09375 11.140625 42.09375 16.703125 
M 13.234375 30.90625 
L 42.1875 30.90625 
Q 41.609375 37.453125 38.875 40.71875 
Q 34.671875 45.796875 27.984375 45.796875 
Q 21.921875 45.796875 17.796875 41.75 
Q 13.671875 37.703125 13.234375 30.90625 
" id="ArialMT-65"/>
      <path d="M 3.328125 25.921875 
Q 3.328125 40.328125 11.328125 47.265625 
Q 18.015625 53.03125 27.640625 53.03125 
Q 38.328125 53.03125 45.109375 46.015625 
Q 51.90625 39.015625 51.90625 26.65625 
Q 51.90625 16.65625 48.90625 10.90625 
Q 45.90625 5.171875 40.15625 2 
Q 34.421875 -1.171875 27.640625 -1.171875 
Q 16.75 -1.171875 10.03125 5.8125 
Q 3.328125 12.796875 3.328125 25.921875 
M 12.359375 25.921875 
Q 12.359375 15.96875 16.703125 11.015625 
Q 21.046875 6.0625 27.640625 6.0625 
Q 34.1875 6.0625 38.53125 11.03125 
Q 42.875 16.015625 42.875 26.21875 
Q 42.875 35.84375 38.5 40.796875 
Q 34.125 45.75 27.640625 45.75 
Q 21.046875 45.75 16.703125 40.8125 
Q 12.359375 35.890625 12.359375 25.921875 
" id="ArialMT-6f"/>
      <path d="M 6.5 0 
L 6.5 51.859375 
L 14.40625 51.859375 
L 14.40625 44 
Q 17.4375 49.515625 20 51.265625 
Q 22.5625 53.03125 25.640625 53.03125 
Q 30.078125 53.03125 34.671875 50.203125 
L 31.640625 42.046875 
Q 28.421875 43.953125 25.203125 43.953125 
Q 22.3125 43.953125 20.015625 42.21875 
Q 17.71875 40.484375 16.75 37.40625 
Q 15.28125 32.71875 15.28125 27.15625 
L 15.28125 0 
z
" id="ArialMT-72"/>
      <path d="M 6.640625 61.46875 
L 6.640625 71.578125 
L 15.4375 71.578125 
L 15.4375 61.46875 
z
M 6.640625 0 
L 6.640625 51.859375 
L 15.4375 51.859375 
L 15.4375 0 
z
" id="ArialMT-69"/>
      <path d="M 3.078125 15.484375 
L 11.765625 16.84375 
Q 12.5 11.625 15.84375 8.84375 
Q 19.1875 6.0625 25.203125 6.0625 
Q 31.25 6.0625 34.171875 8.515625 
Q 37.109375 10.984375 37.109375 14.3125 
Q 37.109375 17.28125 34.515625 19 
Q 32.71875 20.171875 25.53125 21.96875 
Q 15.875 24.421875 12.140625 26.203125 
Q 8.40625 27.984375 6.46875 31.125 
Q 4.546875 34.28125 4.546875 38.09375 
Q 4.546875 41.546875 6.125 44.5 
Q 7.71875 47.46875 10.453125 49.421875 
Q 12.5 50.921875 16.03125 51.96875 
Q 19.578125 53.03125 23.640625 53.03125 
Q 29.734375 53.03125 34.34375 51.265625 
Q 38.96875 49.515625 41.15625 46.5 
Q 43.359375 43.5 44.1875 38.484375 
L 35.59375 37.3125 
Q 35.015625 41.3125 32.203125 43.546875 
Q 29.390625 45.796875 24.265625 45.796875 
Q 18.21875 45.796875 15.625 43.796875 
Q 13.03125 41.796875 13.03125 39.109375 
Q 13.03125 37.40625 14.109375 36.03125 
Q 15.1875 34.625 17.484375 33.6875 
Q 18.796875 33.203125 25.25 31.453125 
Q 34.578125 28.953125 38.25 27.359375 
Q 41.9375 25.78125 44.03125 22.75 
Q 46.140625 19.734375 46.140625 15.234375 
Q 46.140625 10.84375 43.578125 6.953125 
Q 41.015625 3.078125 36.171875 0.953125 
Q 31.34375 -1.171875 25.25 -1.171875 
Q 15.140625 -1.171875 9.84375 3.03125 
Q 4.546875 7.234375 3.078125 15.484375 
" id="ArialMT-73"/>
     </defs>
     <g style="fill:#262626;" transform="translate(254.860078125 533.15296875)scale(0.11 -0.11)">
      <use xlink:href="#ArialMT-6d"/>
      <use x="83.30078125" xlink:href="#ArialMT-69"/>
      <use x="105.517578125" xlink:href="#ArialMT-6c"/>
      <use x="127.734375" xlink:href="#ArialMT-65"/>
      <use x="183.349609375" xlink:href="#ArialMT-73"/>
      <use x="233.349609375" xlink:href="#ArialMT-5f"/>
      <use x="288.96484375" xlink:href="#ArialMT-66"/>
      <use x="316.748046875" xlink:href="#ArialMT-72"/>
      <use x="350.048828125" xlink:href="#ArialMT-6f"/>
      <use x="405.6640625" xlink:href="#ArialMT-6d"/>
      <use x="488.96484375" xlink:href="#ArialMT-5f"/>
      <use x="544.580078125" xlink:href="#ArialMT-67"/>
      <use x="600.1953125" xlink:href="#ArialMT-79"/>
      <use x="650.1953125" xlink:href="#ArialMT-6d"/>
     </g>
    </g>
   </g>
   <g id="matplotlib.axis_2">
    <g id="ytick_1">
     <g id="line2d_17">
      <g>
       <use style="fill:#262626;stroke:#262626;" x="72.0" xlink:href="#mb13c7015bf" y="504.0"/>
      </g>
     </g>
     <g id="line2d_18">
      <g>
       <use style="fill:#262626;stroke:#262626;" x="518.4" xlink:href="#mb13c7015bf" y="504.0"/>
      </g>
     </g>
     <g id="text_10">
      <!-- 0 -->
      <g style="fill:#262626;" transform="translate(59.4390625 506.58515625)scale(0.1 -0.1)">
       <use xlink:href="#ArialMT-30"/>
      </g>
     </g>
    </g>
    <g id="ytick_2">
     <g id="line2d_19">
      <g>
       <use style="fill:#262626;stroke:#262626;" x="72.0" xlink:href="#mb13c7015bf" y="414.72"/>
      </g>
     </g>
     <g id="line2d_20">
      <g>
       <use style="fill:#262626;stroke:#262626;" x="518.4" xlink:href="#mb13c7015bf" y="414.72"/>
      </g>
     </g>
     <g id="text_11">
      <!-- 50 -->
      <defs>
       <path d="M 4.15625 18.75 
L 13.375 19.53125 
Q 14.40625 12.796875 18.140625 9.390625 
Q 21.875 6 27.15625 6 
Q 33.5 6 37.890625 10.78125 
Q 42.28125 15.578125 42.28125 23.484375 
Q 42.28125 31 38.0625 35.34375 
Q 33.84375 39.703125 27 39.703125 
Q 22.75 39.703125 19.328125 37.765625 
Q 15.921875 35.84375 13.96875 32.765625 
L 5.71875 33.84375 
L 12.640625 70.609375 
L 48.25 70.609375 
L 48.25 62.203125 
L 19.671875 62.203125 
L 15.828125 42.96875 
Q 22.265625 47.46875 29.34375 47.46875 
Q 38.71875 47.46875 45.15625 40.96875 
Q 51.609375 34.46875 51.609375 24.265625 
Q 51.609375 14.546875 45.953125 7.46875 
Q 39.0625 -1.21875 27.15625 -1.21875 
Q 17.390625 -1.21875 11.203125 4.25 
Q 5.03125 9.71875 4.15625 18.75 
" id="ArialMT-35"/>
      </defs>
      <g style="fill:#262626;" transform="translate(53.878125 417.30515625)scale(0.1 -0.1)">
       <use xlink:href="#ArialMT-35"/>
       <use x="55.615234375" xlink:href="#ArialMT-30"/>
      </g>
     </g>
    </g>
    <g id="ytick_3">
     <g id="line2d_21">
      <g>
       <use style="fill:#262626;stroke:#262626;" x="72.0" xlink:href="#mb13c7015bf" y="325.44"/>
      </g>
     </g>
     <g id="line2d_22">
      <g>
       <use style="fill:#262626;stroke:#262626;" x="518.4" xlink:href="#mb13c7015bf" y="325.44"/>
      </g>
     </g>
     <g id="text_12">
      <!-- 100 -->
      <g style="fill:#262626;" transform="translate(48.3171875 328.02515625)scale(0.1 -0.1)">
       <use xlink:href="#ArialMT-31"/>
       <use x="55.615234375" xlink:href="#ArialMT-30"/>
       <use x="111.23046875" xlink:href="#ArialMT-30"/>
      </g>
     </g>
    </g>
    <g id="ytick_4">
     <g id="line2d_23">
      <g>
       <use style="fill:#262626;stroke:#262626;" x="72.0" xlink:href="#mb13c7015bf" y="236.16"/>
      </g>
     </g>
     <g id="line2d_24">
      <g>
       <use style="fill:#262626;stroke:#262626;" x="518.4" xlink:href="#mb13c7015bf" y="236.16"/>
      </g>
     </g>
     <g id="text_13">
      <!-- 150 -->
      <g style="fill:#262626;" transform="translate(48.3171875 238.74515625)scale(0.1 -0.1)">
       <use xlink:href="#ArialMT-31"/>
       <use x="55.615234375" xlink:href="#ArialMT-35"/>
       <use x="111.23046875" xlink:href="#ArialMT-30"/>
      </g>
     </g>
    </g>
    <g id="ytick_5">
     <g id="line2d_25">
      <g>
       <use style="fill:#262626;stroke:#262626;" x="72.0" xlink:href="#mb13c7015bf" y="146.88"/>
      </g>
     </g>
     <g id="line2d_26">
      <g>
       <use style="fill:#262626;stroke:#262626;" x="518.4" xlink:href="#mb13c7015bf" y="146.88"/>
      </g>
     </g>
     <g id="text_14">
      <!-- 200 -->
      <g style="fill:#262626;" transform="translate(48.3171875 149.46515625)scale(0.1 -0.1)">
       <use xlink:href="#ArialMT-32"/>
       <use x="55.615234375" xlink:href="#ArialMT-30"/>
       <use x="111.23046875" xlink:href="#ArialMT-30"/>
      </g>
     </g>
    </g>
    <g id="ytick_6">
     <g id="line2d_27">
      <g>
       <use style="fill:#262626;stroke:#262626;" x="72.0" xlink:href="#mb13c7015bf" y="57.6"/>
      </g>
     </g>
     <g id="line2d_28">
      <g>
       <use style="fill:#262626;stroke:#262626;" x="518.4" xlink:href="#mb13c7015bf" y="57.6"/>
      </g>
     </g>
     <g id="text_15">
      <!-- 250 -->
      <g style="fill:#262626;" transform="translate(48.3171875 60.18515625)scale(0.1 -0.1)">
       <use xlink:href="#ArialMT-32"/>
       <use x="55.615234375" xlink:href="#ArialMT-35"/>
       <use x="111.23046875" xlink:href="#ArialMT-30"/>
      </g>
     </g>
    </g>
    <g id="text_16">
     <!-- dollars_spent_on_running_shoe -->
     <defs>
      <path d="M 25.78125 7.859375 
L 27.046875 0.09375 
Q 23.34375 -0.6875 20.40625 -0.6875 
Q 15.625 -0.6875 12.984375 0.828125 
Q 10.359375 2.34375 9.28125 4.8125 
Q 8.203125 7.28125 8.203125 15.1875 
L 8.203125 45.015625 
L 1.765625 45.015625 
L 1.765625 51.859375 
L 8.203125 51.859375 
L 8.203125 64.703125 
L 16.9375 69.96875 
L 16.9375 51.859375 
L 25.78125 51.859375 
L 25.78125 45.015625 
L 16.9375 45.015625 
L 16.9375 14.703125 
Q 16.9375 10.9375 17.40625 9.859375 
Q 17.875 8.796875 18.921875 8.15625 
Q 19.96875 7.515625 21.921875 7.515625 
Q 23.390625 7.515625 25.78125 7.859375 
" id="ArialMT-74"/>
      <path d="M 40.578125 0 
L 40.578125 7.625 
Q 34.515625 -1.171875 24.125 -1.171875 
Q 19.53125 -1.171875 15.546875 0.578125 
Q 11.578125 2.34375 9.640625 5 
Q 7.71875 7.671875 6.9375 11.53125 
Q 6.390625 14.109375 6.390625 19.734375 
L 6.390625 51.859375 
L 15.1875 51.859375 
L 15.1875 23.09375 
Q 15.1875 16.21875 15.71875 13.8125 
Q 16.546875 10.359375 19.234375 8.375 
Q 21.921875 6.390625 25.875 6.390625 
Q 29.828125 6.390625 33.296875 8.421875 
Q 36.765625 10.453125 38.203125 13.9375 
Q 39.65625 17.4375 39.65625 24.078125 
L 39.65625 51.859375 
L 48.4375 51.859375 
L 48.4375 0 
z
" id="ArialMT-75"/>
      <path d="M 40.4375 6.390625 
Q 35.546875 2.25 31.03125 0.53125 
Q 26.515625 -1.171875 21.34375 -1.171875 
Q 12.796875 -1.171875 8.203125 3 
Q 3.609375 7.171875 3.609375 13.671875 
Q 3.609375 17.484375 5.34375 20.625 
Q 7.078125 23.78125 9.890625 25.6875 
Q 12.703125 27.59375 16.21875 28.5625 
Q 18.796875 29.25 24.03125 29.890625 
Q 34.671875 31.15625 39.703125 32.90625 
Q 39.75 34.71875 39.75 35.203125 
Q 39.75 40.578125 37.25 42.78125 
Q 33.890625 45.75 27.25 45.75 
Q 21.046875 45.75 18.09375 43.578125 
Q 15.140625 41.40625 13.71875 35.890625 
L 5.125 37.0625 
Q 6.296875 42.578125 8.984375 45.96875 
Q 11.671875 49.359375 16.75 51.1875 
Q 21.828125 53.03125 28.515625 53.03125 
Q 35.15625 53.03125 39.296875 51.46875 
Q 43.453125 49.90625 45.40625 47.53125 
Q 47.359375 45.171875 48.140625 41.546875 
Q 48.578125 39.3125 48.578125 33.453125 
L 48.578125 21.734375 
Q 48.578125 9.46875 49.140625 6.21875 
Q 49.703125 2.984375 51.375 0 
L 42.1875 0 
Q 40.828125 2.734375 40.4375 6.390625 
M 39.703125 26.03125 
Q 34.90625 24.078125 25.34375 22.703125 
Q 19.921875 21.921875 17.671875 20.9375 
Q 15.4375 19.96875 14.203125 18.09375 
Q 12.984375 16.21875 12.984375 13.921875 
Q 12.984375 10.40625 15.640625 8.0625 
Q 18.3125 5.71875 23.4375 5.71875 
Q 28.515625 5.71875 32.46875 7.9375 
Q 36.421875 10.15625 38.28125 14.015625 
Q 39.703125 17 39.703125 22.796875 
z
" id="ArialMT-61"/>
      <path d="M 6.59375 -19.875 
L 6.59375 51.859375 
L 14.59375 51.859375 
L 14.59375 45.125 
Q 17.4375 49.078125 21 51.046875 
Q 24.5625 53.03125 29.640625 53.03125 
Q 36.28125 53.03125 41.359375 49.609375 
Q 46.4375 46.1875 49.015625 39.953125 
Q 51.609375 33.734375 51.609375 26.3125 
Q 51.609375 18.359375 48.75 11.984375 
Q 45.90625 5.609375 40.453125 2.21875 
Q 35.015625 -1.171875 29 -1.171875 
Q 24.609375 -1.171875 21.109375 0.6875 
Q 17.625 2.546875 15.375 5.375 
L 15.375 -19.875 
z
M 14.546875 25.640625 
Q 14.546875 15.625 18.59375 10.84375 
Q 22.65625 6.0625 28.421875 6.0625 
Q 34.28125 6.0625 38.453125 11.015625 
Q 42.625 15.96875 42.625 26.375 
Q 42.625 36.28125 38.546875 41.203125 
Q 34.46875 46.140625 28.8125 46.140625 
Q 23.1875 46.140625 18.859375 40.890625 
Q 14.546875 35.640625 14.546875 25.640625 
" id="ArialMT-70"/>
      <path d="M 6.59375 0 
L 6.59375 51.859375 
L 14.5 51.859375 
L 14.5 44.484375 
Q 20.21875 53.03125 31 53.03125 
Q 35.6875 53.03125 39.625 51.34375 
Q 43.5625 49.65625 45.515625 46.921875 
Q 47.46875 44.1875 48.25 40.4375 
Q 48.734375 37.984375 48.734375 31.890625 
L 48.734375 0 
L 39.9375 0 
L 39.9375 31.546875 
Q 39.9375 36.921875 38.90625 39.578125 
Q 37.890625 42.234375 35.28125 43.8125 
Q 32.671875 45.40625 29.15625 45.40625 
Q 23.53125 45.40625 19.453125 41.84375 
Q 15.375 38.28125 15.375 28.328125 
L 15.375 0 
z
" id="ArialMT-6e"/>
      <path d="M 40.234375 0 
L 40.234375 6.546875 
Q 35.296875 -1.171875 25.734375 -1.171875 
Q 19.53125 -1.171875 14.328125 2.25 
Q 9.125 5.671875 6.265625 11.796875 
Q 3.421875 17.921875 3.421875 25.875 
Q 3.421875 33.640625 6 39.96875 
Q 8.59375 46.296875 13.765625 49.65625 
Q 18.953125 53.03125 25.34375 53.03125 
Q 30.03125 53.03125 33.6875 51.046875 
Q 37.359375 49.078125 39.65625 45.90625 
L 39.65625 71.578125 
L 48.390625 71.578125 
L 48.390625 0 
z
M 12.453125 25.875 
Q 12.453125 15.921875 16.640625 10.984375 
Q 20.84375 6.0625 26.5625 6.0625 
Q 32.328125 6.0625 36.34375 10.765625 
Q 40.375 15.484375 40.375 25.140625 
Q 40.375 35.796875 36.265625 40.765625 
Q 32.171875 45.75 26.171875 45.75 
Q 20.3125 45.75 16.375 40.96875 
Q 12.453125 36.1875 12.453125 25.875 
" id="ArialMT-64"/>
      <path d="M 6.59375 0 
L 6.59375 71.578125 
L 15.375 71.578125 
L 15.375 45.90625 
Q 21.53125 53.03125 30.90625 53.03125 
Q 36.671875 53.03125 40.921875 50.75 
Q 45.171875 48.484375 47 44.484375 
Q 48.828125 40.484375 48.828125 32.859375 
L 48.828125 0 
L 40.046875 0 
L 40.046875 32.859375 
Q 40.046875 39.453125 37.1875 42.453125 
Q 34.328125 45.453125 29.109375 45.453125 
Q 25.203125 45.453125 21.75 43.421875 
Q 18.3125 41.40625 16.84375 37.9375 
Q 15.375 34.46875 15.375 28.375 
L 15.375 0 
z
" id="ArialMT-68"/>
     </defs>
     <g style="fill:#262626;" transform="translate(41.00203125 359.07703125)rotate(-90.0)scale(0.11 -0.11)">
      <use xlink:href="#ArialMT-64"/>
      <use x="55.615234375" xlink:href="#ArialMT-6f"/>
      <use x="111.23046875" xlink:href="#ArialMT-6c"/>
      <use x="133.447265625" xlink:href="#ArialMT-6c"/>
      <use x="155.6640625" xlink:href="#ArialMT-61"/>
      <use x="211.279296875" xlink:href="#ArialMT-72"/>
      <use x="244.580078125" xlink:href="#ArialMT-73"/>
      <use x="294.580078125" xlink:href="#ArialMT-5f"/>
      <use x="350.1953125" xlink:href="#ArialMT-73"/>
      <use x="400.1953125" xlink:href="#ArialMT-70"/>
      <use x="455.810546875" xlink:href="#ArialMT-65"/>
      <use x="511.42578125" xlink:href="#ArialMT-6e"/>
      <use x="567.041015625" xlink:href="#ArialMT-74"/>
      <use x="594.82421875" xlink:href="#ArialMT-5f"/>
      <use x="650.439453125" xlink:href="#ArialMT-6f"/>
      <use x="706.0546875" xlink:href="#ArialMT-6e"/>
      <use x="761.669921875" xlink:href="#ArialMT-5f"/>
      <use x="817.28515625" xlink:href="#ArialMT-72"/>
      <use x="850.5859375" xlink:href="#ArialMT-75"/>
      <use x="906.201171875" xlink:href="#ArialMT-6e"/>
      <use x="961.81640625" xlink:href="#ArialMT-6e"/>
      <use x="1017.431640625" xlink:href="#ArialMT-69"/>
      <use x="1039.6484375" xlink:href="#ArialMT-6e"/>
      <use x="1095.263671875" xlink:href="#ArialMT-67"/>
      <use x="1150.87890625" xlink:href="#ArialMT-5f"/>
      <use x="1206.494140625" xlink:href="#ArialMT-73"/>
      <use x="1256.494140625" xlink:href="#ArialMT-68"/>
      <use x="1312.109375" xlink:href="#ArialMT-6f"/>
      <use x="1367.724609375" xlink:href="#ArialMT-65"/>
     </g>
    </g>
   </g>
   <g id="PathCollection_1">
    <defs>
     <path d="M 0 2.236068 
C 0.593012 2.236068 1.161816 2.000462 1.581139 1.581139 
C 2.000462 1.161816 2.236068 0.593012 2.236068 0 
C 2.236068 -0.593012 2.000462 -1.161816 1.581139 -1.581139 
C 1.161816 -2.000462 0.593012 -2.236068 0 -2.236068 
C -0.593012 -2.236068 -1.161816 -2.000462 -1.581139 -1.581139 
C -2.000462 -1.161816 -2.236068 -0.593012 -2.236068 0 
C -2.236068 0.593012 -2.000462 1.161816 -1.581139 1.581139 
C -1.161816 2.000462 -0.593012 2.236068 0 2.236068 
z
" id="m211c5e2ce4"/>
    </defs>
    <g clip-path="url(#p2b70fd5eca)">
     <use style="fill:#4c72b0;fill-opacity:0.8;" x="209.397618352" xlink:href="#m211c5e2ce4" y="248.461687886"/>
     <use style="fill:#4c72b0;fill-opacity:0.8;" x="121.239537124" xlink:href="#m211c5e2ce4" y="147.476684534"/>
     <use style="fill:#4c72b0;fill-opacity:0.8;" x="204.243316765" xlink:href="#m211c5e2ce4" y="306.087047644"/>
     <use style="fill:#4c72b0;fill-opacity:0.8;" x="165.623682897" xlink:href="#m211c5e2ce4" y="216.435371993"/>
     <use style="fill:#4c72b0;fill-opacity:0.8;" x="178.086990415" xlink:href="#m211c5e2ce4" y="203.497081891"/>
     <use style="fill:#4c72b0;fill-opacity:0.8;" x="114.405660542" xlink:href="#m211c5e2ce4" y="232.681132277"/>
     <use style="fill:#4c72b0;fill-opacity:0.8;" x="340.418464973" xlink:href="#m211c5e2ce4" y="460.532413688"/>
     <use style="fill:#4c72b0;fill-opacity:0.8;" x="245.098793573" xlink:href="#m211c5e2ce4" y="310.296239418"/>
     <use style="fill:#4c72b0;fill-opacity:0.8;" x="168.999905738" xlink:href="#m211c5e2ce4" y="306.442908979"/>
     <use style="fill:#4c72b0;fill-opacity:0.8;" x="518.4" xlink:href="#m211c5e2ce4" y="170.874316878"/>
     <use style="fill:#4c72b0;fill-opacity:0.8;" x="281.631232528" xlink:href="#m211c5e2ce4" y="402.160588035"/>
     <use style="fill:#4c72b0;fill-opacity:0.8;" x="182.132068225" xlink:href="#m211c5e2ce4" y="414.263062074"/>
     <use style="fill:#4c72b0;fill-opacity:0.8;" x="292.801815277" xlink:href="#m211c5e2ce4" y="421.85287516"/>
     <use style="fill:#4c72b0;fill-opacity:0.8;" x="518.4" xlink:href="#m211c5e2ce4" y="155.802999684"/>
     <use style="fill:#4c72b0;fill-opacity:0.8;" x="126.426091051" xlink:href="#m211c5e2ce4" y="265.281954972"/>
     <use style="fill:#4c72b0;fill-opacity:0.8;" x="229.182786016" xlink:href="#m211c5e2ce4" y="242.61289996"/>
     <use style="fill:#4c72b0;fill-opacity:0.8;" x="118.815444121" xlink:href="#m211c5e2ce4" y="343.202067935"/>
     <use style="fill:#4c72b0;fill-opacity:0.8;" x="369.001097884" xlink:href="#m211c5e2ce4" y="474.691164861"/>
     <use style="fill:#4c72b0;fill-opacity:0.8;" x="187.997156554" xlink:href="#m211c5e2ce4" y="334.471993616"/>
     <use style="fill:#4c72b0;fill-opacity:0.8;" x="368.767270836" xlink:href="#m211c5e2ce4" y="502.2144"/>
     <use style="fill:#4c72b0;fill-opacity:0.8;" x="358.257456465" xlink:href="#m211c5e2ce4" y="437.942767684"/>
     <use style="fill:#4c72b0;fill-opacity:0.8;" x="76.9159364486" xlink:href="#m211c5e2ce4" y="245.894839466"/>
     <use style="fill:#4c72b0;fill-opacity:0.8;" x="230.950445769" xlink:href="#m211c5e2ce4" y="295.063373893"/>
     <use style="fill:#4c72b0;fill-opacity:0.8;" x="248.916128213" xlink:href="#m211c5e2ce4" y="306.081549584"/>
     <use style="fill:#4c72b0;fill-opacity:0.8;" x="268.669042179" xlink:href="#m211c5e2ce4" y="266.82489006"/>
     <use style="fill:#4c72b0;fill-opacity:0.8;" x="308.814050611" xlink:href="#m211c5e2ce4" y="428.056230173"/>
     <use style="fill:#4c72b0;fill-opacity:0.8;" x="290.321174007" xlink:href="#m211c5e2ce4" y="329.811731619"/>
     <use style="fill:#4c72b0;fill-opacity:0.8;" x="329.228533269" xlink:href="#m211c5e2ce4" y="402.992728832"/>
     <use style="fill:#4c72b0;fill-opacity:0.8;" x="248.666191925" xlink:href="#m211c5e2ce4" y="290.204270055"/>
     <use style="fill:#4c72b0;fill-opacity:0.8;" x="227.137084161" xlink:href="#m211c5e2ce4" y="502.2144"/>
     <use style="fill:#4c72b0;fill-opacity:0.8;" x="356.345864149" xlink:href="#m211c5e2ce4" y="492.996959987"/>
     <use style="fill:#4c72b0;fill-opacity:0.8;" x="283.793477204" xlink:href="#m211c5e2ce4" y="476.702064322"/>
     <use style="fill:#4c72b0;fill-opacity:0.8;" x="260.174587715" xlink:href="#m211c5e2ce4" y="374.188807437"/>
     <use style="fill:#4c72b0;fill-opacity:0.8;" x="140.107563095" xlink:href="#m211c5e2ce4" y="341.94905874"/>
     <use style="fill:#4c72b0;fill-opacity:0.8;" x="102.856748197" xlink:href="#m211c5e2ce4" y="231.062634209"/>
     <use style="fill:#4c72b0;fill-opacity:0.8;" x="262.944373907" xlink:href="#m211c5e2ce4" y="352.566768923"/>
     <use style="fill:#4c72b0;fill-opacity:0.8;" x="401.895106288" xlink:href="#m211c5e2ce4" y="378.214247166"/>
     <use style="fill:#4c72b0;fill-opacity:0.8;" x="255.153730918" xlink:href="#m211c5e2ce4" y="404.078954128"/>
     <use style="fill:#4c72b0;fill-opacity:0.8;" x="135.498665742" xlink:href="#m211c5e2ce4" y="203.900711628"/>
     <use style="fill:#4c72b0;fill-opacity:0.8;" x="362.89765212" xlink:href="#m211c5e2ce4" y="349.733225119"/>
     <use style="fill:#4c72b0;fill-opacity:0.8;" x="349.107097397" xlink:href="#m211c5e2ce4" y="445.93883958"/>
     <use style="fill:#4c72b0;fill-opacity:0.8;" x="260.263456972" xlink:href="#m211c5e2ce4" y="385.943930546"/>
     <use style="fill:#4c72b0;fill-opacity:0.8;" x="168.449823541" xlink:href="#m211c5e2ce4" y="248.188526449"/>
     <use style="fill:#4c72b0;fill-opacity:0.8;" x="348.587256333" xlink:href="#m211c5e2ce4" y="279.807229667"/>
     <use style="fill:#4c72b0;fill-opacity:0.8;" x="202.074862988" xlink:href="#m211c5e2ce4" y="382.731218837"/>
     <use style="fill:#4c72b0;fill-opacity:0.8;" x="227.054690057" xlink:href="#m211c5e2ce4" y="359.896952043"/>
     <use style="fill:#4c72b0;fill-opacity:0.8;" x="91.7094321547" xlink:href="#m211c5e2ce4" y="292.754311279"/>
     <use style="fill:#4c72b0;fill-opacity:0.8;" x="175.357015819" xlink:href="#m211c5e2ce4" y="385.239204372"/>
     <use style="fill:#4c72b0;fill-opacity:0.8;" x="322.750456571" xlink:href="#m211c5e2ce4" y="502.2144"/>
     <use style="fill:#4c72b0;fill-opacity:0.8;" x="157.596650554" xlink:href="#m211c5e2ce4" y="178.548124559"/>
     <use style="fill:#4c72b0;fill-opacity:0.8;" x="146.657913615" xlink:href="#m211c5e2ce4" y="267.58662443"/>
     <use style="fill:#4c72b0;fill-opacity:0.8;" x="183.75930023" xlink:href="#m211c5e2ce4" y="357.347788657"/>
     <use style="fill:#4c72b0;fill-opacity:0.8;" x="338.626382479" xlink:href="#m211c5e2ce4" y="409.861483726"/>
     <use style="fill:#4c72b0;fill-opacity:0.8;" x="176.463852265" xlink:href="#m211c5e2ce4" y="247.952310958"/>
     <use style="fill:#4c72b0;fill-opacity:0.8;" x="452.356383027" xlink:href="#m211c5e2ce4" y="502.2144"/>
     <use style="fill:#4c72b0;fill-opacity:0.8;" x="297.036937959" xlink:href="#m211c5e2ce4" y="491.221428923"/>
     <use style="fill:#4c72b0;fill-opacity:0.8;" x="287.659866705" xlink:href="#m211c5e2ce4" y="307.151830549"/>
     <use style="fill:#4c72b0;fill-opacity:0.8;" x="381.994695748" xlink:href="#m211c5e2ce4" y="493.291958407"/>
     <use style="fill:#4c72b0;fill-opacity:0.8;" x="248.703428037" xlink:href="#m211c5e2ce4" y="403.884694801"/>
     <use style="fill:#4c72b0;fill-opacity:0.8;" x="154.930832694" xlink:href="#m211c5e2ce4" y="295.413885364"/>
     <use style="fill:#4c72b0;fill-opacity:0.8;" x="178.749106015" xlink:href="#m211c5e2ce4" y="383.180633006"/>
     <use style="fill:#4c72b0;fill-opacity:0.8;" x="244.905537297" xlink:href="#m211c5e2ce4" y="358.683859167"/>
     <use style="fill:#4c72b0;fill-opacity:0.8;" x="359.943165422" xlink:href="#m211c5e2ce4" y="502.2144"/>
     <use style="fill:#4c72b0;fill-opacity:0.8;" x="282.071242859" xlink:href="#m211c5e2ce4" y="402.007589995"/>
     <use style="fill:#4c72b0;fill-opacity:0.8;" x="259.935663251" xlink:href="#m211c5e2ce4" y="502.2144"/>
     <use style="fill:#4c72b0;fill-opacity:0.8;" x="249.497171762" xlink:href="#m211c5e2ce4" y="363.056839204"/>
     <use style="fill:#4c72b0;fill-opacity:0.8;" x="229.558269691" xlink:href="#m211c5e2ce4" y="322.637609784"/>
     <use style="fill:#4c72b0;fill-opacity:0.8;" x="220.299887849" xlink:href="#m211c5e2ce4" y="446.119172205"/>
     <use style="fill:#4c72b0;fill-opacity:0.8;" x="266.172249301" xlink:href="#m211c5e2ce4" y="339.684014246"/>
     <use style="fill:#4c72b0;fill-opacity:0.8;" x="169.554910207" xlink:href="#m211c5e2ce4" y="279.612891254"/>
     <use style="fill:#4c72b0;fill-opacity:0.8;" x="181.403450603" xlink:href="#m211c5e2ce4" y="351.662642562"/>
     <use style="fill:#4c72b0;fill-opacity:0.8;" x="273.442173671" xlink:href="#m211c5e2ce4" y="446.020623607"/>
     <use style="fill:#4c72b0;fill-opacity:0.8;" x="304.269809953" xlink:href="#m211c5e2ce4" y="305.65858919"/>
     <use style="fill:#4c72b0;fill-opacity:0.8;" x="356.219042978" xlink:href="#m211c5e2ce4" y="502.2144"/>
     <use style="fill:#4c72b0;fill-opacity:0.8;" x="420.375847336" xlink:href="#m211c5e2ce4" y="502.2144"/>
     <use style="fill:#4c72b0;fill-opacity:0.8;" x="278.001910909" xlink:href="#m211c5e2ce4" y="361.827328122"/>
     <use style="fill:#4c72b0;fill-opacity:0.8;" x="142.581364333" xlink:href="#m211c5e2ce4" y="162.215232195"/>
     <use style="fill:#4c72b0;fill-opacity:0.8;" x="214.753351567" xlink:href="#m211c5e2ce4" y="324.202184694"/>
     <use style="fill:#4c72b0;fill-opacity:0.8;" x="171.042281292" xlink:href="#m211c5e2ce4" y="190.398387464"/>
     <use style="fill:#4c72b0;fill-opacity:0.8;" x="182.933308433" xlink:href="#m211c5e2ce4" y="227.284447783"/>
     <use style="fill:#4c72b0;fill-opacity:0.8;" x="171.245176778" xlink:href="#m211c5e2ce4" y="289.71189575"/>
     <use style="fill:#4c72b0;fill-opacity:0.8;" x="238.090555842" xlink:href="#m211c5e2ce4" y="398.491056047"/>
     <use style="fill:#4c72b0;fill-opacity:0.8;" x="365.178125021" xlink:href="#m211c5e2ce4" y="502.2144"/>
     <use style="fill:#4c72b0;fill-opacity:0.8;" x="213.853331252" xlink:href="#m211c5e2ce4" y="384.842219291"/>
     <use style="fill:#4c72b0;fill-opacity:0.8;" x="266.172618353" xlink:href="#m211c5e2ce4" y="299.052173301"/>
     <use style="fill:#4c72b0;fill-opacity:0.8;" x="232.790108908" xlink:href="#m211c5e2ce4" y="291.019688153"/>
     <use style="fill:#4c72b0;fill-opacity:0.8;" x="319.947515675" xlink:href="#m211c5e2ce4" y="450.217615353"/>
     <use style="fill:#4c72b0;fill-opacity:0.8;" x="251.133559797" xlink:href="#m211c5e2ce4" y="301.708495768"/>
     <use style="fill:#4c72b0;fill-opacity:0.8;" x="185.457787377" xlink:href="#m211c5e2ce4" y="266.845597625"/>
     <use style="fill:#4c72b0;fill-opacity:0.8;" x="173.007379164" xlink:href="#m211c5e2ce4" y="277.880225392"/>
     <use style="fill:#4c72b0;fill-opacity:0.8;" x="141.769820231" xlink:href="#m211c5e2ce4" y="283.747859265"/>
     <use style="fill:#4c72b0;fill-opacity:0.8;" x="142.826518317" xlink:href="#m211c5e2ce4" y="358.076858571"/>
     <use style="fill:#4c72b0;fill-opacity:0.8;" x="358.262859316" xlink:href="#m211c5e2ce4" y="502.2144"/>
     <use style="fill:#4c72b0;fill-opacity:0.8;" x="127.275874224" xlink:href="#m211c5e2ce4" y="271.882879438"/>
     <use style="fill:#4c72b0;fill-opacity:0.8;" x="243.317056709" xlink:href="#m211c5e2ce4" y="356.423719053"/>
     <use style="fill:#4c72b0;fill-opacity:0.8;" x="268.683023325" xlink:href="#m211c5e2ce4" y="420.610007901"/>
     <use style="fill:#4c72b0;fill-opacity:0.8;" x="198.396753178" xlink:href="#m211c5e2ce4" y="320.938039745"/>
     <use style="fill:#4c72b0;fill-opacity:0.8;" x="116.942851201" xlink:href="#m211c5e2ce4" y="201.825200876"/>
     <use style="fill:#4c72b0;fill-opacity:0.8;" x="109.997816816" xlink:href="#m211c5e2ce4" y="133.50310474"/>
     <use style="fill:#4c72b0;fill-opacity:0.8;" x="245.678158834" xlink:href="#m211c5e2ce4" y="368.821560381"/>
    </g>
   </g>
   <g id="PolyCollection_1">
    <defs>
     <path d="M 12.48 -436.883916 
L 12.48 -294.025663 
L 17.890909 -292.438948 
L 23.301818 -290.852233 
L 28.712727 -289.265519 
L 34.123636 -287.678804 
L 39.534545 -286.09209 
L 44.945455 -284.508783 
L 50.356364 -282.927733 
L 55.767273 -281.667821 
L 61.178182 -280.396735 
L 66.589091 -279.127159 
L 72 -278.28547 
L 77.410909 -277.444969 
L 82.821818 -276.609698 
L 88.232727 -275.17926 
L 93.643636 -273.448157 
L 99.054545 -271.829114 
L 104.465455 -270.308345 
L 109.876364 -268.717286 
L 115.287273 -267.068764 
L 120.698182 -265.743988 
L 126.109091 -264.348905 
L 131.52 -263.119301 
L 136.930909 -261.238747 
L 142.341818 -259.946041 
L 147.752727 -258.163135 
L 153.163636 -256.119381 
L 158.574545 -254.31448 
L 163.985455 -252.90414 
L 169.396364 -251.494934 
L 174.807273 -250.087069 
L 180.218182 -247.57205 
L 185.629091 -245.671835 
L 191.04 -243.935505 
L 196.450909 -241.777299 
L 201.861818 -239.60773 
L 207.272727 -237.187133 
L 212.683636 -234.599446 
L 218.094545 -231.853137 
L 223.505455 -229.098965 
L 228.916364 -226.268435 
L 234.327273 -222.784581 
L 239.738182 -219.05846 
L 245.149091 -214.745527 
L 250.56 -211.143151 
L 255.970909 -206.849276 
L 261.381818 -202.434727 
L 266.792727 -198.007549 
L 272.203636 -193.27047 
L 277.614545 -188.535302 
L 283.025455 -183.66032 
L 288.436364 -178.736854 
L 293.847273 -173.994025 
L 299.258182 -169.287048 
L 304.669091 -164.566831 
L 310.08 -159.77011 
L 315.490909 -155.026068 
L 320.901818 -150.464452 
L 326.312727 -145.738887 
L 331.723636 -140.808958 
L 337.134545 -136.052736 
L 342.545455 -131.300232 
L 347.956364 -126.556838 
L 353.367273 -121.60992 
L 358.778182 -116.49808 
L 364.189091 -111.38624 
L 369.6 -106.274399 
L 375.010909 -101.164609 
L 380.421818 -96.404114 
L 385.832727 -91.742408 
L 391.243636 -87.080701 
L 396.654545 -82.207213 
L 402.065455 -77.072735 
L 407.476364 -71.938256 
L 412.887273 -67.020708 
L 418.298182 -62.162093 
L 423.709091 -57.138104 
L 429.12 -51.726568 
L 434.530909 -46.315032 
L 439.941818 -41.084614 
L 445.352727 -35.935958 
L 450.763636 -30.790975 
L 456.174545 -25.654026 
L 461.585455 -20.517076 
L 466.996364 -15.380127 
L 472.407273 -10.403705 
L 477.818182 -5.448715 
L 483.229091 -0.493725 
L 488.64 4.61149 
L 494.050909 9.869927 
L 499.461818 15.128363 
L 504.872727 20.3868 
L 510.283636 25.645236 
L 515.694545 30.895174 
L 521.105455 35.935949 
L 526.516364 40.806867 
L 531.927273 45.673751 
L 537.338182 50.540636 
L 542.749091 55.40752 
L 548.16 60.274405 
L 548.16 -160.23286 
L 548.16 -160.23286 
L 542.749091 -161.638106 
L 537.338182 -163.137917 
L 531.927273 -164.637727 
L 526.516364 -166.137538 
L 521.105455 -167.637348 
L 515.694545 -169.137159 
L 510.283636 -170.635019 
L 504.872727 -172.128903 
L 499.461818 -173.590516 
L 494.050909 -174.982373 
L 488.64 -176.302549 
L 483.229091 -177.918371 
L 477.818182 -179.624213 
L 472.407273 -181.130577 
L 466.996364 -182.635455 
L 461.585455 -184.135265 
L 456.174545 -185.635076 
L 450.763636 -187.134887 
L 445.352727 -188.634697 
L 439.941818 -190.132442 
L 434.530909 -191.62306 
L 429.12 -192.952878 
L 423.709091 -194.619821 
L 418.298182 -196.124303 
L 412.887273 -197.587146 
L 407.476364 -199.045785 
L 402.065455 -200.108604 
L 396.654545 -201.171423 
L 391.243636 -202.234242 
L 385.832727 -203.290487 
L 380.421818 -204.729492 
L 375.010909 -206.334702 
L 369.6 -207.99375 
L 364.189091 -209.561303 
L 358.778182 -211.182847 
L 353.367273 -212.799317 
L 347.956364 -214.42177 
L 342.545455 -216.047479 
L 337.134545 -218.137434 
L 331.723636 -219.803106 
L 326.312727 -220.96154 
L 320.901818 -222.528228 
L 315.490909 -224.133245 
L 310.08 -225.620559 
L 304.669091 -227.462597 
L 299.258182 -229.113288 
L 293.847273 -230.639795 
L 288.436364 -232.894415 
L 283.025455 -234.948488 
L 277.614545 -236.464521 
L 272.203636 -238.128171 
L 266.792727 -240.069497 
L 261.381818 -241.999062 
L 255.970909 -243.936957 
L 250.56 -246.043611 
L 245.149091 -248.385605 
L 239.738182 -250.571423 
L 234.327273 -252.328553 
L 228.916364 -254.910595 
L 223.505455 -257.301826 
L 218.094545 -260.1097 
L 212.683636 -263.760972 
L 207.272727 -267.477386 
L 201.861818 -271.178424 
L 196.450909 -275.020588 
L 191.04 -279.175133 
L 185.629091 -283.317144 
L 180.218182 -287.285399 
L 174.807273 -291.652916 
L 169.396364 -296.3699 
L 163.985455 -301.088485 
L 158.574545 -305.909626 
L 153.163636 -310.703991 
L 147.752727 -315.489683 
L 142.341818 -319.836308 
L 136.930909 -324.61016 
L 131.52 -329.405393 
L 126.109091 -334.138792 
L 120.698182 -338.726884 
L 115.287273 -343.227864 
L 109.876364 -347.728845 
L 104.465455 -352.339525 
L 99.054545 -357.087876 
L 93.643636 -361.969147 
L 88.232727 -366.946589 
L 82.821818 -371.924032 
L 77.410909 -376.901474 
L 72 -381.878917 
L 66.589091 -386.85636 
L 61.178182 -391.839237 
L 55.767273 -396.828087 
L 50.356364 -402.047854 
L 44.945455 -407.14006 
L 39.534545 -412.232267 
L 34.123636 -417.314036 
L 28.712727 -422.398928 
L 23.301818 -427.331371 
L 17.890909 -432.051624 
L 12.48 -436.883916 
z
" id="m53d3a4748d" style="stroke:#000000;stroke-opacity:0.15;stroke-width:0.3;"/>
    </defs>
    <g clip-path="url(#p2b70fd5eca)">
     <use style="fill:#4c72b0;fill-opacity:0.15;stroke:#000000;stroke-opacity:0.15;stroke-width:0.3;" x="0.0" xlink:href="#m53d3a4748d" y="576.0"/>
    </g>
   </g>
   <g id="line2d_29">
    <path clip-path="url(#p2b70fd5eca)" d="M 12.48 212.700356 
L 17.890909 215.780721 
L 23.301818 218.861085 
L 28.712727 221.94145 
L 34.123636 225.021815 
L 39.534545 228.10218 
L 44.945455 231.182545 
L 50.356364 234.26291 
L 55.767273 237.343275 
L 61.178182 240.42364 
L 66.589091 243.504005 
L 72 246.584369 
L 77.410909 249.664734 
L 82.821818 252.745099 
L 88.232727 255.825464 
L 93.643636 258.905829 
L 99.054545 261.986194 
L 104.465455 265.066559 
L 109.876364 268.146924 
L 115.287273 271.227288 
L 120.698182 274.307653 
L 126.109091 277.388018 
L 131.52 280.468383 
L 136.930909 283.548748 
L 142.341818 286.629113 
L 147.752727 289.709478 
L 153.163636 292.789843 
L 158.574545 295.870207 
L 163.985455 298.950572 
L 169.396364 302.030937 
L 174.807273 305.111302 
L 180.218182 308.191667 
L 185.629091 311.272032 
L 191.04 314.352397 
L 196.450909 317.432762 
L 201.861818 320.513127 
L 207.272727 323.593491 
L 212.683636 326.673856 
L 218.094545 329.754221 
L 223.505455 332.834586 
L 228.916364 335.914951 
L 234.327273 338.995316 
L 239.738182 342.075681 
L 245.149091 345.156046 
L 250.56 348.23641 
L 255.970909 351.316775 
L 261.381818 354.39714 
L 266.792727 357.477505 
L 272.203636 360.55787 
L 277.614545 363.638235 
L 283.025455 366.7186 
L 288.436364 369.798965 
L 293.847273 372.879329 
L 299.258182 375.959694 
L 304.669091 379.040059 
L 310.08 382.120424 
L 315.490909 385.200789 
L 320.901818 388.281154 
L 326.312727 391.361519 
L 331.723636 394.441884 
L 337.134545 397.522249 
L 342.545455 400.602613 
L 347.956364 403.682978 
L 353.367273 406.763343 
L 358.778182 409.843708 
L 364.189091 412.924073 
L 369.6 416.004438 
L 375.010909 419.084803 
L 380.421818 422.165168 
L 385.832727 425.245532 
L 391.243636 428.325897 
L 396.654545 431.406262 
L 402.065455 434.486627 
L 407.476364 437.566992 
L 412.887273 440.647357 
L 418.298182 443.727722 
L 423.709091 446.808087 
L 429.12 449.888451 
L 434.530909 452.968816 
L 439.941818 456.049181 
L 445.352727 459.129546 
L 450.763636 462.209911 
L 456.174545 465.290276 
L 461.585455 468.370641 
L 466.996364 471.451006 
L 472.407273 474.531371 
L 477.818182 477.611735 
L 483.229091 480.6921 
L 488.64 483.772465 
L 494.050909 486.85283 
L 499.461818 489.933195 
L 504.872727 493.01356 
L 510.283636 496.093925 
L 515.694545 499.17429 
L 521.105455 502.254654 
L 526.516364 505.335019 
L 531.927273 508.415384 
L 537.338182 511.495749 
L 542.749091 514.576114 
L 548.16 517.656479 
" style="fill:none;stroke:#4c72b0;stroke-linecap:round;stroke-width:2.625;"/>
   </g>
   <g id="line2d_30">
    <path clip-path="url(#p2b70fd5eca)" d="M 161.28 504 
L 161.28 57.6 
" style="fill:none;stroke:#ff0000;stroke-linecap:round;stroke-width:1.75;"/>
   </g>
   <g id="line2d_31">
    <path clip-path="url(#p2b70fd5eca)" d="M 72 247.611287 
L 161.28 247.611287 
" style="fill:none;stroke:#ffa500;stroke-dasharray:6.000000,6.000000;stroke-dashoffset:0.0;stroke-width:1.75;"/>
   </g>
   <g id="line2d_32">
    <path clip-path="url(#p2b70fd5eca)" d="M 161.28 365.891972 
L 518.4 365.891972 
" style="fill:none;stroke:#808080;stroke-dasharray:6.000000,6.000000;stroke-dashoffset:0.0;stroke-width:1.75;"/>
   </g>
   <g id="patch_3">
    <path d="M 72 57.6 
L 518.4 57.6 
" style="fill:none;stroke:#262626;stroke-linecap:square;stroke-linejoin:miter;stroke-width:1.25;"/>
   </g>
   <g id="patch_4">
    <path d="M 72 504 
L 518.4 504 
" style="fill:none;stroke:#262626;stroke-linecap:square;stroke-linejoin:miter;stroke-width:1.25;"/>
   </g>
   <g id="patch_5">
    <path d="M 72 504 
L 72 57.6 
" style="fill:none;stroke:#262626;stroke-linecap:square;stroke-linejoin:miter;stroke-width:1.25;"/>
   </g>
   <g id="patch_6">
    <path d="M 518.4 504 
L 518.4 57.6 
" style="fill:none;stroke:#262626;stroke-linecap:square;stroke-linejoin:miter;stroke-width:1.25;"/>
   </g>
  </g>
 </g>
 <defs>
  <clipPath id="p2b70fd5eca">
   <rect height="446.4" width="446.4" x="72.0" y="57.6"/>
  </clipPath>
 </defs>
</svg>
