<?xml version="1.0" standalone="yes"?>

<svg version="1.1" viewBox="0.0 0.0 329.0 337.0" fill="none" stroke="none" stroke-linecap="square" stroke-miterlimit="10" xmlns="http://www.w3.org/2000/svg" xmlns:xlink="http://www.w3.org/1999/xlink"><clipPath id="p.0"><path d="m0 0l329.0 0l0 337.0l-329.0 0l0 -337.0z" clip-rule="nonzero"></path></clipPath><g clip-path="url(#p.0)"><path fill="#000000" fill-opacity="0.0" d="m0 0l329.0 0l0 337.0l-329.0 0z" fill-rule="nonzero"></path><path fill="#000000" fill-opacity="0.0" d="m8.0 63.574802l0 0c0 -30.693115 24.881687 -55.574802 55.574802 -55.574802l0 0c14.739353 0 28.875027 5.8551855 39.29732 16.277483c10.422295 10.422297 16.277481 24.557966 16.277481 39.297318l0 0c0 30.69312 -24.881683 55.574802 -55.574802 55.574802l0 0c-30.693115 0 -55.574802 -24.881683 -55.574802 -55.574802z" fill-rule="nonzero"></path><path stroke="#4a86e8" stroke-width="4.0" stroke-linejoin="round" stroke-linecap="butt" d="m8.0 63.574802l0 0c0 -30.693115 24.881687 -55.574802 55.574802 -55.574802l0 0c14.739353 0 28.875027 5.8551855 39.29732 16.277483c10.422295 10.422297 16.277481 24.557966 16.277481 39.297318l0 0c0 30.69312 -24.881683 55.574802 -55.574802 55.574802l0 0c-30.693115 0 -55.574802 -24.881683 -55.574802 -55.574802z" fill-rule="nonzero"></path><path fill="#000000" d="m34.58998 59.9348l0 -11.453125l7.734375 0l0 1.34375l-6.21875 0l0 3.546875l5.375 0l0 1.359375l-5.375 0l0 5.203125l-1.515625 0zm14.9296875 -1.03125q-0.78125 0.671875 -1.5 0.953125q-0.71875 0.265625 -1.546875 0.265625q-1.375 0 -2.109375 -0.671875q-0.734375 -0.671875 -0.734375 -1.703125q0 -0.609375 0.28125 -1.109375q0.28125 -0.515625 0.71875 -0.8125q0.453125 -0.3125 1.015625 -0.46875q0.421875 -0.109375 1.25 -0.203125q1.703125 -0.203125 2.515625 -0.484375q0 -0.296875 0 -0.375q0 -0.859375 -0.390625 -1.203125q-0.546875 -0.484375 -1.609375 -0.484375q-0.984375 0 -1.46875 0.359375q-0.46875 0.34375 -0.6875 1.21875l-1.375 -0.1875q0.1875 -0.875 0.609375 -1.421875q0.4375 -0.546875 1.25 -0.828125q0.8125 -0.296875 1.875 -0.296875q1.0625 0 1.71875 0.25q0.671875 0.25 0.984375 0.625q0.3125 0.375 0.4375 0.953125q0.078125 0.359375 0.078125 1.296875l0 1.875q0 1.96875 0.078125 2.484375q0.09375 0.515625 0.359375 1.0l-1.46875 0q-0.21875 -0.4375 -0.28125 -1.03125zm-0.109375 -3.140625q-0.765625 0.3125 -2.296875 0.53125q-0.875 0.125 -1.234375 0.28125q-0.359375 0.15625 -0.5625 0.46875q-0.1875 0.296875 -0.1875 0.65625q0 0.5625 0.421875 0.9375q0.4375 0.375 1.25 0.375q0.8125 0 1.4375 -0.34375q0.640625 -0.359375 0.9375 -0.984375q0.234375 -0.46875 0.234375 -1.40625l0 -0.515625zm3.0390625 1.6875l1.390625 -0.21875q0.109375 0.84375 0.640625 1.296875q0.546875 0.4375 1.5 0.4375q0.96875 0 1.4375 -0.390625q0.46875 -0.40625 0.46875 -0.9375q0 -0.46875 -0.40625 -0.75q-0.296875 -0.1875 -1.4375 -0.46875q-1.546875 -0.390625 -2.15625 -0.671875q-0.59375 -0.296875 -0.90625 -0.796875q-0.296875 -0.5 -0.296875 -1.109375q0 -0.5625 0.25 -1.03125q0.25 -0.46875 0.6875 -0.78125q0.328125 -0.25 0.890625 -0.40625q0.578125 -0.171875 1.21875 -0.171875q0.984375 0 1.71875 0.28125q0.734375 0.28125 1.078125 0.765625q0.359375 0.46875 0.5 1.28125l-1.375 0.1875q-0.09375 -0.640625 -0.546875 -1.0q-0.453125 -0.359375 -1.265625 -0.359375q-0.96875 0 -1.390625 0.328125q-0.40625 0.3125 -0.40625 0.734375q0 0.28125 0.171875 0.5q0.171875 0.21875 0.53125 0.375q0.21875 0.078125 1.25 0.359375q1.484375 0.390625 2.078125 0.65625q0.59375 0.25 0.921875 0.734375q0.34375 0.484375 0.34375 1.203125q0 0.703125 -0.421875 1.328125q-0.40625 0.609375 -1.1875 0.953125q-0.765625 0.34375 -1.734375 0.34375q-1.625 0 -2.46875 -0.671875q-0.84375 -0.671875 -1.078125 -2.0zm11.625 1.21875l0.203125 1.25q-0.59375 0.125 -1.0625 0.125q-0.765625 0 -1.1875 -0.234375q-0.421875 -0.25 -0.59375 -0.640625q-0.171875 -0.40625 -0.171875 -1.671875l0 -4.765625l-1.03125 0l0 -1.09375l1.03125 0l0 -2.0625l1.40625 -0.84375l0 2.90625l1.40625 0l0 1.09375l-1.40625 0l0 4.84375q0 0.609375 0.0625 0.78125q0.078125 0.171875 0.25 0.28125q0.171875 0.09375 0.484375 0.09375q0.234375 0 0.609375 -0.0625zm5.984375 1.265625l0 -11.453125l1.5625 0l6.015625 8.984375l0 -8.984375l1.453125 0l0 11.453125l-1.5625 0l-6.015625 -9.0l0 9.0l-1.453125 0zm14.4609375 -1.265625l0.203125 1.25q-0.59375 0.125 -1.0625 0.125q-0.765625 0 -1.1875 -0.234375q-0.421875 -0.25 -0.59375 -0.640625q-0.171875 -0.40625 -0.171875 -1.671875l0 -4.765625l-1.03125 0l0 -1.09375l1.03125 0l0 -2.0625l1.40625 -0.84375l0 2.90625l1.40625 0l0 1.09375l-1.40625 0l0 4.84375q0 0.609375 0.0625 0.78125q0.078125 0.171875 0.25 0.28125q0.171875 0.09375 0.484375 0.09375q0.234375 0 0.609375 -0.0625z" fill-rule="nonzero"></path><path fill="#000000" d="m34.511856 78.9348l0 -11.453125l4.328125 0q1.140625 0 1.734375 0.109375q0.84375 0.140625 1.40625 0.53125q0.578125 0.390625 0.921875 1.109375q0.359375 0.703125 0.359375 1.5625q0 1.453125 -0.9375 2.46875q-0.921875 1.015625 -3.359375 1.015625l-2.9375 0l0 4.65625l-1.515625 0zm1.515625 -6.015625l2.96875 0q1.46875 0 2.078125 -0.546875q0.625 -0.546875 0.625 -1.53125q0 -0.71875 -0.375 -1.234375q-0.359375 -0.515625 -0.953125 -0.671875q-0.375 -0.109375 -1.40625 -0.109375l-2.9375 0l0 4.09375zm8.96875 6.015625l0 -8.296875l1.265625 0l0 1.25q0.484375 -0.875 0.890625 -1.15625q0.40625 -0.28125 0.90625 -0.28125q0.703125 0 1.4375 0.453125l-0.484375 1.296875q-0.515625 -0.296875 -1.03125 -0.296875q-0.453125 0 -0.828125 0.28125q-0.359375 0.265625 -0.515625 0.765625q-0.234375 0.75 -0.234375 1.640625l0 4.34375l-1.40625 0zm5.34375 -9.84375l0 -1.609375l1.40625 0l0 1.609375l-1.40625 0zm0 9.84375l0 -8.296875l1.40625 0l0 8.296875l-1.40625 0zm3.0234375 -4.15625q0 -2.296875 1.28125 -3.40625q1.078125 -0.921875 2.609375 -0.921875q1.71875 0 2.796875 1.125q1.09375 1.109375 1.09375 3.09375q0 1.59375 -0.484375 2.515625q-0.484375 0.921875 -1.40625 1.4375q-0.90625 0.5 -2.0 0.5q-1.734375 0 -2.8125 -1.109375q-1.078125 -1.125 -1.078125 -3.234375zm1.453125 0q0 1.59375 0.6875 2.390625q0.703125 0.796875 1.75 0.796875q1.046875 0 1.734375 -0.796875q0.703125 -0.796875 0.703125 -2.4375q0 -1.53125 -0.703125 -2.328125q-0.6875 -0.796875 -1.734375 -0.796875q-1.046875 0 -1.75 0.796875q-0.6875 0.78125 -0.6875 2.375zm7.9609375 4.15625l0 -8.296875l1.265625 0l0 1.25q0.484375 -0.875 0.890625 -1.15625q0.40625 -0.28125 0.90625 -0.28125q0.703125 0 1.4375 0.453125l-0.484375 1.296875q-0.515625 -0.296875 -1.03125 -0.296875q-0.453125 0 -0.828125 0.28125q-0.359375 0.265625 -0.515625 0.765625q-0.234375 0.75 -0.234375 1.640625l0 4.34375l-1.40625 0z" fill-rule="nonzero"></path><path fill="#000000" fill-opacity="0.0" d="m206.38583 63.574802l0 0c0 -30.693115 24.881683 -55.574802 55.5748 -55.574802l0 0c14.739349 0 28.87503 5.8551855 39.297333 16.277483c10.422272 10.422297 16.277466 24.557966 16.277466 39.297318l0 0c0 30.69312 -24.881683 55.574802 -55.5748 55.574802l0 0c-30.693115 0 -55.5748 -24.881683 -55.5748 -55.574802z" fill-rule="nonzero"></path><path stroke="#4a86e8" stroke-width="4.0" stroke-linejoin="round" stroke-linecap="butt" d="m206.38583 63.574802l0 0c0 -30.693115 24.881683 -55.574802 55.5748 -55.574802l0 0c14.739349 0 28.87503 5.8551855 39.297333 16.277483c10.422272 10.422297 16.277466 24.557966 16.277466 39.297318l0 0c0 30.69312 -24.881683 55.574802 -55.5748 55.574802l0 0c-30.693115 0 -55.5748 -24.881683 -55.5748 -55.574802z" fill-rule="nonzero"></path><path fill="#000000" d="m232.83519 50.434803l0 -11.453125l4.296875 0q1.3125 0 2.109375 0.34375q0.796875 0.34375 1.234375 1.078125q0.453125 0.71875 0.453125 1.5q0 0.734375 -0.40625 1.390625q-0.390625 0.640625 -1.1875 1.046875q1.03125 0.296875 1.59375 1.03125q0.5625 0.734375 0.5625 1.734375q0 0.8125 -0.34375 1.5q-0.34375 0.6875 -0.84375 1.0625q-0.5 0.375 -1.25 0.578125q-0.75 0.1875 -1.84375 0.1875l-4.375 0zm1.515625 -6.640625l2.484375 0q1.0 0 1.4375 -0.140625q0.578125 -0.171875 0.875 -0.5625q0.296875 -0.40625 0.296875 -1.0q0 -0.578125 -0.28125 -1.0q-0.265625 -0.4375 -0.78125 -0.59375q-0.5 -0.171875 -1.734375 -0.171875l-2.296875 0l0 3.46875zm0 5.28125l2.859375 0q0.734375 0 1.03125 -0.046875q0.515625 -0.09375 0.859375 -0.3125q0.359375 -0.21875 0.578125 -0.640625q0.234375 -0.421875 0.234375 -0.96875q0 -0.640625 -0.328125 -1.109375q-0.328125 -0.46875 -0.90625 -0.65625q-0.578125 -0.203125 -1.671875 -0.203125l-2.65625 0l0 3.9375zm9.015625 1.359375l0 -11.453125l1.40625 0l0 11.453125l-1.40625 0zm3.0546875 -4.15625q0 -2.296875 1.28125 -3.40625q1.078125 -0.921875 2.609375 -0.921875q1.71875 0 2.796875 1.125q1.09375 1.109375 1.09375 3.09375q0 1.59375 -0.484375 2.515625q-0.484375 0.921875 -1.40625 1.4375q-0.90625 0.5 -2.0 0.5q-1.734375 0 -2.8125 -1.109375q-1.078125 -1.125 -1.078125 -3.234375zm1.453125 0q0 1.59375 0.6875 2.390625q0.703125 0.796875 1.75 0.796875q1.046875 0 1.734375 -0.796875q0.703125 -0.796875 0.703125 -2.4375q0 -1.53125 -0.703125 -2.328125q-0.6875 -0.796875 -1.734375 -0.796875q-1.046875 0 -1.75 0.796875q-0.6875 0.78125 -0.6875 2.375zm7.4453125 0q0 -2.296875 1.2812347 -3.40625q1.078125 -0.921875 2.609375 -0.921875q1.71875 0 2.796875 1.125q1.09375 1.109375 1.09375 3.09375q0 1.59375 -0.484375 2.515625q-0.484375 0.921875 -1.40625 1.4375q-0.90625 0.5 -2.0 0.5q-1.734375 0 -2.8125 -1.109375q-1.0781097 -1.125 -1.0781097 -3.234375zm1.4531097 0q0 1.59375 0.6875 2.390625q0.703125 0.796875 1.75 0.796875q1.046875 0 1.734375 -0.796875q0.703125 -0.796875 0.703125 -2.4375q0 -1.53125 -0.703125 -2.328125q-0.6875 -0.796875 -1.734375 -0.796875q-1.046875 0 -1.75 0.796875q-0.6875 0.78125 -0.6875 2.375zm13.3515625 4.15625l0 -1.046875q-0.78125 1.234375 -2.3125 1.234375q-1.0 0 -1.828125 -0.546875q-0.828125 -0.546875 -1.296875 -1.53125q-0.453125 -0.984375 -0.453125 -2.25q0 -1.25 0.40625 -2.25q0.421875 -1.015625 1.25 -1.546875q0.828125 -0.546875 1.859375 -0.546875q0.75 0 1.328125 0.3125q0.59375 0.3125 0.953125 0.828125l0 -4.109375l1.40625 0l0 11.453125l-1.3125 0zm-4.4375 -4.140625q0 1.59375 0.671875 2.390625q0.671875 0.78125 1.578125 0.78125q0.921875 0 1.5625 -0.75q0.65625 -0.765625 0.65625 -2.3125q0 -1.703125 -0.65625 -2.5q-0.65625 -0.796875 -1.625 -0.796875q-0.9375 0 -1.5625 0.765625q-0.625 0.765625 -0.625 2.421875z" fill-rule="nonzero"></path><path fill="#000000" d="m235.81956 69.43481l0 -10.109379l-3.78125 0l0 -1.34375l9.078125 0l0 1.34375l-3.78125 0l0 10.109379l-1.515625 0zm6.1171875 -2.484375l1.390625 -0.21875q0.109375 0.84375 0.640625 1.296875q0.546875 0.4375 1.5 0.4375q0.96875 0 1.4375 -0.390625q0.46875 -0.40625 0.46875 -0.9375q0 -0.46875 -0.40625 -0.75q-0.296875 -0.1875 -1.4375 -0.46875q-1.546875 -0.390625 -2.15625 -0.671875q-0.59375 -0.296875 -0.90625 -0.796875q-0.296875 -0.5000038 -0.296875 -1.1093788q0 -0.5625 0.25 -1.03125q0.25 -0.46875 0.6875 -0.78125q0.328125 -0.25 0.890625 -0.40625q0.578125 -0.171875 1.21875 -0.171875q0.984375 0 1.71875 0.28125q0.734375 0.28125 1.078125 0.765625q0.359375 0.46875 0.5 1.28125l-1.375 0.1875q-0.09375 -0.640625 -0.546875 -1.0q-0.453125 -0.359375 -1.265625 -0.359375q-0.96875 0 -1.390625 0.328125q-0.40625 0.3125 -0.40625 0.734375q0 0.28125 0.171875 0.5q0.171875 0.21875 0.53125 0.3750038q0.21875 0.078125 1.25 0.359375q1.484375 0.390625 2.078125 0.65625q0.59375 0.25 0.921875 0.734375q0.34375 0.484375 0.34375 1.203125q0 0.703125 -0.421875 1.328125q-0.40625 0.609375 -1.1875 0.953125q-0.765625 0.34375 -1.734375 0.34375q-1.625 0 -2.46875 -0.671875q-0.84375 -0.671875 -1.078125 -2.0zm11.625 1.21875l0.203125 1.25q-0.59375 0.125 -1.0625 0.125q-0.765625 0 -1.1875 -0.234375q-0.421875 -0.25 -0.59375 -0.640625q-0.171875 -0.40625 -0.171875 -1.671875l0 -4.765629l-1.03125 0l0 -1.09375l1.03125 0l0 -2.0625l1.40625 -0.84375l0 2.90625l1.40625 0l0 1.09375l-1.40625 0l0 4.843754q0 0.609375 0.0625 0.78125q0.078125 0.171875 0.25 0.28125q0.171875 0.09375 0.484375 0.09375q0.234375 0 0.609375 -0.0625zm12.374985 -0.09375q-0.703125 0.78125 -1.53125 1.171875q-0.8125 0.390625 -1.765625 0.390625q-1.75 0 -2.78125 -1.203125q-0.84375 -0.96875 -0.84375 -2.15625q0 -1.0625 0.6875 -1.921875q0.6875 -0.8593788 2.046875 -1.5000038q-0.78125 -0.890625 -1.046875 -1.4375q-0.25 -0.5625 -0.25 -1.078125q0 -1.03125 0.8125 -1.796875q0.8125 -0.765625 2.03125 -0.765625q1.171875 0 1.921875 0.71875q0.75 0.71875 0.75 1.734375q0 1.625 -2.171875 2.78125l2.0625 2.6250038q0.34375 -0.6875 0.546875 -1.59375l1.453125 0.3125q-0.375 1.5 -1.015625 2.46875q0.796875 1.046875 1.796875 1.75l-0.953125 1.125q-0.84375 -0.546875 -1.75 -1.625zm-2.859375 -5.968754q0.90625 -0.53125 1.171875 -0.9375q0.28125 -0.40625 0.28125 -0.90625q0 -0.578125 -0.375 -0.953125q-0.375 -0.375 -0.921875 -0.375q-0.578125 0 -0.953125 0.375q-0.375 0.359375 -0.375 0.890625q0 0.265625 0.125 0.5625q0.140625 0.296875 0.421875 0.625l0.625 0.71875zm1.96875 4.859379l-2.578125 -3.1875038q-1.140625 0.6718788 -1.546875 1.2656288q-0.390625 0.578125 -0.390625 1.140625q0 0.703125 0.546875 1.453125q0.5625 0.75 1.578125 0.75q0.640625 0 1.3125 -0.390625q0.671875 -0.40625 1.078125 -1.03125z" fill-rule="nonzero"></path><path fill="#000000" d="m232.88206 88.4348l0 -11.453125l1.5625 0l6.015625 8.984375l0 -8.984375l1.453125 0l0 11.453125l-1.5625 0l-6.015625 -9.0l0 9.0l-1.453125 0zm17.070312 -2.671875l1.453125 0.171875q-0.34375 1.28125 -1.28125 1.984375q-0.921875 0.703125 -2.359375 0.703125q-1.828125 0 -2.890625 -1.125q-1.0625 -1.125 -1.0625 -3.140625q0 -2.09375 1.078125 -3.25q1.078125 -1.15625 2.796875 -1.15625q1.65625 0 2.703125 1.140625q1.0625 1.125 1.0625 3.171875q0 0.125 0 0.375l-6.1875 0q0.078125 1.375 0.765625 2.109375q0.703125 0.71875 1.734375 0.71875q0.78125 0 1.328125 -0.40625q0.546875 -0.40625 0.859375 -1.296875zm-4.609375 -2.28125l4.625 0q-0.09375 -1.046875 -0.53125 -1.5625q-0.671875 -0.8125 -1.734375 -0.8125q-0.96875 0 -1.640625 0.65625q-0.65625 0.640625 -0.71875 1.71875zm13.507797 2.28125l1.453125 0.171875q-0.34375 1.28125 -1.28125 1.984375q-0.921875 0.703125 -2.359375 0.703125q-1.8281097 0 -2.8906097 -1.125q-1.0625 -1.125 -1.0625 -3.140625q0 -2.09375 1.078125 -3.25q1.078125 -1.15625 2.7968597 -1.15625q1.65625 0 2.703125 1.140625q1.0625 1.125 1.0625 3.171875q0 0.125 0 0.375l-6.1874847 0q0.078125 1.375 0.765625 2.109375q0.703125 0.71875 1.7343597 0.71875q0.78125 0 1.328125 -0.40625q0.546875 -0.40625 0.859375 -1.296875zm-4.6093597 -2.28125l4.6249847 0q-0.09375 -1.046875 -0.53125 -1.5625q-0.671875 -0.8125 -1.734375 -0.8125q-0.96873474 0 -1.6406097 0.65625q-0.65625 0.640625 -0.71875 1.71875zm13.210922 4.953125l0 -1.046875q-0.78125 1.234375 -2.3125 1.234375q-1.0 0 -1.828125 -0.546875q-0.828125 -0.546875 -1.296875 -1.53125q-0.453125 -0.984375 -0.453125 -2.25q0 -1.25 0.40625 -2.25q0.421875 -1.015625 1.25 -1.546875q0.828125 -0.546875 1.859375 -0.546875q0.75 0 1.328125 0.3125q0.59375 0.3125 0.953125 0.828125l0 -4.109375l1.40625 0l0 11.453125l-1.3125 0zm-4.4375 -4.140625q0 1.59375 0.671875 2.390625q0.671875 0.78125 1.578125 0.78125q0.921875 0 1.5625 -0.75q0.65625 -0.765625 0.65625 -2.3125q0 -1.703125 -0.65625 -2.5q-0.65625 -0.796875 -1.625 -0.796875q-0.9375 0 -1.5625 0.765625q-0.625 0.765625 -0.625 2.421875zm7.9296875 4.140625l0 -11.453125l1.40625 0l0 11.453125l-1.40625 0zm9.2578125 -2.671875l1.453125 0.171875q-0.34375 1.28125 -1.28125 1.984375q-0.921875 0.703125 -2.359375 0.703125q-1.828125 0 -2.890625 -1.125q-1.0625 -1.125 -1.0625 -3.140625q0 -2.09375 1.078125 -3.25q1.078125 -1.15625 2.796875 -1.15625q1.65625 0 2.703125 1.140625q1.0625 1.125 1.0625 3.171875q0 0.125 0 0.375l-6.1875 0q0.078125 1.375 0.765625 2.109375q0.703125 0.71875 1.734375 0.71875q0.78125 0 1.328125 -0.40625q0.546875 -0.40625 0.859375 -1.296875zm-4.609375 -2.28125l4.625 0q-0.09375 -1.046875 -0.53125 -1.5625q-0.671875 -0.8125 -1.734375 -0.8125q-0.96875 0 -1.640625 0.65625q-0.65625 0.640625 -0.71875 1.71875z" fill-rule="nonzero"></path><path fill="#000000" fill-opacity="0.0" d="m63.574802 119.149605l0 93.85827" fill-rule="nonzero"></path><path stroke="#4a86e8" stroke-width="4.0" stroke-linejoin="round" stroke-linecap="butt" d="m63.574802 119.149605l0 69.85827" fill-rule="evenodd"></path><path fill="#4a86e8" stroke="#4a86e8" stroke-width="4.0" stroke-linecap="butt" d="m56.967873 189.00787l6.60693 18.15239l6.60693 -18.15239z" fill-rule="evenodd"></path><path fill="#000000" fill-opacity="0.0" d="m261.96063 119.149605l-198.3937 93.85827" fill-rule="nonzero"></path><path stroke="#4a86e8" stroke-width="4.0" stroke-linejoin="round" stroke-linecap="butt" d="m261.96063 119.149605l-176.69902 83.59472" fill-rule="evenodd"></path><path fill="#4a86e8" stroke="#4a86e8" stroke-width="4.0" stroke-linecap="butt" d="m82.43617 196.77202l-13.583328 13.735138l19.234215 -1.7905426z" fill-rule="evenodd"></path><path fill="#000000" fill-opacity="0.0" d="m7.9986877 268.5748l0 0c0 -30.693115 24.881687 -55.5748 55.574802 -55.5748l0 0c14.739353 0 28.875027 5.855179 39.29732 16.277481c10.422295 10.422302 16.277481 24.557968 16.277481 39.297318l0 0c0 30.693115 -24.881683 55.5748 -55.574802 55.5748l0 0c-30.693115 0 -55.574802 -24.881683 -55.574802 -55.5748z" fill-rule="nonzero"></path><path stroke="#4a86e8" stroke-width="4.0" stroke-linejoin="round" stroke-linecap="butt" d="m7.9986877 268.5748l0 0c0 -30.693115 24.881687 -55.5748 55.574802 -55.5748l0 0c14.739353 0 28.875027 5.855179 39.29732 16.277481c10.422295 10.422302 16.277481 24.557968 16.277481 39.297318l0 0c0 30.693115 -24.881683 55.5748 -55.574802 55.5748l0 0c-30.693115 0 -55.574802 -24.881683 -55.574802 -55.5748z" fill-rule="nonzero"></path><path fill="#000000" d="m37.43242 274.4348l0 -10.109375l-3.78125 0l0 -1.34375l9.078125 0l0 1.34375l-3.78125 0l0 10.109375l-1.515625 0zm6.6640625 0l0 -8.296875l1.265625 0l0 1.25q0.484375 -0.875 0.890625 -1.15625q0.40625 -0.28125 0.90625 -0.28125q0.703125 0 1.4375 0.453125l-0.484375 1.296875q-0.515625 -0.296875 -1.03125 -0.296875q-0.453125 0 -0.828125 0.28125q-0.359375 0.265625 -0.515625 0.765625q-0.234375 0.75 -0.234375 1.640625l0 4.34375l-1.40625 0zm5.34375 -9.84375l0 -1.609375l1.40625 0l0 1.609375l-1.40625 0zm0 9.84375l0 -8.296875l1.40625 0l0 8.296875l-1.40625 0zm8.9609375 -1.03125q-0.78125 0.671875 -1.5 0.953125q-0.71875 0.265625 -1.546875 0.265625q-1.375 0 -2.109375 -0.671875q-0.734375 -0.671875 -0.734375 -1.703125q0 -0.609375 0.28125 -1.109375q0.28125 -0.515625 0.71875 -0.8125q0.453125 -0.3125 1.015625 -0.46875q0.421875 -0.109375 1.25 -0.203125q1.703125 -0.203125 2.515625 -0.484375q0 -0.296875 0 -0.375q0 -0.859375 -0.390625 -1.203125q-0.546875 -0.484375 -1.609375 -0.484375q-0.984375 0 -1.46875 0.359375q-0.46875 0.34375 -0.6875 1.21875l-1.375 -0.1875q0.1875 -0.875 0.609375 -1.421875q0.4375 -0.546875 1.25 -0.828125q0.8125 -0.296875 1.875 -0.296875q1.0625 0 1.71875 0.25q0.671875 0.25 0.984375 0.625q0.3125 0.375 0.4375 0.953125q0.078125 0.359375 0.078125 1.296875l0 1.875q0 1.96875 0.078125 2.484375q0.09375 0.515625 0.359375 1.0l-1.46875 0q-0.21875 -0.4375 -0.28125 -1.03125zm-0.109375 -3.140625q-0.765625 0.3125 -2.296875 0.53125q-0.875 0.125 -1.234375 0.28125q-0.359375 0.15625 -0.5625 0.46875q-0.1875 0.296875 -0.1875 0.65625q0 0.5625 0.421875 0.9375q0.4375 0.375 1.25 0.375q0.8125 0 1.4375 -0.34375q0.640625 -0.359375 0.9375 -0.984375q0.234375 -0.46875 0.234375 -1.40625l0 -0.515625zm3.5703125 4.171875l0 -11.453125l1.40625 0l0 11.453125l-1.40625 0z" fill-rule="nonzero"></path><path fill="#000000" fill-opacity="0.0" d="m206.38452 268.5748l0 0c0 -30.693115 24.881683 -55.5748 55.5748 -55.5748l0 0c14.739349 0 28.87503 5.855179 39.297333 16.277481c10.422272 10.422302 16.277466 24.557968 16.277466 39.297318l0 0c0 30.693115 -24.881683 55.5748 -55.5748 55.5748l0 0c-30.693115 0 -55.5748 -24.881683 -55.5748 -55.5748z" fill-rule="nonzero"></path><path stroke="#4a86e8" stroke-width="4.0" stroke-linejoin="round" stroke-linecap="butt" d="m206.38452 268.5748l0 0c0 -30.693115 24.881683 -55.5748 55.5748 -55.5748l0 0c14.739349 0 28.87503 5.855179 39.297333 16.277481c10.422272 10.422302 16.277466 24.557968 16.277466 39.297318l0 0c0 30.693115 -24.881683 55.5748 -55.5748 55.5748l0 0c-30.693115 0 -55.5748 -24.881683 -55.5748 -55.5748z" fill-rule="nonzero"></path><path fill="#000000" d="m231.64638 273.65482l4.125 -10.734375l1.515625 0l4.40625 10.734375l-1.625 0l-1.25 -3.25l-4.484375 0l-1.1875 3.25l-1.5 0zm3.09375 -4.40625l3.640625 0l-1.125 -2.984375q-0.515625 -1.34375 -0.765625 -2.21875q-0.203125 1.03125 -0.578125 2.046875l-1.171875 3.15625zm12.759979 1.5625l1.296875 0.15625q-0.203125 1.34375 -1.09375 2.109375q-0.875 0.75 -2.140625 0.75q-1.59375 0 -2.5625 -1.03125q-0.96875 -1.046875 -0.96875 -3.0q0 -1.265625 0.40625 -2.203125q0.421875 -0.953125 1.265625 -1.421875q0.859375 -0.46875 1.859375 -0.46875q1.265625 0 2.078125 0.640625q0.8125 0.640625 1.03125 1.8125l-1.28125 0.203125q-0.1875 -0.78125 -0.65625 -1.171875q-0.453125 -0.40625 -1.109375 -0.40625q-1.0 0 -1.625 0.71875q-0.625 0.71875 -0.625 2.265625q0 1.5625 0.59375 2.28125q0.609375 0.703125 1.578125 0.703125q0.78125 0 1.296875 -0.46875q0.515625 -0.484375 0.65625 -1.46875zm7.328125 0l1.2968597 0.15625q-0.20310974 1.34375 -1.0937347 2.109375q-0.875 0.75 -2.140625 0.75q-1.59375 0 -2.5625 -1.03125q-0.96875 -1.046875 -0.96875 -3.0q0 -1.265625 0.40625 -2.203125q0.421875 -0.953125 1.265625 -1.421875q0.859375 -0.46875 1.859375 -0.46875q1.265625 0 2.078125 0.640625q0.8125 0.640625 1.0312347 1.8125l-1.2812347 0.203125q-0.1875 -0.78125 -0.65625 -1.171875q-0.453125 -0.40625 -1.109375 -0.40625q-1.0 0 -1.625 0.71875q-0.625 0.71875 -0.625 2.265625q0 1.5625 0.59375 2.28125q0.609375 0.703125 1.578125 0.703125q0.78125 0 1.296875 -0.46875q0.515625 -0.484375 0.65625 -1.46875zm7.3593597 2.84375l0 -1.140625q-0.921875 1.3125 -2.46875 1.3125q-0.6875 0 -1.296875 -0.265625q-0.59375 -0.265625 -0.890625 -0.65625q-0.28125 -0.40625 -0.390625 -0.984375q-0.09375 -0.375 -0.09375 -1.21875l0 -4.828125l1.328125 0l0 4.3125q0 1.03125 0.078125 1.390625q0.125 0.53125 0.515625 0.828125q0.40625 0.296875 1.0 0.296875q0.59375 0 1.109375 -0.296875q0.53125 -0.3125 0.75 -0.828125q0.21875 -0.53125 0.21875 -1.53125l0 -4.171875l1.3125 0l0 7.78125l-1.171875 0zm3.026123 0l0 -7.78125l1.1875 0l0 1.1875q0.453125 -0.828125 0.84375 -1.09375q0.390625 -0.265625 0.84375 -0.265625q0.671875 0 1.359375 0.421875l-0.453125 1.21875q-0.484375 -0.28125 -0.96875 -0.28125q-0.4375 0 -0.78125 0.265625q-0.34375 0.25 -0.484375 0.71875q-0.21875 0.703125 -0.21875 1.53125l0 4.078125l-1.328125 0zm9.974396 -0.953125q-0.734375 0.609375 -1.40625 0.875q-0.671875 0.25 -1.453125 0.25q-1.28125 0 -1.96875 -0.625q-0.6875 -0.625 -0.6875 -1.59375q0 -0.578125 0.25 -1.046875q0.265625 -0.46875 0.6875 -0.75q0.421875 -0.296875 0.953125 -0.4375q0.375 -0.109375 1.171875 -0.203125q1.59375 -0.1875 2.34375 -0.453125q0.015625 -0.265625 0.015625 -0.34375q0 -0.8125 -0.375 -1.140625q-0.515625 -0.4375 -1.5 -0.4375q-0.9375 0 -1.390625 0.328125q-0.4375 0.3125 -0.640625 1.140625l-1.296875 -0.171875q0.171875 -0.828125 0.578125 -1.328125q0.40625 -0.515625 1.171875 -0.78125q0.765625 -0.28125 1.765625 -0.28125q1.0 0 1.609375 0.234375q0.625 0.234375 0.921875 0.59375q0.296875 0.34375 0.40625 0.890625q0.0625 0.34375 0.0625 1.21875l0 1.75q0 1.84375 0.078125 2.328125q0.09375 0.484375 0.34375 0.9375l-1.375 0q-0.203125 -0.40625 -0.265625 -0.953125zm-0.109375 -2.953125q-0.71875 0.296875 -2.15625 0.5q-0.8125 0.125 -1.15625 0.265625q-0.328125 0.140625 -0.515625 0.421875q-0.171875 0.28125 -0.171875 0.625q0 0.53125 0.390625 0.890625q0.40625 0.34375 1.171875 0.34375q0.765625 0 1.359375 -0.328125q0.59375 -0.34375 0.875 -0.921875q0.203125 -0.4375 0.203125 -1.3125l0 -0.484375zm8.260468 1.0625l1.296875 0.15625q-0.203125 1.34375 -1.09375 2.109375q-0.875 0.75 -2.140625 0.75q-1.59375 0 -2.5625 -1.03125q-0.96875 -1.046875 -0.96875 -3.0q0 -1.265625 0.40625 -2.203125q0.421875 -0.953125 1.265625 -1.421875q0.859375 -0.46875 1.859375 -0.46875q1.265625 0 2.078125 0.640625q0.8125 0.640625 1.03125 1.8125l-1.28125 0.203125q-0.1875 -0.78125 -0.65625 -1.171875q-0.453125 -0.40625 -1.109375 -0.40625q-1.0 0 -1.625 0.71875q-0.625 0.71875 -0.625 2.265625q0 1.5625 0.59375 2.28125q0.609375 0.703125 1.578125 0.703125q0.78125 0 1.296875 -0.46875q0.515625 -0.484375 0.65625 -1.46875zm2.203125 5.84375l-0.15625 -1.234375q0.4375 0.109375 0.75 0.109375q0.453125 0 0.703125 -0.15625q0.265625 -0.140625 0.4375 -0.40625q0.125 -0.1875 0.40625 -0.96875q0.03125 -0.109375 0.109375 -0.328125l-2.953125 -7.796875l1.421875 0l1.625 4.5q0.3125 0.859375 0.5625 1.8125q0.234375 -0.90625 0.546875 -1.78125l1.65625 -4.53125l1.328125 0l-2.96875 7.90625q-0.46875 1.28125 -0.734375 1.765625q-0.359375 0.65625 -0.8125 0.953125q-0.453125 0.3125 -1.078125 0.3125q-0.375 0 -0.84375 -0.15625z" fill-rule="nonzero"></path><path fill="#000000" fill-opacity="0.0" d="m261.96063 119.149605l0 93.85827" fill-rule="nonzero"></path><path stroke="#4a86e8" stroke-width="4.0" stroke-linejoin="round" stroke-linecap="butt" d="m261.96063 119.149605l0 69.85827" fill-rule="evenodd"></path><path fill="#4a86e8" stroke="#4a86e8" stroke-width="4.0" stroke-linecap="butt" d="m255.3537 189.00787l6.6069336 18.15239l6.6069336 -18.15239z" fill-rule="evenodd"></path><path fill="#000000" fill-opacity="0.0" d="m63.574802 119.149605l198.3937 93.85827" fill-rule="nonzero"></path><path stroke="#4a86e8" stroke-width="4.0" stroke-linejoin="round" stroke-linecap="butt" d="m63.574802 119.149605l176.69904 83.59472" fill-rule="evenodd"></path><path fill="#4a86e8" stroke="#4a86e8" stroke-width="4.0" stroke-linecap="butt" d="m237.44838 208.71661l19.234207 1.7905426l-13.583328 -13.735138z" fill-rule="evenodd"></path></g></svg>

