<?xml version="1.0" encoding="utf-8" standalone="no"?>
<!DOCTYPE svg PUBLIC "-//W3C//DTD SVG 1.1//EN"
  "http://www.w3.org/Graphics/SVG/1.1/DTD/svg11.dtd">
<!-- Created with matplotlib (http://matplotlib.org/) -->
<svg height="425pt" version="1.1" viewBox="0 0 643 425" width="643pt" xmlns="http://www.w3.org/2000/svg" xmlns:xlink="http://www.w3.org/1999/xlink">
 <defs>
  <style type="text/css">
*{stroke-linecap:butt;stroke-linejoin:round;stroke-miterlimit:100000;}
  </style>
 </defs>
 <g id="figure_1">
  <g id="patch_1">
   <path d="M 0 425.229375 
L 643.428594 425.229375 
L 643.428594 0 
L 0 0 
z
" style="fill:#ffffff;"/>
  </g>
  <g id="axes_1">
   <g id="patch_2">
    <path d="M 104.294219 401.884063 
L 272.912969 401.884063 
L 272.912969 20.935625 
L 104.294219 20.935625 
z
" style="fill:#ffffff;"/>
   </g>
   <g id="matplotlib.axis_1">
    <g id="xtick_1">
     <g id="line2d_1">
      <path clip-path="url(#p2edc6c6ec9)" d="M 104.294219 401.884063 
L 104.294219 20.935625 
" style="fill:none;stroke:#cccccc;stroke-linecap:round;"/>
     </g>
     <g id="line2d_2">
      <defs>
       <path d="M 0 0 
L 0 0 
" id="m74bbf9f9b9" style="stroke:#262626;"/>
      </defs>
      <g>
       <use style="fill:#262626;stroke:#262626;" x="104.29421875" xlink:href="#m74bbf9f9b9" y="401.8840625"/>
      </g>
     </g>
     <g id="line2d_3">
      <g>
       <use style="fill:#262626;stroke:#262626;" x="104.29421875" xlink:href="#m74bbf9f9b9" y="20.935625"/>
      </g>
     </g>
     <g id="text_1">
      <!-- 0 -->
      <defs>
       <path d="M 4.15625 35.296875 
Q 4.15625 48 6.765625 55.734375 
Q 9.375 63.484375 14.515625 67.671875 
Q 19.671875 71.875 27.484375 71.875 
Q 33.25 71.875 37.59375 69.546875 
Q 41.9375 67.234375 44.765625 62.859375 
Q 47.609375 58.5 49.21875 52.21875 
Q 50.828125 45.953125 50.828125 35.296875 
Q 50.828125 22.703125 48.234375 14.96875 
Q 45.65625 7.234375 40.5 3 
Q 35.359375 -1.21875 27.484375 -1.21875 
Q 17.140625 -1.21875 11.234375 6.203125 
Q 4.15625 15.140625 4.15625 35.296875 
M 13.1875 35.296875 
Q 13.1875 17.671875 17.3125 11.828125 
Q 21.4375 6 27.484375 6 
Q 33.546875 6 37.671875 11.859375 
Q 41.796875 17.71875 41.796875 35.296875 
Q 41.796875 52.984375 37.671875 58.78125 
Q 33.546875 64.59375 27.390625 64.59375 
Q 21.34375 64.59375 17.71875 59.46875 
Q 13.1875 52.9375 13.1875 35.296875 
" id="ArialMT-30"/>
      </defs>
      <g style="fill:#262626;" transform="translate(101.51375 416.041875)scale(0.1 -0.1)">
       <use xlink:href="#ArialMT-30"/>
      </g>
     </g>
    </g>
    <g id="xtick_2">
     <g id="line2d_4">
      <path clip-path="url(#p2edc6c6ec9)" d="M 138.017969 401.884063 
L 138.017969 20.935625 
" style="fill:none;stroke:#cccccc;stroke-linecap:round;"/>
     </g>
     <g id="line2d_5">
      <g>
       <use style="fill:#262626;stroke:#262626;" x="138.01796875" xlink:href="#m74bbf9f9b9" y="401.8840625"/>
      </g>
     </g>
     <g id="line2d_6">
      <g>
       <use style="fill:#262626;stroke:#262626;" x="138.01796875" xlink:href="#m74bbf9f9b9" y="20.935625"/>
      </g>
     </g>
     <g id="text_2">
      <!-- 20 -->
      <defs>
       <path d="M 50.34375 8.453125 
L 50.34375 0 
L 3.03125 0 
Q 2.9375 3.171875 4.046875 6.109375 
Q 5.859375 10.9375 9.828125 15.625 
Q 13.8125 20.3125 21.34375 26.46875 
Q 33.015625 36.03125 37.109375 41.625 
Q 41.21875 47.21875 41.21875 52.203125 
Q 41.21875 57.421875 37.46875 61 
Q 33.734375 64.59375 27.734375 64.59375 
Q 21.390625 64.59375 17.578125 60.78125 
Q 13.765625 56.984375 13.71875 50.25 
L 4.6875 51.171875 
Q 5.609375 61.28125 11.65625 66.578125 
Q 17.71875 71.875 27.9375 71.875 
Q 38.234375 71.875 44.234375 66.15625 
Q 50.25 60.453125 50.25 52 
Q 50.25 47.703125 48.484375 43.546875 
Q 46.734375 39.40625 42.65625 34.8125 
Q 38.578125 30.21875 29.109375 22.21875 
Q 21.1875 15.578125 18.9375 13.203125 
Q 16.703125 10.84375 15.234375 8.453125 
z
" id="ArialMT-32"/>
      </defs>
      <g style="fill:#262626;" transform="translate(132.45703125 416.041875)scale(0.1 -0.1)">
       <use xlink:href="#ArialMT-32"/>
       <use x="55.615234375" xlink:href="#ArialMT-30"/>
      </g>
     </g>
    </g>
    <g id="xtick_3">
     <g id="line2d_7">
      <path clip-path="url(#p2edc6c6ec9)" d="M 171.741719 401.884063 
L 171.741719 20.935625 
" style="fill:none;stroke:#cccccc;stroke-linecap:round;"/>
     </g>
     <g id="line2d_8">
      <g>
       <use style="fill:#262626;stroke:#262626;" x="171.74171875" xlink:href="#m74bbf9f9b9" y="401.8840625"/>
      </g>
     </g>
     <g id="line2d_9">
      <g>
       <use style="fill:#262626;stroke:#262626;" x="171.74171875" xlink:href="#m74bbf9f9b9" y="20.935625"/>
      </g>
     </g>
     <g id="text_3">
      <!-- 40 -->
      <defs>
       <path d="M 32.328125 0 
L 32.328125 17.140625 
L 1.265625 17.140625 
L 1.265625 25.203125 
L 33.9375 71.578125 
L 41.109375 71.578125 
L 41.109375 25.203125 
L 50.78125 25.203125 
L 50.78125 17.140625 
L 41.109375 17.140625 
L 41.109375 0 
z
M 32.328125 25.203125 
L 32.328125 57.46875 
L 9.90625 25.203125 
z
" id="ArialMT-34"/>
      </defs>
      <g style="fill:#262626;" transform="translate(166.18078125 416.041875)scale(0.1 -0.1)">
       <use xlink:href="#ArialMT-34"/>
       <use x="55.615234375" xlink:href="#ArialMT-30"/>
      </g>
     </g>
    </g>
    <g id="xtick_4">
     <g id="line2d_10">
      <path clip-path="url(#p2edc6c6ec9)" d="M 205.465469 401.884063 
L 205.465469 20.935625 
" style="fill:none;stroke:#cccccc;stroke-linecap:round;"/>
     </g>
     <g id="line2d_11">
      <g>
       <use style="fill:#262626;stroke:#262626;" x="205.46546875" xlink:href="#m74bbf9f9b9" y="401.8840625"/>
      </g>
     </g>
     <g id="line2d_12">
      <g>
       <use style="fill:#262626;stroke:#262626;" x="205.46546875" xlink:href="#m74bbf9f9b9" y="20.935625"/>
      </g>
     </g>
     <g id="text_4">
      <!-- 60 -->
      <defs>
       <path d="M 49.75 54.046875 
L 41.015625 53.375 
Q 39.84375 58.546875 37.703125 60.890625 
Q 34.125 64.65625 28.90625 64.65625 
Q 24.703125 64.65625 21.53125 62.3125 
Q 17.390625 59.28125 14.984375 53.46875 
Q 12.59375 47.65625 12.5 36.921875 
Q 15.671875 41.75 20.265625 44.09375 
Q 24.859375 46.4375 29.890625 46.4375 
Q 38.671875 46.4375 44.84375 39.96875 
Q 51.03125 33.5 51.03125 23.25 
Q 51.03125 16.5 48.125 10.71875 
Q 45.21875 4.9375 40.140625 1.859375 
Q 35.0625 -1.21875 28.609375 -1.21875 
Q 17.625 -1.21875 10.6875 6.859375 
Q 3.765625 14.9375 3.765625 33.5 
Q 3.765625 54.25 11.421875 63.671875 
Q 18.109375 71.875 29.4375 71.875 
Q 37.890625 71.875 43.28125 67.140625 
Q 48.6875 62.40625 49.75 54.046875 
M 13.875 23.1875 
Q 13.875 18.65625 15.796875 14.5 
Q 17.71875 10.359375 21.1875 8.171875 
Q 24.65625 6 28.46875 6 
Q 34.03125 6 38.03125 10.484375 
Q 42.046875 14.984375 42.046875 22.703125 
Q 42.046875 30.125 38.078125 34.390625 
Q 34.125 38.671875 28.125 38.671875 
Q 22.171875 38.671875 18.015625 34.390625 
Q 13.875 30.125 13.875 23.1875 
" id="ArialMT-36"/>
      </defs>
      <g style="fill:#262626;" transform="translate(199.90453125 416.041875)scale(0.1 -0.1)">
       <use xlink:href="#ArialMT-36"/>
       <use x="55.615234375" xlink:href="#ArialMT-30"/>
      </g>
     </g>
    </g>
    <g id="xtick_5">
     <g id="line2d_13">
      <path clip-path="url(#p2edc6c6ec9)" d="M 239.189219 401.884063 
L 239.189219 20.935625 
" style="fill:none;stroke:#cccccc;stroke-linecap:round;"/>
     </g>
     <g id="line2d_14">
      <g>
       <use style="fill:#262626;stroke:#262626;" x="239.18921875" xlink:href="#m74bbf9f9b9" y="401.8840625"/>
      </g>
     </g>
     <g id="line2d_15">
      <g>
       <use style="fill:#262626;stroke:#262626;" x="239.18921875" xlink:href="#m74bbf9f9b9" y="20.935625"/>
      </g>
     </g>
     <g id="text_5">
      <!-- 80 -->
      <defs>
       <path d="M 17.671875 38.8125 
Q 12.203125 40.828125 9.5625 44.53125 
Q 6.9375 48.25 6.9375 53.421875 
Q 6.9375 61.234375 12.546875 66.546875 
Q 18.171875 71.875 27.484375 71.875 
Q 36.859375 71.875 42.578125 66.421875 
Q 48.296875 60.984375 48.296875 53.171875 
Q 48.296875 48.1875 45.671875 44.5 
Q 43.0625 40.828125 37.75 38.8125 
Q 44.34375 36.671875 47.78125 31.875 
Q 51.21875 27.09375 51.21875 20.453125 
Q 51.21875 11.28125 44.71875 5.03125 
Q 38.234375 -1.21875 27.640625 -1.21875 
Q 17.046875 -1.21875 10.546875 5.046875 
Q 4.046875 11.328125 4.046875 20.703125 
Q 4.046875 27.6875 7.59375 32.390625 
Q 11.140625 37.109375 17.671875 38.8125 
M 15.921875 53.71875 
Q 15.921875 48.640625 19.1875 45.40625 
Q 22.46875 42.1875 27.6875 42.1875 
Q 32.765625 42.1875 36.015625 45.375 
Q 39.265625 48.578125 39.265625 53.21875 
Q 39.265625 58.0625 35.90625 61.359375 
Q 32.5625 64.65625 27.59375 64.65625 
Q 22.5625 64.65625 19.234375 61.421875 
Q 15.921875 58.203125 15.921875 53.71875 
M 13.09375 20.65625 
Q 13.09375 16.890625 14.875 13.375 
Q 16.65625 9.859375 20.171875 7.921875 
Q 23.6875 6 27.734375 6 
Q 34.03125 6 38.125 10.046875 
Q 42.234375 14.109375 42.234375 20.359375 
Q 42.234375 26.703125 38.015625 30.859375 
Q 33.796875 35.015625 27.4375 35.015625 
Q 21.234375 35.015625 17.15625 30.90625 
Q 13.09375 26.8125 13.09375 20.65625 
" id="ArialMT-38"/>
      </defs>
      <g style="fill:#262626;" transform="translate(233.62828125 416.041875)scale(0.1 -0.1)">
       <use xlink:href="#ArialMT-38"/>
       <use x="55.615234375" xlink:href="#ArialMT-30"/>
      </g>
     </g>
    </g>
    <g id="xtick_6">
     <g id="line2d_16">
      <path clip-path="url(#p2edc6c6ec9)" d="M 272.912969 401.884063 
L 272.912969 20.935625 
" style="fill:none;stroke:#cccccc;stroke-linecap:round;"/>
     </g>
     <g id="line2d_17">
      <g>
       <use style="fill:#262626;stroke:#262626;" x="272.91296875" xlink:href="#m74bbf9f9b9" y="401.8840625"/>
      </g>
     </g>
     <g id="line2d_18">
      <g>
       <use style="fill:#262626;stroke:#262626;" x="272.91296875" xlink:href="#m74bbf9f9b9" y="20.935625"/>
      </g>
     </g>
     <g id="text_6">
      <!-- 100 -->
      <defs>
       <path d="M 37.25 0 
L 28.46875 0 
L 28.46875 56 
Q 25.296875 52.984375 20.140625 49.953125 
Q 14.984375 46.921875 10.890625 45.40625 
L 10.890625 53.90625 
Q 18.265625 57.375 23.78125 62.296875 
Q 29.296875 67.234375 31.59375 71.875 
L 37.25 71.875 
z
" id="ArialMT-31"/>
      </defs>
      <g style="fill:#262626;" transform="translate(264.5715625 416.041875)scale(0.1 -0.1)">
       <use xlink:href="#ArialMT-31"/>
       <use x="55.615234375" xlink:href="#ArialMT-30"/>
       <use x="111.23046875" xlink:href="#ArialMT-30"/>
      </g>
     </g>
    </g>
   </g>
   <g id="matplotlib.axis_2">
    <g id="ytick_1">
     <g id="line2d_19">
      <g>
       <use style="fill:#262626;stroke:#262626;" x="104.29421875" xlink:href="#m74bbf9f9b9" y="36.8084765625"/>
      </g>
     </g>
     <g id="line2d_20">
      <g>
       <use style="fill:#262626;stroke:#262626;" x="272.91296875" xlink:href="#m74bbf9f9b9" y="36.8084765625"/>
      </g>
     </g>
     <g id="text_7">
      <!-- amazon -->
      <defs>
       <path d="M 40.4375 6.390625 
Q 35.546875 2.25 31.03125 0.53125 
Q 26.515625 -1.171875 21.34375 -1.171875 
Q 12.796875 -1.171875 8.203125 3 
Q 3.609375 7.171875 3.609375 13.671875 
Q 3.609375 17.484375 5.34375 20.625 
Q 7.078125 23.78125 9.890625 25.6875 
Q 12.703125 27.59375 16.21875 28.5625 
Q 18.796875 29.25 24.03125 29.890625 
Q 34.671875 31.15625 39.703125 32.90625 
Q 39.75 34.71875 39.75 35.203125 
Q 39.75 40.578125 37.25 42.78125 
Q 33.890625 45.75 27.25 45.75 
Q 21.046875 45.75 18.09375 43.578125 
Q 15.140625 41.40625 13.71875 35.890625 
L 5.125 37.0625 
Q 6.296875 42.578125 8.984375 45.96875 
Q 11.671875 49.359375 16.75 51.1875 
Q 21.828125 53.03125 28.515625 53.03125 
Q 35.15625 53.03125 39.296875 51.46875 
Q 43.453125 49.90625 45.40625 47.53125 
Q 47.359375 45.171875 48.140625 41.546875 
Q 48.578125 39.3125 48.578125 33.453125 
L 48.578125 21.734375 
Q 48.578125 9.46875 49.140625 6.21875 
Q 49.703125 2.984375 51.375 0 
L 42.1875 0 
Q 40.828125 2.734375 40.4375 6.390625 
M 39.703125 26.03125 
Q 34.90625 24.078125 25.34375 22.703125 
Q 19.921875 21.921875 17.671875 20.9375 
Q 15.4375 19.96875 14.203125 18.09375 
Q 12.984375 16.21875 12.984375 13.921875 
Q 12.984375 10.40625 15.640625 8.0625 
Q 18.3125 5.71875 23.4375 5.71875 
Q 28.515625 5.71875 32.46875 7.9375 
Q 36.421875 10.15625 38.28125 14.015625 
Q 39.703125 17 39.703125 22.796875 
z
" id="ArialMT-61"/>
       <path d="M 3.328125 25.921875 
Q 3.328125 40.328125 11.328125 47.265625 
Q 18.015625 53.03125 27.640625 53.03125 
Q 38.328125 53.03125 45.109375 46.015625 
Q 51.90625 39.015625 51.90625 26.65625 
Q 51.90625 16.65625 48.90625 10.90625 
Q 45.90625 5.171875 40.15625 2 
Q 34.421875 -1.171875 27.640625 -1.171875 
Q 16.75 -1.171875 10.03125 5.8125 
Q 3.328125 12.796875 3.328125 25.921875 
M 12.359375 25.921875 
Q 12.359375 15.96875 16.703125 11.015625 
Q 21.046875 6.0625 27.640625 6.0625 
Q 34.1875 6.0625 38.53125 11.03125 
Q 42.875 16.015625 42.875 26.21875 
Q 42.875 35.84375 38.5 40.796875 
Q 34.125 45.75 27.640625 45.75 
Q 21.046875 45.75 16.703125 40.8125 
Q 12.359375 35.890625 12.359375 25.921875 
" id="ArialMT-6f"/>
       <path d="M 6.59375 0 
L 6.59375 51.859375 
L 14.5 51.859375 
L 14.5 44.484375 
Q 20.21875 53.03125 31 53.03125 
Q 35.6875 53.03125 39.625 51.34375 
Q 43.5625 49.65625 45.515625 46.921875 
Q 47.46875 44.1875 48.25 40.4375 
Q 48.734375 37.984375 48.734375 31.890625 
L 48.734375 0 
L 39.9375 0 
L 39.9375 31.546875 
Q 39.9375 36.921875 38.90625 39.578125 
Q 37.890625 42.234375 35.28125 43.8125 
Q 32.671875 45.40625 29.15625 45.40625 
Q 23.53125 45.40625 19.453125 41.84375 
Q 15.375 38.28125 15.375 28.328125 
L 15.375 0 
z
" id="ArialMT-6e"/>
       <path d="M 6.59375 0 
L 6.59375 51.859375 
L 14.453125 51.859375 
L 14.453125 44.578125 
Q 16.890625 48.390625 20.9375 50.703125 
Q 25 53.03125 30.171875 53.03125 
Q 35.9375 53.03125 39.625 50.640625 
Q 43.3125 48.25 44.828125 43.953125 
Q 50.984375 53.03125 60.84375 53.03125 
Q 68.5625 53.03125 72.703125 48.75 
Q 76.859375 44.484375 76.859375 35.59375 
L 76.859375 0 
L 68.109375 0 
L 68.109375 32.671875 
Q 68.109375 37.9375 67.25 40.25 
Q 66.40625 42.578125 64.15625 43.984375 
Q 61.921875 45.40625 58.890625 45.40625 
Q 53.421875 45.40625 49.796875 41.765625 
Q 46.1875 38.140625 46.1875 30.125 
L 46.1875 0 
L 37.40625 0 
L 37.40625 33.6875 
Q 37.40625 39.546875 35.25 42.46875 
Q 33.109375 45.40625 28.21875 45.40625 
Q 24.515625 45.40625 21.359375 43.453125 
Q 18.21875 41.5 16.796875 37.734375 
Q 15.375 33.984375 15.375 26.90625 
L 15.375 0 
z
" id="ArialMT-6d"/>
       <path d="M 1.953125 0 
L 1.953125 7.125 
L 34.96875 45.015625 
Q 29.34375 44.734375 25.046875 44.734375 
L 3.90625 44.734375 
L 3.90625 51.859375 
L 46.296875 51.859375 
L 46.296875 46.046875 
L 18.21875 13.140625 
L 12.796875 7.125 
Q 18.703125 7.5625 23.875 7.5625 
L 47.859375 7.5625 
L 47.859375 0 
z
" id="ArialMT-7a"/>
      </defs>
      <g style="fill:#262626;" transform="translate(61.72078125 39.3936328125)scale(0.1 -0.1)">
       <use xlink:href="#ArialMT-61"/>
       <use x="55.615234375" xlink:href="#ArialMT-6d"/>
       <use x="138.916015625" xlink:href="#ArialMT-61"/>
       <use x="194.53125" xlink:href="#ArialMT-7a"/>
       <use x="244.53125" xlink:href="#ArialMT-6f"/>
       <use x="300.146484375" xlink:href="#ArialMT-6e"/>
      </g>
     </g>
    </g>
    <g id="ytick_2">
     <g id="line2d_21">
      <g>
       <use style="fill:#262626;stroke:#262626;" x="104.29421875" xlink:href="#m74bbf9f9b9" y="68.5541796875"/>
      </g>
     </g>
     <g id="line2d_22">
      <g>
       <use style="fill:#262626;stroke:#262626;" x="272.91296875" xlink:href="#m74bbf9f9b9" y="68.5541796875"/>
      </g>
     </g>
     <g id="text_8">
      <!-- discovery -->
      <defs>
       <path d="M 3.078125 15.484375 
L 11.765625 16.84375 
Q 12.5 11.625 15.84375 8.84375 
Q 19.1875 6.0625 25.203125 6.0625 
Q 31.25 6.0625 34.171875 8.515625 
Q 37.109375 10.984375 37.109375 14.3125 
Q 37.109375 17.28125 34.515625 19 
Q 32.71875 20.171875 25.53125 21.96875 
Q 15.875 24.421875 12.140625 26.203125 
Q 8.40625 27.984375 6.46875 31.125 
Q 4.546875 34.28125 4.546875 38.09375 
Q 4.546875 41.546875 6.125 44.5 
Q 7.71875 47.46875 10.453125 49.421875 
Q 12.5 50.921875 16.03125 51.96875 
Q 19.578125 53.03125 23.640625 53.03125 
Q 29.734375 53.03125 34.34375 51.265625 
Q 38.96875 49.515625 41.15625 46.5 
Q 43.359375 43.5 44.1875 38.484375 
L 35.59375 37.3125 
Q 35.015625 41.3125 32.203125 43.546875 
Q 29.390625 45.796875 24.265625 45.796875 
Q 18.21875 45.796875 15.625 43.796875 
Q 13.03125 41.796875 13.03125 39.109375 
Q 13.03125 37.40625 14.109375 36.03125 
Q 15.1875 34.625 17.484375 33.6875 
Q 18.796875 33.203125 25.25 31.453125 
Q 34.578125 28.953125 38.25 27.359375 
Q 41.9375 25.78125 44.03125 22.75 
Q 46.140625 19.734375 46.140625 15.234375 
Q 46.140625 10.84375 43.578125 6.953125 
Q 41.015625 3.078125 36.171875 0.953125 
Q 31.34375 -1.171875 25.25 -1.171875 
Q 15.140625 -1.171875 9.84375 3.03125 
Q 4.546875 7.234375 3.078125 15.484375 
" id="ArialMT-73"/>
       <path d="M 40.234375 0 
L 40.234375 6.546875 
Q 35.296875 -1.171875 25.734375 -1.171875 
Q 19.53125 -1.171875 14.328125 2.25 
Q 9.125 5.671875 6.265625 11.796875 
Q 3.421875 17.921875 3.421875 25.875 
Q 3.421875 33.640625 6 39.96875 
Q 8.59375 46.296875 13.765625 49.65625 
Q 18.953125 53.03125 25.34375 53.03125 
Q 30.03125 53.03125 33.6875 51.046875 
Q 37.359375 49.078125 39.65625 45.90625 
L 39.65625 71.578125 
L 48.390625 71.578125 
L 48.390625 0 
z
M 12.453125 25.875 
Q 12.453125 15.921875 16.640625 10.984375 
Q 20.84375 6.0625 26.5625 6.0625 
Q 32.328125 6.0625 36.34375 10.765625 
Q 40.375 15.484375 40.375 25.140625 
Q 40.375 35.796875 36.265625 40.765625 
Q 32.171875 45.75 26.171875 45.75 
Q 20.3125 45.75 16.375 40.96875 
Q 12.453125 36.1875 12.453125 25.875 
" id="ArialMT-64"/>
       <path d="M 6.640625 61.46875 
L 6.640625 71.578125 
L 15.4375 71.578125 
L 15.4375 61.46875 
z
M 6.640625 0 
L 6.640625 51.859375 
L 15.4375 51.859375 
L 15.4375 0 
z
" id="ArialMT-69"/>
       <path d="M 42.09375 16.703125 
L 51.171875 15.578125 
Q 49.03125 7.625 43.21875 3.21875 
Q 37.40625 -1.171875 28.375 -1.171875 
Q 17 -1.171875 10.328125 5.828125 
Q 3.65625 12.84375 3.65625 25.484375 
Q 3.65625 38.578125 10.390625 45.796875 
Q 17.140625 53.03125 27.875 53.03125 
Q 38.28125 53.03125 44.875 45.953125 
Q 51.46875 38.875 51.46875 26.03125 
Q 51.46875 25.25 51.421875 23.6875 
L 12.75 23.6875 
Q 13.234375 15.140625 17.578125 10.59375 
Q 21.921875 6.0625 28.421875 6.0625 
Q 33.25 6.0625 36.671875 8.59375 
Q 40.09375 11.140625 42.09375 16.703125 
M 13.234375 30.90625 
L 42.1875 30.90625 
Q 41.609375 37.453125 38.875 40.71875 
Q 34.671875 45.796875 27.984375 45.796875 
Q 21.921875 45.796875 17.796875 41.75 
Q 13.671875 37.703125 13.234375 30.90625 
" id="ArialMT-65"/>
       <path d="M 21 0 
L 1.265625 51.859375 
L 10.546875 51.859375 
L 21.6875 20.796875 
Q 23.484375 15.765625 25 10.359375 
Q 26.171875 14.453125 28.265625 20.21875 
L 39.796875 51.859375 
L 48.828125 51.859375 
L 29.203125 0 
z
" id="ArialMT-76"/>
       <path d="M 40.4375 19 
L 49.078125 17.875 
Q 47.65625 8.9375 41.8125 3.875 
Q 35.984375 -1.171875 27.484375 -1.171875 
Q 16.84375 -1.171875 10.375 5.78125 
Q 3.90625 12.75 3.90625 25.734375 
Q 3.90625 34.125 6.6875 40.421875 
Q 9.46875 46.734375 15.15625 49.875 
Q 20.84375 53.03125 27.546875 53.03125 
Q 35.984375 53.03125 41.359375 48.75 
Q 46.734375 44.484375 48.25 36.625 
L 39.703125 35.296875 
Q 38.484375 40.53125 35.375 43.15625 
Q 32.28125 45.796875 27.875 45.796875 
Q 21.234375 45.796875 17.078125 41.03125 
Q 12.9375 36.28125 12.9375 25.984375 
Q 12.9375 15.53125 16.9375 10.796875 
Q 20.953125 6.0625 27.390625 6.0625 
Q 32.5625 6.0625 36.03125 9.234375 
Q 39.5 12.40625 40.4375 19 
" id="ArialMT-63"/>
       <path d="M 6.5 0 
L 6.5 51.859375 
L 14.40625 51.859375 
L 14.40625 44 
Q 17.4375 49.515625 20 51.265625 
Q 22.5625 53.03125 25.640625 53.03125 
Q 30.078125 53.03125 34.671875 50.203125 
L 31.640625 42.046875 
Q 28.421875 43.953125 25.203125 43.953125 
Q 22.3125 43.953125 20.015625 42.21875 
Q 17.71875 40.484375 16.75 37.40625 
Q 15.28125 32.71875 15.28125 27.15625 
L 15.28125 0 
z
" id="ArialMT-72"/>
       <path d="M 6.203125 -19.96875 
L 5.21875 -11.71875 
Q 8.109375 -12.5 10.25 -12.5 
Q 13.1875 -12.5 14.9375 -11.515625 
Q 16.703125 -10.546875 17.828125 -8.796875 
Q 18.65625 -7.46875 20.515625 -2.25 
Q 20.75 -1.515625 21.296875 -0.09375 
L 1.609375 51.859375 
L 11.078125 51.859375 
L 21.875 21.828125 
Q 23.96875 16.109375 25.640625 9.8125 
Q 27.15625 15.875 29.25 21.625 
L 40.328125 51.859375 
L 49.125 51.859375 
L 29.390625 -0.875 
Q 26.21875 -9.421875 24.46875 -12.640625 
Q 22.125 -17 19.09375 -19.015625 
Q 16.0625 -21.046875 11.859375 -21.046875 
Q 9.328125 -21.046875 6.203125 -19.96875 
" id="ArialMT-79"/>
      </defs>
      <g style="fill:#262626;" transform="translate(55.05984375 71.0807421875)scale(0.1 -0.1)">
       <use xlink:href="#ArialMT-64"/>
       <use x="55.615234375" xlink:href="#ArialMT-69"/>
       <use x="77.83203125" xlink:href="#ArialMT-73"/>
       <use x="127.83203125" xlink:href="#ArialMT-63"/>
       <use x="177.83203125" xlink:href="#ArialMT-6f"/>
       <use x="233.447265625" xlink:href="#ArialMT-76"/>
       <use x="283.447265625" xlink:href="#ArialMT-65"/>
       <use x="339.0625" xlink:href="#ArialMT-72"/>
       <use x="372.36328125" xlink:href="#ArialMT-79"/>
      </g>
     </g>
    </g>
    <g id="ytick_3">
     <g id="line2d_23">
      <g>
       <use style="fill:#262626;stroke:#262626;" x="104.29421875" xlink:href="#m74bbf9f9b9" y="100.299882813"/>
      </g>
     </g>
     <g id="line2d_24">
      <g>
       <use style="fill:#262626;stroke:#262626;" x="272.91296875" xlink:href="#m74bbf9f9b9" y="100.299882813"/>
      </g>
     </g>
     <g id="text_9">
      <!-- ebates -->
      <defs>
       <path d="M 14.703125 0 
L 6.546875 0 
L 6.546875 71.578125 
L 15.328125 71.578125 
L 15.328125 46.046875 
Q 20.90625 53.03125 29.546875 53.03125 
Q 34.328125 53.03125 38.59375 51.09375 
Q 42.875 49.171875 45.625 45.671875 
Q 48.390625 42.1875 49.953125 37.25 
Q 51.515625 32.328125 51.515625 26.703125 
Q 51.515625 13.375 44.921875 6.09375 
Q 38.328125 -1.171875 29.109375 -1.171875 
Q 19.921875 -1.171875 14.703125 6.5 
z
M 14.59375 26.3125 
Q 14.59375 17 17.140625 12.84375 
Q 21.296875 6.0625 28.375 6.0625 
Q 34.125 6.0625 38.328125 11.0625 
Q 42.53125 16.0625 42.53125 25.984375 
Q 42.53125 36.140625 38.5 40.96875 
Q 34.46875 45.796875 28.765625 45.796875 
Q 23 45.796875 18.796875 40.796875 
Q 14.59375 35.796875 14.59375 26.3125 
" id="ArialMT-62"/>
       <path d="M 25.78125 7.859375 
L 27.046875 0.09375 
Q 23.34375 -0.6875 20.40625 -0.6875 
Q 15.625 -0.6875 12.984375 0.828125 
Q 10.359375 2.34375 9.28125 4.8125 
Q 8.203125 7.28125 8.203125 15.1875 
L 8.203125 45.015625 
L 1.765625 45.015625 
L 1.765625 51.859375 
L 8.203125 51.859375 
L 8.203125 64.703125 
L 16.9375 69.96875 
L 16.9375 51.859375 
L 25.78125 51.859375 
L 25.78125 45.015625 
L 16.9375 45.015625 
L 16.9375 14.703125 
Q 16.9375 10.9375 17.40625 9.859375 
Q 17.875 8.796875 18.921875 8.15625 
Q 19.96875 7.515625 21.921875 7.515625 
Q 23.390625 7.515625 25.78125 7.859375 
" id="ArialMT-74"/>
      </defs>
      <g style="fill:#262626;" transform="translate(67.27234375 102.885039063)scale(0.1 -0.1)">
       <use xlink:href="#ArialMT-65"/>
       <use x="55.615234375" xlink:href="#ArialMT-62"/>
       <use x="111.23046875" xlink:href="#ArialMT-61"/>
       <use x="166.845703125" xlink:href="#ArialMT-74"/>
       <use x="194.62890625" xlink:href="#ArialMT-65"/>
       <use x="250.244140625" xlink:href="#ArialMT-73"/>
      </g>
     </g>
    </g>
    <g id="ytick_4">
     <g id="line2d_25">
      <g>
       <use style="fill:#262626;stroke:#262626;" x="104.29421875" xlink:href="#m74bbf9f9b9" y="132.045585938"/>
      </g>
     </g>
     <g id="line2d_26">
      <g>
       <use style="fill:#262626;stroke:#262626;" x="272.91296875" xlink:href="#m74bbf9f9b9" y="132.045585938"/>
      </g>
     </g>
     <g id="text_10">
      <!-- facebook -->
      <defs>
       <path d="M 6.640625 0 
L 6.640625 71.578125 
L 15.4375 71.578125 
L 15.4375 30.765625 
L 36.234375 51.859375 
L 47.609375 51.859375 
L 27.78125 32.625 
L 49.609375 0 
L 38.765625 0 
L 21.625 26.515625 
L 15.4375 20.5625 
L 15.4375 0 
z
" id="ArialMT-6b"/>
       <path d="M 8.6875 0 
L 8.6875 45.015625 
L 0.921875 45.015625 
L 0.921875 51.859375 
L 8.6875 51.859375 
L 8.6875 57.375 
Q 8.6875 62.59375 9.625 65.140625 
Q 10.890625 68.5625 14.078125 70.671875 
Q 17.28125 72.796875 23.046875 72.796875 
Q 26.765625 72.796875 31.25 71.921875 
L 29.9375 64.265625 
Q 27.203125 64.75 24.75 64.75 
Q 20.75 64.75 19.09375 63.03125 
Q 17.4375 61.328125 17.4375 56.640625 
L 17.4375 51.859375 
L 27.546875 51.859375 
L 27.546875 45.015625 
L 17.4375 45.015625 
L 17.4375 0 
z
" id="ArialMT-66"/>
      </defs>
      <g style="fill:#262626;" transform="translate(56.71140625 134.630742188)scale(0.1 -0.1)">
       <use xlink:href="#ArialMT-66"/>
       <use x="27.783203125" xlink:href="#ArialMT-61"/>
       <use x="83.3984375" xlink:href="#ArialMT-63"/>
       <use x="133.3984375" xlink:href="#ArialMT-65"/>
       <use x="189.013671875" xlink:href="#ArialMT-62"/>
       <use x="244.62890625" xlink:href="#ArialMT-6f"/>
       <use x="300.244140625" xlink:href="#ArialMT-6f"/>
       <use x="355.859375" xlink:href="#ArialMT-6b"/>
      </g>
     </g>
    </g>
    <g id="ytick_5">
     <g id="line2d_27">
      <g>
       <use style="fill:#262626;stroke:#262626;" x="104.29421875" xlink:href="#m74bbf9f9b9" y="163.791289063"/>
      </g>
     </g>
     <g id="line2d_28">
      <g>
       <use style="fill:#262626;stroke:#262626;" x="272.91296875" xlink:href="#m74bbf9f9b9" y="163.791289063"/>
      </g>
     </g>
     <g id="text_11">
      <!-- fitness magazine -->
      <defs>
       <path id="ArialMT-20"/>
       <path d="M 4.984375 -4.296875 
L 13.53125 -5.5625 
Q 14.0625 -9.515625 16.5 -11.328125 
Q 19.78125 -13.765625 25.4375 -13.765625 
Q 31.546875 -13.765625 34.859375 -11.328125 
Q 38.1875 -8.890625 39.359375 -4.5 
Q 40.046875 -1.8125 39.984375 6.78125 
Q 34.234375 0 25.640625 0 
Q 14.9375 0 9.078125 7.71875 
Q 3.21875 15.4375 3.21875 26.21875 
Q 3.21875 33.640625 5.90625 39.90625 
Q 8.59375 46.1875 13.6875 49.609375 
Q 18.796875 53.03125 25.6875 53.03125 
Q 34.859375 53.03125 40.828125 45.609375 
L 40.828125 51.859375 
L 48.921875 51.859375 
L 48.921875 7.03125 
Q 48.921875 -5.078125 46.453125 -10.125 
Q 44 -15.1875 38.640625 -18.109375 
Q 33.296875 -21.046875 25.484375 -21.046875 
Q 16.21875 -21.046875 10.5 -16.875 
Q 4.78125 -12.703125 4.984375 -4.296875 
M 12.25 26.859375 
Q 12.25 16.65625 16.296875 11.96875 
Q 20.359375 7.28125 26.46875 7.28125 
Q 32.515625 7.28125 36.609375 11.9375 
Q 40.71875 16.609375 40.71875 26.5625 
Q 40.71875 36.078125 36.5 40.90625 
Q 32.28125 45.75 26.3125 45.75 
Q 20.453125 45.75 16.34375 40.984375 
Q 12.25 36.234375 12.25 26.859375 
" id="ArialMT-67"/>
      </defs>
      <g style="fill:#262626;" transform="translate(22.25984375 166.378789063)scale(0.1 -0.1)">
       <use xlink:href="#ArialMT-66"/>
       <use x="27.783203125" xlink:href="#ArialMT-69"/>
       <use x="50.0" xlink:href="#ArialMT-74"/>
       <use x="77.783203125" xlink:href="#ArialMT-6e"/>
       <use x="133.3984375" xlink:href="#ArialMT-65"/>
       <use x="189.013671875" xlink:href="#ArialMT-73"/>
       <use x="239.013671875" xlink:href="#ArialMT-73"/>
       <use x="289.013671875" xlink:href="#ArialMT-20"/>
       <use x="316.796875" xlink:href="#ArialMT-6d"/>
       <use x="400.09765625" xlink:href="#ArialMT-61"/>
       <use x="455.712890625" xlink:href="#ArialMT-67"/>
       <use x="511.328125" xlink:href="#ArialMT-61"/>
       <use x="566.943359375" xlink:href="#ArialMT-7a"/>
       <use x="616.943359375" xlink:href="#ArialMT-69"/>
       <use x="639.16015625" xlink:href="#ArialMT-6e"/>
       <use x="694.775390625" xlink:href="#ArialMT-65"/>
      </g>
     </g>
    </g>
    <g id="ytick_6">
     <g id="line2d_29">
      <g>
       <use style="fill:#262626;stroke:#262626;" x="104.29421875" xlink:href="#m74bbf9f9b9" y="195.536992188"/>
      </g>
     </g>
     <g id="line2d_30">
      <g>
       <use style="fill:#262626;stroke:#262626;" x="272.91296875" xlink:href="#m74bbf9f9b9" y="195.536992188"/>
      </g>
     </g>
     <g id="text_12">
      <!-- google -->
      <defs>
       <path d="M 6.390625 0 
L 6.390625 71.578125 
L 15.1875 71.578125 
L 15.1875 0 
z
" id="ArialMT-6c"/>
      </defs>
      <g style="fill:#262626;" transform="translate(67.26765625 198.063554688)scale(0.1 -0.1)">
       <use xlink:href="#ArialMT-67"/>
       <use x="55.615234375" xlink:href="#ArialMT-6f"/>
       <use x="111.23046875" xlink:href="#ArialMT-6f"/>
       <use x="166.845703125" xlink:href="#ArialMT-67"/>
       <use x="222.4609375" xlink:href="#ArialMT-6c"/>
       <use x="244.677734375" xlink:href="#ArialMT-65"/>
      </g>
     </g>
    </g>
    <g id="ytick_7">
     <g id="line2d_31">
      <g>
       <use style="fill:#262626;stroke:#262626;" x="104.29421875" xlink:href="#m74bbf9f9b9" y="227.282695313"/>
      </g>
     </g>
     <g id="line2d_32">
      <g>
       <use style="fill:#262626;stroke:#262626;" x="272.91296875" xlink:href="#m74bbf9f9b9" y="227.282695313"/>
      </g>
     </g>
     <g id="text_13">
      <!-- instagram -->
      <g style="fill:#262626;" transform="translate(53.39109375 229.809257813)scale(0.1 -0.1)">
       <use xlink:href="#ArialMT-69"/>
       <use x="22.216796875" xlink:href="#ArialMT-6e"/>
       <use x="77.83203125" xlink:href="#ArialMT-73"/>
       <use x="127.83203125" xlink:href="#ArialMT-74"/>
       <use x="155.615234375" xlink:href="#ArialMT-61"/>
       <use x="211.23046875" xlink:href="#ArialMT-67"/>
       <use x="266.845703125" xlink:href="#ArialMT-72"/>
       <use x="300.146484375" xlink:href="#ArialMT-61"/>
       <use x="355.76171875" xlink:href="#ArialMT-6d"/>
      </g>
     </g>
    </g>
    <g id="ytick_8">
     <g id="line2d_33">
      <g>
       <use style="fill:#262626;stroke:#262626;" x="104.29421875" xlink:href="#m74bbf9f9b9" y="259.028398438"/>
      </g>
     </g>
     <g id="line2d_34">
      <g>
       <use style="fill:#262626;stroke:#262626;" x="272.91296875" xlink:href="#m74bbf9f9b9" y="259.028398438"/>
      </g>
     </g>
     <g id="text_14">
      <!-- messenger -->
      <g style="fill:#262626;" transform="translate(47.83015625 261.496367188)scale(0.1 -0.1)">
       <use xlink:href="#ArialMT-6d"/>
       <use x="83.30078125" xlink:href="#ArialMT-65"/>
       <use x="138.916015625" xlink:href="#ArialMT-73"/>
       <use x="188.916015625" xlink:href="#ArialMT-73"/>
       <use x="238.916015625" xlink:href="#ArialMT-65"/>
       <use x="294.53125" xlink:href="#ArialMT-6e"/>
       <use x="350.146484375" xlink:href="#ArialMT-67"/>
       <use x="405.76171875" xlink:href="#ArialMT-65"/>
       <use x="461.376953125" xlink:href="#ArialMT-72"/>
      </g>
     </g>
    </g>
    <g id="ytick_9">
     <g id="line2d_35">
      <g>
       <use style="fill:#262626;stroke:#262626;" x="104.29421875" xlink:href="#m74bbf9f9b9" y="290.774101563"/>
      </g>
     </g>
     <g id="line2d_36">
      <g>
       <use style="fill:#262626;stroke:#262626;" x="272.91296875" xlink:href="#m74bbf9f9b9" y="290.774101563"/>
      </g>
     </g>
     <g id="text_15">
      <!-- pinterest -->
      <defs>
       <path d="M 6.59375 -19.875 
L 6.59375 51.859375 
L 14.59375 51.859375 
L 14.59375 45.125 
Q 17.4375 49.078125 21 51.046875 
Q 24.5625 53.03125 29.640625 53.03125 
Q 36.28125 53.03125 41.359375 49.609375 
Q 46.4375 46.1875 49.015625 39.953125 
Q 51.609375 33.734375 51.609375 26.3125 
Q 51.609375 18.359375 48.75 11.984375 
Q 45.90625 5.609375 40.453125 2.21875 
Q 35.015625 -1.171875 29 -1.171875 
Q 24.609375 -1.171875 21.109375 0.6875 
Q 17.625 2.546875 15.375 5.375 
L 15.375 -19.875 
z
M 14.546875 25.640625 
Q 14.546875 15.625 18.59375 10.84375 
Q 22.65625 6.0625 28.421875 6.0625 
Q 34.28125 6.0625 38.453125 11.015625 
Q 42.625 15.96875 42.625 26.375 
Q 42.625 36.28125 38.546875 41.203125 
Q 34.46875 46.140625 28.8125 46.140625 
Q 23.1875 46.140625 18.859375 40.890625 
Q 14.546875 35.640625 14.546875 25.640625 
" id="ArialMT-70"/>
      </defs>
      <g style="fill:#262626;" transform="translate(58.94265625 293.359257813)scale(0.1 -0.1)">
       <use xlink:href="#ArialMT-70"/>
       <use x="55.615234375" xlink:href="#ArialMT-69"/>
       <use x="77.83203125" xlink:href="#ArialMT-6e"/>
       <use x="133.447265625" xlink:href="#ArialMT-74"/>
       <use x="161.23046875" xlink:href="#ArialMT-65"/>
       <use x="216.845703125" xlink:href="#ArialMT-72"/>
       <use x="250.146484375" xlink:href="#ArialMT-65"/>
       <use x="305.76171875" xlink:href="#ArialMT-73"/>
       <use x="355.76171875" xlink:href="#ArialMT-74"/>
      </g>
     </g>
    </g>
    <g id="ytick_10">
     <g id="line2d_37">
      <g>
       <use style="fill:#262626;stroke:#262626;" x="104.29421875" xlink:href="#m74bbf9f9b9" y="322.519804688"/>
      </g>
     </g>
     <g id="line2d_38">
      <g>
       <use style="fill:#262626;stroke:#262626;" x="272.91296875" xlink:href="#m74bbf9f9b9" y="322.519804688"/>
      </g>
     </g>
     <g id="text_16">
      <!-- slickdeals -->
      <g style="fill:#262626;" transform="translate(53.94578125 325.104960938)scale(0.1 -0.1)">
       <use xlink:href="#ArialMT-73"/>
       <use x="50.0" xlink:href="#ArialMT-6c"/>
       <use x="72.216796875" xlink:href="#ArialMT-69"/>
       <use x="94.43359375" xlink:href="#ArialMT-63"/>
       <use x="144.43359375" xlink:href="#ArialMT-6b"/>
       <use x="194.43359375" xlink:href="#ArialMT-64"/>
       <use x="250.048828125" xlink:href="#ArialMT-65"/>
       <use x="305.6640625" xlink:href="#ArialMT-61"/>
       <use x="361.279296875" xlink:href="#ArialMT-6c"/>
       <use x="383.49609375" xlink:href="#ArialMT-73"/>
      </g>
     </g>
    </g>
    <g id="ytick_11">
     <g id="line2d_39">
      <g>
       <use style="fill:#262626;stroke:#262626;" x="104.29421875" xlink:href="#m74bbf9f9b9" y="354.265507813"/>
      </g>
     </g>
     <g id="line2d_40">
      <g>
       <use style="fill:#262626;stroke:#262626;" x="272.91296875" xlink:href="#m74bbf9f9b9" y="354.265507813"/>
      </g>
     </g>
     <g id="text_17">
      <!-- twitter -->
      <defs>
       <path d="M 16.15625 0 
L 0.296875 51.859375 
L 9.375 51.859375 
L 17.625 21.921875 
L 20.703125 10.796875 
Q 20.90625 11.625 23.390625 21.484375 
L 31.640625 51.859375 
L 40.671875 51.859375 
L 48.4375 21.78125 
L 51.03125 11.859375 
L 54 21.875 
L 62.890625 51.859375 
L 71.4375 51.859375 
L 55.21875 0 
L 46.09375 0 
L 37.84375 31.0625 
L 35.84375 39.890625 
L 25.34375 0 
z
" id="ArialMT-77"/>
      </defs>
      <g style="fill:#262626;" transform="translate(70.62546875 356.850664063)scale(0.1 -0.1)">
       <use xlink:href="#ArialMT-74"/>
       <use x="27.783203125" xlink:href="#ArialMT-77"/>
       <use x="100.0" xlink:href="#ArialMT-69"/>
       <use x="122.216796875" xlink:href="#ArialMT-74"/>
       <use x="150.0" xlink:href="#ArialMT-74"/>
       <use x="177.783203125" xlink:href="#ArialMT-65"/>
       <use x="233.3984375" xlink:href="#ArialMT-72"/>
      </g>
     </g>
    </g>
    <g id="ytick_12">
     <g id="line2d_41">
      <g>
       <use style="fill:#262626;stroke:#262626;" x="104.29421875" xlink:href="#m74bbf9f9b9" y="386.011210938"/>
      </g>
     </g>
     <g id="line2d_42">
      <g>
       <use style="fill:#262626;stroke:#262626;" x="272.91296875" xlink:href="#m74bbf9f9b9" y="386.011210938"/>
      </g>
     </g>
     <g id="text_18">
      <!-- youtube -->
      <defs>
       <path d="M 40.578125 0 
L 40.578125 7.625 
Q 34.515625 -1.171875 24.125 -1.171875 
Q 19.53125 -1.171875 15.546875 0.578125 
Q 11.578125 2.34375 9.640625 5 
Q 7.71875 7.671875 6.9375 11.53125 
Q 6.390625 14.109375 6.390625 19.734375 
L 6.390625 51.859375 
L 15.1875 51.859375 
L 15.1875 23.09375 
Q 15.1875 16.21875 15.71875 13.8125 
Q 16.546875 10.359375 19.234375 8.375 
Q 21.921875 6.390625 25.875 6.390625 
Q 29.828125 6.390625 33.296875 8.421875 
Q 36.765625 10.453125 38.203125 13.9375 
Q 39.65625 17.4375 39.65625 24.078125 
L 39.65625 51.859375 
L 48.4375 51.859375 
L 48.4375 0 
z
" id="ArialMT-75"/>
      </defs>
      <g style="fill:#262626;" transform="translate(61.71140625 388.537773438)scale(0.1 -0.1)">
       <use xlink:href="#ArialMT-79"/>
       <use x="50.0" xlink:href="#ArialMT-6f"/>
       <use x="105.615234375" xlink:href="#ArialMT-75"/>
       <use x="161.23046875" xlink:href="#ArialMT-74"/>
       <use x="189.013671875" xlink:href="#ArialMT-75"/>
       <use x="244.62890625" xlink:href="#ArialMT-62"/>
       <use x="300.244140625" xlink:href="#ArialMT-65"/>
      </g>
     </g>
    </g>
    <g id="text_19">
     <!-- referral-site -->
     <defs>
      <path d="M 3.171875 21.484375 
L 3.171875 30.328125 
L 30.171875 30.328125 
L 30.171875 21.484375 
z
" id="ArialMT-2d"/>
     </defs>
     <g style="fill:#262626;" transform="translate(15.07359375 239.21921875)rotate(-90.0)scale(0.11 -0.11)">
      <use xlink:href="#ArialMT-72"/>
      <use x="33.30078125" xlink:href="#ArialMT-65"/>
      <use x="88.916015625" xlink:href="#ArialMT-66"/>
      <use x="116.69921875" xlink:href="#ArialMT-65"/>
      <use x="172.314453125" xlink:href="#ArialMT-72"/>
      <use x="205.615234375" xlink:href="#ArialMT-72"/>
      <use x="238.916015625" xlink:href="#ArialMT-61"/>
      <use x="294.53125" xlink:href="#ArialMT-6c"/>
      <use x="316.748046875" xlink:href="#ArialMT-2d"/>
      <use x="350.048828125" xlink:href="#ArialMT-73"/>
      <use x="400.048828125" xlink:href="#ArialMT-69"/>
      <use x="422.265625" xlink:href="#ArialMT-74"/>
      <use x="450.048828125" xlink:href="#ArialMT-65"/>
     </g>
    </g>
   </g>
   <g id="patch_3">
    <path clip-path="url(#p2edc6c6ec9)" d="M 104.294219 24.110195 
L 237.503031 24.110195 
L 237.503031 49.506758 
L 104.294219 49.506758 
z
" style="fill:#759adc;stroke:#000000;stroke-linejoin:miter;stroke-width:0.3;"/>
   </g>
   <g id="patch_4">
    <path clip-path="url(#p2edc6c6ec9)" d="M 104.294219 55.855898 
L 249.306344 55.855898 
L 249.306344 81.252461 
L 104.294219 81.252461 
z
" style="fill:#759adc;stroke:#000000;stroke-linejoin:miter;stroke-width:0.3;"/>
   </g>
   <g id="patch_5">
    <path clip-path="url(#p2edc6c6ec9)" d="M 104.294219 87.601602 
L 242.561594 87.601602 
L 242.561594 112.998164 
L 104.294219 112.998164 
z
" style="fill:#759adc;stroke:#000000;stroke-linejoin:miter;stroke-width:0.3;"/>
   </g>
   <g id="patch_6">
    <path clip-path="url(#p2edc6c6ec9)" d="M 104.294219 119.347305 
L 271.226781 119.347305 
L 271.226781 144.743867 
L 104.294219 144.743867 
z
" style="fill:#759adc;stroke:#000000;stroke-linejoin:miter;stroke-width:0.3;"/>
   </g>
   <g id="patch_7">
    <path clip-path="url(#p2edc6c6ec9)" d="M 104.294219 151.093008 
L 254.364906 151.093008 
L 254.364906 176.48957 
L 104.294219 176.48957 
z
" style="fill:#759adc;stroke:#000000;stroke-linejoin:miter;stroke-width:0.3;"/>
   </g>
   <g id="patch_8">
    <path clip-path="url(#p2edc6c6ec9)" d="M 104.294219 182.838711 
L 230.758281 182.838711 
L 230.758281 208.235273 
L 104.294219 208.235273 
z
" style="fill:#759adc;stroke:#000000;stroke-linejoin:miter;stroke-width:0.3;"/>
   </g>
   <g id="patch_9">
    <path clip-path="url(#p2edc6c6ec9)" d="M 104.294219 214.584414 
L 256.051094 214.584414 
L 256.051094 239.980977 
L 104.294219 239.980977 
z
" style="fill:#759adc;stroke:#000000;stroke-linejoin:miter;stroke-width:0.3;"/>
   </g>
   <g id="patch_10">
    <path clip-path="url(#p2edc6c6ec9)" d="M 104.294219 246.330117 
L 218.954969 246.330117 
L 218.954969 271.72668 
L 104.294219 271.72668 
z
" style="fill:#759adc;stroke:#000000;stroke-linejoin:miter;stroke-width:0.3;"/>
   </g>
   <g id="patch_11">
    <path clip-path="url(#p2edc6c6ec9)" d="M 104.294219 278.07582 
L 249.306344 278.07582 
L 249.306344 303.472383 
L 104.294219 303.472383 
z
" style="fill:#759adc;stroke:#000000;stroke-linejoin:miter;stroke-width:0.3;"/>
   </g>
   <g id="patch_12">
    <path clip-path="url(#p2edc6c6ec9)" d="M 104.294219 309.821523 
L 237.503031 309.821523 
L 237.503031 335.218086 
L 104.294219 335.218086 
z
" style="fill:#759adc;stroke:#000000;stroke-linejoin:miter;stroke-width:0.3;"/>
   </g>
   <g id="patch_13">
    <path clip-path="url(#p2edc6c6ec9)" d="M 104.294219 341.567227 
L 254.364906 341.567227 
L 254.364906 366.963789 
L 104.294219 366.963789 
z
" style="fill:#759adc;stroke:#000000;stroke-linejoin:miter;stroke-width:0.3;"/>
   </g>
   <g id="patch_14">
    <path clip-path="url(#p2edc6c6ec9)" d="M 104.294219 373.31293 
L 235.816844 373.31293 
L 235.816844 398.709492 
L 104.294219 398.709492 
z
" style="fill:#759adc;stroke:#000000;stroke-linejoin:miter;stroke-width:0.3;"/>
   </g>
   <g id="line2d_43">
    <path clip-path="url(#p2edc6c6ec9)" style="fill:none;stroke:#424242;stroke-linecap:round;stroke-width:3.15;"/>
   </g>
   <g id="line2d_44">
    <path clip-path="url(#p2edc6c6ec9)" style="fill:none;stroke:#424242;stroke-linecap:round;stroke-width:3.15;"/>
   </g>
   <g id="line2d_45">
    <path clip-path="url(#p2edc6c6ec9)" style="fill:none;stroke:#424242;stroke-linecap:round;stroke-width:3.15;"/>
   </g>
   <g id="line2d_46">
    <path clip-path="url(#p2edc6c6ec9)" style="fill:none;stroke:#424242;stroke-linecap:round;stroke-width:3.15;"/>
   </g>
   <g id="line2d_47">
    <path clip-path="url(#p2edc6c6ec9)" style="fill:none;stroke:#424242;stroke-linecap:round;stroke-width:3.15;"/>
   </g>
   <g id="line2d_48">
    <path clip-path="url(#p2edc6c6ec9)" style="fill:none;stroke:#424242;stroke-linecap:round;stroke-width:3.15;"/>
   </g>
   <g id="line2d_49">
    <path clip-path="url(#p2edc6c6ec9)" style="fill:none;stroke:#424242;stroke-linecap:round;stroke-width:3.15;"/>
   </g>
   <g id="line2d_50">
    <path clip-path="url(#p2edc6c6ec9)" style="fill:none;stroke:#424242;stroke-linecap:round;stroke-width:3.15;"/>
   </g>
   <g id="line2d_51">
    <path clip-path="url(#p2edc6c6ec9)" style="fill:none;stroke:#424242;stroke-linecap:round;stroke-width:3.15;"/>
   </g>
   <g id="line2d_52">
    <path clip-path="url(#p2edc6c6ec9)" style="fill:none;stroke:#424242;stroke-linecap:round;stroke-width:3.15;"/>
   </g>
   <g id="line2d_53">
    <path clip-path="url(#p2edc6c6ec9)" style="fill:none;stroke:#424242;stroke-linecap:round;stroke-width:3.15;"/>
   </g>
   <g id="line2d_54">
    <path clip-path="url(#p2edc6c6ec9)" style="fill:none;stroke:#424242;stroke-linecap:round;stroke-width:3.15;"/>
   </g>
   <g id="patch_15">
    <path d="M 104.294219 20.935625 
L 272.912969 20.935625 
" style="fill:none;stroke:#cccccc;stroke-linecap:square;stroke-linejoin:miter;"/>
   </g>
   <g id="patch_16">
    <path d="M 104.294219 401.884063 
L 104.294219 20.935625 
" style="fill:none;stroke:#cccccc;stroke-linecap:square;stroke-linejoin:miter;"/>
   </g>
   <g id="patch_17">
    <path d="M 104.294219 401.884063 
L 272.912969 401.884063 
" style="fill:none;stroke:#cccccc;stroke-linecap:square;stroke-linejoin:miter;"/>
   </g>
   <g id="patch_18">
    <path d="M 272.912969 401.884063 
L 272.912969 20.935625 
" style="fill:none;stroke:#cccccc;stroke-linecap:square;stroke-linejoin:miter;"/>
   </g>
   <g id="text_20">
    <!-- refferal-site total visits -->
    <g style="fill:#262626;" transform="translate(130.59109375 15.935625)scale(0.12 -0.12)">
     <use xlink:href="#ArialMT-72"/>
     <use x="33.30078125" xlink:href="#ArialMT-65"/>
     <use x="88.916015625" xlink:href="#ArialMT-66"/>
     <use x="116.68359375" xlink:href="#ArialMT-66"/>
     <use x="144.466796875" xlink:href="#ArialMT-65"/>
     <use x="200.08203125" xlink:href="#ArialMT-72"/>
     <use x="233.3828125" xlink:href="#ArialMT-61"/>
     <use x="288.998046875" xlink:href="#ArialMT-6c"/>
     <use x="311.21484375" xlink:href="#ArialMT-2d"/>
     <use x="344.515625" xlink:href="#ArialMT-73"/>
     <use x="394.515625" xlink:href="#ArialMT-69"/>
     <use x="416.732421875" xlink:href="#ArialMT-74"/>
     <use x="444.515625" xlink:href="#ArialMT-65"/>
     <use x="500.130859375" xlink:href="#ArialMT-20"/>
     <use x="527.9140625" xlink:href="#ArialMT-74"/>
     <use x="555.697265625" xlink:href="#ArialMT-6f"/>
     <use x="611.3125" xlink:href="#ArialMT-74"/>
     <use x="639.095703125" xlink:href="#ArialMT-61"/>
     <use x="694.7109375" xlink:href="#ArialMT-6c"/>
     <use x="716.927734375" xlink:href="#ArialMT-20"/>
     <use x="744.7109375" xlink:href="#ArialMT-76"/>
     <use x="794.7109375" xlink:href="#ArialMT-69"/>
     <use x="816.927734375" xlink:href="#ArialMT-73"/>
     <use x="866.927734375" xlink:href="#ArialMT-69"/>
     <use x="889.14453125" xlink:href="#ArialMT-74"/>
     <use x="916.927734375" xlink:href="#ArialMT-73"/>
    </g>
   </g>
  </g>
  <g id="axes_2">
   <g id="patch_19">
    <path d="M 388.300469 401.884063 
L 556.919219 401.884063 
L 556.919219 20.935625 
L 388.300469 20.935625 
z
" style="fill:#ffffff;"/>
   </g>
   <g id="matplotlib.axis_3">
    <g id="xtick_7">
     <g id="line2d_55">
      <path clip-path="url(#pfb01a35cb1)" d="M 388.300469 401.884063 
L 388.300469 20.935625 
" style="fill:none;stroke:#cccccc;stroke-linecap:round;"/>
     </g>
     <g id="line2d_56">
      <g>
       <use style="fill:#262626;stroke:#262626;" x="388.30046875" xlink:href="#m74bbf9f9b9" y="401.8840625"/>
      </g>
     </g>
     <g id="line2d_57">
      <g>
       <use style="fill:#262626;stroke:#262626;" x="388.30046875" xlink:href="#m74bbf9f9b9" y="20.935625"/>
      </g>
     </g>
     <g id="text_21">
      <!-- 0 -->
      <g style="fill:#262626;" transform="translate(385.52 416.041875)scale(0.1 -0.1)">
       <use xlink:href="#ArialMT-30"/>
      </g>
     </g>
    </g>
    <g id="xtick_8">
     <g id="line2d_58">
      <path clip-path="url(#pfb01a35cb1)" d="M 416.403594 401.884063 
L 416.403594 20.935625 
" style="fill:none;stroke:#cccccc;stroke-linecap:round;"/>
     </g>
     <g id="line2d_59">
      <g>
       <use style="fill:#262626;stroke:#262626;" x="416.40359375" xlink:href="#m74bbf9f9b9" y="401.8840625"/>
      </g>
     </g>
     <g id="line2d_60">
      <g>
       <use style="fill:#262626;stroke:#262626;" x="416.40359375" xlink:href="#m74bbf9f9b9" y="20.935625"/>
      </g>
     </g>
     <g id="text_22">
      <!-- 10 -->
      <g style="fill:#262626;" transform="translate(410.84265625 416.041875)scale(0.1 -0.1)">
       <use xlink:href="#ArialMT-31"/>
       <use x="55.615234375" xlink:href="#ArialMT-30"/>
      </g>
     </g>
    </g>
    <g id="xtick_9">
     <g id="line2d_61">
      <path clip-path="url(#pfb01a35cb1)" d="M 444.506719 401.884063 
L 444.506719 20.935625 
" style="fill:none;stroke:#cccccc;stroke-linecap:round;"/>
     </g>
     <g id="line2d_62">
      <g>
       <use style="fill:#262626;stroke:#262626;" x="444.50671875" xlink:href="#m74bbf9f9b9" y="401.8840625"/>
      </g>
     </g>
     <g id="line2d_63">
      <g>
       <use style="fill:#262626;stroke:#262626;" x="444.50671875" xlink:href="#m74bbf9f9b9" y="20.935625"/>
      </g>
     </g>
     <g id="text_23">
      <!-- 20 -->
      <g style="fill:#262626;" transform="translate(438.94578125 416.041875)scale(0.1 -0.1)">
       <use xlink:href="#ArialMT-32"/>
       <use x="55.615234375" xlink:href="#ArialMT-30"/>
      </g>
     </g>
    </g>
    <g id="xtick_10">
     <g id="line2d_64">
      <path clip-path="url(#pfb01a35cb1)" d="M 472.609844 401.884063 
L 472.609844 20.935625 
" style="fill:none;stroke:#cccccc;stroke-linecap:round;"/>
     </g>
     <g id="line2d_65">
      <g>
       <use style="fill:#262626;stroke:#262626;" x="472.60984375" xlink:href="#m74bbf9f9b9" y="401.8840625"/>
      </g>
     </g>
     <g id="line2d_66">
      <g>
       <use style="fill:#262626;stroke:#262626;" x="472.60984375" xlink:href="#m74bbf9f9b9" y="20.935625"/>
      </g>
     </g>
     <g id="text_24">
      <!-- 30 -->
      <defs>
       <path d="M 4.203125 18.890625 
L 12.984375 20.0625 
Q 14.5 12.59375 18.140625 9.296875 
Q 21.78125 6 27 6 
Q 33.203125 6 37.46875 10.296875 
Q 41.75 14.59375 41.75 20.953125 
Q 41.75 27 37.796875 30.921875 
Q 33.84375 34.859375 27.734375 34.859375 
Q 25.25 34.859375 21.53125 33.890625 
L 22.515625 41.609375 
Q 23.390625 41.5 23.921875 41.5 
Q 29.546875 41.5 34.03125 44.421875 
Q 38.53125 47.359375 38.53125 53.46875 
Q 38.53125 58.296875 35.25 61.46875 
Q 31.984375 64.65625 26.8125 64.65625 
Q 21.6875 64.65625 18.265625 61.421875 
Q 14.84375 58.203125 13.875 51.765625 
L 5.078125 53.328125 
Q 6.6875 62.15625 12.390625 67.015625 
Q 18.109375 71.875 26.609375 71.875 
Q 32.46875 71.875 37.390625 69.359375 
Q 42.328125 66.84375 44.9375 62.5 
Q 47.5625 58.15625 47.5625 53.265625 
Q 47.5625 48.640625 45.0625 44.828125 
Q 42.578125 41.015625 37.703125 38.765625 
Q 44.046875 37.3125 47.5625 32.6875 
Q 51.078125 28.078125 51.078125 21.140625 
Q 51.078125 11.765625 44.234375 5.25 
Q 37.40625 -1.265625 26.953125 -1.265625 
Q 17.53125 -1.265625 11.296875 4.34375 
Q 5.078125 9.96875 4.203125 18.890625 
" id="ArialMT-33"/>
      </defs>
      <g style="fill:#262626;" transform="translate(467.04890625 416.041875)scale(0.1 -0.1)">
       <use xlink:href="#ArialMT-33"/>
       <use x="55.615234375" xlink:href="#ArialMT-30"/>
      </g>
     </g>
    </g>
    <g id="xtick_11">
     <g id="line2d_67">
      <path clip-path="url(#pfb01a35cb1)" d="M 500.712969 401.884063 
L 500.712969 20.935625 
" style="fill:none;stroke:#cccccc;stroke-linecap:round;"/>
     </g>
     <g id="line2d_68">
      <g>
       <use style="fill:#262626;stroke:#262626;" x="500.71296875" xlink:href="#m74bbf9f9b9" y="401.8840625"/>
      </g>
     </g>
     <g id="line2d_69">
      <g>
       <use style="fill:#262626;stroke:#262626;" x="500.71296875" xlink:href="#m74bbf9f9b9" y="20.935625"/>
      </g>
     </g>
     <g id="text_25">
      <!-- 40 -->
      <g style="fill:#262626;" transform="translate(495.15203125 416.041875)scale(0.1 -0.1)">
       <use xlink:href="#ArialMT-34"/>
       <use x="55.615234375" xlink:href="#ArialMT-30"/>
      </g>
     </g>
    </g>
    <g id="xtick_12">
     <g id="line2d_70">
      <path clip-path="url(#pfb01a35cb1)" d="M 528.816094 401.884063 
L 528.816094 20.935625 
" style="fill:none;stroke:#cccccc;stroke-linecap:round;"/>
     </g>
     <g id="line2d_71">
      <g>
       <use style="fill:#262626;stroke:#262626;" x="528.81609375" xlink:href="#m74bbf9f9b9" y="401.8840625"/>
      </g>
     </g>
     <g id="line2d_72">
      <g>
       <use style="fill:#262626;stroke:#262626;" x="528.81609375" xlink:href="#m74bbf9f9b9" y="20.935625"/>
      </g>
     </g>
     <g id="text_26">
      <!-- 50 -->
      <defs>
       <path d="M 4.15625 18.75 
L 13.375 19.53125 
Q 14.40625 12.796875 18.140625 9.390625 
Q 21.875 6 27.15625 6 
Q 33.5 6 37.890625 10.78125 
Q 42.28125 15.578125 42.28125 23.484375 
Q 42.28125 31 38.0625 35.34375 
Q 33.84375 39.703125 27 39.703125 
Q 22.75 39.703125 19.328125 37.765625 
Q 15.921875 35.84375 13.96875 32.765625 
L 5.71875 33.84375 
L 12.640625 70.609375 
L 48.25 70.609375 
L 48.25 62.203125 
L 19.671875 62.203125 
L 15.828125 42.96875 
Q 22.265625 47.46875 29.34375 47.46875 
Q 38.71875 47.46875 45.15625 40.96875 
Q 51.609375 34.46875 51.609375 24.265625 
Q 51.609375 14.546875 45.953125 7.46875 
Q 39.0625 -1.21875 27.15625 -1.21875 
Q 17.390625 -1.21875 11.203125 4.25 
Q 5.03125 9.71875 4.15625 18.75 
" id="ArialMT-35"/>
      </defs>
      <g style="fill:#262626;" transform="translate(523.25515625 416.041875)scale(0.1 -0.1)">
       <use xlink:href="#ArialMT-35"/>
       <use x="55.615234375" xlink:href="#ArialMT-30"/>
      </g>
     </g>
    </g>
    <g id="xtick_13">
     <g id="line2d_73">
      <path clip-path="url(#pfb01a35cb1)" d="M 556.919219 401.884063 
L 556.919219 20.935625 
" style="fill:none;stroke:#cccccc;stroke-linecap:round;"/>
     </g>
     <g id="line2d_74">
      <g>
       <use style="fill:#262626;stroke:#262626;" x="556.91921875" xlink:href="#m74bbf9f9b9" y="401.8840625"/>
      </g>
     </g>
     <g id="line2d_75">
      <g>
       <use style="fill:#262626;stroke:#262626;" x="556.91921875" xlink:href="#m74bbf9f9b9" y="20.935625"/>
      </g>
     </g>
     <g id="text_27">
      <!-- 60 -->
      <g style="fill:#262626;" transform="translate(551.35828125 416.041875)scale(0.1 -0.1)">
       <use xlink:href="#ArialMT-36"/>
       <use x="55.615234375" xlink:href="#ArialMT-30"/>
      </g>
     </g>
    </g>
   </g>
   <g id="matplotlib.axis_4">
    <g id="ytick_13">
     <g id="line2d_76">
      <g>
       <use style="fill:#262626;stroke:#262626;" x="388.30046875" xlink:href="#m74bbf9f9b9" y="36.8084765625"/>
      </g>
     </g>
     <g id="line2d_77">
      <g>
       <use style="fill:#262626;stroke:#262626;" x="556.91921875" xlink:href="#m74bbf9f9b9" y="36.8084765625"/>
      </g>
     </g>
     <g id="text_28">
      <!-- amazon -->
      <g style="fill:#262626;" transform="translate(345.72703125 39.3936328125)scale(0.1 -0.1)">
       <use xlink:href="#ArialMT-61"/>
       <use x="55.615234375" xlink:href="#ArialMT-6d"/>
       <use x="138.916015625" xlink:href="#ArialMT-61"/>
       <use x="194.53125" xlink:href="#ArialMT-7a"/>
       <use x="244.53125" xlink:href="#ArialMT-6f"/>
       <use x="300.146484375" xlink:href="#ArialMT-6e"/>
      </g>
     </g>
    </g>
    <g id="ytick_14">
     <g id="line2d_78">
      <g>
       <use style="fill:#262626;stroke:#262626;" x="388.30046875" xlink:href="#m74bbf9f9b9" y="68.5541796875"/>
      </g>
     </g>
     <g id="line2d_79">
      <g>
       <use style="fill:#262626;stroke:#262626;" x="556.91921875" xlink:href="#m74bbf9f9b9" y="68.5541796875"/>
      </g>
     </g>
     <g id="text_29">
      <!-- discovery -->
      <g style="fill:#262626;" transform="translate(339.06609375 71.0807421875)scale(0.1 -0.1)">
       <use xlink:href="#ArialMT-64"/>
       <use x="55.615234375" xlink:href="#ArialMT-69"/>
       <use x="77.83203125" xlink:href="#ArialMT-73"/>
       <use x="127.83203125" xlink:href="#ArialMT-63"/>
       <use x="177.83203125" xlink:href="#ArialMT-6f"/>
       <use x="233.447265625" xlink:href="#ArialMT-76"/>
       <use x="283.447265625" xlink:href="#ArialMT-65"/>
       <use x="339.0625" xlink:href="#ArialMT-72"/>
       <use x="372.36328125" xlink:href="#ArialMT-79"/>
      </g>
     </g>
    </g>
    <g id="ytick_15">
     <g id="line2d_80">
      <g>
       <use style="fill:#262626;stroke:#262626;" x="388.30046875" xlink:href="#m74bbf9f9b9" y="100.299882813"/>
      </g>
     </g>
     <g id="line2d_81">
      <g>
       <use style="fill:#262626;stroke:#262626;" x="556.91921875" xlink:href="#m74bbf9f9b9" y="100.299882813"/>
      </g>
     </g>
     <g id="text_30">
      <!-- ebates -->
      <g style="fill:#262626;" transform="translate(351.27859375 102.885039063)scale(0.1 -0.1)">
       <use xlink:href="#ArialMT-65"/>
       <use x="55.615234375" xlink:href="#ArialMT-62"/>
       <use x="111.23046875" xlink:href="#ArialMT-61"/>
       <use x="166.845703125" xlink:href="#ArialMT-74"/>
       <use x="194.62890625" xlink:href="#ArialMT-65"/>
       <use x="250.244140625" xlink:href="#ArialMT-73"/>
      </g>
     </g>
    </g>
    <g id="ytick_16">
     <g id="line2d_82">
      <g>
       <use style="fill:#262626;stroke:#262626;" x="388.30046875" xlink:href="#m74bbf9f9b9" y="132.045585938"/>
      </g>
     </g>
     <g id="line2d_83">
      <g>
       <use style="fill:#262626;stroke:#262626;" x="556.91921875" xlink:href="#m74bbf9f9b9" y="132.045585938"/>
      </g>
     </g>
     <g id="text_31">
      <!-- facebook -->
      <g style="fill:#262626;" transform="translate(340.71765625 134.630742188)scale(0.1 -0.1)">
       <use xlink:href="#ArialMT-66"/>
       <use x="27.783203125" xlink:href="#ArialMT-61"/>
       <use x="83.3984375" xlink:href="#ArialMT-63"/>
       <use x="133.3984375" xlink:href="#ArialMT-65"/>
       <use x="189.013671875" xlink:href="#ArialMT-62"/>
       <use x="244.62890625" xlink:href="#ArialMT-6f"/>
       <use x="300.244140625" xlink:href="#ArialMT-6f"/>
       <use x="355.859375" xlink:href="#ArialMT-6b"/>
      </g>
     </g>
    </g>
    <g id="ytick_17">
     <g id="line2d_84">
      <g>
       <use style="fill:#262626;stroke:#262626;" x="388.30046875" xlink:href="#m74bbf9f9b9" y="163.791289063"/>
      </g>
     </g>
     <g id="line2d_85">
      <g>
       <use style="fill:#262626;stroke:#262626;" x="556.91921875" xlink:href="#m74bbf9f9b9" y="163.791289063"/>
      </g>
     </g>
     <g id="text_32">
      <!-- fitness magazine -->
      <g style="fill:#262626;" transform="translate(306.26609375 166.378789063)scale(0.1 -0.1)">
       <use xlink:href="#ArialMT-66"/>
       <use x="27.783203125" xlink:href="#ArialMT-69"/>
       <use x="50.0" xlink:href="#ArialMT-74"/>
       <use x="77.783203125" xlink:href="#ArialMT-6e"/>
       <use x="133.3984375" xlink:href="#ArialMT-65"/>
       <use x="189.013671875" xlink:href="#ArialMT-73"/>
       <use x="239.013671875" xlink:href="#ArialMT-73"/>
       <use x="289.013671875" xlink:href="#ArialMT-20"/>
       <use x="316.796875" xlink:href="#ArialMT-6d"/>
       <use x="400.09765625" xlink:href="#ArialMT-61"/>
       <use x="455.712890625" xlink:href="#ArialMT-67"/>
       <use x="511.328125" xlink:href="#ArialMT-61"/>
       <use x="566.943359375" xlink:href="#ArialMT-7a"/>
       <use x="616.943359375" xlink:href="#ArialMT-69"/>
       <use x="639.16015625" xlink:href="#ArialMT-6e"/>
       <use x="694.775390625" xlink:href="#ArialMT-65"/>
      </g>
     </g>
    </g>
    <g id="ytick_18">
     <g id="line2d_86">
      <g>
       <use style="fill:#262626;stroke:#262626;" x="388.30046875" xlink:href="#m74bbf9f9b9" y="195.536992188"/>
      </g>
     </g>
     <g id="line2d_87">
      <g>
       <use style="fill:#262626;stroke:#262626;" x="556.91921875" xlink:href="#m74bbf9f9b9" y="195.536992188"/>
      </g>
     </g>
     <g id="text_33">
      <!-- google -->
      <g style="fill:#262626;" transform="translate(351.27390625 198.063554688)scale(0.1 -0.1)">
       <use xlink:href="#ArialMT-67"/>
       <use x="55.615234375" xlink:href="#ArialMT-6f"/>
       <use x="111.23046875" xlink:href="#ArialMT-6f"/>
       <use x="166.845703125" xlink:href="#ArialMT-67"/>
       <use x="222.4609375" xlink:href="#ArialMT-6c"/>
       <use x="244.677734375" xlink:href="#ArialMT-65"/>
      </g>
     </g>
    </g>
    <g id="ytick_19">
     <g id="line2d_88">
      <g>
       <use style="fill:#262626;stroke:#262626;" x="388.30046875" xlink:href="#m74bbf9f9b9" y="227.282695313"/>
      </g>
     </g>
     <g id="line2d_89">
      <g>
       <use style="fill:#262626;stroke:#262626;" x="556.91921875" xlink:href="#m74bbf9f9b9" y="227.282695313"/>
      </g>
     </g>
     <g id="text_34">
      <!-- instagram -->
      <g style="fill:#262626;" transform="translate(337.39734375 229.809257813)scale(0.1 -0.1)">
       <use xlink:href="#ArialMT-69"/>
       <use x="22.216796875" xlink:href="#ArialMT-6e"/>
       <use x="77.83203125" xlink:href="#ArialMT-73"/>
       <use x="127.83203125" xlink:href="#ArialMT-74"/>
       <use x="155.615234375" xlink:href="#ArialMT-61"/>
       <use x="211.23046875" xlink:href="#ArialMT-67"/>
       <use x="266.845703125" xlink:href="#ArialMT-72"/>
       <use x="300.146484375" xlink:href="#ArialMT-61"/>
       <use x="355.76171875" xlink:href="#ArialMT-6d"/>
      </g>
     </g>
    </g>
    <g id="ytick_20">
     <g id="line2d_90">
      <g>
       <use style="fill:#262626;stroke:#262626;" x="388.30046875" xlink:href="#m74bbf9f9b9" y="259.028398438"/>
      </g>
     </g>
     <g id="line2d_91">
      <g>
       <use style="fill:#262626;stroke:#262626;" x="556.91921875" xlink:href="#m74bbf9f9b9" y="259.028398438"/>
      </g>
     </g>
     <g id="text_35">
      <!-- messenger -->
      <g style="fill:#262626;" transform="translate(331.83640625 261.496367188)scale(0.1 -0.1)">
       <use xlink:href="#ArialMT-6d"/>
       <use x="83.30078125" xlink:href="#ArialMT-65"/>
       <use x="138.916015625" xlink:href="#ArialMT-73"/>
       <use x="188.916015625" xlink:href="#ArialMT-73"/>
       <use x="238.916015625" xlink:href="#ArialMT-65"/>
       <use x="294.53125" xlink:href="#ArialMT-6e"/>
       <use x="350.146484375" xlink:href="#ArialMT-67"/>
       <use x="405.76171875" xlink:href="#ArialMT-65"/>
       <use x="461.376953125" xlink:href="#ArialMT-72"/>
      </g>
     </g>
    </g>
    <g id="ytick_21">
     <g id="line2d_92">
      <g>
       <use style="fill:#262626;stroke:#262626;" x="388.30046875" xlink:href="#m74bbf9f9b9" y="290.774101563"/>
      </g>
     </g>
     <g id="line2d_93">
      <g>
       <use style="fill:#262626;stroke:#262626;" x="556.91921875" xlink:href="#m74bbf9f9b9" y="290.774101563"/>
      </g>
     </g>
     <g id="text_36">
      <!-- pinterest -->
      <g style="fill:#262626;" transform="translate(342.94890625 293.359257813)scale(0.1 -0.1)">
       <use xlink:href="#ArialMT-70"/>
       <use x="55.615234375" xlink:href="#ArialMT-69"/>
       <use x="77.83203125" xlink:href="#ArialMT-6e"/>
       <use x="133.447265625" xlink:href="#ArialMT-74"/>
       <use x="161.23046875" xlink:href="#ArialMT-65"/>
       <use x="216.845703125" xlink:href="#ArialMT-72"/>
       <use x="250.146484375" xlink:href="#ArialMT-65"/>
       <use x="305.76171875" xlink:href="#ArialMT-73"/>
       <use x="355.76171875" xlink:href="#ArialMT-74"/>
      </g>
     </g>
    </g>
    <g id="ytick_22">
     <g id="line2d_94">
      <g>
       <use style="fill:#262626;stroke:#262626;" x="388.30046875" xlink:href="#m74bbf9f9b9" y="322.519804688"/>
      </g>
     </g>
     <g id="line2d_95">
      <g>
       <use style="fill:#262626;stroke:#262626;" x="556.91921875" xlink:href="#m74bbf9f9b9" y="322.519804688"/>
      </g>
     </g>
     <g id="text_37">
      <!-- slickdeals -->
      <g style="fill:#262626;" transform="translate(337.95203125 325.104960938)scale(0.1 -0.1)">
       <use xlink:href="#ArialMT-73"/>
       <use x="50.0" xlink:href="#ArialMT-6c"/>
       <use x="72.216796875" xlink:href="#ArialMT-69"/>
       <use x="94.43359375" xlink:href="#ArialMT-63"/>
       <use x="144.43359375" xlink:href="#ArialMT-6b"/>
       <use x="194.43359375" xlink:href="#ArialMT-64"/>
       <use x="250.048828125" xlink:href="#ArialMT-65"/>
       <use x="305.6640625" xlink:href="#ArialMT-61"/>
       <use x="361.279296875" xlink:href="#ArialMT-6c"/>
       <use x="383.49609375" xlink:href="#ArialMT-73"/>
      </g>
     </g>
    </g>
    <g id="ytick_23">
     <g id="line2d_96">
      <g>
       <use style="fill:#262626;stroke:#262626;" x="388.30046875" xlink:href="#m74bbf9f9b9" y="354.265507813"/>
      </g>
     </g>
     <g id="line2d_97">
      <g>
       <use style="fill:#262626;stroke:#262626;" x="556.91921875" xlink:href="#m74bbf9f9b9" y="354.265507813"/>
      </g>
     </g>
     <g id="text_38">
      <!-- twitter -->
      <g style="fill:#262626;" transform="translate(354.63171875 356.850664063)scale(0.1 -0.1)">
       <use xlink:href="#ArialMT-74"/>
       <use x="27.783203125" xlink:href="#ArialMT-77"/>
       <use x="100.0" xlink:href="#ArialMT-69"/>
       <use x="122.216796875" xlink:href="#ArialMT-74"/>
       <use x="150.0" xlink:href="#ArialMT-74"/>
       <use x="177.783203125" xlink:href="#ArialMT-65"/>
       <use x="233.3984375" xlink:href="#ArialMT-72"/>
      </g>
     </g>
    </g>
    <g id="ytick_24">
     <g id="line2d_98">
      <g>
       <use style="fill:#262626;stroke:#262626;" x="388.30046875" xlink:href="#m74bbf9f9b9" y="386.011210938"/>
      </g>
     </g>
     <g id="line2d_99">
      <g>
       <use style="fill:#262626;stroke:#262626;" x="556.91921875" xlink:href="#m74bbf9f9b9" y="386.011210938"/>
      </g>
     </g>
     <g id="text_39">
      <!-- youtube -->
      <g style="fill:#262626;" transform="translate(345.71765625 388.537773438)scale(0.1 -0.1)">
       <use xlink:href="#ArialMT-79"/>
       <use x="50.0" xlink:href="#ArialMT-6f"/>
       <use x="105.615234375" xlink:href="#ArialMT-75"/>
       <use x="161.23046875" xlink:href="#ArialMT-74"/>
       <use x="189.013671875" xlink:href="#ArialMT-75"/>
       <use x="244.62890625" xlink:href="#ArialMT-62"/>
       <use x="300.244140625" xlink:href="#ArialMT-65"/>
      </g>
     </g>
    </g>
    <g id="text_40">
     <!-- referral-site -->
     <g style="fill:#262626;" transform="translate(299.07984375 239.21921875)rotate(-90.0)scale(0.11 -0.11)">
      <use xlink:href="#ArialMT-72"/>
      <use x="33.30078125" xlink:href="#ArialMT-65"/>
      <use x="88.916015625" xlink:href="#ArialMT-66"/>
      <use x="116.69921875" xlink:href="#ArialMT-65"/>
      <use x="172.314453125" xlink:href="#ArialMT-72"/>
      <use x="205.615234375" xlink:href="#ArialMT-72"/>
      <use x="238.916015625" xlink:href="#ArialMT-61"/>
      <use x="294.53125" xlink:href="#ArialMT-6c"/>
      <use x="316.748046875" xlink:href="#ArialMT-2d"/>
      <use x="350.048828125" xlink:href="#ArialMT-73"/>
      <use x="400.048828125" xlink:href="#ArialMT-69"/>
      <use x="422.265625" xlink:href="#ArialMT-74"/>
      <use x="450.048828125" xlink:href="#ArialMT-65"/>
     </g>
    </g>
   </g>
   <g id="patch_20">
    <path clip-path="url(#pfb01a35cb1)" d="M 388.300469 24.110195 
L 481.040781 24.110195 
L 481.040781 36.808477 
L 388.300469 36.808477 
z
" style="fill:#5875a4;stroke:#000000;stroke-linejoin:miter;stroke-width:0.3;"/>
   </g>
   <g id="patch_21">
    <path clip-path="url(#pfb01a35cb1)" d="M 388.300469 55.855898 
L 523.195469 55.855898 
L 523.195469 68.55418 
L 388.300469 68.55418 
z
" style="fill:#5875a4;stroke:#000000;stroke-linejoin:miter;stroke-width:0.3;"/>
   </g>
   <g id="patch_22">
    <path clip-path="url(#pfb01a35cb1)" d="M 388.300469 87.601602 
L 506.333594 87.601602 
L 506.333594 100.299883 
L 388.300469 100.299883 
z
" style="fill:#5875a4;stroke:#000000;stroke-linejoin:miter;stroke-width:0.3;"/>
   </g>
   <g id="patch_23">
    <path clip-path="url(#pfb01a35cb1)" d="M 388.300469 119.347305 
L 531.626406 119.347305 
L 531.626406 132.045586 
L 388.300469 132.045586 
z
" style="fill:#5875a4;stroke:#000000;stroke-linejoin:miter;stroke-width:0.3;"/>
   </g>
   <g id="patch_24">
    <path clip-path="url(#pfb01a35cb1)" d="M 388.300469 151.093008 
L 506.333594 151.093008 
L 506.333594 163.791289 
L 388.300469 163.791289 
z
" style="fill:#5875a4;stroke:#000000;stroke-linejoin:miter;stroke-width:0.3;"/>
   </g>
   <g id="patch_25">
    <path clip-path="url(#pfb01a35cb1)" d="M 388.300469 182.838711 
L 464.178906 182.838711 
L 464.178906 195.536992 
L 388.300469 195.536992 
z
" style="fill:#5875a4;stroke:#000000;stroke-linejoin:miter;stroke-width:0.3;"/>
   </g>
   <g id="patch_26">
    <path clip-path="url(#pfb01a35cb1)" d="M 388.300469 214.584414 
L 511.954219 214.584414 
L 511.954219 227.282695 
L 388.300469 227.282695 
z
" style="fill:#5875a4;stroke:#000000;stroke-linejoin:miter;stroke-width:0.3;"/>
   </g>
   <g id="patch_27">
    <path clip-path="url(#pfb01a35cb1)" d="M 388.300469 246.330117 
L 492.282031 246.330117 
L 492.282031 259.028398 
L 388.300469 259.028398 
z
" style="fill:#5875a4;stroke:#000000;stroke-linejoin:miter;stroke-width:0.3;"/>
   </g>
   <g id="patch_28">
    <path clip-path="url(#pfb01a35cb1)" d="M 388.300469 278.07582 
L 478.230469 278.07582 
L 478.230469 290.774102 
L 388.300469 290.774102 
z
" style="fill:#5875a4;stroke:#000000;stroke-linejoin:miter;stroke-width:0.3;"/>
   </g>
   <g id="patch_29">
    <path clip-path="url(#pfb01a35cb1)" d="M 388.300469 309.821523 
L 481.040781 309.821523 
L 481.040781 322.519805 
L 388.300469 322.519805 
z
" style="fill:#5875a4;stroke:#000000;stroke-linejoin:miter;stroke-width:0.3;"/>
   </g>
   <g id="patch_30">
    <path clip-path="url(#pfb01a35cb1)" d="M 388.300469 341.567227 
L 503.523281 341.567227 
L 503.523281 354.265508 
L 388.300469 354.265508 
z
" style="fill:#5875a4;stroke:#000000;stroke-linejoin:miter;stroke-width:0.3;"/>
   </g>
   <g id="patch_31">
    <path clip-path="url(#pfb01a35cb1)" d="M 388.300469 373.31293 
L 475.420156 373.31293 
L 475.420156 386.011211 
L 388.300469 386.011211 
z
" style="fill:#5875a4;stroke:#000000;stroke-linejoin:miter;stroke-width:0.3;"/>
   </g>
   <g id="patch_32">
    <path clip-path="url(#pfb01a35cb1)" d="M 388.300469 36.808477 
L 517.574844 36.808477 
L 517.574844 49.506758 
L 388.300469 49.506758 
z
" style="fill:#5f9e6e;stroke:#000000;stroke-linejoin:miter;stroke-width:0.3;"/>
   </g>
   <g id="patch_33">
    <path clip-path="url(#pfb01a35cb1)" d="M 388.300469 68.55418 
L 495.092344 68.55418 
L 495.092344 81.252461 
L 388.300469 81.252461 
z
" style="fill:#5f9e6e;stroke:#000000;stroke-linejoin:miter;stroke-width:0.3;"/>
   </g>
   <g id="patch_34">
    <path clip-path="url(#pfb01a35cb1)" d="M 388.300469 100.299883 
L 500.712969 100.299883 
L 500.712969 112.998164 
L 388.300469 112.998164 
z
" style="fill:#5f9e6e;stroke:#000000;stroke-linejoin:miter;stroke-width:0.3;"/>
   </g>
   <g id="patch_35">
    <path clip-path="url(#pfb01a35cb1)" d="M 388.300469 132.045586 
L 523.195469 132.045586 
L 523.195469 144.743867 
L 388.300469 144.743867 
z
" style="fill:#5f9e6e;stroke:#000000;stroke-linejoin:miter;stroke-width:0.3;"/>
   </g>
   <g id="patch_36">
    <path clip-path="url(#pfb01a35cb1)" d="M 388.300469 163.791289 
L 520.385156 163.791289 
L 520.385156 176.48957 
L 388.300469 176.48957 
z
" style="fill:#5f9e6e;stroke:#000000;stroke-linejoin:miter;stroke-width:0.3;"/>
   </g>
   <g id="patch_37">
    <path clip-path="url(#pfb01a35cb1)" d="M 388.300469 195.536992 
L 523.195469 195.536992 
L 523.195469 208.235273 
L 388.300469 208.235273 
z
" style="fill:#5f9e6e;stroke:#000000;stroke-linejoin:miter;stroke-width:0.3;"/>
   </g>
   <g id="patch_38">
    <path clip-path="url(#pfb01a35cb1)" d="M 388.300469 227.282695 
L 517.574844 227.282695 
L 517.574844 239.980977 
L 388.300469 239.980977 
z
" style="fill:#5f9e6e;stroke:#000000;stroke-linejoin:miter;stroke-width:0.3;"/>
   </g>
   <g id="patch_39">
    <path clip-path="url(#pfb01a35cb1)" d="M 388.300469 259.028398 
L 475.420156 259.028398 
L 475.420156 271.72668 
L 388.300469 271.72668 
z
" style="fill:#5f9e6e;stroke:#000000;stroke-linejoin:miter;stroke-width:0.3;"/>
   </g>
   <g id="patch_40">
    <path clip-path="url(#pfb01a35cb1)" d="M 388.300469 290.774102 
L 540.057344 290.774102 
L 540.057344 303.472383 
L 388.300469 303.472383 
z
" style="fill:#5f9e6e;stroke:#000000;stroke-linejoin:miter;stroke-width:0.3;"/>
   </g>
   <g id="patch_41">
    <path clip-path="url(#pfb01a35cb1)" d="M 388.300469 322.519805 
L 517.574844 322.519805 
L 517.574844 335.218086 
L 388.300469 335.218086 
z
" style="fill:#5f9e6e;stroke:#000000;stroke-linejoin:miter;stroke-width:0.3;"/>
   </g>
   <g id="patch_42">
    <path clip-path="url(#pfb01a35cb1)" d="M 388.300469 354.265508 
L 523.195469 354.265508 
L 523.195469 366.963789 
L 388.300469 366.963789 
z
" style="fill:#5f9e6e;stroke:#000000;stroke-linejoin:miter;stroke-width:0.3;"/>
   </g>
   <g id="patch_43">
    <path clip-path="url(#pfb01a35cb1)" d="M 388.300469 386.011211 
L 520.385156 386.011211 
L 520.385156 398.709492 
L 388.300469 398.709492 
z
" style="fill:#5f9e6e;stroke:#000000;stroke-linejoin:miter;stroke-width:0.3;"/>
   </g>
   <g id="line2d_100">
    <path clip-path="url(#pfb01a35cb1)" style="fill:none;stroke:#424242;stroke-linecap:round;stroke-width:3.15;"/>
   </g>
   <g id="line2d_101">
    <path clip-path="url(#pfb01a35cb1)" style="fill:none;stroke:#424242;stroke-linecap:round;stroke-width:3.15;"/>
   </g>
   <g id="line2d_102">
    <path clip-path="url(#pfb01a35cb1)" style="fill:none;stroke:#424242;stroke-linecap:round;stroke-width:3.15;"/>
   </g>
   <g id="line2d_103">
    <path clip-path="url(#pfb01a35cb1)" style="fill:none;stroke:#424242;stroke-linecap:round;stroke-width:3.15;"/>
   </g>
   <g id="line2d_104">
    <path clip-path="url(#pfb01a35cb1)" style="fill:none;stroke:#424242;stroke-linecap:round;stroke-width:3.15;"/>
   </g>
   <g id="line2d_105">
    <path clip-path="url(#pfb01a35cb1)" style="fill:none;stroke:#424242;stroke-linecap:round;stroke-width:3.15;"/>
   </g>
   <g id="line2d_106">
    <path clip-path="url(#pfb01a35cb1)" style="fill:none;stroke:#424242;stroke-linecap:round;stroke-width:3.15;"/>
   </g>
   <g id="line2d_107">
    <path clip-path="url(#pfb01a35cb1)" style="fill:none;stroke:#424242;stroke-linecap:round;stroke-width:3.15;"/>
   </g>
   <g id="line2d_108">
    <path clip-path="url(#pfb01a35cb1)" style="fill:none;stroke:#424242;stroke-linecap:round;stroke-width:3.15;"/>
   </g>
   <g id="line2d_109">
    <path clip-path="url(#pfb01a35cb1)" style="fill:none;stroke:#424242;stroke-linecap:round;stroke-width:3.15;"/>
   </g>
   <g id="line2d_110">
    <path clip-path="url(#pfb01a35cb1)" style="fill:none;stroke:#424242;stroke-linecap:round;stroke-width:3.15;"/>
   </g>
   <g id="line2d_111">
    <path clip-path="url(#pfb01a35cb1)" style="fill:none;stroke:#424242;stroke-linecap:round;stroke-width:3.15;"/>
   </g>
   <g id="line2d_112">
    <path clip-path="url(#pfb01a35cb1)" style="fill:none;stroke:#424242;stroke-linecap:round;stroke-width:3.15;"/>
   </g>
   <g id="line2d_113">
    <path clip-path="url(#pfb01a35cb1)" style="fill:none;stroke:#424242;stroke-linecap:round;stroke-width:3.15;"/>
   </g>
   <g id="line2d_114">
    <path clip-path="url(#pfb01a35cb1)" style="fill:none;stroke:#424242;stroke-linecap:round;stroke-width:3.15;"/>
   </g>
   <g id="line2d_115">
    <path clip-path="url(#pfb01a35cb1)" style="fill:none;stroke:#424242;stroke-linecap:round;stroke-width:3.15;"/>
   </g>
   <g id="line2d_116">
    <path clip-path="url(#pfb01a35cb1)" style="fill:none;stroke:#424242;stroke-linecap:round;stroke-width:3.15;"/>
   </g>
   <g id="line2d_117">
    <path clip-path="url(#pfb01a35cb1)" style="fill:none;stroke:#424242;stroke-linecap:round;stroke-width:3.15;"/>
   </g>
   <g id="line2d_118">
    <path clip-path="url(#pfb01a35cb1)" style="fill:none;stroke:#424242;stroke-linecap:round;stroke-width:3.15;"/>
   </g>
   <g id="line2d_119">
    <path clip-path="url(#pfb01a35cb1)" style="fill:none;stroke:#424242;stroke-linecap:round;stroke-width:3.15;"/>
   </g>
   <g id="line2d_120">
    <path clip-path="url(#pfb01a35cb1)" style="fill:none;stroke:#424242;stroke-linecap:round;stroke-width:3.15;"/>
   </g>
   <g id="line2d_121">
    <path clip-path="url(#pfb01a35cb1)" style="fill:none;stroke:#424242;stroke-linecap:round;stroke-width:3.15;"/>
   </g>
   <g id="line2d_122">
    <path clip-path="url(#pfb01a35cb1)" style="fill:none;stroke:#424242;stroke-linecap:round;stroke-width:3.15;"/>
   </g>
   <g id="line2d_123">
    <path clip-path="url(#pfb01a35cb1)" style="fill:none;stroke:#424242;stroke-linecap:round;stroke-width:3.15;"/>
   </g>
   <g id="patch_44">
    <path d="M 388.300469 20.935625 
L 556.919219 20.935625 
" style="fill:none;stroke:#cccccc;stroke-linecap:square;stroke-linejoin:miter;"/>
   </g>
   <g id="patch_45">
    <path d="M 388.300469 401.884063 
L 388.300469 20.935625 
" style="fill:none;stroke:#cccccc;stroke-linecap:square;stroke-linejoin:miter;"/>
   </g>
   <g id="patch_46">
    <path d="M 388.300469 401.884063 
L 556.919219 401.884063 
" style="fill:none;stroke:#cccccc;stroke-linecap:square;stroke-linejoin:miter;"/>
   </g>
   <g id="patch_47">
    <path d="M 556.919219 401.884063 
L 556.919219 20.935625 
" style="fill:none;stroke:#cccccc;stroke-linecap:square;stroke-linejoin:miter;"/>
   </g>
   <g id="text_41">
    <!-- referral-site by referral-type -->
    <g style="fill:#262626;" transform="translate(400.26109375 15.935625)scale(0.12 -0.12)">
     <use xlink:href="#ArialMT-72"/>
     <use x="33.30078125" xlink:href="#ArialMT-65"/>
     <use x="88.916015625" xlink:href="#ArialMT-66"/>
     <use x="116.69921875" xlink:href="#ArialMT-65"/>
     <use x="172.314453125" xlink:href="#ArialMT-72"/>
     <use x="205.615234375" xlink:href="#ArialMT-72"/>
     <use x="238.916015625" xlink:href="#ArialMT-61"/>
     <use x="294.53125" xlink:href="#ArialMT-6c"/>
     <use x="316.748046875" xlink:href="#ArialMT-2d"/>
     <use x="350.048828125" xlink:href="#ArialMT-73"/>
     <use x="400.048828125" xlink:href="#ArialMT-69"/>
     <use x="422.265625" xlink:href="#ArialMT-74"/>
     <use x="450.048828125" xlink:href="#ArialMT-65"/>
     <use x="505.6640625" xlink:href="#ArialMT-20"/>
     <use x="533.447265625" xlink:href="#ArialMT-62"/>
     <use x="589.0625" xlink:href="#ArialMT-79"/>
     <use x="639.0625" xlink:href="#ArialMT-20"/>
     <use x="666.845703125" xlink:href="#ArialMT-72"/>
     <use x="700.146484375" xlink:href="#ArialMT-65"/>
     <use x="755.76171875" xlink:href="#ArialMT-66"/>
     <use x="783.544921875" xlink:href="#ArialMT-65"/>
     <use x="839.16015625" xlink:href="#ArialMT-72"/>
     <use x="872.4609375" xlink:href="#ArialMT-72"/>
     <use x="905.76171875" xlink:href="#ArialMT-61"/>
     <use x="961.376953125" xlink:href="#ArialMT-6c"/>
     <use x="983.59375" xlink:href="#ArialMT-2d"/>
     <use x="1016.89453125" xlink:href="#ArialMT-74"/>
     <use x="1044.677734375" xlink:href="#ArialMT-79"/>
     <use x="1094.677734375" xlink:href="#ArialMT-70"/>
     <use x="1150.29296875" xlink:href="#ArialMT-65"/>
    </g>
   </g>
   <g id="legend_1">
    <g id="patch_48">
     <path d="M 571.433281 54.484375 
L 591.433281 54.484375 
L 591.433281 47.484375 
L 571.433281 47.484375 
z
" style="fill:#5875a4;stroke:#000000;stroke-linejoin:miter;stroke-width:0.3;"/>
    </g>
    <g id="text_42">
     <!-- organic -->
     <g style="fill:#262626;" transform="translate(599.43328125 54.484375)scale(0.1 -0.1)">
      <use xlink:href="#ArialMT-6f"/>
      <use x="55.615234375" xlink:href="#ArialMT-72"/>
      <use x="88.916015625" xlink:href="#ArialMT-67"/>
      <use x="144.53125" xlink:href="#ArialMT-61"/>
      <use x="200.146484375" xlink:href="#ArialMT-6e"/>
      <use x="255.76171875" xlink:href="#ArialMT-69"/>
      <use x="277.978515625" xlink:href="#ArialMT-63"/>
     </g>
    </g>
    <g id="patch_49">
     <path d="M 571.433281 68.746875 
L 591.433281 68.746875 
L 591.433281 61.746875 
L 571.433281 61.746875 
z
" style="fill:#5f9e6e;stroke:#000000;stroke-linejoin:miter;stroke-width:0.3;"/>
    </g>
    <g id="text_43">
     <!-- paid -->
     <g style="fill:#262626;" transform="translate(599.43328125 68.746875)scale(0.1 -0.1)">
      <use xlink:href="#ArialMT-70"/>
      <use x="55.615234375" xlink:href="#ArialMT-61"/>
      <use x="111.23046875" xlink:href="#ArialMT-69"/>
      <use x="133.447265625" xlink:href="#ArialMT-64"/>
     </g>
    </g>
   </g>
  </g>
 </g>
 <defs>
  <clipPath id="p2edc6c6ec9">
   <rect height="380.9484375" width="168.61875" x="104.29421875" y="20.935625"/>
  </clipPath>
  <clipPath id="pfb01a35cb1">
   <rect height="380.9484375" width="168.61875" x="388.30046875" y="20.935625"/>
  </clipPath>
 </defs>
</svg>
